<?xml version="1.0" standalone="no"?>
<!DOCTYPE svg PUBLIC "-//W3C//DTD SVG 1.1//EN" "http://www.w3.org/Graphics/SVG/1.1/DTD/svg11.dtd" >
<svg xmlns="http://www.w3.org/2000/svg" xmlns:xlink="http://www.w3.org/1999/xlink" version="1.1">
<metadata></metadata>
<defs>
<font id="webfontregular" horiz-adv-x="1179" >
<font-face units-per-em="2048" ascent="1536" descent="-512" />
<missing-glyph horiz-adv-x="491" />
<glyph unicode="&#xfb01;" horiz-adv-x="1269" d="M98 805l35 199h189l22 124q29 158 145.5 248t292.5 90q88 0 185.5 -25.5t189.5 -64.5l-86 -188q-72 31 -138.5 52.5t-129.5 21.5q-78 0 -133.5 -42t-67.5 -112l-18 -104h639l-176 -1004h-263l142 805h-377l-143 -805h-263l144 805h-189z" />
<glyph unicode="&#xfb02;" horiz-adv-x="1368" d="M96 805l37 199h189l22 124q29 160 145.5 249t303.5 89q115 0 239.5 -25.5t255.5 -60.5l-190 -1081q-2 -10 -3 -21.5t-1 -19.5q0 -35 22.5 -54.5t57.5 -19.5q23 0 42 3t37 8l13 -201q-47 -8 -92.5 -13.5t-86.5 -5.5q-119 0 -189.5 64.5t-70.5 171.5q0 35 7 76l167 942 q-51 14 -102 23.5t-100 9.5q-78 0 -131.5 -42t-65.5 -112l-18 -104h243l-36 -199h-244l-141 -805h-263l142 805h-189z" />
<glyph unicode="&#xfb03;" horiz-adv-x="1941" d="M96 805l37 199h189l28 167q25 135 123 215t244 80q53 0 116.5 -12t129.5 -35l-78 -194q-37 14 -72 23t-65 9q-53 0 -92.5 -33.5t-49.5 -86.5l-22 -133h409l25 124q29 158 145.5 248t292.5 90q88 0 184.5 -25.5t188.5 -64.5l-84 -188q-72 31 -138.5 52.5t-129.5 21.5 q-78 0 -133.5 -42t-67.5 -112l-21 -104h641l-176 -1004h-262l141 805h-378l-142 -805h-262l141 805h-411l-141 -805h-263l142 805h-189z" />
<glyph unicode="&#xfb04;" horiz-adv-x="2039" d="M96 805l37 199h189l28 167q25 135 123 215t244 80q53 0 116.5 -12t129.5 -35l-78 -194q-37 14 -72 23t-65 9q-53 0 -92.5 -33.5t-49.5 -86.5l-22 -133h409l25 124q29 160 144.5 249t303.5 89q113 0 238 -25.5t258 -60.5l-190 -1081q-6 -23 -7 -41q0 -35 22.5 -54.5 t59.5 -19.5q23 0 42.5 3t37.5 8l12 -201q-47 -8 -92 -13.5t-86 -5.5q-121 0 -190.5 64.5t-69.5 171.5q0 35 6 76l168 942q-51 14 -102 23.5t-100 9.5q-80 0 -132.5 -42t-64.5 -112l-21 -104h246l-37 -199h-243l-142 -805h-262l141 805h-411l-141 -805h-263l142 805h-189z " />
<glyph horiz-adv-x="0" />
<glyph horiz-adv-x="0" />
<glyph unicode="&#xd;" horiz-adv-x="491" />
<glyph unicode=" "  horiz-adv-x="491" />
<glyph unicode="&#x09;" horiz-adv-x="491" />
<glyph unicode="&#xa0;" horiz-adv-x="491" />
<glyph unicode="!" horiz-adv-x="575" d="M57 119q0 78 54.5 132t132.5 54q63 0 102 -39t39 -100q0 -80 -54.5 -134.5t-131.5 -54.5q-63 0 -102.5 40.5t-39.5 101.5zM164 457l139 919h264l-184 -919h-219z" />
<glyph unicode="&#x22;" horiz-adv-x="909" d="M205 879l65 497h242l-109 -497h-198zM637 879l65 497h242l-109 -497h-198z" />
<glyph unicode="#" horiz-adv-x="1351" d="M0 322l35 200h244l122 332h-206l34 201h244l127 340l191 -29l-113 -311h330l125 340l192 -29l-115 -311h205l-35 -201h-243l-121 -332h205l-35 -200h-244l-125 -340l-192 28l114 312h-331l-125 -340l-193 28l115 312h-205zM481 522h332l121 332h-330z" />
<glyph unicode="$" d="M86 186l88 195q104 -49 202.5 -73.5t176.5 -24.5q92 0 149.5 45t57.5 112q0 49 -40 80t-98.5 54.5t-128 47t-128 61.5t-98.5 95.5t-40 149.5q0 76 29 139t81 110.5t123.5 78t157.5 40.5l62 342h221l-63 -350q72 -10 147.5 -30.5t149.5 -55.5l-88 -196 q-100 43 -191.5 65.5t-163.5 22.5q-92 0 -144 -43t-52 -107q0 -49 38.5 -76.5t98 -50t128 -46t128 -61.5t98.5 -98.5t39 -154.5q0 -80 -29.5 -145.5t-82 -115t-127 -79t-162.5 -37.5l-60 -342h-221l62 348q-78 12 -160 35.5t-160 64.5z" />
<glyph unicode="%" horiz-adv-x="1769" d="M160 958q0 94 30.5 176.5t86 140.5t133 92t170.5 34q145 0 231 -80t86 -215q0 -96 -30.5 -177t-86 -139.5t-133.5 -92t-170 -33.5q-145 0 -231 80.5t-86 213.5zM219 55l1276 1381l121 -115l-1276 -1380zM354 973q0 -72 37 -114t103 -42q45 0 82.5 20.5t65.5 57.5t44 87 t16 110q0 72 -37.5 113.5t-101.5 41.5q-45 0 -84 -20.5t-66.5 -57t-43 -87t-15.5 -109.5zM936 270q0 94 30.5 176t86 140.5t133.5 92.5t170 34q147 0 233 -80t86 -215q0 -96 -30.5 -177t-86 -139.5t-133 -92.5t-170.5 -34q-145 0 -232 81t-87 214zM1130 285q0 -72 38 -114 t104 -42q45 0 83 20.5t65.5 57.5t44 87t16.5 109q0 72 -38 114t-102 42q-45 0 -83.5 -20.5t-66.5 -57.5t-44.5 -87t-16.5 -109z" />
<glyph unicode="&#x26;" horiz-adv-x="1308" d="M37 322q0 137 95 254.5t269 191.5q-51 66 -78.5 131.5t-27.5 124.5q0 84 30.5 153.5t87 119t135.5 77t175 27.5q76 0 137.5 -20.5t105.5 -57.5t68.5 -90t24.5 -117q0 -117 -87 -216t-263 -177l209 -287q80 109 104 240h215q-23 -117 -74 -219.5t-125 -186.5l201 -270 h-276l-99 133q-98 -78 -206.5 -118t-215.5 -40q-92 0 -166.5 26t-128 72t-82 109.5t-28.5 139.5zM283 362q0 -82 56 -135t150 -53q63 0 133 31t130 84l-244 334q-106 -47 -165.5 -115t-59.5 -146zM530 1034q0 -41 21.5 -87t56.5 -89q106 49 163.5 104.5t57.5 120.5 q0 53 -34.5 86t-94.5 33q-74 0 -122 -48t-48 -120z" />
<glyph unicode="'" horiz-adv-x="477" d="M205 879l65 497h242l-109 -497h-198z" />
<glyph unicode="(" horiz-adv-x="718" d="M137 416q4 315 135 601t377 515l170 -129q-209 -205 -322.5 -460t-117.5 -523q-4 -172 38 -335t128 -304l-189 -117q-111 166 -166 354.5t-53 397.5z" />
<glyph unicode=")" horiz-adv-x="718" d="M-66 -207q207 205 321 459t118 522q4 174 -38 337t-128 304l190 117q221 -332 217 -752q-4 -315 -135 -600.5t-375 -515.5z" />
<glyph unicode="*" horiz-adv-x="1024" d="M184 758l260 184l-260 184l107 142l252 -183l98 297l168 -55l-96 -297h313v-178h-313l96 -297l-168 -55l-98 299l-252 -185z" />
<glyph unicode="+" d="M92 479v221h402v402h221v-402h401v-221h-401v-401h-221v401h-402z" />
<glyph unicode="," horiz-adv-x="542" d="M-35 -225q72 47 121 100t72 115q-53 4 -85 38t-32 91q0 80 53 133t133 53q68 0 106 -45t38 -123q0 -133 -89 -257t-249 -208z" />
<glyph unicode="-" horiz-adv-x="655" d="M29 414l37 200h565l-35 -200h-567z" />
<glyph unicode="." horiz-adv-x="542" d="M41 119q0 78 54.5 132t131.5 54q63 0 102.5 -39t39.5 -100q0 -80 -54.5 -134.5t-132.5 -54.5q-63 0 -102 40.5t-39 101.5z" />
<glyph unicode="/" horiz-adv-x="786" d="M-150 -236l918 1727l190 -76l-917 -1726z" />
<glyph unicode="0" d="M78 494q0 193 49 358.5t135 287.5t204 191.5t257 69.5q213 0 327.5 -136.5t114.5 -381.5q0 -193 -48 -359t-134 -287.5t-205 -191.5t-258 -70q-213 0 -327.5 136.5t-114.5 382.5zM324 508q0 -152 56 -235t163 -83q80 0 148.5 53.5t119.5 145.5t80 215t29 264 q0 147 -56.5 232.5t-163.5 85.5q-80 0 -148.5 -53.5t-118.5 -145.5t-79.5 -215t-29.5 -264z" />
<glyph unicode="1" d="M252 1118l498 258h229l-242 -1376h-262l195 1112l-336 -176z" />
<glyph unicode="2" d="M10 0l33 176l571 483q98 84 154.5 161t56.5 153q0 96 -56 151.5t-159 55.5q-66 0 -144.5 -25t-166.5 -72l-80 193q248 125 469 125q92 0 166 -27.5t126 -78t81 -121t29 -156.5q0 -233 -279 -467l-405 -342h561l-37 -209h-920z" />
<glyph unicode="3" d="M16 100l101 189q96 -49 189 -77t175 -28q55 0 101.5 17.5t81 47.5t54 70.5t19.5 88.5q0 92 -70.5 147t-191.5 55h-84l35 189h98q66 0 121 16t95 45t62.5 70t22.5 88q0 78 -54 126t-146 48q-135 0 -326 -66l-59 191q123 43 235.5 63.5t222.5 20.5q180 0 284.5 -92 t104.5 -248q0 -131 -79.5 -225.5t-208.5 -133.5q100 -31 152.5 -110.5t52.5 -194.5q0 -90 -39 -166.5t-106.5 -133t-160 -89.5t-198.5 -33q-115 0 -240 32t-244 93z" />
<glyph unicode="4" d="M14 297l33 188l799 891h241l-153 -878h182l-35 -201h-182l-53 -297h-242l53 297h-643zM299 498h393l99 549z" />
<glyph unicode="5" d="M35 117l115 188q78 -53 159.5 -84t157.5 -31q63 0 119.5 19.5t96.5 53.5t63.5 80t23.5 99q0 104 -77 163t-216 59q-61 0 -124.5 -5.5t-135.5 -15.5l129 733h799l-37 -209h-567l-56 -325q27 2 53.5 3t53.5 1q100 0 180 -27.5t136.5 -78t87 -123t30.5 -160.5 q0 -102 -43 -190.5t-117.5 -153t-177 -101.5t-221.5 -37q-111 0 -220.5 37t-211.5 105z" />
<glyph unicode="6" d="M102 473q0 201 53.5 371t147.5 294t225 193.5t285 69.5q92 0 186.5 -26.5t186.5 -80.5l-105 -182q-61 39 -131.5 61.5t-146.5 22.5t-143.5 -31.5t-123 -90t-95.5 -141.5t-58 -183q61 72 145 110.5t187 38.5q86 0 157.5 -27.5t124 -80t81 -125t28.5 -160.5 q0 -111 -43 -208t-117 -169t-174 -113t-215 -41q-215 0 -335 131t-120 367zM348 430q-2 -111 60.5 -180.5t162.5 -69.5q61 0 113.5 22.5t90.5 62.5t60.5 94.5t22.5 115.5q0 106 -59.5 164.5t-161.5 58.5q-61 0 -113.5 -20.5t-91.5 -57t-61.5 -86t-22.5 -104.5z" />
<glyph unicode="7" d="M145 0l711 1167h-629l37 209h918l-33 -188l-717 -1188h-287z" />
<glyph unicode="8" d="M49 334q0 131 86 229.5t248 149.5q-88 37 -136 111.5t-48 168.5q0 88 38.5 164t108.5 129t166 84t211 31q100 0 182 -24.5t139.5 -68.5t88 -107.5t30.5 -141.5q0 -125 -77.5 -221.5t-221.5 -141.5q104 -41 160.5 -119.5t56.5 -177.5q0 -92 -42 -169.5t-115.5 -134 t-176 -88.5t-225.5 -32q-111 0 -197.5 25t-148 72t-94.5 112.5t-33 149.5zM313 367q0 -88 62.5 -140.5t167.5 -52.5q121 0 199.5 63.5t78.5 161.5q0 156 -217 211q-133 -25 -211 -88t-80 -155zM446 993q0 -74 50.5 -122.5t146.5 -71.5q123 20 194.5 79.5t71.5 147.5 q0 80 -57 128t-150 48q-55 0 -101 -16.5t-81 -44t-54.5 -66.5t-19.5 -82z" />
<glyph unicode="9" d="M59 82l105 182q63 -39 134 -61.5t146 -22.5q76 0 143.5 32t123 90t95.5 140t58 185q-63 -72 -147 -111t-187 -39q-86 0 -157.5 27.5t-123.5 80t-81 124t-29 161.5q0 111 43 208.5t117 169t174 112.5t217 41q213 0 333 -131t120 -367q0 -201 -53.5 -371t-147.5 -293.5 t-225 -193.5t-285 -70q-92 0 -186 27t-187 80zM389 901q0 -106 59.5 -164.5t159.5 -58.5q61 0 114.5 20.5t92.5 57.5t61.5 86t22.5 104q0 111 -62.5 180.5t-162.5 69.5q-59 0 -111.5 -22.5t-91.5 -62.5t-60.5 -94t-21.5 -116z" />
<glyph unicode=":" horiz-adv-x="575" d="M57 119q0 78 54.5 132t131.5 54q63 0 102.5 -39t39.5 -100q0 -80 -54.5 -134.5t-132.5 -54.5q-63 0 -102 40.5t-39 101.5zM191 838q0 78 54.5 132t131.5 54q63 0 102.5 -39t39.5 -100q0 -80 -54.5 -134.5t-132.5 -54.5q-63 0 -102 40.5t-39 101.5z" />
<glyph unicode=";" horiz-adv-x="575" d="M-19 -225q72 47 121 100t72 115q-53 4 -85 38t-32 91q0 80 53 133t133 53q68 0 106 -45t38 -123q0 -133 -89 -257t-249 -208zM191 838q0 78 54.5 132t131.5 54q63 0 102.5 -39t39.5 -100q0 -80 -54.5 -134.5t-132.5 -54.5q-63 0 -102 40.5t-39 101.5z" />
<glyph unicode="&#x3c;" d="M92 479v221l959 433l88 -209l-750 -334l750 -334l-88 -209z" />
<glyph unicode="=" d="M92 242v219h1024v-219h-1024zM92 719v219h1024v-219h-1024z" />
<glyph unicode="&#x3e;" d="M70 256l749 334l-749 334l88 209l958 -433v-221l-958 -432z" />
<glyph unicode="?" horiz-adv-x="958" d="M174 1288q207 113 416 113q178 0 277.5 -94.5t99.5 -245.5q0 -80 -29 -142.5t-72 -112.5t-94 -92t-97 -80t-81 -77t-45 -84l-4 -16h-226l7 45q10 63 40.5 113.5t72.5 92.5t87 78.5t84 72.5t63.5 74t24.5 85q0 74 -45 118t-121 44q-66 0 -131 -21.5t-137 -60.5zM231 113 q0 76 51.5 128t129.5 52q59 0 97 -37t38 -98q0 -76 -52.5 -128.5t-127.5 -52.5q-61 0 -98.5 38.5t-37.5 97.5z" />
<glyph unicode="@" horiz-adv-x="1974" d="M68 342q0 231 78.5 429t220 342t338 226t432.5 82q178 0 322.5 -52t246.5 -145.5t158.5 -224.5t56.5 -288q0 -133 -39 -253t-106.5 -209t-160.5 -141.5t-202 -52.5q-92 0 -159.5 38t-96.5 97q-57 -66 -135 -100.5t-170 -34.5q-154 0 -244 93.5t-90 252.5q0 119 34 219.5 t93.5 173t142 113.5t181.5 41q74 0 135 -30.5t98 -88.5l51 99h215l-96 -557q-2 -10 -3 -20.5t-1 -20.5q0 -41 25.5 -63.5t66.5 -22.5q51 0 95 33.5t78 93t53.5 139.5t19.5 170q0 125 -42 226.5t-119 172t-185.5 109.5t-243.5 39q-182 0 -334.5 -64.5t-263 -179.5 t-172 -273.5t-61.5 -347.5q0 -135 43 -243.5t123.5 -184t195.5 -116.5t260 -41q119 0 244 31.5t248 95.5l78 -172q-147 -74 -298 -112t-294 -38q-184 0 -336 54.5t-258.5 154.5t-164.5 240.5t-58 310.5zM784 434q0 -80 42 -128t110 -48q74 0 125 46t65 130l21 115 q2 12 4 26.5t2 24.5q0 66 -39 105.5t-104 39.5q-49 0 -90 -23.5t-72 -64.5t-47.5 -98t-16.5 -125z" />
<glyph unicode="A" horiz-adv-x="1378" d="M-84 0l803 1376h252l315 -1376h-258l-70 328h-579l-184 -328h-279zM487 526h435l-117 561z" />
<glyph unicode="B" horiz-adv-x="1335" d="M84 0l242 1376h567q186 0 286.5 -88t100.5 -241q0 -115 -59.5 -205t-163.5 -131q72 -33 117 -109t45 -184q0 -90 -37 -167t-103.5 -132.5t-155.5 -87t-194 -31.5h-645zM383 199h315q111 0 182.5 66.5t71.5 170.5q0 80 -50 129t-146 49h-301zM485 795h297q102 0 168 60 t66 155q0 78 -48 123t-134 45h-281z" />
<glyph unicode="C" horiz-adv-x="1314" d="M100 535q0 186 59.5 344.5t166 274.5t253 181.5t322.5 65.5q125 0 246 -38t229 -112l-127 -186q-82 57 -167 88t-175 31q-119 0 -216 -47t-166.5 -130t-107.5 -196t-38 -246q0 -86 28.5 -154.5t79 -116.5t121 -74.5t154.5 -26.5q88 0 179 28.5t177 79.5l86 -186 q-117 -72 -242.5 -106t-252.5 -34q-133 0 -245 40t-193 113t-126 176.5t-45 230.5z" />
<glyph unicode="D" horiz-adv-x="1460" d="M84 0l242 1376h477q143 0 259 -39t196.5 -112.5t123.5 -178t43 -235.5q0 -182 -58 -330.5t-164.5 -256t-254 -166t-325.5 -58.5h-539zM393 209h225q117 0 213.5 43t167 120t109.5 183.5t39 235.5q0 174 -106.5 275t-295.5 101h-184z" />
<glyph unicode="E" horiz-adv-x="1216" d="M84 0l242 1376h921l-35 -205h-649l-65 -366h583l-34 -201h-584l-70 -399h682l-37 -205h-954z" />
<glyph unicode="F" horiz-adv-x="1183" d="M84 0l242 1376h921l-37 -209h-649l-72 -411h584l-37 -211h-583l-97 -545h-272z" />
<glyph unicode="G" horiz-adv-x="1427" d="M100 541q0 184 60.5 341.5t168 273.5t256 180.5t324.5 64.5q254 0 498 -135l-115 -187q-92 51 -188 82t-189 31q-123 0 -223 -47t-171.5 -130t-111.5 -196.5t-40 -249.5q0 -88 29.5 -159.5t84 -121.5t130 -78t167.5 -28q61 0 117.5 11.5t108.5 31.5l59 334h-293l35 201 h545l-121 -682q-240 -102 -494 -103q-145 0 -263 41t-201 115t-128 178.5t-45 231.5z" />
<glyph unicode="H" horiz-adv-x="1542" d="M84 0l242 1376h272l-98 -567h651l100 567h273l-242 -1376h-272l104 600h-651l-107 -600h-272z" />
<glyph unicode="I" horiz-adv-x="618" d="M84 0l242 1376h272l-242 -1376h-272z" />
<glyph unicode="J" horiz-adv-x="925" d="M-43 39l78 201q55 -20 107.5 -31.5t97.5 -11.5q88 0 147 52t76 138l172 989h272l-180 -1024q-31 -174 -151.5 -275.5t-305.5 -101.5q-70 0 -149.5 16.5t-163.5 47.5z" />
<glyph unicode="K" horiz-adv-x="1378" d="M84 0l242 1376h262l-111 -626l705 626h319l-715 -639l492 -737h-301l-385 586l-166 -146l-78 -440h-264z" />
<glyph unicode="L" horiz-adv-x="1085" d="M84 0l242 1376h272l-205 -1167h596l-37 -209h-868z" />
<glyph unicode="M" horiz-adv-x="1722" d="M84 0l242 1376h247l316 -618l532 618h283l-242 -1376h-252l179 1008l-465 -535h-146l-268 524l-174 -997h-252z" />
<glyph unicode="N" horiz-adv-x="1542" d="M84 0l242 1376h258l514 -991l174 991h252l-242 -1376h-258l-514 991l-174 -991h-252z" />
<glyph unicode="O" horiz-adv-x="1542" d="M100 535q0 188 60.5 346.5t167 274.5t253 180.5t320.5 64.5q135 0 247 -40t191.5 -112.5t123.5 -176t44 -230.5q0 -188 -60.5 -347t-166.5 -275t-253.5 -180.5t-321.5 -64.5q-135 0 -247 40t-191 113t-123 176.5t-44 230.5zM379 561q0 -174 96 -272.5t256 -98.5 q106 0 197.5 47.5t158 131.5t104.5 197.5t38 248.5q0 174 -96.5 272.5t-255.5 98.5q-106 0 -197.5 -47t-158 -131t-104.5 -198t-38 -249z" />
<glyph unicode="P" horiz-adv-x="1269" d="M84 0l242 1376h526q96 0 175 -28.5t135.5 -81t87 -127t30.5 -164.5q0 -109 -41 -201t-114.5 -159.5t-174 -106.5t-217.5 -39h-305l-82 -469h-262zM465 680h248q135 0 218 74.5t83 197.5q0 98 -62.5 156.5t-173.5 58.5h-227z" />
<glyph unicode="Q" horiz-adv-x="1542" d="M100 535q0 188 60.5 346.5t167 274.5t253 180.5t320.5 64.5q135 0 247 -40t191.5 -112.5t123.5 -176t44 -230.5q0 -125 -26.5 -236.5t-75.5 -207t-118.5 -172t-156.5 -130.5l273 -219l-143 -160l-340 291q-51 -16 -104.5 -24.5t-110.5 -8.5q-135 0 -247 40t-191 113 t-123 176.5t-44 230.5zM379 561q0 -174 96 -272.5t256 -98.5q106 0 197.5 47.5t158 131.5t104.5 197.5t38 248.5q0 174 -96.5 272.5t-255.5 98.5q-106 0 -197.5 -47t-158 -131t-104.5 -198t-38 -249z" />
<glyph unicode="R" horiz-adv-x="1335" d="M84 0l242 1376h557q92 0 167.5 -27.5t129 -77.5t83 -122t29.5 -158q0 -88 -27.5 -163.5t-77.5 -136t-120 -102.5t-154 -61l267 -528h-275l-243 502h-228l-88 -502h-262zM471 713h272q125 0 203 70.5t78 185.5q0 92 -56.5 145t-158.5 53h-258z" />
<glyph unicode="S" horiz-adv-x="1187" d="M16 104l90 203q121 -59 237 -88t208 -29q123 0 194.5 54.5t71.5 142.5q0 63 -47 103t-116.5 71t-151.5 60.5t-151.5 73.5t-117 112t-47.5 174q0 90 38 167t105.5 133t162 88t204.5 32q119 0 250 -27.5t260 -85.5l-88 -205q-117 51 -221 77t-190 26q-117 0 -187.5 -52.5 t-70.5 -136.5q0 -63 47 -100t116.5 -66.5t151.5 -59.5t151.5 -75t116.5 -114.5t47 -178.5q0 -96 -37.5 -173.5t-106.5 -135t-164 -88.5t-210 -31q-127 0 -269 32t-276 97z" />
<glyph unicode="T" horiz-adv-x="1216" d="M160 1167l39 209h1126l-37 -209h-428l-205 -1167h-272l205 1167h-428z" />
<glyph unicode="U" horiz-adv-x="1542" d="M156 440q0 27 3 56.5t7 58.5l143 821h273l-144 -821q-4 -23 -6 -44.5t-2 -41.5q0 -127 82 -203t217 -76q152 0 256.5 89.5t130.5 242.5l152 854h272l-156 -874q-23 -123 -81 -221.5t-146 -166t-202.5 -103.5t-247.5 -36q-121 0 -222.5 34t-174 95.5t-113.5 146.5t-41 189 z" />
<glyph unicode="V" horiz-adv-x="1378" d="M162 1376h266l219 -1057l594 1057h291l-805 -1376h-252z" />
<glyph unicode="W" horiz-adv-x="2050" d="M186 1376h254l125 -1044l484 1044h245l127 -1044l484 1044h274l-678 -1376h-254l-127 1044l-483 -1044h-252z" />
<glyph unicode="X" horiz-adv-x="1378" d="M-74 0l637 717l-364 659h290l265 -502l436 502h309l-606 -684l385 -692h-293l-283 535l-462 -535h-314z" />
<glyph unicode="Y" horiz-adv-x="1247" d="M131 1376h285l254 -573l415 573h308l-625 -825l-96 -551h-273l99 569z" />
<glyph unicode="Z" horiz-adv-x="1286" d="M-4 0l29 162l909 1005h-709l37 209h1069l-28 -162l-912 -1005h760l-37 -209h-1118z" />
<glyph unicode="[" horiz-adv-x="718" d="M41 -283l307 1745h483l-36 -209h-242l-234 -1327h242l-37 -209h-483z" />
<glyph unicode="\" horiz-adv-x="786" d="M147 1436l213 32l306 -1724l-211 -33z" />
<glyph unicode="]" horiz-adv-x="718" d="M-82 -283l37 209h242l233 1327h-242l37 209h484l-308 -1745h-483z" />
<glyph unicode="^" d="M121 420l426 956h221l426 -956l-209 -78l-328 737l-327 -737z" />
<glyph unicode="_" horiz-adv-x="983" d="M-154 -362l37 200h983l-37 -200h-983z" />
<glyph unicode="`" horiz-adv-x="491" d="M74 1335l116 162l361 -258l-105 -143z" />
<glyph unicode="a" horiz-adv-x="1112" d="M35 266q0 166 131 262.5t356 96.5q51 0 104.5 -5.5t106.5 -15.5l8 49q2 10 3 19.5t1 17.5q0 63 -48 103.5t-134 40.5q-143 0 -315 -58l-45 185q220 67 406 67h5q86 0 156 -22.5t119 -63.5t75.5 -99.5t26.5 -127.5q0 -45 -6 -78l-70 -381q-4 -20 -4 -31q0 -51 60 -51 q10 0 20 1t21 3l4 -188q-33 -6 -67 -10.5t-66 -4.5q-78 0 -132.5 34t-72.5 93q-66 -63 -147.5 -95t-170.5 -32q-72 0 -131 22.5t-102 61.5t-67.5 92.5t-24.5 114.5zM287 301q0 -66 42 -103.5t117 -37.5q94 0 163 61.5t85 161.5l13 70q-43 10 -87.5 15t-84.5 5 q-115 0 -181.5 -47t-66.5 -125z" />
<glyph unicode="b" horiz-adv-x="1198" d="M45 0l254 1442h262l-94 -539q113 125 287 125t276.5 -108.5t102.5 -296.5q0 -139 -39 -258t-110 -205t-167 -135.5t-211 -49.5q-94 0 -169 42t-115 118l-58 -135h-219zM375 387q0 -88 53 -142.5t137 -54.5q66 0 121 30t95 83t62.5 127t22.5 162q0 98 -56 159.5t-148 61.5 q-94 0 -167 -62.5t-92 -168.5l-22 -131l-4 -32t-2 -32z" />
<glyph unicode="c" horiz-adv-x="1007" d="M66 397q0 135 45 251t124.5 200t190.5 132t242 48q94 0 186 -27.5t178 -80.5l-121 -183q-59 39 -117.5 60.5t-119.5 21.5q-74 0 -137.5 -29.5t-108.5 -83t-70.5 -126t-25.5 -156.5q0 -109 67.5 -174.5t178.5 -65.5q63 0 126.5 21.5t122.5 56.5l80 -180 q-188 -106 -385 -107q-100 0 -184 31t-144.5 86t-94 133t-33.5 172z" />
<glyph unicode="d" horiz-adv-x="1198" d="M66 381q0 139 38.5 258t108.5 205t166 135t211 49q92 0 164.5 -39t113.5 -110l99 563h262l-254 -1442h-199l-10 121q-135 -145 -324 -146q-86 0 -155.5 29t-118.5 81t-75.5 128t-26.5 168zM332 412q0 -98 56 -160t149 -62q94 0 165.5 62.5t90.5 171.5l22 129q6 31 6 63 q0 88 -52 142.5t-136 54.5q-66 0 -121 -29.5t-95 -83t-62.5 -127t-22.5 -161.5z" />
<glyph unicode="e" horiz-adv-x="1112" d="M66 397q0 137 44 253t121.5 200t185 131t234.5 47q90 0 166 -29.5t130 -84t85 -129t31 -162.5q0 -96 -27 -191h-714q-2 -14 -1 -29.5t3 -31.5q12 -90 80.5 -145.5t173.5 -55.5q68 0 137 22.5t141 63.5l80 -172q-205 -109 -399 -109q-106 0 -193.5 31t-149 86t-95 133 t-33.5 172zM344 590h471q2 14 3 28.5t-1 28.5q-4 84 -55 135.5t-137 51.5q-98 0 -175 -67t-106 -177z" />
<glyph unicode="f" horiz-adv-x="784" d="M96 805l37 199h189l28 167q25 135 123 215t244 80q53 0 116.5 -12t129.5 -35l-78 -194q-37 14 -72 23t-65 9q-53 0 -92.5 -33.5t-49.5 -86.5l-22 -133h243l-36 -199h-244l-141 -805h-263l142 805h-189z" />
<glyph unicode="g" horiz-adv-x="1198" d="M-16 -350l88 194q90 -43 179 -66.5t161 -23.5q117 0 198.5 60.5t102.5 173.5l18 112q-55 -61 -129 -93t-160 -32t-155.5 29t-118.5 81t-75.5 128t-26.5 168q0 139 38.5 258t108.5 205t166 135t211 49q94 0 170 -42t117 -118l57 136h219l-180 -1018q-18 -102 -65.5 -183.5 t-119 -137.5t-164 -86t-202.5 -30q-98 0 -213 26t-225 75zM332 412q0 -98 56 -160t149 -62q96 0 166.5 62.5t89.5 171.5l22 129q6 31 6 63q0 88 -52 142.5t-136 54.5q-66 0 -121 -29.5t-95 -83t-62.5 -127t-22.5 -161.5z" />
<glyph unicode="h" horiz-adv-x="1198" d="M45 0l254 1442h262l-96 -549q59 66 140 100.5t167 34.5q74 0 136.5 -23.5t106.5 -64.5t68.5 -100.5t24.5 -128.5q0 -29 -3 -56.5t-7 -56.5l-107 -598h-262l102 584q4 16 6.5 33.5t2.5 33.5q0 76 -46 119t-124 43q-98 0 -171 -67.5t-91 -176.5l-101 -569h-262z" />
<glyph unicode="i" horiz-adv-x="530" d="M45 0l178 1004h262l-178 -1004h-262zM242 1268q0 76 52 128t128 52q59 0 97 -38t38 -97q0 -78 -52 -129t-128 -51q-59 0 -97 38t-38 97z" />
<glyph unicode="j" horiz-adv-x="546" d="M-315 -403l77 192q37 -12 72 -21.5t66 -9.5q53 0 92 34t49 87l199 1125h262l-207 -1160q-12 -68 -43 -122t-79 -93t-109.5 -59.5t-133.5 -20.5q-53 0 -116.5 12.5t-128.5 35.5zM258 1268q0 76 52 128t128 52q59 0 97 -38t38 -97q0 -78 -52 -129t-128 -51q-59 0 -97 38 t-38 97z" />
<glyph unicode="k" horiz-adv-x="1071" d="M45 0l254 1442h252l-150 -852l447 414h301l-512 -469l340 -535h-285l-241 391l-101 -92l-53 -299h-252z" />
<glyph unicode="l" horiz-adv-x="628" d="M88 211q0 35 6 76l205 1155h262l-203 -1143q-2 -10 -3 -21.5t-1 -19.5q0 -35 22.5 -54.5t59.5 -19.5q20 0 40 3t38 8l12 -201q-45 -8 -90 -13.5t-86 -5.5q-121 0 -191.5 64.5t-70.5 171.5z" />
<glyph unicode="m" horiz-adv-x="1816" d="M45 0l178 1004h197l10 -132q63 76 146 116t180 40q104 0 180 -48t106 -132q63 84 162 132t203 48q70 0 129 -22.5t102 -63.5t67 -97.5t24 -123.5q0 -23 -2.5 -46.5t-6.5 -51.5l-110 -623h-262l106 608q6 27 6 60q0 68 -43 106.5t-112 38.5q-92 0 -159 -63.5t-85 -167.5 l-103 -582h-262l107 608q6 27 6 60q0 68 -42 106.5t-114 38.5q-92 0 -157.5 -63.5t-85.5 -167.5l-103 -582h-262z" />
<glyph unicode="n" horiz-adv-x="1198" d="M45 0l178 1004h197l10 -140q63 78 152.5 121t189.5 43q74 0 136.5 -23.5t106.5 -64.5t68.5 -100.5t24.5 -128.5q0 -29 -3 -56.5t-7 -56.5l-107 -598h-262l102 584q4 16 6.5 33.5t2.5 33.5q0 76 -46 119t-124 43q-98 0 -171 -67.5t-91 -176.5l-101 -569h-262z" />
<glyph unicode="o" horiz-adv-x="1198" d="M66 397q0 135 45 251t124.5 201t191.5 132t245 47q104 0 189 -30.5t145.5 -86t93.5 -133.5t33 -172q0 -135 -45.5 -250.5t-126 -200.5t-192.5 -132.5t-245 -47.5q-104 0 -188 31t-144.5 86t-93 133t-32.5 172zM332 418q0 -109 59.5 -173.5t159.5 -64.5q68 0 125 31 t100 85t66.5 129t23.5 161q0 109 -59 173t-160 64q-68 0 -125 -30.5t-100 -85t-66.5 -129t-23.5 -160.5z" />
<glyph unicode="p" horiz-adv-x="1198" d="M-29 -426l252 1430h197l12 -121q135 145 322 145q174 0 276.5 -108.5t102.5 -296.5q0 -139 -39 -258t-110 -205t-167 -135.5t-211 -49.5q-92 0 -164.5 39t-111.5 111l-97 -551h-262zM375 387q0 -88 53 -142.5t137 -54.5q66 0 121 30t95 83t62.5 127t22.5 162 q0 98 -56 159.5t-148 61.5q-94 0 -167 -62.5t-92 -168.5l-22 -131l-4 -32t-2 -32z" />
<glyph unicode="q" horiz-adv-x="1198" d="M66 381q0 139 38.5 258t108.5 205t166 135t211 49q94 0 170 -42t117 -118l57 136h219l-252 -1430h-262l92 526q-55 -61 -129 -93t-160 -32t-155.5 29t-118.5 81t-75.5 128t-26.5 168zM332 412q0 -98 56 -160t149 -62q96 0 166.5 62.5t89.5 171.5l22 129q6 31 6 63 q0 88 -52 142.5t-136 54.5q-66 0 -121 -29.5t-95 -83t-62.5 -127t-22.5 -161.5z" />
<glyph unicode="r" horiz-adv-x="821" d="M45 0l178 1004h197l8 -144q57 78 137 119t172 41q70 0 142 -23l-68 -206q-29 10 -62.5 15t-62.5 5q-109 0 -185.5 -68.5t-94.5 -183.5l-99 -559h-262z" />
<glyph unicode="s" horiz-adv-x="931" d="M0 72l88 188q90 -41 170 -63.5t143 -22.5q72 0 114 33t42 86q0 41 -32.5 65.5t-81 44t-104.5 39t-104.5 51t-81 82t-32.5 130.5q0 70 29.5 129t82 102t125 67.5t158.5 24.5q90 0 185.5 -22.5t191.5 -63.5l-88 -190q-78 37 -150.5 57t-130.5 20q-66 0 -106.5 -30.5 t-40.5 -79.5q0 -39 32.5 -61.5t81 -41t104.5 -39t104.5 -53t81 -84t32.5 -131.5q0 -74 -29.5 -134t-83 -105t-128 -70t-162.5 -25q-96 0 -203 24t-207 73z" />
<glyph unicode="t" horiz-adv-x="849" d="M96 805l37 199h189l49 294h262l-49 -294h276l-37 -199h-276l-82 -465q-6 -25 -6 -47q0 -47 31.5 -78t82.5 -31q29 0 59 4.5t62 8.5l19 -199q-59 -12 -114.5 -17.5t-109.5 -5.5q-66 0 -121 19.5t-93.5 56.5t-60 87t-21.5 112q0 18 2 36.5t6 39.5l84 479h-189z" />
<glyph unicode="u" horiz-adv-x="1198" d="M90 293q0 29 3 56.5t7 56.5l107 598h262l-104 -584q-6 -31 -7 -66q0 -76 46.5 -120t123.5 -44q98 0 170 68t90 176l103 570h262l-178 -1004h-199l-8 139q-63 -78 -152.5 -121t-191.5 -43q-74 0 -135.5 24t-105.5 65.5t-68.5 100t-24.5 128.5z" />
<glyph unicode="v" horiz-adv-x="1083" d="M102 1004h258l138 -695l381 695h278l-584 -1004h-241z" />
<glyph unicode="w" horiz-adv-x="1607" d="M119 1004h248l82 -682l313 682h235l80 -682l318 682h270l-510 -1004h-244l-80 682l-313 -682h-237z" />
<glyph unicode="x" horiz-adv-x="1083" d="M-80 0l467 524l-264 480h276l168 -326l285 326h293l-443 -498l277 -506h-281l-176 350l-303 -350h-299z" />
<glyph unicode="y" horiz-adv-x="1083" d="M-76 -428l49 203q55 -16 105 -17q59 0 106 36t92 114l60 106l-234 990h258l140 -695l379 695h278l-663 -1154q-88 -156 -187.5 -228.5t-222.5 -72.5q-37 0 -78 5.5t-82 17.5z" />
<glyph unicode="z" horiz-adv-x="997" d="M-16 0l26 156l606 649h-475l37 199h817l-26 -154l-607 -651h508l-34 -199h-852z" />
<glyph unicode="{" horiz-adv-x="718" d="M33 485l37 209h24q72 0 123 37t62 100q14 78 16 172.5t16 176.5q23 129 134.5 205.5t281.5 76.5h102l-36 -209h-52q-76 0 -129 -42t-69 -115q-6 -31 -9.5 -69t-4.5 -78t-3 -79t-6 -69q-14 -86 -66.5 -140.5t-131.5 -76.5q121 -47 120 -189q0 -43 -11 -85t-23.5 -83 t-23.5 -83t-11 -83q0 -63 42 -99t111 -36h33l-37 -209h-67q-158 0 -250 76t-92 197q0 51 13 95t28.5 87t29 88t13.5 96q0 57 -33 93t-92 36h-39z" />
<glyph unicode="|" horiz-adv-x="491" d="M135 -459v1966h221v-1966h-221z" />
<glyph unicode="}" horiz-adv-x="718" d="M-82 -283l37 209h51q76 0 129 42t70 116q6 31 8 68.5t4 77.5t4 79t6 70q14 86 66.5 140t132.5 77q-121 47 -121 188q0 43 11.5 85t23.5 83t23.5 83t11.5 83q0 63 -42 99t-112 36h-33l37 209h68q158 0 250 -75.5t92 -196.5q0 -51 -13.5 -96t-28.5 -88t-28.5 -87.5 t-13.5 -95.5q0 -57 32.5 -93t92.5 -36h39l-37 -209h-25q-72 0 -123 -36.5t-63 -100.5q-8 -39 -11 -83t-5 -89t-5.5 -90t-9.5 -86q-23 -129 -134.5 -206t-281.5 -77h-102z" />
<glyph unicode="~" d="M61 629q76 59 155 90t171 31q70 0 123 -15.5t102.5 -34t98.5 -34t110 -15.5q57 0 105.5 19.5t101.5 66.5l117 -186q-76 -59 -155 -90t-169 -31q-70 0 -124 15.5t-103 34t-98.5 33.5t-108.5 15t-107.5 -19.5t-101.5 -66.5z" />
<glyph unicode="&#xa1;" horiz-adv-x="575" d="M-6 -373l184 922h219l-139 -922h-264zM176 838q0 80 54.5 134t134.5 54q63 0 101 -39t38 -102q0 -78 -54.5 -132.5t-132.5 -54.5q-63 0 -102 38t-39 102z" />
<glyph unicode="&#xa2;" d="M178 584q0 121 36 225t100.5 186t153.5 135.5t198 69.5l55 307h221l-53 -303q135 -25 252 -100l-117 -180q-59 39 -117.5 60.5t-120.5 21.5q-74 0 -137 -31t-108 -84t-71 -125t-26 -156q0 -109 68 -174t178 -65q63 0 127 19.5t123 53.5l80 -176q-150 -88 -315 -102 l-52 -297h-221l55 315q-141 35 -225 140.5t-84 259.5z" />
<glyph unicode="&#xa3;" d="M33 0l37 205h188l70 399h-154l35 201h153l39 219q14 86 54.5 155.5t101.5 119t141 76t174 26.5q86 0 176.5 -23.5t182.5 -64.5l-103 -193q-59 29 -118.5 47.5t-116.5 18.5q-90 0 -148.5 -51.5t-74.5 -141.5l-35 -188h352l-35 -201h-352l-70 -399h508l-37 -205h-968z" />
<glyph unicode="&#xa4;" d="M96 319l160 160q-53 90 -53 209t53 207l-160 162l156 155l160 -161q90 55 209 55q59 0 110 -14.5t96 -40.5l162 161l156 -155l-162 -162q53 -88 53 -207t-53 -209l162 -160l-156 -155l-162 160q-92 -51 -206 -52q-119 0 -209 52l-160 -160zM403 688q0 -96 59.5 -156.5 t158.5 -60.5q96 0 156.5 60.5t60.5 156.5t-60.5 156.5t-156.5 60.5q-98 0 -158 -60.5t-60 -156.5z" />
<glyph unicode="&#xa5;" d="M113 262l32 178h297l25 138h-299l31 178h243l-297 620h281l217 -528l383 528h301l-498 -620h240l-31 -178h-299l-24 -138h299l-31 -178h-299l-47 -262h-272l47 262h-299z" />
<glyph unicode="&#xa6;" horiz-adv-x="491" d="M135 -360v786h221v-786h-221zM135 623v786h221v-786h-221z" />
<glyph unicode="&#xa7;" horiz-adv-x="1095" d="M-51 -240l88 201q104 -49 201.5 -73.5t175.5 -24.5q96 0 152.5 43t56.5 112q0 49 -40 81t-98.5 57.5t-128 51t-128 64.5t-98.5 97.5t-40 150.5q0 104 54.5 184t150.5 125q-37 35 -58.5 83.5t-21.5 109.5q0 82 34 151.5t94 119.5t144 79t183 29q104 0 222 -24.5t230 -76.5 l-88 -202q-100 45 -191 66.5t-163 21.5q-92 0 -144.5 -41t-52.5 -107q0 -47 40 -76.5t98.5 -53t128 -49t128 -65.5t98.5 -100.5t40 -156.5q0 -104 -53.5 -185.5t-145.5 -128.5q35 -35 53.5 -83t18.5 -105q0 -86 -34 -158t-95.5 -122t-146.5 -78.5t-187 -28.5 q-111 0 -235.5 26.5t-241.5 85.5zM358 549q0 -47 25 -77t62.5 -52.5t85 -40t94.5 -37.5q55 23 87.5 66t32.5 100q0 45 -23.5 76.5t-60 54.5t-83 40t-91.5 38q-59 -20 -94 -65.5t-35 -102.5z" />
<glyph unicode="&#xa8;" horiz-adv-x="491" d="M10 1270q0 68 47 115t115 47q53 0 87 -34t34 -87q0 -70 -46 -116t-116 -46q-53 0 -87 34t-34 87zM467 1270q0 68 46 115t116 47q53 0 87 -34t34 -87q0 -70 -47.5 -116t-114.5 -46q-53 0 -87 34t-34 87z" />
<glyph unicode="&#xa9;" horiz-adv-x="1703" d="M131 688q0 166 55.5 304t155.5 238.5t238.5 156t304.5 55.5t304 -55.5t238.5 -156t155.5 -238.5t55 -304t-55 -304t-155.5 -238.5t-238.5 -156t-304 -55.5t-304.5 55.5t-238.5 156t-155.5 238.5t-55.5 304zM268 688q0 -135 45 -248.5t127 -195.5t196 -127t249 -45 t248.5 45t195.5 127t127 195.5t45 248.5t-45 249t-127 195.5t-195.5 127t-248.5 45.5t-249 -45.5t-196 -127t-127 -195.5t-45 -249zM467 688q0 96 31.5 178t90 140.5t140.5 91t180 32.5q78 0 160 -24.5t156 -73.5l-82 -135q-100 70 -207 70q-119 0 -193.5 -77t-74.5 -202 t74.5 -201.5t193.5 -76.5q106 0 207 69l82 -135q-74 -49 -156 -73.5t-160 -24.5q-98 0 -180 32.5t-140.5 91t-90 140.5t-31.5 178z" />
<glyph unicode="&#xaa;" horiz-adv-x="780" d="M41 444l25 138h694l-25 -138h-694zM150 899q0 109 88 172.5t237 63.5q72 0 135 -15l6 25q4 20 5 31q0 37 -33 62.5t-88 25.5q-94 0 -207 -37l-33 129q74 25 142.5 36t136.5 11q117 0 189.5 -56.5t72.5 -148.5q0 -25 -6 -51l-43 -238q-4 -20 -4 -28q0 -29 32 -29h13.5 t15.5 2l2 -141q-23 -4 -47.5 -6t-46.5 -2q-109 0 -137 83q-41 -43 -97.5 -63t-115.5 -20q-94 0 -155.5 55t-61.5 139zM332 920q0 -39 26.5 -61.5t71.5 -22.5q66 0 105.5 39.5t50.5 103.5l6 35q-25 4 -51.5 7t-48.5 3q-72 0 -116 -28.5t-44 -75.5z" />
<glyph unicode="&#xab;" horiz-adv-x="1191" d="M45 451l23 129l481 452l135 -137l-381 -399l242 -383l-168 -113zM563 451l23 129l481 452l135 -137l-381 -399l242 -383l-168 -113z" />
<glyph unicode="&#xac;" d="M92 479v221h1024v-622h-221v401h-803z" />
<glyph unicode="&#xad;" horiz-adv-x="655" d="M29 414l37 200h565l-35 -200h-567z" />
<glyph unicode="&#xae;" horiz-adv-x="1703" d="M131 688q0 166 55.5 304t155.5 238.5t238.5 156t304.5 55.5t304 -55.5t238.5 -156t155.5 -238.5t55 -304t-55 -304t-155.5 -238.5t-238.5 -156t-304 -55.5t-304.5 55.5t-238.5 156t-155.5 238.5t-55.5 304zM268 688q0 -135 45 -248.5t127 -195.5t196 -127t249 -45 t248.5 45t195.5 127t127 195.5t45 248.5t-45 249t-127 195.5t-195.5 127t-248.5 45.5t-249 -45.5t-196 -127t-127 -195.5t-45 -249zM565 262v852h371q66 0 120 -19.5t94 -55t62.5 -86t22.5 -111.5q0 -96 -50 -163t-134 -87l213 -330h-209l-183 301h-122v-301h-185zM750 709 h161q61 0 99.5 33.5t38.5 93.5q0 59 -38 94t-100 35h-161v-256z" />
<glyph unicode="&#xaf;" horiz-adv-x="491" d="M45 1200l31 178h641l-33 -178h-639z" />
<glyph unicode="&#xb0;" horiz-adv-x="696" d="M188 1090q0 66 24 122t64.5 98t97 65.5t124.5 23.5q104 0 167.5 -64.5t63.5 -169.5q0 -66 -23.5 -122t-65.5 -97t-98.5 -64.5t-121.5 -23.5q-104 0 -168 64t-64 168zM330 1110q0 -49 31.5 -80t78.5 -31q63 0 104.5 42t41.5 104q0 51 -30 80.5t-81 29.5q-61 0 -103 -42 t-42 -103z" />
<glyph unicode="&#xb1;" d="M92 0v221h1024v-221h-1024zM92 723v221h402v402h221v-402h401v-221h-401v-401h-221v401h-402z" />
<glyph unicode="&#xb2;" horiz-adv-x="704" d="M92 786l23 129l338 285q57 51 91 93t34 87q0 53 -32 82t-87 29q-76 0 -185 -57l-59 143q162 78 301 78q117 0 185.5 -65.5t68.5 -176.5q0 -76 -43 -145.5t-131 -147.5l-213 -180h317l-26 -154h-582z" />
<glyph unicode="&#xb3;" horiz-adv-x="704" d="M96 850l70 133q59 -29 115.5 -46t105.5 -17q59 0 99 34.5t40 87.5t-38.5 84t-104.5 31h-55l22 131h66q74 0 121 34t47 87q0 43 -32 69.5t-81 26.5q-43 0 -92 -10t-105 -29l-43 136q82 25 154 39t139 14q117 0 183.5 -58.5t66.5 -156.5q0 -78 -47 -135.5t-123 -81.5 q57 -23 88 -71t31 -116q0 -55 -24.5 -104t-67.5 -85t-101.5 -56.5t-126.5 -20.5q-72 0 -151.5 20.5t-155.5 59.5z" />
<glyph unicode="&#xb4;" horiz-adv-x="491" d="M211 1239l395 260l107 -174l-416 -229z" />
<glyph unicode="&#xb5;" horiz-adv-x="1247" d="M-29 -426l252 1430h262l-104 -584q-6 -31 -6 -66q0 -76 46 -120t124 -44q98 0 169.5 68t90.5 176l102 570h262l-129 -732q-4 -20 -4 -32q0 -55 58 -56q10 0 20 1t21 3v-198q-31 -6 -65 -10.5t-69 -4.5q-86 0 -143 39t-72 107q-57 -68 -130.5 -103.5t-151.5 -35.5 q-125 0 -187 69l-84 -477h-262z" />
<glyph unicode="&#xb6;" horiz-adv-x="1214" d="M133 883q0 104 43 195t117 156.5t174 103.5t215 38h512l-299 -1704h-221l262 1483h-209l-119 -670h-41q-205 0 -319.5 105.5t-114.5 292.5z" />
<glyph unicode="&#xb7;" horiz-adv-x="542" d="M107 492q0 78 54.5 132t131.5 54q63 0 102.5 -39t39.5 -100q0 -80 -54.5 -134.5t-132.5 -54.5q-63 0 -102 40.5t-39 101.5z" />
<glyph unicode="&#xb8;" horiz-adv-x="491" d="M-152 -424l60 141q78 -33 139 -32q41 0 66.5 20.5t25.5 48.5q0 29 -26.5 47.5t-69.5 18.5h-20l61 180h178l-29 -90q53 -16 84 -58t31 -102q0 -47 -21.5 -88t-58.5 -70.5t-88 -47t-112 -17.5q-106 0 -220 49z" />
<glyph unicode="&#xb9;" horiz-adv-x="573" d="M168 1477l311 161h166l-149 -852h-191l115 660l-193 -103z" />
<glyph unicode="&#xba;" horiz-adv-x="839" d="M74 444l24 138h686l-24 -138h-686zM156 985q0 90 30.5 167t85 132t129 87t164.5 32q141 0 227.5 -76t86.5 -205q0 -90 -31 -166.5t-85 -132t-129 -87t-165 -31.5q-141 0 -227 75.5t-86 204.5zM356 1001q0 -66 35 -105.5t96 -39.5q84 0 137.5 71.5t53.5 178.5 q0 66 -36 105.5t-95 39.5q-84 0 -137.5 -71.5t-53.5 -178.5z" />
<glyph unicode="&#xbb;" horiz-adv-x="1191" d="M-6 133l381 399l-244 383l168 113l332 -450l-23 -129l-479 -453zM512 133l381 399l-244 383l168 113l332 -450l-23 -129l-479 -453z" />
<glyph unicode="&#xbc;" horiz-adv-x="1966" d="M227 1214l312 162h166l-150 -852h-190l114 660l-192 -103zM317 55l1276 1381l121 -115l-1276 -1380zM1176 176l26 137l484 539h178l-95 -537h103l-23 -139h-104l-31 -176h-170l31 176h-399zM1374 315h223l62 324z" />
<glyph unicode="&#xbd;" horiz-adv-x="1966" d="M227 1215l311 161h166l-149 -852h-191l115 660l-193 -103zM317 55l1276 1381l121 -115l-1276 -1380zM1173 0l23 129l338 285q57 51 91 93t34 87q0 53 -32 82t-87 29q-76 0 -185 -57l-59 143q162 78 301 78q117 0 185.5 -65.5t68.5 -176.5q0 -76 -43 -145.5t-131 -147.5 l-213 -180h317l-26 -154h-582z" />
<glyph unicode="&#xbe;" horiz-adv-x="1966" d="M90 588l70 133q59 -29 115.5 -46.5t105.5 -17.5q59 0 99 35t40 88t-39 84t-104 31h-55l22 131h66q74 0 121 34t47 87q0 43 -32 69.5t-81 26.5q-43 0 -92 -10t-105 -29l-43 135q82 25 154 39.5t139 14.5q117 0 183.5 -58.5t66.5 -156.5q0 -78 -47 -135.5t-123 -81.5 q57 -23 88 -71t31 -116q0 -55 -24.5 -104t-67.5 -85t-101.5 -56.5t-126.5 -20.5q-72 0 -151.5 20.5t-155.5 59.5zM317 55l1276 1381l121 -115l-1276 -1380zM1176 176l26 137l484 539h178l-95 -537h103l-23 -139h-104l-31 -176h-170l31 176h-399zM1374 315h223l62 324z" />
<glyph unicode="&#xbf;" horiz-adv-x="827" d="M-27 -57q0 80 29 142t72 112.5t94 92.5t98 80t82 76.5t45 83.5l4 19h226l-9 -47q-10 -63 -40.5 -113.5t-71.5 -92.5t-87 -79t-85 -72.5t-63.5 -74.5t-24.5 -84q0 -72 45 -117t121 -45q66 0 131 21.5t137 60.5l92 -191q-207 -113 -418 -112q-176 0 -276.5 94t-100.5 246z M395 846q0 76 52.5 128t127.5 52q61 0 98.5 -37t37.5 -98q0 -76 -52.5 -128t-128.5 -52q-61 0 -98 36.5t-37 98.5z" />
<glyph unicode="&#xc0;" horiz-adv-x="1378" d="M-84 0l803 1376h252l315 -1376h-258l-70 328h-579l-184 -328h-279zM487 526h435l-117 561zM574 1708l116 162l361 -258l-105 -143z" />
<glyph unicode="&#xc1;" horiz-adv-x="1378" d="M-84 0l803 1376h252l315 -1376h-258l-70 328h-579l-184 -328h-279zM487 526h435l-117 561zM711 1612l395 260l107 -174l-416 -229z" />
<glyph unicode="&#xc2;" horiz-adv-x="1378" d="M-84 0l803 1376h252l315 -1376h-258l-70 328h-579l-184 -328h-279zM487 526h435l-117 561zM527 1602l295 233h157l213 -250l-123 -112l-186 184l-260 -190z" />
<glyph unicode="&#xc3;" horiz-adv-x="1378" d="M-84 0l803 1376h252l315 -1376h-258l-70 328h-579l-184 -328h-279zM487 526h435l-117 561zM523 1587q29 92 92 146.5t149 54.5q41 0 73 -11t58.5 -24.5t51 -25t53.5 -11.5t53.5 19.5t36.5 52.5l149 -49q-31 -92 -94 -146.5t-149 -54.5q-41 0 -73 11.5t-58.5 24.5 t-52 24.5t-52.5 11.5q-29 0 -52.5 -19.5t-37.5 -52.5z" />
<glyph unicode="&#xc4;" horiz-adv-x="1378" d="M-84 0l803 1376h252l315 -1376h-258l-70 328h-579l-184 -328h-279zM487 526h435l-117 561zM510 1643q0 68 47 115t115 47q53 0 87 -34t34 -87q0 -70 -46 -116t-116 -46q-53 0 -87 34t-34 87zM967 1643q0 68 46 115t116 47q53 0 87 -34t34 -87q0 -70 -47.5 -116 t-114.5 -46q-53 0 -87 34t-34 87z" />
<glyph unicode="&#xc5;" horiz-adv-x="1378" d="M-84 0l803 1376h252l315 -1376h-258l-70 328h-579l-184 -328h-279zM487 526h435l-117 561zM658 1633q0 51 19.5 95t53 76.5t80.5 51t101 18.5q86 0 138 -50t52 -130q0 -51 -19.5 -95t-53 -77t-81 -51.5t-100.5 -18.5q-86 0 -138 50.5t-52 130.5zM785 1649 q0 -37 22.5 -59.5t57.5 -22.5q47 0 78.5 31.5t31.5 79.5q0 37 -22.5 58t-57.5 21q-47 0 -78.5 -30.5t-31.5 -77.5z" />
<glyph unicode="&#xc6;" horiz-adv-x="1974" d="M-150 0l1104 1376h1051l-35 -205h-649l-66 -366h584l-35 -201h-583l-70 -399h682l-37 -205h-944l57 328h-475l-256 -328h-328zM578 526h366l109 609z" />
<glyph unicode="&#xc7;" horiz-adv-x="1314" d="M100 535q0 186 59.5 344.5t166 274.5t253 181.5t322.5 65.5q125 0 246 -38t229 -112l-127 -186q-82 57 -167 88t-175 31q-119 0 -216 -47t-166.5 -130t-107.5 -196t-38 -246q0 -86 28.5 -154.5t79 -116.5t121 -74.5t154.5 -26.5q88 0 179 28.5t177 79.5l86 -186 q-102 -63 -214.5 -98t-223.5 -40l-23 -67q53 -16 84 -58t31 -102q0 -47 -21.5 -88t-58.5 -70.5t-88 -47t-112 -17.5q-106 0 -220 49l60 141q78 -33 139 -32q41 0 66.5 20.5t25.5 48.5q0 29 -26.5 47.5t-69.5 18.5h-21l56 166q-109 14 -198 60t-153.5 116.5t-100.5 165 t-36 207.5z" />
<glyph unicode="&#xc8;" horiz-adv-x="1216" d="M84 0l242 1376h921l-35 -205h-649l-65 -366h583l-34 -201h-584l-70 -399h682l-37 -205h-954zM518 1708l116 162l361 -258l-105 -143z" />
<glyph unicode="&#xc9;" horiz-adv-x="1216" d="M84 0l242 1376h921l-35 -205h-649l-65 -366h583l-34 -201h-584l-70 -399h682l-37 -205h-954zM655 1612l395 260l107 -174l-416 -229z" />
<glyph unicode="&#xca;" horiz-adv-x="1216" d="M84 0l242 1376h921l-35 -205h-649l-65 -366h583l-34 -201h-584l-70 -399h682l-37 -205h-954zM471 1602l295 233h157l213 -250l-123 -112l-186 184l-260 -190z" />
<glyph unicode="&#xcb;" horiz-adv-x="1216" d="M84 0l242 1376h921l-35 -205h-649l-65 -366h583l-34 -201h-584l-70 -399h682l-37 -205h-954zM454 1643q0 68 47 115t115 47q53 0 87 -34t34 -87q0 -70 -46 -116t-116 -46q-53 0 -87 34t-34 87zM911 1643q0 68 46 115t116 47q53 0 87 -34t34 -87q0 -70 -47.5 -116 t-114.5 -46q-53 0 -87 34t-34 87z" />
<glyph unicode="&#xcc;" horiz-adv-x="618" d="M84 0l242 1376h272l-242 -1376h-272zM201 1708l116 162l361 -258l-105 -143z" />
<glyph unicode="&#xcd;" horiz-adv-x="618" d="M84 0l242 1376h272l-242 -1376h-272zM338 1612l395 260l107 -174l-416 -229z" />
<glyph unicode="&#xce;" horiz-adv-x="618" d="M84 0l242 1376h272l-242 -1376h-272zM154 1602l295 233h157l213 -250l-123 -112l-186 184l-260 -190z" />
<glyph unicode="&#xcf;" horiz-adv-x="618" d="M84 0l242 1376h272l-242 -1376h-272zM137 1643q0 68 47 115t115 47q53 0 87 -34t34 -87q0 -70 -46 -116t-116 -46q-53 0 -87 34t-34 87zM594 1643q0 68 46 115t116 47q53 0 87 -34t34 -87q0 -70 -47.5 -116t-114.5 -46q-53 0 -87 34t-34 87z" />
<glyph unicode="&#xd0;" horiz-adv-x="1492" d="M61 604l37 201h160l100 571h461q147 0 265 -39t201 -111.5t128 -176t45 -232.5q0 -180 -60.5 -329.5t-168 -258t-256 -169t-324.5 -60.5h-532l104 604h-160zM424 209h221q117 0 215 43t169 120t111 183.5t40 235.5q0 178 -106.5 277t-301.5 99h-178l-64 -362h289 l-35 -201h-288z" />
<glyph unicode="&#xd1;" horiz-adv-x="1542" d="M84 0l242 1376h258l514 -991l174 991h252l-242 -1376h-258l-514 991l-174 -991h-252zM613 1587q29 92 92 146.5t149 54.5q41 0 73 -11t58.5 -24.5t51 -25t53.5 -11.5t53.5 19.5t36.5 52.5l149 -49q-31 -92 -94 -146.5t-149 -54.5q-41 0 -73 11.5t-58.5 24.5t-52 24.5 t-52.5 11.5q-29 0 -52.5 -19.5t-37.5 -52.5z" />
<glyph unicode="&#xd2;" horiz-adv-x="1542" d="M100 535q0 188 60.5 346.5t167 274.5t253 180.5t320.5 64.5q135 0 247 -40t191.5 -112.5t123.5 -176t44 -230.5q0 -188 -60.5 -347t-166.5 -275t-253.5 -180.5t-321.5 -64.5q-135 0 -247 40t-191 113t-123 176.5t-44 230.5zM379 561q0 -174 96 -272.5t256 -98.5 q106 0 197.5 47.5t158 131.5t104.5 197.5t38 248.5q0 174 -96.5 272.5t-255.5 98.5q-106 0 -197.5 -47t-158 -131t-104.5 -198t-38 -249zM664 1708l116 162l361 -258l-105 -143z" />
<glyph unicode="&#xd3;" horiz-adv-x="1542" d="M100 535q0 188 60.5 346.5t167 274.5t253 180.5t320.5 64.5q135 0 247 -40t191.5 -112.5t123.5 -176t44 -230.5q0 -188 -60.5 -347t-166.5 -275t-253.5 -180.5t-321.5 -64.5q-135 0 -247 40t-191 113t-123 176.5t-44 230.5zM379 561q0 -174 96 -272.5t256 -98.5 q106 0 197.5 47.5t158 131.5t104.5 197.5t38 248.5q0 174 -96.5 272.5t-255.5 98.5q-106 0 -197.5 -47t-158 -131t-104.5 -198t-38 -249zM801 1612l395 260l107 -174l-416 -229z" />
<glyph unicode="&#xd4;" horiz-adv-x="1542" d="M100 535q0 188 60.5 346.5t167 274.5t253 180.5t320.5 64.5q135 0 247 -40t191.5 -112.5t123.5 -176t44 -230.5q0 -188 -60.5 -347t-166.5 -275t-253.5 -180.5t-321.5 -64.5q-135 0 -247 40t-191 113t-123 176.5t-44 230.5zM379 561q0 -174 96 -272.5t256 -98.5 q106 0 197.5 47.5t158 131.5t104.5 197.5t38 248.5q0 174 -96.5 272.5t-255.5 98.5q-106 0 -197.5 -47t-158 -131t-104.5 -198t-38 -249zM617 1602l295 233h157l213 -250l-123 -112l-186 184l-260 -190z" />
<glyph unicode="&#xd5;" horiz-adv-x="1542" d="M100 535q0 188 60.5 346.5t167 274.5t253 180.5t320.5 64.5q135 0 247 -40t191.5 -112.5t123.5 -176t44 -230.5q0 -188 -60.5 -347t-166.5 -275t-253.5 -180.5t-321.5 -64.5q-135 0 -247 40t-191 113t-123 176.5t-44 230.5zM379 561q0 -174 96 -272.5t256 -98.5 q106 0 197.5 47.5t158 131.5t104.5 197.5t38 248.5q0 174 -96.5 272.5t-255.5 98.5q-106 0 -197.5 -47t-158 -131t-104.5 -198t-38 -249zM613 1587q29 92 92 146.5t149 54.5q41 0 73 -11t58.5 -24.5t51 -25t53.5 -11.5t53.5 19.5t36.5 52.5l149 -49q-31 -92 -94 -146.5 t-149 -54.5q-41 0 -73 11.5t-58.5 24.5t-52 24.5t-52.5 11.5q-29 0 -52.5 -19.5t-37.5 -52.5z" />
<glyph unicode="&#xd6;" horiz-adv-x="1542" d="M100 535q0 188 60.5 346.5t167 274.5t253 180.5t320.5 64.5q135 0 247 -40t191.5 -112.5t123.5 -176t44 -230.5q0 -188 -60.5 -347t-166.5 -275t-253.5 -180.5t-321.5 -64.5q-135 0 -247 40t-191 113t-123 176.5t-44 230.5zM379 561q0 -174 96 -272.5t256 -98.5 q106 0 197.5 47.5t158 131.5t104.5 197.5t38 248.5q0 174 -96.5 272.5t-255.5 98.5q-106 0 -197.5 -47t-158 -131t-104.5 -198t-38 -249zM600 1643q0 68 47 115t115 47q53 0 87 -34t34 -87q0 -70 -46 -116t-116 -46q-53 0 -87 34t-34 87zM1057 1643q0 68 46 115t116 47 q53 0 87 -34t34 -87q0 -70 -47.5 -116t-114.5 -46q-53 0 -87 34t-34 87z" />
<glyph unicode="&#xd7;" d="M109 250l340 340l-340 340l155 153l340 -338l338 338l156 -153l-338 -340l338 -340l-156 -154l-338 338l-340 -338z" />
<glyph unicode="&#xd8;" horiz-adv-x="1542" d="M96 41l125 133q-59 70 -90 160t-31 201q0 188 59.5 346.5t166 274.5t254 180.5t321.5 64.5q106 0 196.5 -26.5t162.5 -76.5l129 140l120 -103l-125 -133q59 -72 91 -162t32 -198q0 -188 -59 -347t-166.5 -275t-255 -180.5t-321.5 -64.5q-106 0 -196.5 27t-162.5 74 l-127 -137zM358 561q0 -109 45 -188l697 749q-92 74 -223 74q-113 0 -208.5 -48t-164 -133t-107.5 -201t-39 -253zM508 254q88 -72 223 -72q113 0 208 47t163.5 132t107.5 201t39 253q0 111 -47 189z" />
<glyph unicode="&#xd9;" horiz-adv-x="1542" d="M156 440q0 27 3 56.5t7 58.5l143 821h273l-144 -821q-4 -23 -6 -44.5t-2 -41.5q0 -127 82 -203t217 -76q152 0 256.5 89.5t130.5 242.5l152 854h272l-156 -874q-23 -123 -81 -221.5t-146 -166t-202.5 -103.5t-247.5 -36q-121 0 -222.5 34t-174 95.5t-113.5 146.5t-41 189 zM664 1708l116 162l361 -258l-105 -143z" />
<glyph unicode="&#xda;" horiz-adv-x="1542" d="M156 440q0 27 3 56.5t7 58.5l143 821h273l-144 -821q-4 -23 -6 -44.5t-2 -41.5q0 -127 82 -203t217 -76q152 0 256.5 89.5t130.5 242.5l152 854h272l-156 -874q-23 -123 -81 -221.5t-146 -166t-202.5 -103.5t-247.5 -36q-121 0 -222.5 34t-174 95.5t-113.5 146.5t-41 189 zM801 1612l395 260l107 -174l-416 -229z" />
<glyph unicode="&#xdb;" horiz-adv-x="1542" d="M156 440q0 27 3 56.5t7 58.5l143 821h273l-144 -821q-4 -23 -6 -44.5t-2 -41.5q0 -127 82 -203t217 -76q152 0 256.5 89.5t130.5 242.5l152 854h272l-156 -874q-23 -123 -81 -221.5t-146 -166t-202.5 -103.5t-247.5 -36q-121 0 -222.5 34t-174 95.5t-113.5 146.5t-41 189 zM617 1602l295 233h157l213 -250l-123 -112l-186 184l-260 -190z" />
<glyph unicode="&#xdc;" horiz-adv-x="1542" d="M156 440q0 27 3 56.5t7 58.5l143 821h273l-144 -821q-4 -23 -6 -44.5t-2 -41.5q0 -127 82 -203t217 -76q152 0 256.5 89.5t130.5 242.5l152 854h272l-156 -874q-23 -123 -81 -221.5t-146 -166t-202.5 -103.5t-247.5 -36q-121 0 -222.5 34t-174 95.5t-113.5 146.5t-41 189 zM600 1643q0 68 47 115t115 47q53 0 87 -34t34 -87q0 -70 -46 -116t-116 -46q-53 0 -87 34t-34 87zM1057 1643q0 68 46 115t116 47q53 0 87 -34t34 -87q0 -70 -47.5 -116t-114.5 -46q-53 0 -87 34t-34 87z" />
<glyph unicode="&#xdd;" horiz-adv-x="1247" d="M131 1376h285l254 -573l415 573h308l-625 -825l-96 -551h-273l99 569zM637 1612l395 260l107 -174l-416 -229z" />
<glyph unicode="&#xde;" horiz-adv-x="1269" d="M84 0l242 1376h262l-39 -219h264q199 0 314.5 -107.5t115.5 -293.5q0 -109 -42 -201t-115.5 -159.5t-174 -105.5t-217.5 -38h-303l-45 -252h-262zM428 461h246q68 0 123 20.5t95 56t61.5 86t21.5 111.5q0 98 -62.5 155.5t-171.5 57.5h-229z" />
<glyph unicode="&#xdf;" horiz-adv-x="1280" d="M45 0l195 1104q29 166 153.5 264t319.5 98q188 0 298.5 -87t110.5 -234q0 -78 -33.5 -135.5t-74.5 -104.5t-75 -88t-34 -88q0 -41 20.5 -69.5t51.5 -53t67.5 -49.5t67.5 -58.5t51.5 -80.5t20.5 -115q0 -72 -30 -131t-84 -103t-130 -69t-168 -25q-80 0 -164 20.5 t-170 63.5l86 189q66 -35 130.5 -54.5t119.5 -19.5q72 0 115 33t43 86q0 37 -22.5 63.5t-55.5 48t-72 44t-71.5 54.5t-55 75.5t-22.5 109.5q0 68 36 122t77.5 103.5t77.5 99.5t36 109q0 66 -43 106t-121 40q-86 0 -141 -51.5t-72 -149.5l-186 -1067h-252z" />
<glyph unicode="&#xe0;" horiz-adv-x="1144" d="M35 266q0 166 131 262.5t356 96.5q51 0 104.5 -5.5t106.5 -15.5l8 49q2 10 3 19.5t1 17.5q0 63 -48 103.5t-134 40.5q-143 0 -315 -58l-45 185q223 68 411 67q86 0 156 -22.5t119 -63.5t75.5 -99.5t26.5 -127.5q0 -45 -6 -78l-70 -381q-4 -20 -4 -31q0 -51 60 -51 q10 0 20 1t21 3l4 -188q-33 -6 -67 -10.5t-66 -4.5q-78 0 -132.5 34t-72.5 93q-66 -63 -147.5 -95t-170.5 -32q-72 0 -131 22.5t-102 61.5t-67.5 92.5t-24.5 114.5zM287 301q0 -66 42 -103.5t117 -37.5q94 0 163 61.5t85 161.5l13 70q-43 10 -87.5 15t-84.5 5 q-115 0 -181.5 -47t-66.5 -125zM375 1335l116 162l361 -258l-105 -143z" />
<glyph unicode="&#xe1;" horiz-adv-x="1144" d="M35 266q0 166 131 262.5t356 96.5q51 0 104.5 -5.5t106.5 -15.5l8 49q2 10 3 19.5t1 17.5q0 63 -48 103.5t-134 40.5q-143 0 -315 -58l-45 185q223 68 411 67q86 0 156 -22.5t119 -63.5t75.5 -99.5t26.5 -127.5q0 -45 -6 -78l-70 -381q-4 -20 -4 -31q0 -51 60 -51 q10 0 20 1t21 3l4 -188q-33 -6 -67 -10.5t-66 -4.5q-78 0 -132.5 34t-72.5 93q-66 -63 -147.5 -95t-170.5 -32q-72 0 -131 22.5t-102 61.5t-67.5 92.5t-24.5 114.5zM287 301q0 -66 42 -103.5t117 -37.5q94 0 163 61.5t85 161.5l13 70q-43 10 -87.5 15t-84.5 5 q-115 0 -181.5 -47t-66.5 -125zM512 1239l395 260l107 -174l-416 -229z" />
<glyph unicode="&#xe2;" horiz-adv-x="1144" d="M35 266q0 166 131 262.5t356 96.5q51 0 104.5 -5.5t106.5 -15.5l8 49q2 10 3 19.5t1 17.5q0 63 -48 103.5t-134 40.5q-143 0 -315 -58l-45 185q223 68 411 67q86 0 156 -22.5t119 -63.5t75.5 -99.5t26.5 -127.5q0 -45 -6 -78l-70 -381q-4 -20 -4 -31q0 -51 60 -51 q10 0 20 1t21 3l4 -188q-33 -6 -67 -10.5t-66 -4.5q-78 0 -132.5 34t-72.5 93q-66 -63 -147.5 -95t-170.5 -32q-72 0 -131 22.5t-102 61.5t-67.5 92.5t-24.5 114.5zM287 301q0 -66 42 -103.5t117 -37.5q94 0 163 61.5t85 161.5l13 70q-43 10 -87.5 15t-84.5 5 q-115 0 -181.5 -47t-66.5 -125zM328 1229l295 233h157l213 -250l-123 -112l-186 184l-260 -190z" />
<glyph unicode="&#xe3;" horiz-adv-x="1144" d="M35 266q0 166 131 262.5t356 96.5q51 0 104.5 -5.5t106.5 -15.5l8 49q2 10 3 19.5t1 17.5q0 63 -48 103.5t-134 40.5q-143 0 -315 -58l-45 185q223 68 411 67q86 0 156 -22.5t119 -63.5t75.5 -99.5t26.5 -127.5q0 -45 -6 -78l-70 -381q-4 -20 -4 -31q0 -51 60 -51 q10 0 20 1t21 3l4 -188q-33 -6 -67 -10.5t-66 -4.5q-78 0 -132.5 34t-72.5 93q-66 -63 -147.5 -95t-170.5 -32q-72 0 -131 22.5t-102 61.5t-67.5 92.5t-24.5 114.5zM287 301q0 -66 42 -103.5t117 -37.5q94 0 163 61.5t85 161.5l13 70q-43 10 -87.5 15t-84.5 5 q-115 0 -181.5 -47t-66.5 -125zM324 1214q29 92 92 146.5t149 54.5q41 0 73 -11t58.5 -24.5t51 -25t53.5 -11.5t53.5 19.5t36.5 52.5l149 -49q-31 -92 -94 -146.5t-149 -54.5q-41 0 -73 11.5t-58.5 24.5t-52 24.5t-52.5 11.5q-29 0 -52.5 -19.5t-37.5 -52.5z" />
<glyph unicode="&#xe4;" horiz-adv-x="1144" d="M35 266q0 166 131 262.5t356 96.5q51 0 104.5 -5.5t106.5 -15.5l8 49q2 10 3 19.5t1 17.5q0 63 -48 103.5t-134 40.5q-143 0 -315 -58l-45 185q223 68 411 67q86 0 156 -22.5t119 -63.5t75.5 -99.5t26.5 -127.5q0 -45 -6 -78l-70 -381q-4 -20 -4 -31q0 -51 60 -51 q10 0 20 1t21 3l4 -188q-33 -6 -67 -10.5t-66 -4.5q-78 0 -132.5 34t-72.5 93q-66 -63 -147.5 -95t-170.5 -32q-72 0 -131 22.5t-102 61.5t-67.5 92.5t-24.5 114.5zM287 301q0 -66 42 -103.5t117 -37.5q94 0 163 61.5t85 161.5l13 70q-43 10 -87.5 15t-84.5 5 q-115 0 -181.5 -47t-66.5 -125zM311 1270q0 68 47 115t115 47q53 0 87 -34t34 -87q0 -70 -46 -116t-116 -46q-53 0 -87 34t-34 87zM768 1270q0 68 46 115t116 47q53 0 87 -34t34 -87q0 -70 -47.5 -116t-114.5 -46q-53 0 -87 34t-34 87z" />
<glyph unicode="&#xe5;" horiz-adv-x="1144" d="M35 266q0 166 131 262.5t356 96.5q51 0 104.5 -5.5t106.5 -15.5l8 49q2 10 3 19.5t1 17.5q0 63 -48 103.5t-134 40.5q-143 0 -315 -58l-45 185q223 68 411 67q86 0 156 -22.5t119 -63.5t75.5 -99.5t26.5 -127.5q0 -45 -6 -78l-70 -381q-4 -20 -4 -31q0 -51 60 -51 q10 0 20 1t21 3l4 -188q-33 -6 -67 -10.5t-66 -4.5q-78 0 -132.5 34t-72.5 93q-66 -63 -147.5 -95t-170.5 -32q-72 0 -131 22.5t-102 61.5t-67.5 92.5t-24.5 114.5zM287 301q0 -66 42 -103.5t117 -37.5q94 0 163 61.5t85 161.5l13 70q-43 10 -87.5 15t-84.5 5 q-115 0 -181.5 -47t-66.5 -125zM459 1260q0 51 19.5 95t53 76.5t80.5 51t101 18.5q86 0 138 -50t52 -130q0 -51 -19.5 -95t-53 -77t-81 -51.5t-100.5 -18.5q-86 0 -138 50.5t-52 130.5zM586 1276q0 -37 22.5 -59.5t57.5 -22.5q47 0 78.5 31.5t31.5 79.5q0 37 -22.5 58 t-57.5 21q-47 0 -78.5 -30.5t-31.5 -77.5z" />
<glyph unicode="&#xe6;" horiz-adv-x="1736" d="M35 266q0 166 131 262.5t356 96.5q51 0 104.5 -5.5t106.5 -15.5l8 49q4 20 4 37q0 63 -48 103.5t-134 40.5q-143 0 -315 -58l-45 185q223 68 411 67q109 0 187 -35t119 -100q70 66 159.5 100.5t196.5 34.5q90 0 166 -29.5t130 -84t85 -129t31 -162.5q0 -92 -25 -191h-715 q-2 -14 -1 -29.5t3 -31.5q10 -90 80 -145.5t174 -55.5q66 0 135.5 22.5t141.5 63.5l82 -172q-207 -109 -402 -109q-133 0 -232.5 52.5t-152.5 146.5q-63 -94 -166.5 -146.5t-228.5 -52.5q-76 0 -139.5 22.5t-109.5 61.5t-71.5 92.5t-25.5 114.5zM287 301q0 -66 42 -103.5 t117 -37.5q94 0 163 61.5t85 161.5l13 70q-43 10 -87.5 15t-84.5 5q-115 0 -181.5 -47t-66.5 -125zM971 590h471q2 14 2 28.5v28.5q-4 84 -56.5 135.5t-136.5 51.5q-98 0 -175 -67t-105 -177z" />
<glyph unicode="&#xe7;" horiz-adv-x="1007" d="M66 397q0 135 45 251t124.5 200t190.5 132t242 48q94 0 186 -27.5t178 -80.5l-121 -183q-59 39 -117.5 60.5t-119.5 21.5q-74 0 -137.5 -29.5t-108.5 -83t-70.5 -126t-25.5 -156.5q0 -111 67.5 -175.5t178.5 -64.5q63 0 126.5 21.5t122.5 56.5l80 -180 q-78 -45 -163 -71.5t-164 -30.5l-23 -70q53 -16 84 -58t31 -102q0 -47 -21.5 -88t-59.5 -70.5t-89 -47t-111 -17.5q-106 0 -219 49l59 141q78 -33 140 -32q41 0 67.5 20.5t26.5 48.5q0 29 -27.5 47.5t-70.5 18.5h-21l57 170q-76 14 -138 50t-106 88t-68.5 120.5t-24.5 148.5 z" />
<glyph unicode="&#xe8;" horiz-adv-x="1112" d="M66 397q0 137 44 253t121.5 200t185 131t234.5 47q90 0 166 -29.5t130 -84t85 -129t31 -162.5q0 -96 -27 -191h-714q-2 -14 -1 -29.5t3 -31.5q12 -90 80.5 -145.5t173.5 -55.5q68 0 137 22.5t141 63.5l80 -172q-205 -109 -399 -109q-106 0 -193.5 31t-149 86t-95 133 t-33.5 172zM344 590h471q2 14 3 28.5t-1 28.5q-4 84 -55 135.5t-137 51.5q-98 0 -175 -67t-106 -177zM408 1335l116 162l361 -258l-105 -143z" />
<glyph unicode="&#xe9;" horiz-adv-x="1112" d="M66 397q0 137 44 253t121.5 200t185 131t234.5 47q90 0 166 -29.5t130 -84t85 -129t31 -162.5q0 -96 -27 -191h-714q-2 -14 -1 -29.5t3 -31.5q12 -90 80.5 -145.5t173.5 -55.5q68 0 137 22.5t141 63.5l80 -172q-205 -109 -399 -109q-106 0 -193.5 31t-149 86t-95 133 t-33.5 172zM344 590h471q2 14 3 28.5t-1 28.5q-4 84 -55 135.5t-137 51.5q-98 0 -175 -67t-106 -177zM545 1239l395 260l107 -174l-416 -229z" />
<glyph unicode="&#xea;" horiz-adv-x="1112" d="M66 397q0 137 44 253t121.5 200t185 131t234.5 47q90 0 166 -29.5t130 -84t85 -129t31 -162.5q0 -96 -27 -191h-714q-2 -14 -1 -29.5t3 -31.5q12 -90 80.5 -145.5t173.5 -55.5q68 0 137 22.5t141 63.5l80 -172q-205 -109 -399 -109q-106 0 -193.5 31t-149 86t-95 133 t-33.5 172zM344 590h471q2 14 3 28.5t-1 28.5q-4 84 -55 135.5t-137 51.5q-98 0 -175 -67t-106 -177zM361 1229l295 233h157l213 -250l-123 -112l-186 184l-260 -190z" />
<glyph unicode="&#xeb;" horiz-adv-x="1112" d="M66 397q0 137 44 253t121.5 200t185 131t234.5 47q90 0 166 -29.5t130 -84t85 -129t31 -162.5q0 -96 -27 -191h-714q-2 -14 -1 -29.5t3 -31.5q12 -90 80.5 -145.5t173.5 -55.5q68 0 137 22.5t141 63.5l80 -172q-205 -109 -399 -109q-106 0 -193.5 31t-149 86t-95 133 t-33.5 172zM344 590h471q2 14 3 28.5t-1 28.5q-4 84 -55 135.5t-137 51.5q-98 0 -175 -67t-106 -177zM344 1270q0 68 47 115t115 47q53 0 87 -34t34 -87q0 -70 -46 -116t-116 -46q-53 0 -87 34t-34 87zM801 1270q0 68 46 115t116 47q53 0 87 -34t34 -87q0 -70 -47.5 -116 t-114.5 -46q-53 0 -87 34t-34 87z" />
<glyph unicode="&#xec;" horiz-adv-x="530" d="M45 0l178 1004h262l-178 -1004h-262zM92 1335l116 162l361 -258l-105 -143z" />
<glyph unicode="&#xed;" horiz-adv-x="530" d="M45 0l178 1004h262l-178 -1004h-262zM229 1239l395 260l107 -174l-416 -229z" />
<glyph unicode="&#xee;" horiz-adv-x="530" d="M45 0l178 1004h262l-178 -1004h-262zM45 1229l295 233h157l213 -250l-123 -112l-186 184l-260 -190z" />
<glyph unicode="&#xef;" horiz-adv-x="530" d="M28 1270q0 68 47 115t115 47q53 0 87 -34t34 -87q0 -70 -46 -116t-116 -46q-53 0 -87 34t-34 87zM45 0l178 1004h262l-178 -1004h-262zM485 1270q0 68 46 115t116 47q53 0 87 -34t34 -87q0 -70 -47.5 -116t-114.5 -46q-53 0 -87 34t-34 87z" />
<glyph unicode="&#xf0;" horiz-adv-x="1198" d="M66 383q0 133 40.5 245.5t115.5 194.5t177.5 128t225.5 46q143 0 237 -90q-33 166 -147 275l-281 -121l-53 137l180 78q-27 16 -54.5 30.5t-57.5 26.5l67 166q160 -43 277 -125l237 105l53 -138l-170 -73q109 -117 163 -269.5t54 -339.5q0 -152 -47 -276.5t-130 -215.5 t-198.5 -141.5t-250.5 -50.5q-100 0 -181 32t-138.5 87.5t-88 129t-30.5 159.5zM315 403q0 -104 59.5 -168.5t160.5 -64.5q68 0 126 30.5t100 84t65.5 126t23.5 158.5q0 104 -59.5 169t-159.5 65q-68 0 -125 -31t-100.5 -85t-67 -127t-23.5 -157z" />
<glyph unicode="&#xf1;" horiz-adv-x="1198" d="M45 0l178 1004h197l10 -140q63 78 152.5 121t189.5 43q74 0 136.5 -23.5t106.5 -64.5t68.5 -100.5t24.5 -128.5q0 -29 -3 -56.5t-7 -56.5l-107 -598h-262l102 584q4 16 6.5 33.5t2.5 33.5q0 76 -46 119t-124 43q-98 0 -171 -67.5t-91 -176.5l-101 -569h-262zM375 1214 q29 92 92 146.5t149 54.5q41 0 73 -11t58.5 -24.5t51 -25t53.5 -11.5t53.5 19.5t36.5 52.5l149 -49q-31 -92 -94 -146.5t-149 -54.5q-41 0 -73 11.5t-58.5 24.5t-52 24.5t-52.5 11.5q-29 0 -52.5 -19.5t-37.5 -52.5z" />
<glyph unicode="&#xf2;" horiz-adv-x="1198" d="M66 397q0 135 45 251t124.5 201t191.5 132t245 47q104 0 189 -30.5t145.5 -86t93.5 -133.5t33 -172q0 -135 -45.5 -250.5t-126 -200.5t-192.5 -132.5t-245 -47.5q-104 0 -188 31t-144.5 86t-93 133t-32.5 172zM332 418q0 -109 59.5 -173.5t159.5 -64.5q68 0 125 31 t100 85t66.5 129t23.5 161q0 109 -59 173t-160 64q-68 0 -125 -30.5t-100 -85t-66.5 -129t-23.5 -160.5zM426 1335l116 162l361 -258l-105 -143z" />
<glyph unicode="&#xf3;" horiz-adv-x="1198" d="M66 397q0 135 45 251t124.5 201t191.5 132t245 47q104 0 189 -30.5t145.5 -86t93.5 -133.5t33 -172q0 -135 -45.5 -250.5t-126 -200.5t-192.5 -132.5t-245 -47.5q-104 0 -188 31t-144.5 86t-93 133t-32.5 172zM332 418q0 -109 59.5 -173.5t159.5 -64.5q68 0 125 31 t100 85t66.5 129t23.5 161q0 109 -59 173t-160 64q-68 0 -125 -30.5t-100 -85t-66.5 -129t-23.5 -160.5zM563 1239l395 260l107 -174l-416 -229z" />
<glyph unicode="&#xf4;" horiz-adv-x="1198" d="M66 397q0 135 45 251t124.5 201t191.5 132t245 47q104 0 189 -30.5t145.5 -86t93.5 -133.5t33 -172q0 -135 -45.5 -250.5t-126 -200.5t-192.5 -132.5t-245 -47.5q-104 0 -188 31t-144.5 86t-93 133t-32.5 172zM332 418q0 -109 59.5 -173.5t159.5 -64.5q68 0 125 31 t100 85t66.5 129t23.5 161q0 109 -59 173t-160 64q-68 0 -125 -30.5t-100 -85t-66.5 -129t-23.5 -160.5zM379 1229l295 233h157l213 -250l-123 -112l-186 184l-260 -190z" />
<glyph unicode="&#xf5;" horiz-adv-x="1198" d="M66 397q0 135 45 251t124.5 201t191.5 132t245 47q104 0 189 -30.5t145.5 -86t93.5 -133.5t33 -172q0 -135 -45.5 -250.5t-126 -200.5t-192.5 -132.5t-245 -47.5q-104 0 -188 31t-144.5 86t-93 133t-32.5 172zM332 418q0 -109 59.5 -173.5t159.5 -64.5q68 0 125 31 t100 85t66.5 129t23.5 161q0 109 -59 173t-160 64q-68 0 -125 -30.5t-100 -85t-66.5 -129t-23.5 -160.5zM375 1214q29 92 92 146.5t149 54.5q41 0 73 -11t58.5 -24.5t51 -25t53.5 -11.5t53.5 19.5t36.5 52.5l149 -49q-31 -92 -94 -146.5t-149 -54.5q-41 0 -73 11.5 t-58.5 24.5t-52 24.5t-52.5 11.5q-29 0 -52.5 -19.5t-37.5 -52.5z" />
<glyph unicode="&#xf6;" horiz-adv-x="1198" d="M66 397q0 135 45 251t124.5 201t191.5 132t245 47q104 0 189 -30.5t145.5 -86t93.5 -133.5t33 -172q0 -135 -45.5 -250.5t-126 -200.5t-192.5 -132.5t-245 -47.5q-104 0 -188 31t-144.5 86t-93 133t-32.5 172zM332 418q0 -109 59.5 -173.5t159.5 -64.5q68 0 125 31 t100 85t66.5 129t23.5 161q0 109 -59 173t-160 64q-68 0 -125 -30.5t-100 -85t-66.5 -129t-23.5 -160.5zM362 1270q0 68 47 115t115 47q53 0 87 -34t34 -87q0 -70 -46 -116t-116 -46q-53 0 -87 34t-34 87zM819 1270q0 68 46 115t116 47q53 0 87 -34t34 -87q0 -70 -47.5 -116 t-114.5 -46q-53 0 -87 34t-34 87z" />
<glyph unicode="&#xf7;" d="M102 489v201h1002v-201h-1002zM465 197q0 61 39 100t100 39q59 0 98 -39t39 -100t-38.5 -100.5t-98.5 -39.5q-61 0 -100 39.5t-39 100.5zM465 983q0 61 39 100t100 39q59 0 98 -36.5t39 -102.5q0 -61 -38.5 -100t-98.5 -39q-61 0 -100 39t-39 100z" />
<glyph unicode="&#xf8;" horiz-adv-x="1198" d="M63 20l97 103q-94 110 -94 274q0 135 45 251t124.5 201t191.5 132t245 47q76 0 139 -18.5t117 -51.5l106 115l96 -90l-94 -102q47 -53 72 -123t25 -152q0 -135 -45.5 -250.5t-126 -200.5t-192.5 -132.5t-245 -47.5q-152 0 -256 70l-104 -113zM311 418q0 -59 25 -103 l438 476q-53 43 -127 43t-135 -32t-105.5 -87.5t-70 -132t-25.5 -164.5zM420 211q53 -41 131 -41q74 0 135.5 31.5t105.5 87t69.5 131.5t25.5 166q0 57 -29 102z" />
<glyph unicode="&#xf9;" horiz-adv-x="1198" d="M90 293q0 29 3 56.5t7 56.5l107 598h262l-104 -584q-6 -31 -7 -66q0 -76 46.5 -120t123.5 -44q98 0 170 68t90 176l103 570h262l-178 -1004h-199l-8 139q-63 -78 -152.5 -121t-191.5 -43q-74 0 -135.5 24t-105.5 65.5t-68.5 100t-24.5 128.5zM426 1335l116 162l361 -258 l-105 -143z" />
<glyph unicode="&#xfa;" horiz-adv-x="1198" d="M90 293q0 29 3 56.5t7 56.5l107 598h262l-104 -584q-6 -31 -7 -66q0 -76 46.5 -120t123.5 -44q98 0 170 68t90 176l103 570h262l-178 -1004h-199l-8 139q-63 -78 -152.5 -121t-191.5 -43q-74 0 -135.5 24t-105.5 65.5t-68.5 100t-24.5 128.5zM563 1239l395 260l107 -174 l-416 -229z" />
<glyph unicode="&#xfb;" horiz-adv-x="1198" d="M90 293q0 29 3 56.5t7 56.5l107 598h262l-104 -584q-6 -31 -7 -66q0 -76 46.5 -120t123.5 -44q98 0 170 68t90 176l103 570h262l-178 -1004h-199l-8 139q-63 -78 -152.5 -121t-191.5 -43q-74 0 -135.5 24t-105.5 65.5t-68.5 100t-24.5 128.5zM379 1229l295 233h157 l213 -250l-123 -112l-186 184l-260 -190z" />
<glyph unicode="&#xfc;" horiz-adv-x="1198" d="M90 293q0 29 3 56.5t7 56.5l107 598h262l-104 -584q-6 -31 -7 -66q0 -76 46.5 -120t123.5 -44q98 0 170 68t90 176l103 570h262l-178 -1004h-199l-8 139q-63 -78 -152.5 -121t-191.5 -43q-74 0 -135.5 24t-105.5 65.5t-68.5 100t-24.5 128.5zM362 1270q0 68 47 115 t115 47q53 0 87 -34t34 -87q0 -70 -46 -116t-116 -46q-53 0 -87 34t-34 87zM819 1270q0 68 46 115t116 47q53 0 87 -34t34 -87q0 -70 -47.5 -116t-114.5 -46q-53 0 -87 34t-34 87z" />
<glyph unicode="&#xfd;" horiz-adv-x="1083" d="M-76 -428l49 203q55 -16 105 -17q59 0 106 36t92 114l60 106l-234 990h258l140 -695l379 695h278l-663 -1154q-88 -156 -187.5 -228.5t-222.5 -72.5q-37 0 -78 5.5t-82 17.5zM490 1239l395 260l107 -174l-416 -229z" />
<glyph unicode="&#xfe;" horiz-adv-x="1198" d="M-29 -426l328 1868h260l-92 -539q55 61 129 93t158 32q174 0 276.5 -108.5t102.5 -296.5q0 -139 -39 -258t-110 -205t-167 -135.5t-211 -49.5q-92 0 -164.5 39t-111.5 111l-97 -551h-262zM375 387q0 -88 53 -142.5t137 -54.5q66 0 121 30t95 83t62.5 127t22.5 162 q0 98 -56 159.5t-148 61.5q-94 0 -167 -62.5t-92 -168.5l-22 -131l-4 -32t-2 -32z" />
<glyph unicode="&#xff;" horiz-adv-x="1083" d="M-76 -428l49 203q55 -16 105 -17q59 0 106 36t92 114l60 106l-234 990h258l140 -695l379 695h278l-663 -1154q-88 -156 -187.5 -228.5t-222.5 -72.5q-37 0 -78 5.5t-82 17.5zM289 1270q0 68 47 115t115 47q53 0 87 -34t34 -87q0 -70 -46 -116t-116 -46q-53 0 -87 34 t-34 87zM746 1270q0 68 46 115t116 47q53 0 87 -34t34 -87q0 -70 -47.5 -116t-114.5 -46q-53 0 -87 34t-34 87z" />
<glyph unicode="&#x152;" horiz-adv-x="2031" d="M104 565q0 180 58.5 329.5t164 257.5t253 166t325.5 58h1157l-37 -205h-649l-63 -366h583l-34 -201h-584l-70 -399h682l-37 -205h-1128q-143 0 -258 39t-196 112.5t-124 178t-43 235.5zM381 586q0 -174 106.5 -275.5t294.5 -101.5h154l168 958h-195q-117 0 -213 -43 t-166.5 -119.5t-109.5 -183t-39 -235.5z" />
<glyph unicode="&#x153;" horiz-adv-x="1900" d="M66 397q0 135 45 251t124.5 201t191.5 132t245 47q129 0 223 -54t141 -147q72 92 175.5 146.5t228.5 54.5q90 0 165.5 -30.5t130 -84t85 -128t30.5 -162.5q0 -92 -24 -191h-715q-2 -14 -1 -29.5t3 -31.5q10 -90 80 -145.5t174 -55.5q66 0 135.5 22.5t141.5 63.5l81 -172 q-207 -109 -401 -109q-133 0 -231.5 54.5t-145.5 148.5q-74 -96 -182.5 -149.5t-241.5 -53.5q-104 0 -188 31t-144.5 86t-93 133t-32.5 172zM332 418q0 -109 59.5 -173.5t159.5 -64.5q68 0 125 31t100 85t66.5 129t23.5 161q0 109 -59 173t-160 64q-68 0 -125 -30.5 t-100 -85t-66.5 -129t-23.5 -160.5zM1135 590h471q2 14 2 28.5v28.5q-4 84 -56.5 135.5t-136.5 51.5q-98 0 -175 -67t-105 -177z" />
<glyph unicode="&#x178;" horiz-adv-x="1247" d="M131 1376h285l254 -573l415 573h308l-625 -825l-96 -551h-273l99 569zM436 1643q0 68 47 115t115 47q53 0 87 -34t34 -87q0 -70 -46 -116t-116 -46q-53 0 -87 34t-34 87zM893 1643q0 68 46 115t116 47q53 0 87 -34t34 -87q0 -70 -47.5 -116t-114.5 -46q-53 0 -87 34 t-34 87z" />
<glyph unicode="&#x2c6;" horiz-adv-x="491" d="M27 1229l295 233h157l213 -250l-123 -112l-186 184l-260 -190z" />
<glyph unicode="&#x2dc;" horiz-adv-x="491" d="M23 1214q29 92 92 146.5t149 54.5q41 0 73 -11t58.5 -24.5t51 -25t53.5 -11.5t53.5 19.5t36.5 52.5l149 -49q-31 -92 -94 -146.5t-149 -54.5q-41 0 -73 11.5t-58.5 24.5t-52 24.5t-52.5 11.5q-29 0 -52.5 -19.5t-37.5 -52.5z" />
<glyph unicode="&#x2000;" horiz-adv-x="937" />
<glyph unicode="&#x2001;" horiz-adv-x="1874" />
<glyph unicode="&#x2002;" horiz-adv-x="937" />
<glyph unicode="&#x2003;" horiz-adv-x="1874" />
<glyph unicode="&#x2004;" horiz-adv-x="624" />
<glyph unicode="&#x2005;" horiz-adv-x="468" />
<glyph unicode="&#x2006;" horiz-adv-x="312" />
<glyph unicode="&#x2007;" horiz-adv-x="312" />
<glyph unicode="&#x2008;" horiz-adv-x="234" />
<glyph unicode="&#x2009;" horiz-adv-x="374" />
<glyph unicode="&#x200a;" horiz-adv-x="104" />
<glyph unicode="&#x2010;" horiz-adv-x="655" d="M29 414l37 200h565l-35 -200h-567z" />
<glyph unicode="&#x2011;" horiz-adv-x="655" d="M29 414l37 200h565l-35 -200h-567z" />
<glyph unicode="&#x2012;" horiz-adv-x="655" d="M29 414l37 200h565l-35 -200h-567z" />
<glyph unicode="&#x2013;" horiz-adv-x="983" d="M29 414l37 200h892l-34 -200h-895z" />
<glyph unicode="&#x2014;" horiz-adv-x="1966" d="M29 414l37 200h1876l-35 -200h-1878z" />
<glyph unicode="&#x2018;" horiz-adv-x="542" d="M182 944q0 133 90 257t250 208l68 -104q-147 -94 -193 -215q53 -4 85 -37t32 -92q0 -78 -54 -132.5t-132 -54.5q-68 0 -107 46t-39 124z" />
<glyph unicode="&#x2019;" horiz-adv-x="542" d="M158 867q72 47 121 100t72 115q-53 4 -85 38t-32 91q0 80 53 133t133 53q68 0 106 -45t38 -123q0 -133 -89 -257t-249 -208z" />
<glyph unicode="&#x201a;" horiz-adv-x="542" d="M-35 -225q72 47 121 100t72 115q-53 4 -85 38t-32 91q0 80 53 133t133 53q68 0 106 -45t38 -123q0 -133 -89 -257t-249 -208z" />
<glyph unicode="&#x201c;" horiz-adv-x="995" d="M182 944q0 133 90 257t250 208l68 -104q-147 -94 -193 -215q53 -4 85 -37t32 -92q0 -78 -54 -132.5t-132 -54.5q-68 0 -107 46t-39 124zM635 944q0 133 90 257t250 208l68 -104q-147 -94 -193 -215q53 -4 85 -37t32 -92q0 -78 -54 -132.5t-132 -54.5q-68 0 -107 46 t-39 124z" />
<glyph unicode="&#x201d;" horiz-adv-x="995" d="M158 867q72 47 121 100t72 115q-53 4 -85 38t-32 91q0 80 53 133t133 53q68 0 106 -45t38 -123q0 -133 -89 -257t-249 -208zM610 867q72 47 121 100t72 115q-53 4 -85 38t-32 91q0 80 53 133t133 53q68 0 106 -45t38 -123q0 -133 -89 -257t-249 -208z" />
<glyph unicode="&#x201e;" horiz-adv-x="995" d="M-35 -225q72 47 121 100t72 115q-53 4 -85 38t-32 91q0 80 53 133t133 53q68 0 106 -45t38 -123q0 -133 -89 -257t-249 -208zM418 -225q72 47 121 100t72 115q-53 4 -85 38t-32 91q0 80 53 133t133 53q68 0 106 -45t38 -123q0 -133 -89 -257t-249 -208z" />
<glyph unicode="&#x2022;" horiz-adv-x="983" d="M213 590q0 61 22.5 114.5t62.5 93.5t94 63.5t116 23.5q61 0 114.5 -23.5t93.5 -63.5t63.5 -93.5t23.5 -114.5t-23.5 -115.5t-63.5 -94.5t-93.5 -62.5t-114.5 -22.5t-115.5 22.5t-94.5 62.5t-62.5 94.5t-22.5 115.5z" />
<glyph unicode="&#x2026;" horiz-adv-x="1966" d="M100 119q0 78 54.5 132t131.5 54q63 0 102.5 -39t39.5 -100q0 -80 -54.5 -134.5t-132.5 -54.5q-63 0 -102 40.5t-39 101.5zM756 119q0 78 54.5 132t131.5 54q63 0 102.5 -39t39.5 -100q0 -80 -54.5 -134.5t-132.5 -54.5q-63 0 -102 40.5t-39 101.5zM1411 119 q0 78 54.5 132t131.5 54q63 0 102.5 -39t39.5 -100q0 -80 -54.5 -134.5t-132.5 -54.5q-63 0 -102 40.5t-39 101.5z" />
<glyph unicode="&#x202f;" horiz-adv-x="374" />
<glyph unicode="&#x2039;" horiz-adv-x="673" d="M45 451l23 129l481 452l135 -137l-381 -399l242 -383l-168 -113z" />
<glyph unicode="&#x203a;" horiz-adv-x="673" d="M-6 133l381 399l-244 383l168 113l332 -450l-23 -129l-479 -453z" />
<glyph unicode="&#x205f;" horiz-adv-x="468" />
<glyph unicode="&#x20ac;" d="M55 477l29 160h119q4 35 8 68.5t12 66.5h-117l29 160h137q43 106 106.5 192t145.5 147.5t180.5 95.5t206.5 34q98 0 197.5 -29t187.5 -88l-110 -178q-61 41 -131 65.5t-140 24.5q-127 0 -222 -71.5t-150 -192.5h463l-29 -160h-502q-16 -59 -20 -135h497l-26 -160h-463 q18 -139 99 -218t204 -79q133 0 258 60l74 -181q-90 -43 -185.5 -63.5t-197.5 -20.5q-109 0 -199 36t-157.5 101.5t-108.5 157.5t-49 207h-146z" />
<glyph unicode="&#x2122;" horiz-adv-x="1949" d="M123 1223v153h719v-153h-258v-699h-201v699h-260zM1006 524v852h192l260 -358l260 358h193v-852h-180v584l-215 -299h-115l-217 299v-584h-178z" />
<glyph unicode="&#x25fc;" horiz-adv-x="1003" d="M0 0v1004h1004v-1004h-1004z" />
</font>
</defs>
</svg>
