<?xml version="1.0" standalone="no"?>
<!DOCTYPE svg PUBLIC "-//W3C//DTD SVG 1.1//EN" "http://www.w3.org/Graphics/SVG/1.1/DTD/svg11.dtd" >
<svg xmlns="http://www.w3.org/2000/svg" xmlns:xlink="http://www.w3.org/1999/xlink" version="1.1">
<metadata></metadata>
<defs>
<font id="webfontregular" horiz-adv-x="1179" >
<font-face units-per-em="2048" ascent="1536" descent="-512" />
<missing-glyph horiz-adv-x="491" />
<glyph unicode="&#xfb01;" horiz-adv-x="1187" d="M53 866v129h207v138q0 74 27.5 135t76 105t115 68.5t146.5 24.5q143 0 311 -51l-33 -127q-74 23 -136 35t-118 12q-100 0 -163.5 -58t-63.5 -151v-131h606v-995h-164v866h-442v-866h-162v866h-207z" />
<glyph unicode="&#xfb02;" horiz-adv-x="1286" d="M53 866v129h207v138q0 74 26.5 135t76 105t118 68.5t150.5 24.5q88 0 186 -11t211 -30v-1196q0 -55 33 -87.5t88 -32.5q20 0 45 4t51 10l21 -129q-84 -18 -154 -19q-113 0 -180.5 64.5t-67.5 175.5v1098q-119 23 -221 22q-98 0 -159.5 -57t-61.5 -152v-131h280v-129h-280 v-866h-162v866h-207z" />
<glyph unicode="&#xfb03;" horiz-adv-x="1826" d="M53 866v129h207v181q0 63 21.5 117.5t61.5 92t94.5 59t121.5 21.5q98 0 199 -26l-23 -127q-39 10 -73.5 15t-67.5 5q-78 0 -125 -47t-47 -125v-166h475v138q0 74 27.5 135t76 105t116 68.5t147.5 24.5q141 0 309 -51l-33 -127q-147 47 -254 47q-98 0 -161.5 -58 t-63.5 -151v-131h604v-995h-164v866h-440v-866h-164v866h-475v-866h-162v866h-207z" />
<glyph unicode="&#xfb04;" horiz-adv-x="1925" d="M53 866v129h207v181q0 63 21.5 117.5t61.5 92t94.5 59t121.5 21.5q98 0 199 -26l-23 -127q-39 10 -73.5 15t-67.5 5q-78 0 -125 -47t-47 -125v-166h475v138q0 74 27.5 135t77 105t118 68.5t150.5 24.5q88 0 186 -11t209 -30v-1196q0 -55 33 -87.5t88 -32.5q20 0 44.5 4 t53.5 10l19 -129q-84 -18 -154 -19q-113 0 -180.5 64.5t-67.5 175.5v1098q-119 23 -221 22q-98 0 -158.5 -57t-60.5 -152v-131h278v-129h-278v-866h-164v866h-475v-866h-162v866h-207z" />
<glyph horiz-adv-x="0" />
<glyph horiz-adv-x="0" />
<glyph unicode="&#xd;" horiz-adv-x="491" />
<glyph unicode=" "  horiz-adv-x="491" />
<glyph unicode="&#x09;" horiz-adv-x="491" />
<glyph unicode="&#xa0;" horiz-adv-x="491" />
<glyph unicode="!" horiz-adv-x="538" d="M160 90q0 47 30.5 78t79.5 31q47 0 78 -31t31 -78t-31 -77.5t-78 -30.5q-51 0 -80.5 30.5t-29.5 77.5zM186 1376h166l-14 -948h-137z" />
<glyph unicode="&#x22;" horiz-adv-x="827" d="M143 1376h154l-14 -452h-125zM530 1376h154l-14 -452h-125z" />
<glyph unicode="#" horiz-adv-x="1335" d="M33 367v127h274l74 389h-250v127h275l71 379l127 -19l-67 -360h385l71 379l127 -19l-67 -360h250v-127h-275l-76 -389h250v-127h-274l-72 -379l-127 18l70 361h-385l-72 -379l-127 18l68 361h-250zM438 494h385l74 389h-385z" />
<glyph unicode="$" d="M164 166l39 129q102 -41 197.5 -64.5t177.5 -23.5q125 0 198.5 53t73.5 146q0 76 -50 117.5t-126 68t-163 49.5t-163 61.5t-126 102t-50 174.5q0 131 94 216t254 101v342h139v-340q74 -6 152 -26.5t164 -52.5l-39 -132q-92 39 -175 60.5t-159 21.5q-123 0 -193.5 -52 t-70.5 -138q0 -74 50 -114t126 -66.5t163 -48t162.5 -60.5t126 -105.5t50.5 -178.5q0 -135 -96.5 -222.5t-260.5 -103.5v-342h-139v340q-168 10 -356 88z" />
<glyph unicode="%" horiz-adv-x="1769" d="M90 1032q0 80 25.5 147.5t70.5 117t108.5 77t137.5 27.5t136.5 -27.5t107.5 -77t70.5 -117t25.5 -147.5q0 -82 -25.5 -149.5t-70.5 -116.5t-107.5 -75.5t-136.5 -26.5t-137.5 26.5t-108.5 75.5t-70.5 116.5t-25.5 149.5zM215 1032q0 -121 60.5 -194.5t156.5 -73.5 t155.5 73.5t59.5 194.5q0 119 -59.5 193.5t-155.5 74.5t-156.5 -74.5t-60.5 -193.5zM326 33l1032 1376l86 -66l-1032 -1376zM997 344q0 80 26 147.5t71 116.5t107.5 77t135.5 28q74 0 137.5 -28t108.5 -77t70.5 -116.5t25.5 -147.5q0 -82 -25.5 -149.5t-70.5 -116.5 t-108.5 -76t-137.5 -27t-136 27t-107 76t-71 116.5t-26 149.5zM1122 344q0 -121 59.5 -194.5t155.5 -73.5t156.5 73.5t60.5 194.5q0 119 -60 193.5t-157 74.5q-96 0 -155.5 -74.5t-59.5 -193.5z" />
<glyph unicode="&#x26;" horiz-adv-x="1312" d="M84 373q0 123 82 224t240 183q-78 80 -126.5 153t-48.5 163q0 68 26 123t73 96t111.5 63.5t142.5 22.5q74 0 136 -20.5t106 -58.5t70 -91t26 -117q0 -104 -69 -189t-235 -175l351 -377q74 131 78 295h139q-4 -111 -34 -213.5t-87 -188.5l246 -266h-185l-165 178 q-90 -98 -196 -150.5t-218 -52.5q-102 0 -187.5 30t-146.5 82t-95 125t-34 161zM240 385q0 -61 24.5 -113.5t67.5 -90.5t101.5 -58.5t125.5 -20.5q88 0 169 45.5t146 124.5l-389 422q-121 -66 -183 -142.5t-62 -166.5zM381 1090q0 -66 43 -124.5t113 -125.5q129 70 184 130 t55 130q0 78 -53 126t-139 48q-92 0 -147.5 -51.5t-55.5 -132.5z" />
<glyph unicode="'" horiz-adv-x="440" d="M143 1376h154l-14 -452h-125z" />
<glyph unicode="(" horiz-adv-x="690" d="M162 590q0 256 88 486.5t262 416.5l117 -80q-160 -170 -238 -381t-78 -442t78 -442t238 -381l-117 -80q-174 186 -262 415.5t-88 487.5z" />
<glyph unicode=")" horiz-adv-x="690" d="M63 -233q158 170 237 380.5t79 442.5q0 231 -79 442t-237 381l117 80q172 -186 261 -415.5t89 -487.5q0 -256 -89 -486.5t-261 -416.5z" />
<glyph unicode="*" horiz-adv-x="1007" d="M88 1034l37 109l319 -105v338h117v-338l322 105l35 -109l-322 -106l199 -273l-93 -67l-198 276l-199 -276l-92 67l197 273z" />
<glyph unicode="+" d="M106 520v139h414v414h139v-414h414v-139h-414v-414h-139v414h-414z" />
<glyph unicode="," horiz-adv-x="505" d="M98 -258q141 106 150 248q-47 -2 -78 27.5t-31 76.5q0 51 32 83t83 32q55 0 88 -43t33 -115q0 -113 -58.5 -211t-166.5 -168z" />
<glyph unicode="-" horiz-adv-x="655" d="M53 446v127h549v-127h-549z" />
<glyph unicode="." horiz-adv-x="505" d="M139 94q0 51 32 83t83 32q49 0 82 -32t33 -83q0 -49 -33 -80.5t-82 -31.5q-51 0 -83 31.5t-32 80.5z" />
<glyph unicode="/" horiz-adv-x="786" d="M18 -248l619 1718l131 -43l-618 -1718z" />
<glyph unicode="0" d="M84 688q0 164 35 296t101.5 224t159.5 142.5t210 50.5t210 -50.5t159.5 -142.5t101.5 -224t35 -296t-35 -296t-101.5 -224t-159.5 -142.5t-210 -50.5t-210 50.5t-159.5 142.5t-101.5 224t-35 296zM240 688q0 -133 24.5 -238.5t69.5 -181t110.5 -115.5t145.5 -40t145.5 40 t110.5 115.5t69.5 181t24.5 238.5t-24.5 239.5t-69.5 181.5t-110.5 115t-145.5 40t-145.5 -40t-110.5 -115t-69.5 -181.5t-24.5 -239.5z" />
<glyph unicode="1" d="M203 1122l440 254h137v-1376h-164v1212l-356 -204z" />
<glyph unicode="2" d="M113 0v104l538 539q168 168 168 334q0 127 -81 206t-212 79q-86 0 -168 -33t-170 -88l-65 123q111 66 218.5 101.5t215.5 35.5q94 0 172 -30t134.5 -83t87 -128t30.5 -163q0 -219 -197 -415l-448 -449h661v-133h-884z" />
<glyph unicode="3" d="M106 80l54 123q205 -94 377 -94q66 0 120 19t94 54t62.5 83t22.5 106q0 61 -26 111t-73 86t-112.5 55.5t-145.5 19.5h-84v123h84q74 0 134.5 19.5t103.5 53t66.5 81t23.5 102.5q0 111 -74 178.5t-194 67.5q-156 0 -346 -86l-54 123q113 51 218.5 73.5t205.5 22.5 q90 0 165 -26.5t128 -75t83 -116t30 -147.5q0 -119 -67.5 -206t-184.5 -121q63 -18 116.5 -51t90.5 -79.5t57 -102.5t20 -120q0 -84 -31.5 -154.5t-90 -120.5t-139.5 -78t-177 -28q-106 0 -222 25t-235 80z" />
<glyph unicode="4" d="M63 326v112l666 938h156v-923h211v-127h-211v-326h-152v326h-670zM223 453h510v718z" />
<glyph unicode="5" d="M129 96l64 123q172 -106 339 -106q152 0 241 79.5t89 213.5q0 139 -90 219t-256 80q-66 0 -139.5 -8.5t-161.5 -28.5v708h760v-133h-613v-440q109 23 201 22q106 0 191.5 -30.5t146 -86t92 -133t31.5 -172.5q0 -94 -35 -172.5t-97.5 -135t-151.5 -88.5t-195 -32 q-109 0 -213.5 31t-202.5 90z" />
<glyph unicode="6" d="M123 608q0 188 37 336t109.5 249t178 154.5t240.5 53.5q84 0 169 -20.5t167 -61.5l-55 -121q-70 35 -138.5 53.5t-136.5 18.5q-199 0 -307 -153.5t-111 -452.5q45 98 144.5 156.5t226.5 58.5q98 0 178 -32t137.5 -90.5t89 -139t31.5 -179.5q0 -98 -34.5 -183t-96 -147.5 t-146.5 -97.5t-183 -35q-233 0 -366.5 163t-133.5 470zM293 461q0 -78 23.5 -142.5t66.5 -111.5t102.5 -74t130.5 -27q68 0 125.5 25t99.5 69t66.5 103t24.5 129q0 72 -22.5 130.5t-63.5 100.5t-98.5 65.5t-126.5 23.5q-70 0 -129.5 -22.5t-103.5 -61.5t-69.5 -92.5 t-25.5 -114.5z" />
<glyph unicode="7" d="M133 1243v133h868v-104l-546 -1272h-170l538 1243h-690z" />
<glyph unicode="8" d="M106 354q0 129 82 222.5t236 128.5q-125 33 -205 120.5t-80 212.5q0 80 33 146.5t93.5 115t143.5 75t181 26.5t181 -26.5t143.5 -75t93 -115t32.5 -146.5q0 -125 -79.5 -213t-204.5 -120q154 -35 235.5 -128.5t81.5 -222.5q0 -84 -34.5 -153.5t-99.5 -119.5t-154 -78 t-195 -28q-109 0 -197 28t-152.5 78t-99.5 119.5t-35 153.5zM270 362q0 -57 23.5 -105t65.5 -82t100.5 -53.5t130.5 -19.5q70 0 129 19.5t101 53.5t65.5 82t23.5 105q0 115 -86 186.5t-233 94.5q-147 -23 -233.5 -94.5t-86.5 -186.5zM297 1030q0 -111 83 -176t210 -88 q127 23 210 88.5t83 175.5q0 51 -22.5 96t-61.5 78t-92.5 51.5t-116.5 18.5t-116.5 -18.5t-92.5 -51.5t-61.5 -78t-22.5 -96z" />
<glyph unicode="9" d="M96 938q0 98 35 183t96.5 147.5t146.5 97.5t183 35q233 0 366.5 -163t133.5 -470q0 -379 -146.5 -586t-418.5 -207q-84 0 -169 20.5t-167 61.5l55 121q70 -35 138.5 -53.5t135.5 -18.5q199 0 307.5 154t110.5 453q-45 -98 -144.5 -156.5t-226.5 -58.5q-98 0 -178 31.5 t-137 90t-89 139.5t-32 179zM248 944q0 -72 22.5 -130t63.5 -100t98 -65.5t127 -23.5t129.5 22.5t103.5 61.5t69.5 92t25.5 114q0 78 -24.5 142.5t-67.5 112t-102.5 74t-129.5 26.5q-68 0 -125 -24.5t-99 -68.5t-66.5 -103.5t-24.5 -129.5z" />
<glyph unicode=":" horiz-adv-x="538" d="M155 94q0 51 32 83t83 32q49 0 82 -32t33 -83q0 -49 -33 -80.5t-82 -31.5q-51 0 -83 31.5t-32 80.5zM155 899q0 51 32 83t83 32q49 0 82 -32t33 -83q0 -49 -33 -80.5t-82 -31.5q-51 0 -83 31.5t-32 80.5z" />
<glyph unicode=";" horiz-adv-x="538" d="M114 -258q141 106 150 248q-47 -2 -78 27.5t-31 76.5q0 51 32 83t83 32q55 0 88 -43t33 -115q0 -113 -58.5 -211t-166.5 -168zM155 899q0 51 32 83t83 32q49 0 82 -32t33 -83q0 -49 -33 -80.5t-82 -31.5q-51 0 -83 31.5t-32 80.5z" />
<glyph unicode="&#x3c;" d="M106 520v139l924 426l57 -133l-790 -362l790 -363l-57 -133z" />
<glyph unicode="=" d="M106 299v141h967v-141h-967zM106 739v142h967v-142h-967z" />
<glyph unicode="&#x3e;" d="M92 227l791 363l-791 362l58 133l923 -426v-139l-923 -426z" />
<glyph unicode="?" horiz-adv-x="942" d="M63 1276q184 125 386 125q86 0 158.5 -27.5t124.5 -76t82 -115t30 -146.5q0 -74 -23.5 -132t-60.5 -106t-80 -91t-80 -84t-63.5 -84t-28.5 -95l-2 -16h-137v29q0 61 23.5 111t57 94.5t74.5 83t75 80.5t57.5 87t23.5 103q0 109 -70.5 177.5t-185.5 68.5q-74 0 -145.5 -28 t-149.5 -79zM330 92q0 47 30.5 77t77.5 30t78 -30t31 -77t-31 -78.5t-78 -31.5q-49 0 -78.5 31.5t-29.5 78.5z" />
<glyph unicode="@" horiz-adv-x="1990" d="M100 498q0 201 69 368.5t190.5 289.5t290.5 189.5t370 67.5q190 0 349 -60.5t274.5 -168t180 -256t64.5 -326.5q0 -123 -28.5 -224.5t-81 -174t-126 -112.5t-161.5 -40t-149.5 46t-79.5 122q-51 -80 -130 -124t-184 -44q-84 0 -154.5 33t-123 92.5t-82 141t-29.5 180.5 q0 98 29.5 180t82 141.5t123 92t154.5 32.5q96 0 168 -41t117 -112l16 133h135v-609q0 -66 33 -104.5t92 -38.5q53 0 97.5 29.5t76 85t49 132.5t17.5 171q0 154 -54.5 281.5t-151.5 221t-230 144.5t-293 51q-170 0 -313.5 -58.5t-247 -162.5t-160.5 -249.5t-57 -319.5 t57 -319.5t160.5 -250t246 -163t314.5 -58.5q233 0 504 150l63 -111q-303 -164 -567 -164q-203 0 -372 67.5t-290.5 188.5t-189.5 290t-68 370zM723 498q0 -70 19.5 -128.5t55.5 -100.5t84 -65.5t105 -23.5q109 0 172.5 72t63.5 182v127q0 111 -63.5 182.5t-172.5 71.5 q-57 0 -105 -23.5t-84 -65.5t-55.5 -100t-19.5 -128z" />
<glyph unicode="A" horiz-adv-x="1374" d="M41 0l567 1376h158l567 -1376h-172l-151 377h-645l-152 -377h-172zM412 506h549l-275 678z" />
<glyph unicode="B" horiz-adv-x="1335" d="M205 0v1376h555q90 0 164.5 -26.5t129 -73.5t84 -112.5t29.5 -143.5q0 -106 -56 -187t-155 -120q123 -35 192 -126t69 -214q0 -84 -32 -152.5t-88.5 -118t-134 -76t-169.5 -26.5h-588zM369 127h401q125 0 203 71.5t78 188.5t-78 188.5t-203 71.5h-401v-520zM369 762h370 q117 0 191 67.5t74 176.5t-74 176t-191 67h-370v-487z" />
<glyph unicode="C" horiz-adv-x="1323" d="M100 688q0 158 49.5 289t139.5 225t214 146.5t275 52.5q119 0 237 -38t228 -114l-72 -114q-86 61 -180 94t-190 33q-117 0 -214.5 -42t-167 -118t-107.5 -181.5t-38 -232.5t38 -232.5t107.5 -181t167 -117.5t214.5 -42q96 0 190 32.5t180 94.5l72 -115 q-111 -76 -228.5 -114t-236.5 -38q-152 0 -275.5 52.5t-213.5 146.5t-139.5 225t-49.5 289z" />
<glyph unicode="D" horiz-adv-x="1472" d="M205 0v1376h465q156 0 284.5 -50t221 -140t143.5 -217t51 -281q0 -152 -51 -278.5t-143.5 -218t-221.5 -141.5t-284 -50h-465zM373 133h280q121 0 221.5 41t172 114.5t111.5 175t40 224.5t-40 224.5t-111.5 175t-172 114.5t-221.5 41h-280v-1110z" />
<glyph unicode="E" horiz-adv-x="1224" d="M205 0v1376h878v-131h-710v-477h645v-127h-645v-510h743v-131h-911z" />
<glyph unicode="F" horiz-adv-x="1191" d="M205 0v1376h878v-133h-710v-524h645v-133h-645v-586h-168z" />
<glyph unicode="G" horiz-adv-x="1439" d="M100 688q0 156 51.5 287t143.5 226t219 147.5t281 52.5q238 0 481 -137l-64 -117q-104 57 -202.5 89t-196.5 32q-121 0 -221 -43t-172 -120t-112 -183.5t-40 -233.5t41 -233.5t114 -183t175 -119.5t225 -43q166 0 318 69v410h-346v127h503v-627q-242 -113 -487 -113 q-158 0 -288 52.5t-224 147.5t-146.5 225t-52.5 288z" />
<glyph unicode="H" horiz-adv-x="1570" d="M205 0v1376h168v-604h823v604h170v-1376h-170v637h-823v-637h-168z" />
<glyph unicode="I" horiz-adv-x="577" d="M205 0v1376h168v-1376h-168z" />
<glyph unicode="J" horiz-adv-x="909" d="M47 10l25 135q108 -30 201 -30h6q115 0 185.5 70.5t70.5 185.5v1005h170v-1020q0 -84 -29 -154.5t-80 -120.5t-123 -78t-158 -28q-66 0 -131 9.5t-137 25.5z" />
<glyph unicode="K" horiz-adv-x="1357" d="M205 0v1376h164v-727l704 727h201l-627 -643l656 -733h-203l-568 631l-163 -164v-467h-164z" />
<glyph unicode="L" horiz-adv-x="1093" d="M205 0v1376h168v-1243h667v-133h-835z" />
<glyph unicode="M" horiz-adv-x="1751" d="M205 0v1376h166l503 -688l506 688h166v-1376h-157v1143l-465 -633h-99l-463 633v-1143h-157z" />
<glyph unicode="N" horiz-adv-x="1570" d="M205 0v1376h166l837 -1143v1143h158v-1376h-166l-838 1143v-1143h-157z" />
<glyph unicode="O" horiz-adv-x="1570" d="M100 688q0 156 51.5 287t141.5 226t216 147.5t275 52.5q150 0 276 -52.5t217 -147.5t141 -226t50 -287q0 -158 -50 -288t-141 -225t-217 -147.5t-276 -52.5t-275.5 52.5t-215.5 147.5t-141.5 225t-51.5 288zM274 688q0 -127 38 -232.5t105.5 -182t161 -118.5t205.5 -42 q113 0 207 42t162 118.5t105.5 182t37.5 232.5t-37.5 232.5t-105.5 182.5t-162 119t-207 42t-206 -42t-160.5 -119t-105.5 -182.5t-38 -232.5z" />
<glyph unicode="P" horiz-adv-x="1269" d="M205 0v1376h518q100 0 185 -31.5t146.5 -89t95.5 -137.5t34 -174t-34 -173t-95.5 -136t-146.5 -89t-185 -32h-354v-514h-164zM369 647h329q70 0 128.5 21.5t101.5 61.5t66.5 94.5t23.5 119.5q0 66 -23.5 120t-66.5 94t-101.5 62.5t-128.5 22.5h-329v-596z" />
<glyph unicode="Q" horiz-adv-x="1570" d="M100 688q0 156 51.5 287t141.5 226t216 147.5t275 52.5q150 0 276 -52.5t217 -147.5t141 -226t50 -287q0 -207 -84 -364.5t-231 -245.5l336 -246l-84 -106l-393 288q-53 -18 -109.5 -28.5t-118.5 -10.5q-150 0 -275.5 52.5t-215.5 147.5t-141.5 225t-51.5 288zM274 688 q0 -127 38 -232.5t105.5 -182t161 -118.5t205.5 -42q113 0 207 42t162 118.5t105.5 182t37.5 232.5t-37.5 232.5t-105.5 182.5t-162 119t-207 42t-206 -42t-160.5 -119t-105.5 -182.5t-38 -232.5z" />
<glyph unicode="R" horiz-adv-x="1335" d="M205 0v1376h524q98 0 179 -30.5t140.5 -85t92.5 -130t33 -165.5q0 -78 -25 -145.5t-70 -120t-109.5 -85t-142.5 -43.5l402 -571h-187l-378 547h-295v-547h-164zM369 680h336q135 0 219 77t84 204q0 61 -22.5 113t-62.5 90t-95.5 58.5t-122.5 20.5h-336v-563z" />
<glyph unicode="S" horiz-adv-x="1187" d="M104 84l41 131q117 -47 229.5 -74.5t207.5 -27.5q154 0 243.5 65.5t89.5 173.5q0 94 -59 146.5t-148.5 85t-193.5 59.5t-193.5 71t-148.5 117.5t-59 200.5q0 82 34.5 149.5t98 117t152.5 76t196 26.5q207 0 440 -92l-41 -131q-209 86 -387 86q-147 0 -237 -63.5 t-90 -168.5q0 -92 59 -142t149.5 -82t193.5 -58.5t193.5 -71.5t149.5 -121t59 -205q0 -84 -35.5 -153.5t-100 -118.5t-155 -77t-198.5 -28q-223 0 -490 109z" />
<glyph unicode="T" horiz-adv-x="1224" d="M53 1243v133h1118v-133h-475v-1243h-168v1243h-475z" />
<glyph unicode="U" horiz-adv-x="1570" d="M188 526v850h168v-844q0 -92 33 -169.5t89.5 -133t135 -86t170.5 -30.5t171 30.5t136.5 86t89 133t31.5 169.5v844h170v-850q0 -123 -45 -224t-124.5 -174t-189.5 -113t-239 -40t-238.5 40t-188 113t-124 174t-45.5 224z" />
<glyph unicode="V" horiz-adv-x="1374" d="M41 1376h178l467 -1167l469 1167h178l-567 -1376h-158z" />
<glyph unicode="W" horiz-adv-x="2062" d="M66 1376h170l358 -1167l356 1167h160l358 -1167l357 1167h172l-441 -1376h-167l-359 1167l-356 -1167h-168z" />
<glyph unicode="X" horiz-adv-x="1390" d="M61 0l525 705l-500 671h188l420 -563l420 563h191l-502 -671l526 -705h-192l-443 596l-440 -596h-193z" />
<glyph unicode="Y" horiz-adv-x="1226" d="M25 1376h186l403 -637l402 637h188l-506 -788v-588h-170v588z" />
<glyph unicode="Z" horiz-adv-x="1286" d="M104 0v98l832 1145h-807v133h1028v-98l-831 -1145h856v-133h-1078z" />
<glyph unicode="[" horiz-adv-x="690" d="M215 -274v1728h401v-135h-249v-1458h249v-135h-401z" />
<glyph unicode="\" horiz-adv-x="786" d="M18 1427l132 43l618 -1718l-131 -43z" />
<glyph unicode="]" horiz-adv-x="690" d="M74 -139h252v1458h-252v135h403v-1728h-403v135z" />
<glyph unicode="^" d="M94 442l426 934h139l426 -934l-133 -51l-362 797l-363 -797z" />
<glyph unicode="_" horiz-adv-x="983" d="M0 -199h983v-127h-983v127z" />
<glyph unicode="`" horiz-adv-x="491" d="M-35 1356l74 106l348 -241l-63 -93z" />
<glyph unicode="a" horiz-adv-x="1099" d="M90 274q0 158 121 244t334 86q53 0 108.5 -6t114.5 -23v103q0 96 -66.5 156.5t-177.5 60.5q-158 0 -329 -74l-45 119q104 41 200 60.5t193 19.5q84 0 154.5 -24.5t120.5 -70.5t78 -109.5t28 -141.5v-481q0 -41 23.5 -66t66.5 -25q12 0 27.5 2t25.5 5l12 -123 q-25 -4 -51.5 -7.5t-54.5 -3.5q-82 0 -131 44t-60 122q-59 -78 -150 -122t-196 -44q-74 0 -137 22.5t-109.5 62.5t-73 95.5t-26.5 118.5zM250 285q0 -82 63.5 -136.5t161.5 -54.5q63 0 117.5 21.5t93.5 61.5t60.5 95.5t21.5 120.5v84q-104 25 -205 25q-147 0 -230 -57.5 t-83 -159.5z" />
<glyph unicode="b" horiz-adv-x="1193" d="M162 0v1442h162v-604q53 88 138 135t193 47q98 0 180.5 -39t141.5 -107.5t93 -165t34 -210.5q0 -115 -34 -211.5t-93 -165t-141 -107.5t-181 -39q-113 0 -200.5 49.5t-141.5 141.5l-20 -166h-131zM322 418q0 -68 21.5 -125t60 -98t93 -63.5t119.5 -22.5q70 0 129.5 28.5 t102.5 79.5t66.5 123t23.5 158t-23.5 156.5t-66.5 122.5t-102.5 81t-129.5 29q-66 0 -120 -22.5t-92.5 -64.5t-60 -98.5t-21.5 -123.5v-160z" />
<glyph unicode="c" horiz-adv-x="1007" d="M90 498q0 115 37 211t103.5 164.5t158.5 107.5t203 39q184 0 352 -113l-67 -112q-131 90 -265 90q-78 0 -143.5 -29t-112.5 -79t-72.5 -121.5t-25.5 -157.5t25.5 -158t72.5 -123t113 -79.5t143 -28.5q70 0 134.5 23.5t130.5 68.5l67 -113q-168 -113 -352 -113 q-111 0 -203 38t-158.5 107.5t-103.5 166t-37 211.5z" />
<glyph unicode="d" horiz-adv-x="1193" d="M90 498q0 115 34 211t93 164.5t142 107.5t182 39q106 0 191 -47t138 -135v604h164v-1442h-131l-20 166q-53 -92 -142.5 -141.5t-199.5 -49.5q-98 0 -181.5 39t-142.5 107.5t-93 165t-34 211.5zM258 498q0 -86 23.5 -158t66.5 -123t101.5 -79.5t130.5 -28.5 q63 0 117.5 22.5t93 63.5t60 98t21.5 125v160q0 68 -21.5 124t-60 98t-93 64.5t-117.5 22.5q-72 0 -130.5 -29t-101.5 -81t-66.5 -122.5t-23.5 -156.5z" />
<glyph unicode="e" horiz-adv-x="1099" d="M90 498q0 115 36 211t100.5 164.5t153.5 107.5t195 39q100 0 183.5 -37t143 -103.5t92 -159.5t32.5 -204v-29.5t-2 -29.5h-770q6 -80 34.5 -145.5t78 -112.5t115 -73t143.5 -26q68 0 144.5 20.5t156.5 63.5l51 -112q-98 -49 -191.5 -73t-177.5 -24q-115 0 -209 38 t-163.5 107.5t-107.5 166t-38 211.5zM254 561h614q-2 74 -24.5 135.5t-61.5 105.5t-91.5 68.5t-115.5 24.5q-135 0 -222 -91t-99 -243z" />
<glyph unicode="f" horiz-adv-x="755" d="M53 866v129h207v181q0 63 21.5 117.5t61.5 92t94.5 59t121.5 21.5q98 0 199 -26l-23 -127q-39 10 -73.5 15t-67.5 5q-78 0 -125 -47t-47 -125v-166h280v-129h-280v-866h-162v866h-207z" />
<glyph unicode="g" horiz-adv-x="1193" d="M90 498q0 115 34 211t93 164.5t142 107.5t182 39q111 0 199.5 -49t142.5 -142l20 166h131v-1013q0 -94 -36.5 -174t-102.5 -137.5t-156 -89.5t-196 -32q-88 0 -187.5 21.5t-205.5 67.5l49 122q92 -41 177 -60t154 -19q74 0 136.5 21.5t107.5 60t70.5 93t25.5 119.5v181 q-53 -86 -138 -133.5t-191 -47.5q-98 0 -181.5 39t-142.5 107.5t-93 165t-34 211.5zM258 498q0 -86 23.5 -158t66.5 -123t101.5 -79.5t130.5 -28.5q63 0 117.5 22.5t93 63.5t60 98t21.5 125v160q0 68 -21.5 124t-60 98t-93 64.5t-117.5 22.5q-72 0 -130.5 -29t-101.5 -81 t-66.5 -122.5t-23.5 -156.5z" />
<glyph unicode="h" horiz-adv-x="1193" d="M162 0v1442h162v-621q51 94 142 146.5t206 52.5q82 0 151.5 -26.5t120.5 -76t79 -118t28 -150.5v-649h-164v625q0 115 -73 186.5t-189 71.5q-66 0 -120 -23.5t-95 -65.5t-63.5 -101.5t-22.5 -131.5v-561h-162z" />
<glyph unicode="i" horiz-adv-x="485" d="M133 1298q0 47 31 78t80 31q47 0 77.5 -30.5t30.5 -78.5q0 -47 -30.5 -77.5t-77.5 -30.5q-49 0 -80 30.5t-31 77.5zM162 0v995h162v-995h-162z" />
<glyph unicode="j" horiz-adv-x="501" d="M-158 -424l23 127q39 -10 73.5 -15t67.5 -5q78 0 125 47t47 125v1140h162v-1155q0 -66 -21.5 -119t-61.5 -91t-94 -59.5t-122 -21.5q-98 0 -199 27zM150 1298q0 47 30.5 78t79.5 31q47 0 78 -30.5t31 -78.5q0 -47 -31 -77.5t-78 -30.5q-49 0 -79.5 30.5t-30.5 77.5z" />
<glyph unicode="k" horiz-adv-x="1042" d="M162 0v1442h157v-940l472 493h190l-449 -465l465 -530h-192l-379 432l-107 -106v-326h-157z" />
<glyph unicode="l" horiz-adv-x="583" d="M162 215v1227h162v-1213q0 -55 32.5 -87.5t87.5 -32.5q23 0 47.5 4t51.5 10l20 -129q-84 -18 -153 -19q-117 0 -182.5 64.5t-65.5 175.5z" />
<glyph unicode="m" horiz-adv-x="1853" d="M162 0v995h131l20 -174q53 96 141.5 147.5t200.5 51.5q117 0 205 -58.5t123 -158.5q59 102 152.5 159.5t212.5 57.5q80 0 146.5 -26.5t114.5 -74t74.5 -112t26.5 -141.5v-666h-164v641q0 106 -67.5 174t-175.5 68q-61 0 -113.5 -22.5t-90.5 -63.5t-59.5 -96.5 t-21.5 -122.5v-578h-164v641q0 106 -67.5 174t-178.5 68q-61 0 -113.5 -22.5t-90 -63.5t-59 -96.5t-21.5 -122.5v-578h-162z" />
<glyph unicode="n" horiz-adv-x="1193" d="M162 0v995h131l20 -182q51 98 145.5 152.5t213.5 54.5q82 0 151.5 -26.5t120.5 -76t79 -118t28 -150.5v-649h-164v625q0 115 -73 186.5t-189 71.5q-66 0 -120 -23.5t-95 -65.5t-63.5 -101.5t-22.5 -131.5v-561h-162z" />
<glyph unicode="o" horiz-adv-x="1193" d="M90 498q0 115 38 211t105.5 164.5t160.5 107.5t204 39t204 -39t159.5 -107.5t104.5 -165t38 -210.5q0 -115 -38 -211.5t-104.5 -166t-159.5 -107.5t-204 -38t-204 38t-160.5 107.5t-105.5 166t-38 211.5zM258 498q0 -86 24.5 -159t69.5 -124t107.5 -80t138.5 -29 q74 0 136.5 29t107.5 80t70.5 124t25.5 159t-25.5 157.5t-70.5 123.5t-107.5 81t-136.5 29q-76 0 -138.5 -29t-107.5 -81t-69.5 -123.5t-24.5 -157.5z" />
<glyph unicode="p" horiz-adv-x="1193" d="M162 -426v1421h131l20 -166q53 92 141.5 141.5t200.5 49.5q98 0 180.5 -39t141.5 -107.5t93 -165t34 -210.5q0 -115 -34 -211.5t-93 -165t-141 -107.5t-181 -39q-109 0 -193.5 47.5t-137.5 133.5v-582h-162zM322 418q0 -68 21.5 -125t60 -98t93 -63.5t119.5 -22.5 q70 0 129.5 28.5t102.5 79.5t66.5 123t23.5 158t-23.5 156.5t-66.5 122.5t-102.5 81t-129.5 29q-66 0 -120 -22.5t-92.5 -64.5t-60 -98.5t-21.5 -123.5v-160z" />
<glyph unicode="q" horiz-adv-x="1193" d="M90 498q0 115 34 211t93 164.5t142 107.5t182 39q111 0 199.5 -49t142.5 -142l20 166h131v-1421h-164v582q-53 -86 -138 -133.5t-191 -47.5q-98 0 -181.5 39t-142.5 107.5t-93 165t-34 211.5zM258 498q0 -86 23.5 -158t66.5 -123t101.5 -79.5t130.5 -28.5 q63 0 117.5 22.5t93 63.5t60 98t21.5 125v160q0 68 -21.5 124t-60 98t-93 64.5t-117.5 22.5q-72 0 -130.5 -29t-101.5 -81t-66.5 -122.5t-23.5 -156.5z" />
<glyph unicode="r" horiz-adv-x="784" d="M162 0v994h131l20 -187q37 96 119 150.5t191 54.5q55 0 125 -18l-19 -132q-29 6 -59.5 10.5t-59.5 4.5q-129 0 -207.5 -93.5t-78.5 -244.5v-539h-162z" />
<glyph unicode="s" horiz-adv-x="919" d="M90 51l39 121q174 -72 320 -72q100 0 160.5 45t60.5 117q0 63 -42 97t-105.5 56.5t-138.5 41t-138.5 51.5t-105.5 86t-42 147q0 61 27 112.5t75 88.5t114.5 57.5t146.5 20.5q78 0 163 -17.5t173 -52.5l-37 -121q-156 66 -287 66q-98 0 -155.5 -42t-57.5 -112 q0 -61 42 -94t105.5 -54.5t137 -39.5t137 -51t105.5 -89.5t42 -150.5q0 -63 -26.5 -115.5t-75.5 -90.5t-116.5 -59.5t-149.5 -21.5q-176 0 -371 76z" />
<glyph unicode="t" horiz-adv-x="821" d="M53 866v129h207v295h162v-295h313v-129h-313v-585q0 -78 47 -125t125 -47q33 0 67.5 5t73.5 15l23 -127q-100 -27 -199 -27q-68 0 -122 21.5t-94 59.5t-61.5 91.5t-21.5 118.5v600h-207z" />
<glyph unicode="u" horiz-adv-x="1193" d="M145 346v649h162v-626q0 -115 74 -185.5t188 -70.5q63 0 118.5 23.5t96.5 65.5t63.5 101t22.5 131v561h164v-995h-131l-20 182q-53 -98 -147.5 -152.5t-213.5 -54.5q-84 0 -152.5 27t-118.5 76t-78 117.5t-28 150.5z" />
<glyph unicode="v" horiz-adv-x="1062" d="M47 995h170l315 -807l314 807h172l-410 -995h-151z" />
<glyph unicode="w" horiz-adv-x="1587" d="M63 995h164l246 -802l244 802h153l246 -802l244 802h166l-328 -995h-160l-243 803l-246 -803h-160z" />
<glyph unicode="x" horiz-adv-x="1062" d="M51 0l375 510l-358 485h182l282 -381l281 381h182l-358 -485l375 -510h-187l-293 406l-294 -406h-187z" />
<glyph unicode="y" horiz-adv-x="1062" d="M47 995h170l320 -807l309 807h172l-463 -1145q-61 -156 -142 -228.5t-202 -72.5q-29 0 -65.5 4.5t-73.5 14.5l22 131q59 -16 101 -16q76 0 124 46t89 150l51 129z" />
<glyph unicode="z" horiz-adv-x="985" d="M90 0v92l574 774h-558v129h773v-94l-574 -774h590v-127h-805z" />
<glyph unicode="{" horiz-adv-x="690" d="M63 522v135h33q74 0 123 48.5t49 125.5q0 78 -13 160t-13 164q0 66 23.5 121t64.5 95t97 61.5t122 21.5h67v-135h-32q-82 0 -135.5 -52.5t-53.5 -142.5q0 -72 12.5 -149.5t12.5 -155.5q0 -82 -39 -143.5t-115 -85.5q76 -25 115 -86.5t39 -143.5q0 -76 -12.5 -153.5 t-12.5 -151.5q0 -88 53.5 -141t135.5 -53h32v-135h-67q-66 0 -122 21.5t-97 61t-64.5 95t-23.5 121.5q0 82 13 162.5t13 160.5q0 74 -48 124t-124 50h-33z" />
<glyph unicode="|" horiz-adv-x="491" d="M176 -459v1966h139v-1966h-139z" />
<glyph unicode="}" horiz-adv-x="690" d="M74 -139h32q82 0 135.5 52t53.5 142q0 72 -12.5 150t-12.5 155q0 82 39 143.5t115 86.5q-76 25 -115 86t-39 143q0 76 12.5 154t12.5 151q0 88 -53.5 141.5t-135.5 53.5h-32v135h69q66 0 122.5 -21.5t97 -61.5t64.5 -95t24 -121q0 -82 -14.5 -163t-14.5 -161 q0 -74 48 -124t126 -50h33v-135h-33q-76 0 -125 -48t-49 -126t14.5 -160t14.5 -163q0 -66 -24 -121.5t-64.5 -95t-97 -61t-122.5 -21.5h-69v135z" />
<glyph unicode="~" d="M84 596q135 113 297 113q66 0 117 -15.5t98 -34t95 -34t108 -15.5q63 0 115.5 21.5t105.5 68.5l76 -116q-135 -113 -297 -113q-66 0 -117 15.5t-98 34t-95.5 33.5t-107.5 15q-63 0 -115.5 -21.5t-105.5 -68.5z" />
<glyph unicode="&#xa1;" horiz-adv-x="538" d="M160 905q0 47 30.5 78t79.5 31t79 -31t30 -78t-31 -77.5t-78 -30.5q-49 0 -79.5 30.5t-30.5 77.5zM186 -381l15 946h137l14 -946h-166z" />
<glyph unicode="&#xa2;" d="M178 688q0 102 30 190.5t83 156t128 110.5t167 55v307h139v-301q156 -8 305 -108l-67 -113q-66 45 -130.5 68.5t-134.5 23.5q-78 0 -143.5 -28.5t-112.5 -79.5t-72.5 -123t-25.5 -158t25.5 -157.5t72.5 -123t113 -80t143 -28.5q70 0 134.5 23.5t130.5 68.5l67 -112 q-150 -100 -305 -109v-301h-139v307q-92 12 -167 55t-128 111t-83 156t-30 190z" />
<glyph unicode="&#xa3;" d="M139 0v131h207v510h-174v127h174v256q0 84 30 153.5t84 119t129 77t165 27.5q143 0 303 -64l-43 -123q-117 49 -230 50q-121 0 -194.5 -70t-73.5 -182v-244h383v-127h-383v-510h557v-131h-934z" />
<glyph unicode="&#xa4;" d="M106 303l166 166q-68 86 -67 219q0 129 65 219l-164 166l99 98l164 -165q88 68 221 67q129 0 219 -67l166 165l98 -98l-166 -166q68 -90 68 -219t-68 -219l166 -166l-98 -98l-166 166q-45 -33 -99.5 -50.5t-119.5 -17.5q-129 0 -219 68l-166 -166zM332 688 q0 -115 71.5 -185.5t186.5 -70.5t186.5 70.5t71.5 185.5t-71.5 186.5t-186.5 71.5t-186.5 -71.5t-71.5 -186.5z" />
<glyph unicode="&#xa5;" d="M49 1376h180l361 -583l360 583h180l-411 -641h289v-117h-334v-190h334v-117h-334v-311h-168v311h-334v117h334v190h-334v117h289z" />
<glyph unicode="&#xa6;" horiz-adv-x="491" d="M176 -360v786h139v-786h-139zM176 623v786h139v-786h-139z" />
<glyph unicode="&#xa7;" horiz-adv-x="1083" d="M96 -260l41 129q102 -41 198.5 -63.5t178.5 -22.5q127 0 200.5 53t73.5 146q0 76 -50 118.5t-126.5 70.5t-165 51.5t-165 63.5t-127 103.5t-50.5 171.5q0 86 45.5 153.5t129.5 106.5q-63 37 -102.5 98.5t-39.5 155.5q0 72 31 132.5t86 103.5t133 66.5t172 23.5 q176 0 391 -84l-41 -131q-186 78 -338 78q-125 0 -196.5 -51.5t-71.5 -137.5q0 -76 50 -116.5t127 -67.5t165 -50.5t165 -63.5t127 -105.5t50 -175.5q0 -86 -43 -154t-121 -109q59 -39 95 -99t36 -152q0 -78 -30.5 -139.5t-88 -104.5t-136 -66.5t-173.5 -23.5 q-98 0 -206.5 22.5t-223.5 69.5zM270 569q0 -72 39 -112.5t98.5 -67.5t131 -45t137.5 -43q68 25 106.5 74t38.5 112q0 70 -36.5 112t-93 68.5t-126 45t-133.5 41.5q-74 -23 -118 -71t-44 -114z" />
<glyph unicode="&#xa8;" horiz-adv-x="491" d="M-70 1298q0 45 28 73t73 28t72.5 -28t27.5 -73t-27.5 -72.5t-72.5 -27.5t-73 27.5t-28 72.5zM360 1298q0 45 28 73t73 28t72.5 -28t27.5 -73t-27.5 -72.5t-72.5 -27.5t-73 27.5t-28 72.5z" />
<glyph unicode="&#xa9;" horiz-adv-x="1703" d="M98 688q0 166 55.5 304t156 238.5t238.5 156t304 55.5t304 -55.5t238.5 -156t156 -238.5t55.5 -304t-55.5 -304t-156 -238.5t-238.5 -156t-304 -55.5t-304 55.5t-238.5 156t-156 238.5t-55.5 304zM190 688q0 -145 48.5 -267t136.5 -210t210 -136t267 -48t267 48t209 136 t136 210t49 267t-49 267t-136 209t-209 136.5t-267 49.5t-267 -49.5t-210 -136.5t-136.5 -209t-48.5 -267zM451 688q0 98 30.5 179t87 139.5t135 91t173.5 32.5q74 0 148.5 -23.5t145.5 -70.5l-57 -88q-106 76 -223 76q-70 0 -126 -24.5t-97 -68.5t-63.5 -106.5 t-22.5 -136.5t22.5 -136.5t63.5 -106.5t97 -68.5t126 -24.5q117 0 223 76l57 -88q-72 -47 -146.5 -70.5t-147.5 -23.5q-94 0 -173 32.5t-135.5 91t-87 139.5t-30.5 179z" />
<glyph unicode="&#xaa;" horiz-adv-x="786" d="M53 473v92h678v-92h-678zM76 905q0 102 82 158.5t223 56.5q68 0 143 -16v55q0 66 -43 106t-114 40q-51 0 -105.5 -11.5t-114.5 -38.5l-32 88q141 55 262 56q119 0 191.5 -66.5t72.5 -177.5v-299q0 -53 53 -53q23 0 39 4l10 -96q-35 -6 -77 -6q-51 0 -87 27.5t-47 74.5 q-80 -102 -223 -102q-100 0 -166.5 57t-66.5 143zM197 911q0 -51 39.5 -83.5t101.5 -32.5q82 0 134 50t52 128v57q-70 16 -131 17q-92 0 -144 -35t-52 -101z" />
<glyph unicode="&#xab;" horiz-adv-x="1101" d="M59 473v74l406 450l98 -77l-344 -410l344 -410l-98 -80zM524 473v74l406 450l98 -77l-344 -410l344 -410l-98 -80z" />
<glyph unicode="&#xac;" d="M106 520v139h967v-553h-141v414h-826z" />
<glyph unicode="&#xad;" horiz-adv-x="655" d="M53 446v127h549v-127h-549z" />
<glyph unicode="&#xae;" horiz-adv-x="1703" d="M98 688q0 166 55.5 304t156 238.5t238.5 156t304 55.5t304 -55.5t238.5 -156t156 -238.5t55.5 -304t-55.5 -304t-156 -238.5t-238.5 -156t-304 -55.5t-304 55.5t-238.5 156t-156 238.5t-55.5 304zM190 688q0 -145 48.5 -267t136.5 -210t210 -136t267 -48t267 48t209 136 t136 210t49 267t-49 267t-136 209t-209 136.5t-267 49.5t-267 -49.5t-210 -136.5t-136.5 -209t-48.5 -267zM565 262v852h334q125 0 204 -71.5t79 -188.5q0 -98 -56.5 -163.5t-148.5 -82.5l233 -346h-135l-215 330h-176v-330h-119zM684 688h203q78 0 126 44t48 120 q0 74 -48 118t-126 44h-203v-326z" />
<glyph unicode="&#xaf;" horiz-adv-x="491" d="M-57 1241v117h606v-117h-606z" />
<glyph unicode="&#xb0;" horiz-adv-x="679" d="M94 1149q0 111 68.5 178.5t177.5 67.5t177.5 -67.5t68.5 -178.5q0 -109 -68.5 -176.5t-177.5 -67.5t-177.5 67.5t-68.5 176.5zM188 1149q0 -66 43 -108t109 -42t107.5 42t41.5 108q0 68 -41.5 109.5t-107.5 41.5t-109 -41.5t-43 -109.5z" />
<glyph unicode="&#xb1;" d="M106 0v139h967v-139h-967zM106 702v140h414v411h139v-411h414v-140h-414v-413h-139v413h-414z" />
<glyph unicode="&#xb2;" horiz-adv-x="700" d="M49 786v80l326 324q47 49 72.5 97t25.5 97q0 72 -45 118t-121 46q-53 0 -103 -18.5t-104 -52.5l-49 92q137 86 277 86q119 0 192.5 -72t73.5 -182q0 -135 -119 -256l-256 -258h387v-101h-557z" />
<glyph unicode="&#xb3;" horiz-adv-x="700" d="M47 838l41 90q59 -31 114.5 -44.5t106.5 -13.5q80 0 128 42t48 108q0 72 -56 116t-148 44h-58v86h58q84 0 135 42t51 107q0 61 -42 100t-112 39q-47 0 -99 -12t-112 -41l-41 92q72 35 139.5 48.5t131.5 13.5q117 0 188.5 -63.5t71.5 -166.5q0 -72 -40 -124t-106 -74 q74 -25 120 -82.5t46 -134.5q0 -106 -78.5 -173t-201.5 -67q-68 0 -139.5 15.5t-145.5 52.5z" />
<glyph unicode="&#xb4;" horiz-adv-x="491" d="M117 1221l348 241l74 -106l-359 -228z" />
<glyph unicode="&#xb5;" horiz-adv-x="1243" d="M162 -426v1421h162v-626q0 -115 73.5 -185.5t188.5 -70.5q63 0 118.5 23.5t96.5 65.5t63.5 101t22.5 131v561h164v-796q0 -41 23.5 -65.5t64.5 -24.5q14 0 29.5 2t25.5 4l14 -129q-25 -4 -52.5 -7.5t-55.5 -3.5q-88 0 -141.5 49.5t-57.5 133.5q-53 -88 -137 -134.5 t-182 -46.5q-86 0 -151.5 31t-106.5 90v-524h-162z" />
<glyph unicode="&#xb6;" horiz-adv-x="1193" d="M84 952q0 92 35 170t96 134.5t146 88t186 31.5h444v-1704h-141v1565h-217v-707h-86q-100 0 -185.5 32t-146.5 87.5t-96 133t-35 169.5z" />
<glyph unicode="&#xb7;" horiz-adv-x="505" d="M139 508q0 51 32 83t83 32q49 0 82 -32t33 -83q0 -49 -33 -80.5t-82 -31.5q-51 0 -83 31.5t-32 80.5z" />
<glyph unicode="&#xb8;" horiz-adv-x="491" d="M31 -424l28 96q80 -29 144 -28q49 0 81.5 23.5t32.5 64.5t-34.5 64.5t-87.5 23.5h-23l33 180h114l-20 -115q68 -10 110 -57t42 -111q0 -78 -64.5 -128t-169.5 -50q-43 0 -91 9.5t-95 27.5z" />
<glyph unicode="&#xb9;" horiz-adv-x="557" d="M27 1481l276 157h103v-852h-123v727l-209 -118z" />
<glyph unicode="&#xba;" horiz-adv-x="837" d="M76 1051q0 76 25.5 140t71.5 110.5t108.5 72t138.5 25.5q74 0 137.5 -25.5t108.5 -72t70.5 -111t25.5 -139.5q0 -76 -25.5 -139.5t-70.5 -109.5t-108.5 -71.5t-137.5 -25.5q-76 0 -138.5 25.5t-108.5 71.5t-71.5 109.5t-25.5 139.5zM86 473v92h666v-92h-666zM205 1051 q0 -111 59.5 -178.5t155.5 -67.5q94 0 153.5 67.5t59.5 178.5t-59.5 179t-153.5 68q-96 0 -155.5 -68t-59.5 -179z" />
<glyph unicode="&#xbb;" horiz-adv-x="1101" d="M74 100l344 410l-344 410l98 77l406 -450v-74l-406 -453zM539 100l344 410l-344 410l98 77l406 -450v-74l-406 -453z" />
<glyph unicode="&#xbc;" horiz-adv-x="1966" d="M141 1219l277 157h102v-852h-123v727l-209 -118zM424 33l1032 1376l86 -66l-1032 -1376zM1243 193v88l406 571h118v-565h125v-94h-125v-193h-112v193h-412zM1360 287h295v420z" />
<glyph unicode="&#xbd;" horiz-adv-x="1966" d="M142 1219l276 157h103v-852h-123v727l-209 -118zM424 33l1032 1376l86 -66l-1032 -1376zM1272 0v80l326 324q47 49 72.5 97t25.5 97q0 72 -45 118t-121 46q-53 0 -103 -18.5t-104 -52.5l-49 92q137 86 277 86q119 0 192.5 -72t73.5 -182q0 -135 -119 -256l-256 -258h387 v-101h-557z" />
<glyph unicode="&#xbe;" horiz-adv-x="1966" d="M90 575l41 91q59 -31 114.5 -44.5t106.5 -13.5q80 0 128 42t48 108q0 72 -56 116t-148 44h-58v86h58q84 0 135 41.5t51 107.5q0 61 -42 100t-112 39q-47 0 -99 -12t-112 -41l-41 92q72 35 139.5 48.5t131.5 13.5q117 0 188.5 -63.5t71.5 -166.5q0 -72 -40 -124t-106 -74 q74 -25 120 -82.5t46 -134.5q0 -106 -78.5 -173t-201.5 -67q-68 0 -139.5 15.5t-145.5 51.5zM424 33l1032 1376l86 -66l-1032 -1376zM1243 193v88l406 571h118v-565h125v-94h-125v-193h-112v193h-412zM1360 287h295v420z" />
<glyph unicode="&#xbf;" horiz-adv-x="811" d="M80 -41q0 74 24.5 132.5t60.5 106.5t79 90t80.5 83t63.5 84t30 94v16h137v-26q0 -63 -23.5 -113.5t-57.5 -93.5t-75 -83t-74.5 -81t-57 -87t-23.5 -101q0 -111 71.5 -178.5t184.5 -67.5q76 0 147.5 27.5t147.5 78.5l65 -121q-90 -61 -187.5 -93t-195.5 -32 q-86 0 -159.5 27t-126 76t-82 115.5t-29.5 146.5zM379 905q0 47 30.5 78t77.5 31t78 -31t31 -78t-30.5 -77.5t-78.5 -30.5q-47 0 -77.5 30.5t-30.5 77.5z" />
<glyph unicode="&#xc0;" horiz-adv-x="1374" d="M41 0l567 1376h158l567 -1376h-172l-151 377h-645l-152 -377h-172zM405 1737l74 106l348 -241l-63 -93zM412 506h549l-275 678z" />
<glyph unicode="&#xc1;" horiz-adv-x="1374" d="M41 0l567 1376h158l567 -1376h-172l-151 377h-645l-152 -377h-172zM412 506h549l-275 678zM557 1602l348 241l74 -106l-359 -228z" />
<glyph unicode="&#xc2;" horiz-adv-x="1374" d="M41 0l567 1376h158l567 -1376h-172l-151 377h-645l-152 -377h-172zM383 1591l252 244h102l252 -244l-72 -77l-231 204l-232 -204zM412 506h549l-275 678z" />
<glyph unicode="&#xc3;" horiz-adv-x="1374" d="M41 0l567 1376h158l567 -1376h-172l-151 377h-645l-152 -377h-172zM377 1616q16 72 63 116t115 44q35 0 69.5 -12.5t66.5 -26t60.5 -25.5t53.5 -12q63 0 86 76l104 -31q-16 -72 -63.5 -117t-114.5 -45q-35 0 -70 12.5t-66.5 25.5t-60 25.5t-53.5 12.5q-63 0 -86 -76z M412 506h549l-275 678z" />
<glyph unicode="&#xc4;" horiz-adv-x="1374" d="M41 0l567 1376h158l567 -1376h-172l-151 377h-645l-152 -377h-172zM387 1679q0 45 28 73t73 28t72.5 -28t27.5 -73t-27.5 -72.5t-72.5 -27.5t-73 27.5t-28 72.5zM412 506h549l-275 678zM817 1679q0 45 28 73t73 28t72.5 -28t27.5 -73t-27.5 -72.5t-72.5 -27.5t-73 27.5 t-28 72.5z" />
<glyph unicode="&#xc5;" horiz-adv-x="1374" d="M41 0l567 1376h158l567 -1376h-172l-151 377h-645l-152 -377h-172zM412 506h549l-275 678zM481 1679q0 88 56.5 143.5t148.5 55.5t148.5 -55.5t56.5 -143.5t-55.5 -143t-147.5 -55t-149.5 55t-57.5 143zM569 1679q0 -53 33 -84.5t86 -31.5t83.5 31.5t30.5 84.5t-31.5 86 t-84.5 33t-85 -33t-32 -86z" />
<glyph unicode="&#xc6;" horiz-adv-x="1990" d="M-14 0l913 1376h950v-131h-710v-477h645v-127h-645v-510h743v-131h-907v377h-549l-248 -377h-192zM502 506h473v719z" />
<glyph unicode="&#xc7;" horiz-adv-x="1323" d="M100 688q0 158 49.5 289t139.5 225t214 146.5t275 52.5q119 0 237 -38t228 -114l-72 -114q-86 61 -180 94t-190 33q-117 0 -214.5 -42t-167 -118t-107.5 -181.5t-38 -232.5t38 -232.5t107.5 -181t167 -117.5t214.5 -42q96 0 190 32.5t180 94.5l72 -115 q-98 -70 -202.5 -105.5t-211.5 -44.5l-16 -92q68 -10 110 -57t42 -111q0 -78 -64.5 -128t-169.5 -50q-43 0 -92 9.5t-96 27.5l30 96q80 -29 144 -28q49 0 81.5 23.5t32.5 64.5t-34.5 64.5t-89.5 23.5h-21l29 162q-137 10 -251 65t-195 147.5t-125 218t-44 275.5z" />
<glyph unicode="&#xc8;" horiz-adv-x="1224" d="M205 0v1376h878v-131h-710v-477h645v-127h-645v-510h743v-131h-911zM348 1737l74 106l348 -241l-63 -93z" />
<glyph unicode="&#xc9;" horiz-adv-x="1224" d="M205 0v1376h878v-131h-710v-477h645v-127h-645v-510h743v-131h-911zM500 1602l348 241l74 -106l-359 -228z" />
<glyph unicode="&#xca;" horiz-adv-x="1224" d="M205 0v1376h878v-131h-710v-477h645v-127h-645v-510h743v-131h-911zM326 1591l252 244h102l252 -244l-72 -77l-231 204l-232 -204z" />
<glyph unicode="&#xcb;" horiz-adv-x="1224" d="M205 0v1376h878v-131h-710v-477h645v-127h-645v-510h743v-131h-911zM313 1679q0 45 28 73t73 28t72.5 -28t27.5 -73t-27.5 -72.5t-72.5 -27.5t-73 27.5t-28 72.5zM743 1679q0 45 28 73t73 28t72.5 -28t27.5 -73t-27.5 -72.5t-72.5 -27.5t-73 27.5t-28 72.5z" />
<glyph unicode="&#xcc;" horiz-adv-x="577" d="M8 1737l74 106l348 -241l-63 -93zM205 0v1376h168v-1376h-168z" />
<glyph unicode="&#xcd;" horiz-adv-x="577" d="M160 1602l348 241l74 -106l-359 -228zM205 0v1376h168v-1376h-168z" />
<glyph unicode="&#xce;" horiz-adv-x="577" d="M-14 1591l252 244h102l252 -244l-72 -77l-231 204l-232 -204zM205 0v1376h168v-1376h-168z" />
<glyph unicode="&#xcf;" horiz-adv-x="577" d="M-27 1679q0 45 28 73t73 28t72.5 -28t27.5 -73t-27.5 -72.5t-72.5 -27.5t-73 27.5t-28 72.5zM205 0v1376h168v-1376h-168zM403 1679q0 45 28 73t73 28t72.5 -28t27.5 -73t-27.5 -72.5t-72.5 -27.5t-73 27.5t-28 72.5z" />
<glyph unicode="&#xd0;" horiz-adv-x="1505" d="M53 641v127h185v608h464q156 0 285 -50t221 -140t143.5 -217t51.5 -281q0 -152 -51.5 -278.5t-143.5 -218t-221 -141.5t-285 -50h-464v641h-185zM401 133h289q121 0 221.5 41t173 114.5t112.5 175t40 224.5t-40 224.5t-112.5 175t-173 114.5t-221.5 41h-289v-475h355 v-127h-355v-508z" />
<glyph unicode="&#xd1;" horiz-adv-x="1570" d="M205 0v1376h166l837 -1143v1143h158v-1376h-166l-838 1143v-1143h-157zM476 1616q16 72 63 116t115 44q35 0 69.5 -12.5t66.5 -26t60.5 -25.5t53.5 -12q63 0 86 76l104 -31q-16 -72 -63.5 -117t-114.5 -45q-35 0 -70 12.5t-66.5 25.5t-60 25.5t-53.5 12.5q-63 0 -86 -76z " />
<glyph unicode="&#xd2;" horiz-adv-x="1570" d="M100 688q0 156 51.5 287t141.5 226t216 147.5t275 52.5q150 0 276 -52.5t217 -147.5t141 -226t50 -287q0 -158 -50 -288t-141 -225t-217 -147.5t-276 -52.5t-275.5 52.5t-215.5 147.5t-141.5 225t-51.5 288zM274 688q0 -127 38 -232.5t105.5 -182t161 -118.5t205.5 -42 q113 0 207 42t162 118.5t105.5 182t37.5 232.5t-37.5 232.5t-105.5 182.5t-162 119t-207 42t-206 -42t-160.5 -119t-105.5 -182.5t-38 -232.5zM504 1737l74 106l348 -241l-63 -93z" />
<glyph unicode="&#xd3;" horiz-adv-x="1570" d="M100 688q0 156 51.5 287t141.5 226t216 147.5t275 52.5q150 0 276 -52.5t217 -147.5t141 -226t50 -287q0 -158 -50 -288t-141 -225t-217 -147.5t-276 -52.5t-275.5 52.5t-215.5 147.5t-141.5 225t-51.5 288zM274 688q0 -127 38 -232.5t105.5 -182t161 -118.5t205.5 -42 q113 0 207 42t162 118.5t105.5 182t37.5 232.5t-37.5 232.5t-105.5 182.5t-162 119t-207 42t-206 -42t-160.5 -119t-105.5 -182.5t-38 -232.5zM656 1602l348 241l74 -106l-359 -228z" />
<glyph unicode="&#xd4;" horiz-adv-x="1570" d="M100 688q0 156 51.5 287t141.5 226t216 147.5t275 52.5q150 0 276 -52.5t217 -147.5t141 -226t50 -287q0 -158 -50 -288t-141 -225t-217 -147.5t-276 -52.5t-275.5 52.5t-215.5 147.5t-141.5 225t-51.5 288zM274 688q0 -127 38 -232.5t105.5 -182t161 -118.5t205.5 -42 q113 0 207 42t162 118.5t105.5 182t37.5 232.5t-37.5 232.5t-105.5 182.5t-162 119t-207 42t-206 -42t-160.5 -119t-105.5 -182.5t-38 -232.5zM482 1591l252 244h102l252 -244l-72 -77l-231 204l-232 -204z" />
<glyph unicode="&#xd5;" horiz-adv-x="1570" d="M100 688q0 156 51.5 287t141.5 226t216 147.5t275 52.5q150 0 276 -52.5t217 -147.5t141 -226t50 -287q0 -158 -50 -288t-141 -225t-217 -147.5t-276 -52.5t-275.5 52.5t-215.5 147.5t-141.5 225t-51.5 288zM274 688q0 -127 38 -232.5t105.5 -182t161 -118.5t205.5 -42 q113 0 207 42t162 118.5t105.5 182t37.5 232.5t-37.5 232.5t-105.5 182.5t-162 119t-207 42t-206 -42t-160.5 -119t-105.5 -182.5t-38 -232.5zM476 1616q16 72 63 116t115 44q35 0 69.5 -12.5t66.5 -26t60.5 -25.5t53.5 -12q63 0 86 76l104 -31q-16 -72 -63.5 -117 t-114.5 -45q-35 0 -70 12.5t-66.5 25.5t-60 25.5t-53.5 12.5q-63 0 -86 -76z" />
<glyph unicode="&#xd6;" horiz-adv-x="1570" d="M100 688q0 156 51.5 287t141.5 226t216 147.5t275 52.5q150 0 276 -52.5t217 -147.5t141 -226t50 -287q0 -158 -50 -288t-141 -225t-217 -147.5t-276 -52.5t-275.5 52.5t-215.5 147.5t-141.5 225t-51.5 288zM274 688q0 -127 38 -232.5t105.5 -182t161 -118.5t205.5 -42 q113 0 207 42t162 118.5t105.5 182t37.5 232.5t-37.5 232.5t-105.5 182.5t-162 119t-207 42t-206 -42t-160.5 -119t-105.5 -182.5t-38 -232.5zM469 1679q0 45 28 73t73 28t72.5 -28t27.5 -73t-27.5 -72.5t-72.5 -27.5t-73 27.5t-28 72.5zM899 1679q0 45 28 73t73 28 t72.5 -28t27.5 -73t-27.5 -72.5t-72.5 -27.5t-73 27.5t-28 72.5z" />
<glyph unicode="&#xd7;" d="M154 252l338 338l-338 338l98 98l338 -338l338 338l98 -98l-338 -338l338 -338l-98 -98l-338 338l-338 -338z" />
<glyph unicode="&#xd8;" horiz-adv-x="1570" d="M100 688q0 156 50.5 287t141.5 226t216 147.5t276 52.5q111 0 207 -31t176 -86l105 139l82 -63l-103 -135q104 -96 160.5 -232.5t56.5 -304.5q0 -158 -50 -288t-141 -225t-217 -147.5t-276 -52.5q-223 0 -381 117l-104 -139l-82 63l98 136q-102 96 -158.5 232t-56.5 304z M262 688q0 -129 38 -233.5t108 -180.5l673 895q-123 100 -297 101q-115 0 -211 -43t-165.5 -120t-107.5 -184.5t-38 -234.5zM487 205q127 -98 297 -99q115 0 211.5 43.5t166 120t108.5 184t39 234.5t-39 232.5t-111 181.5z" />
<glyph unicode="&#xd9;" horiz-adv-x="1570" d="M188 526v850h168v-844q0 -92 33 -169.5t89.5 -133t135 -86t170.5 -30.5t171 30.5t136.5 86t89 133t31.5 169.5v844h170v-850q0 -123 -45 -224t-124.5 -174t-189.5 -113t-239 -40t-238.5 40t-188 113t-124 174t-45.5 224zM504 1737l74 106l348 -241l-63 -93z" />
<glyph unicode="&#xda;" horiz-adv-x="1570" d="M188 526v850h168v-844q0 -92 33 -169.5t89.5 -133t135 -86t170.5 -30.5t171 30.5t136.5 86t89 133t31.5 169.5v844h170v-850q0 -123 -45 -224t-124.5 -174t-189.5 -113t-239 -40t-238.5 40t-188 113t-124 174t-45.5 224zM656 1602l348 241l74 -106l-359 -228z" />
<glyph unicode="&#xdb;" horiz-adv-x="1570" d="M188 526v850h168v-844q0 -92 33 -169.5t89.5 -133t135 -86t170.5 -30.5t171 30.5t136.5 86t89 133t31.5 169.5v844h170v-850q0 -123 -45 -224t-124.5 -174t-189.5 -113t-239 -40t-238.5 40t-188 113t-124 174t-45.5 224zM482 1591l252 244h102l252 -244l-72 -77l-231 204 l-232 -204z" />
<glyph unicode="&#xdc;" horiz-adv-x="1570" d="M188 526v850h168v-844q0 -92 33 -169.5t89.5 -133t135 -86t170.5 -30.5t171 30.5t136.5 86t89 133t31.5 169.5v844h170v-850q0 -123 -45 -224t-124.5 -174t-189.5 -113t-239 -40t-238.5 40t-188 113t-124 174t-45.5 224zM469 1679q0 45 28 73t73 28t72.5 -28t27.5 -73 t-27.5 -72.5t-72.5 -27.5t-73 27.5t-28 72.5zM899 1679q0 45 28 73t73 28t72.5 -28t27.5 -73t-27.5 -72.5t-72.5 -27.5t-73 27.5t-28 72.5z" />
<glyph unicode="&#xdd;" horiz-adv-x="1226" d="M25 1376h186l403 -637l402 637h188l-506 -788v-588h-170v588zM486 1602l348 241l74 -106l-359 -228z" />
<glyph unicode="&#xde;" horiz-adv-x="1269" d="M205 0v1376h164v-239h354q100 0 185 -32t146.5 -89.5t95.5 -137t34 -173.5t-34 -174t-95.5 -137.5t-146.5 -89.5t-185 -32h-354v-272h-164zM369 408h329q70 0 128.5 21.5t101.5 61t66.5 94t23.5 120.5t-23.5 120t-66.5 93.5t-101.5 61t-128.5 21.5h-329v-593z" />
<glyph unicode="&#xdf;" horiz-adv-x="1259" d="M162 0v1079q0 88 30.5 160t86 122t132 77.5t171.5 27.5q86 0 156.5 -24.5t121.5 -67.5t80 -102.5t29 -126.5q0 -76 -28 -128t-59.5 -95t-59 -84t-27.5 -95q0 -55 28.5 -90t72.5 -62.5t94 -53t94 -60.5t73 -86t29 -129q0 -66 -26.5 -119t-73 -90t-112 -57.5t-140.5 -20.5 q-72 0 -146 16.5t-153 51.5l45 121q131 -61 241 -62q92 0 149.5 43t57.5 117q0 53 -29.5 88t-73.5 61.5t-95.5 52t-95.5 59.5t-73.5 83t-29.5 125q0 70 27.5 118t59.5 92t59.5 89t27.5 109q0 86 -62.5 143t-167.5 57q-117 0 -186.5 -71.5t-69.5 -194.5v-1073h-157z" />
<glyph unicode="&#xe0;" horiz-adv-x="1116" d="M90 274q0 158 121 244t334 86q53 0 108.5 -6t114.5 -23v103q0 96 -66.5 156.5t-177.5 60.5q-158 0 -329 -74l-45 119q104 41 200 60.5t193 19.5q84 0 154.5 -24.5t120.5 -70.5t78 -109.5t28 -141.5v-481q0 -41 23.5 -66t66.5 -25q12 0 27.5 2t25.5 5l12 -123 q-25 -4 -51.5 -7.5t-54.5 -3.5q-82 0 -131 44t-60 122q-59 -78 -150 -122t-196 -44q-74 0 -137 22.5t-109.5 62.5t-73 95.5t-26.5 118.5zM250 285q0 -82 63.5 -136.5t161.5 -54.5q63 0 117.5 21.5t93.5 61.5t60.5 95.5t21.5 120.5v84q-104 25 -205 25q-147 0 -230 -57.5 t-83 -159.5zM262 1356l74 106l348 -241l-63 -93z" />
<glyph unicode="&#xe1;" horiz-adv-x="1116" d="M90 274q0 158 121 244t334 86q53 0 108.5 -6t114.5 -23v103q0 96 -66.5 156.5t-177.5 60.5q-158 0 -329 -74l-45 119q104 41 200 60.5t193 19.5q84 0 154.5 -24.5t120.5 -70.5t78 -109.5t28 -141.5v-481q0 -41 23.5 -66t66.5 -25q12 0 27.5 2t25.5 5l12 -123 q-25 -4 -51.5 -7.5t-54.5 -3.5q-82 0 -131 44t-60 122q-59 -78 -150 -122t-196 -44q-74 0 -137 22.5t-109.5 62.5t-73 95.5t-26.5 118.5zM250 285q0 -82 63.5 -136.5t161.5 -54.5q63 0 117.5 21.5t93.5 61.5t60.5 95.5t21.5 120.5v84q-104 25 -205 25q-147 0 -230 -57.5 t-83 -159.5zM414 1221l348 241l74 -106l-359 -228z" />
<glyph unicode="&#xe2;" horiz-adv-x="1116" d="M90 274q0 158 121 244t334 86q53 0 108.5 -6t114.5 -23v103q0 96 -66.5 156.5t-177.5 60.5q-158 0 -329 -74l-45 119q104 41 200 60.5t193 19.5q84 0 154.5 -24.5t120.5 -70.5t78 -109.5t28 -141.5v-481q0 -41 23.5 -66t66.5 -25q12 0 27.5 2t25.5 5l12 -123 q-25 -4 -51.5 -7.5t-54.5 -3.5q-82 0 -131 44t-60 122q-59 -78 -150 -122t-196 -44q-74 0 -137 22.5t-109.5 62.5t-73 95.5t-26.5 118.5zM240 1210l252 244h102l252 -244l-72 -77l-231 204l-232 -204zM250 285q0 -82 63.5 -136.5t161.5 -54.5q63 0 117.5 21.5t93.5 61.5 t60.5 95.5t21.5 120.5v84q-104 25 -205 25q-147 0 -230 -57.5t-83 -159.5z" />
<glyph unicode="&#xe3;" horiz-adv-x="1116" d="M90 274q0 158 121 244t334 86q53 0 108.5 -6t114.5 -23v103q0 96 -66.5 156.5t-177.5 60.5q-158 0 -329 -74l-45 119q104 41 200 60.5t193 19.5q84 0 154.5 -24.5t120.5 -70.5t78 -109.5t28 -141.5v-481q0 -41 23.5 -66t66.5 -25q12 0 27.5 2t25.5 5l12 -123 q-25 -4 -51.5 -7.5t-54.5 -3.5q-82 0 -131 44t-60 122q-59 -78 -150 -122t-196 -44q-74 0 -137 22.5t-109.5 62.5t-73 95.5t-26.5 118.5zM234 1235q16 72 63 116t115 44q35 0 69.5 -12.5t66.5 -26t60.5 -25.5t53.5 -12q63 0 86 76l104 -31q-16 -72 -63.5 -117t-114.5 -45 q-35 0 -70 12.5t-66.5 25.5t-60 25.5t-53.5 12.5q-63 0 -86 -76zM250 285q0 -82 63.5 -136.5t161.5 -54.5q63 0 117.5 21.5t93.5 61.5t60.5 95.5t21.5 120.5v84q-104 25 -205 25q-147 0 -230 -57.5t-83 -159.5z" />
<glyph unicode="&#xe4;" horiz-adv-x="1116" d="M90 274q0 158 121 244t334 86q53 0 108.5 -6t114.5 -23v103q0 96 -66.5 156.5t-177.5 60.5q-158 0 -329 -74l-45 119q104 41 200 60.5t193 19.5q84 0 154.5 -24.5t120.5 -70.5t78 -109.5t28 -141.5v-481q0 -41 23.5 -66t66.5 -25q12 0 27.5 2t25.5 5l12 -123 q-25 -4 -51.5 -7.5t-54.5 -3.5q-82 0 -131 44t-60 122q-59 -78 -150 -122t-196 -44q-74 0 -137 22.5t-109.5 62.5t-73 95.5t-26.5 118.5zM227 1298q0 45 28 73t73 28t72.5 -28t27.5 -73t-27.5 -72.5t-72.5 -27.5t-73 27.5t-28 72.5zM250 285q0 -82 63.5 -136.5t161.5 -54.5 q63 0 117.5 21.5t93.5 61.5t60.5 95.5t21.5 120.5v84q-104 25 -205 25q-147 0 -230 -57.5t-83 -159.5zM657 1298q0 45 28 73t73 28t72.5 -28t27.5 -73t-27.5 -72.5t-72.5 -27.5t-73 27.5t-28 72.5z" />
<glyph unicode="&#xe5;" horiz-adv-x="1116" d="M90 274q0 158 121 244t334 86q53 0 108.5 -6t114.5 -23v103q0 96 -66.5 156.5t-177.5 60.5q-158 0 -329 -74l-45 119q104 41 200 60.5t193 19.5q84 0 154.5 -24.5t120.5 -70.5t78 -109.5t28 -141.5v-481q0 -41 23.5 -66t66.5 -25q12 0 27.5 2t25.5 5l12 -123 q-25 -4 -51.5 -7.5t-54.5 -3.5q-82 0 -131 44t-60 122q-59 -78 -150 -122t-196 -44q-74 0 -137 22.5t-109.5 62.5t-73 95.5t-26.5 118.5zM250 285q0 -82 63.5 -136.5t161.5 -54.5q63 0 117.5 21.5t93.5 61.5t60.5 95.5t21.5 120.5v84q-104 25 -205 25q-147 0 -230 -57.5 t-83 -159.5zM338 1298q0 88 56.5 143.5t148.5 55.5t148.5 -55.5t56.5 -143.5t-55.5 -143t-147.5 -55t-149.5 55t-57.5 143zM426 1298q0 -53 33 -84.5t86 -31.5t83.5 31.5t30.5 84.5t-31.5 86t-84.5 33t-85 -33t-32 -86z" />
<glyph unicode="&#xe6;" horiz-adv-x="1769" d="M90 272q0 158 121 245t334 87q102 0 223 -29v103q0 96 -66.5 156.5t-177.5 60.5q-158 0 -329 -74l-45 119q104 41 200 60.5t193 19.5q125 0 214 -58.5t111 -150.5q53 98 151.5 153.5t223.5 55.5q100 0 183 -37t142.5 -103.5t93.5 -159.5t34 -204q0 -16 -1 -29.5t-1 -29.5 h-770q4 -80 33.5 -145.5t77.5 -112.5t115 -73t144 -26q68 0 143.5 20.5t155.5 63.5l54 -112q-96 -49 -188.5 -73t-178.5 -24q-143 0 -258 68t-180 190q-45 -119 -150.5 -188.5t-242.5 -69.5q-78 0 -143.5 22.5t-113 62.5t-75 94.5t-27.5 117.5zM250 285q0 -82 63.5 -136.5 t161.5 -54.5q66 0 120 21.5t92 61.5t59.5 95.5t21.5 120.5v84q-104 25 -205 25q-147 0 -230 -57.5t-83 -159.5zM924 561h614q-2 74 -24.5 135.5t-61.5 105.5t-92.5 68.5t-116.5 24.5q-66 0 -122 -23.5t-98 -67.5t-67.5 -105.5t-31.5 -137.5z" />
<glyph unicode="&#xe7;" horiz-adv-x="1007" d="M90 498q0 115 37 211t103.5 164.5t158.5 107.5t203 39q184 0 352 -113l-67 -112q-131 90 -265 90q-78 0 -143.5 -29t-112.5 -79t-72.5 -121.5t-25.5 -157.5t25.5 -158t72.5 -123t113 -79.5t143 -28.5q70 0 134.5 23.5t130.5 68.5l67 -113q-74 -51 -150.5 -77.5 t-154.5 -33.5l-16 -92q68 -10 109.5 -57t41.5 -111q0 -78 -64.5 -128t-168.5 -50q-43 0 -92.5 9.5t-96.5 27.5l31 96q80 -29 143 -28q47 0 81 23.5t34 64.5t-35 64.5t-90 23.5h-22l30 162q-96 10 -176 52t-137 109.5t-89 158t-32 196.5z" />
<glyph unicode="&#xe8;" horiz-adv-x="1099" d="M90 498q0 115 36 211t100.5 164.5t153.5 107.5t195 39q100 0 183.5 -37t143 -103.5t92 -159.5t32.5 -204v-29.5t-2 -29.5h-770q6 -80 34.5 -145.5t78 -112.5t115 -73t143.5 -26q68 0 144.5 20.5t156.5 63.5l51 -112q-98 -49 -191.5 -73t-177.5 -24q-115 0 -209 38 t-163.5 107.5t-107.5 166t-38 211.5zM254 561h614q-2 74 -24.5 135.5t-61.5 105.5t-91.5 68.5t-115.5 24.5q-135 0 -222 -91t-99 -243zM295 1356l74 106l348 -241l-63 -93z" />
<glyph unicode="&#xe9;" horiz-adv-x="1099" d="M90 498q0 115 36 211t100.5 164.5t153.5 107.5t195 39q100 0 183.5 -37t143 -103.5t92 -159.5t32.5 -204v-29.5t-2 -29.5h-770q6 -80 34.5 -145.5t78 -112.5t115 -73t143.5 -26q68 0 144.5 20.5t156.5 63.5l51 -112q-98 -49 -191.5 -73t-177.5 -24q-115 0 -209 38 t-163.5 107.5t-107.5 166t-38 211.5zM254 561h614q-2 74 -24.5 135.5t-61.5 105.5t-91.5 68.5t-115.5 24.5q-135 0 -222 -91t-99 -243zM447 1221l348 241l74 -106l-359 -228z" />
<glyph unicode="&#xea;" horiz-adv-x="1099" d="M90 498q0 115 36 211t100.5 164.5t153.5 107.5t195 39q100 0 183.5 -37t143 -103.5t92 -159.5t32.5 -204v-29.5t-2 -29.5h-770q6 -80 34.5 -145.5t78 -112.5t115 -73t143.5 -26q68 0 144.5 20.5t156.5 63.5l51 -112q-98 -49 -191.5 -73t-177.5 -24q-115 0 -209 38 t-163.5 107.5t-107.5 166t-38 211.5zM254 561h614q-2 74 -24.5 135.5t-61.5 105.5t-91.5 68.5t-115.5 24.5q-135 0 -222 -91t-99 -243zM273 1210l252 244h102l252 -244l-72 -77l-231 204l-232 -204z" />
<glyph unicode="&#xeb;" horiz-adv-x="1099" d="M90 498q0 115 36 211t100.5 164.5t153.5 107.5t195 39q100 0 183.5 -37t143 -103.5t92 -159.5t32.5 -204v-29.5t-2 -29.5h-770q6 -80 34.5 -145.5t78 -112.5t115 -73t143.5 -26q68 0 144.5 20.5t156.5 63.5l51 -112q-98 -49 -191.5 -73t-177.5 -24q-115 0 -209 38 t-163.5 107.5t-107.5 166t-38 211.5zM254 561h614q-2 74 -24.5 135.5t-61.5 105.5t-91.5 68.5t-115.5 24.5q-135 0 -222 -91t-99 -243zM260 1298q0 45 28 73t73 28t72.5 -28t27.5 -73t-27.5 -72.5t-72.5 -27.5t-73 27.5t-28 72.5zM690 1298q0 45 28 73t73 28t72.5 -28 t27.5 -73t-27.5 -72.5t-72.5 -27.5t-73 27.5t-28 72.5z" />
<glyph unicode="&#xec;" horiz-adv-x="485" d="M-37 1356l74 106l348 -241l-63 -93zM162 0v995h162v-995h-162z" />
<glyph unicode="&#xed;" horiz-adv-x="485" d="M115 1221l348 241l74 -106l-359 -228zM162 0v995h162v-995h-162z" />
<glyph unicode="&#xee;" horiz-adv-x="485" d="M-59 1210l252 244h102l252 -244l-72 -77l-231 204l-232 -204zM162 0v995h162v-995h-162z" />
<glyph unicode="&#xef;" horiz-adv-x="485" d="M-72 1298q0 45 28 73t73 28t72.5 -28t27.5 -73t-27.5 -72.5t-72.5 -27.5t-73 27.5t-28 72.5zM162 0v995h162v-995h-162zM358 1298q0 45 28 73t73 28t72.5 -28t27.5 -73t-27.5 -72.5t-72.5 -27.5t-73 27.5t-28 72.5z" />
<glyph unicode="&#xf0;" horiz-adv-x="1193" d="M90 494q0 113 35 207t96.5 160.5t147.5 103t188 36.5q90 0 163 -27.5t140 -99.5q-37 111 -104.5 200t-161.5 155l-266 -131l-45 90l198 98q-39 23 -80 41.5t-86 34.5l39 115q78 -23 145.5 -52.5t131.5 -64.5l235 117l45 -91l-184 -90q158 -123 249 -289.5t107 -369.5 q4 -63 0 -127q-8 -119 -48 -217t-107.5 -169t-156.5 -110t-196 -39q-106 0 -195 38t-153.5 107.5t-100.5 164t-36 209.5zM252 489q0 -86 24.5 -157.5t67.5 -122.5t103.5 -80t134.5 -29t136 30t107 84t71 130t26 166q0 80 -26 147.5t-71 116.5t-107.5 76t-135.5 27 q-74 0 -134.5 -29t-103.5 -80t-67.5 -122t-24.5 -157z" />
<glyph unicode="&#xf1;" horiz-adv-x="1193" d="M162 0v995h131l20 -182q51 98 145.5 152.5t213.5 54.5q82 0 151.5 -26.5t120.5 -76t79 -118t28 -150.5v-649h-164v625q0 115 -73 186.5t-189 71.5q-66 0 -120 -23.5t-95 -65.5t-63.5 -101.5t-22.5 -131.5v-561h-162zM289 1235q16 72 63 116t115 44q35 0 69.5 -12.5 t66.5 -26t60.5 -25.5t53.5 -12q63 0 86 76l104 -31q-16 -72 -63.5 -117t-114.5 -45q-35 0 -70 12.5t-66.5 25.5t-60 25.5t-53.5 12.5q-63 0 -86 -76z" />
<glyph unicode="&#xf2;" horiz-adv-x="1193" d="M90 498q0 115 38 211t105.5 164.5t160.5 107.5t204 39t204 -39t159.5 -107.5t104.5 -165t38 -210.5q0 -115 -38 -211.5t-104.5 -166t-159.5 -107.5t-204 -38t-204 38t-160.5 107.5t-105.5 166t-38 211.5zM258 498q0 -86 24.5 -159t69.5 -124t107.5 -80t138.5 -29 q74 0 136.5 29t107.5 80t70.5 124t25.5 159t-25.5 157.5t-70.5 123.5t-107.5 81t-136.5 29q-76 0 -138.5 -29t-107.5 -81t-69.5 -123.5t-24.5 -157.5zM317 1356l74 106l348 -241l-63 -93z" />
<glyph unicode="&#xf3;" horiz-adv-x="1193" d="M90 498q0 115 38 211t105.5 164.5t160.5 107.5t204 39t204 -39t159.5 -107.5t104.5 -165t38 -210.5q0 -115 -38 -211.5t-104.5 -166t-159.5 -107.5t-204 -38t-204 38t-160.5 107.5t-105.5 166t-38 211.5zM258 498q0 -86 24.5 -159t69.5 -124t107.5 -80t138.5 -29 q74 0 136.5 29t107.5 80t70.5 124t25.5 159t-25.5 157.5t-70.5 123.5t-107.5 81t-136.5 29q-76 0 -138.5 -29t-107.5 -81t-69.5 -123.5t-24.5 -157.5zM469 1221l348 241l74 -106l-359 -228z" />
<glyph unicode="&#xf4;" horiz-adv-x="1193" d="M90 498q0 115 38 211t105.5 164.5t160.5 107.5t204 39t204 -39t159.5 -107.5t104.5 -165t38 -210.5q0 -115 -38 -211.5t-104.5 -166t-159.5 -107.5t-204 -38t-204 38t-160.5 107.5t-105.5 166t-38 211.5zM258 498q0 -86 24.5 -159t69.5 -124t107.5 -80t138.5 -29 q74 0 136.5 29t107.5 80t70.5 124t25.5 159t-25.5 157.5t-70.5 123.5t-107.5 81t-136.5 29q-76 0 -138.5 -29t-107.5 -81t-69.5 -123.5t-24.5 -157.5zM295 1210l252 244h102l252 -244l-72 -77l-231 204l-232 -204z" />
<glyph unicode="&#xf5;" horiz-adv-x="1193" d="M90 498q0 115 38 211t105.5 164.5t160.5 107.5t204 39t204 -39t159.5 -107.5t104.5 -165t38 -210.5q0 -115 -38 -211.5t-104.5 -166t-159.5 -107.5t-204 -38t-204 38t-160.5 107.5t-105.5 166t-38 211.5zM258 498q0 -86 24.5 -159t69.5 -124t107.5 -80t138.5 -29 q74 0 136.5 29t107.5 80t70.5 124t25.5 159t-25.5 157.5t-70.5 123.5t-107.5 81t-136.5 29q-76 0 -138.5 -29t-107.5 -81t-69.5 -123.5t-24.5 -157.5zM289 1235q16 72 63 116t115 44q35 0 69.5 -12.5t66.5 -26t60.5 -25.5t53.5 -12q63 0 86 76l104 -31q-16 -72 -63.5 -117 t-114.5 -45q-35 0 -70 12.5t-66.5 25.5t-60 25.5t-53.5 12.5q-63 0 -86 -76z" />
<glyph unicode="&#xf6;" horiz-adv-x="1193" d="M90 498q0 115 38 211t105.5 164.5t160.5 107.5t204 39t204 -39t159.5 -107.5t104.5 -165t38 -210.5q0 -115 -38 -211.5t-104.5 -166t-159.5 -107.5t-204 -38t-204 38t-160.5 107.5t-105.5 166t-38 211.5zM258 498q0 -86 24.5 -159t69.5 -124t107.5 -80t138.5 -29 q74 0 136.5 29t107.5 80t70.5 124t25.5 159t-25.5 157.5t-70.5 123.5t-107.5 81t-136.5 29q-76 0 -138.5 -29t-107.5 -81t-69.5 -123.5t-24.5 -157.5zM282 1298q0 45 28 73t73 28t72.5 -28t27.5 -73t-27.5 -72.5t-72.5 -27.5t-73 27.5t-28 72.5zM712 1298q0 45 28 73t73 28 t72.5 -28t27.5 -73t-27.5 -72.5t-72.5 -27.5t-73 27.5t-28 72.5z" />
<glyph unicode="&#xf7;" d="M106 526v127h967v-127h-967zM496 197q0 41 26.5 67.5t67.5 26.5t67.5 -26.5t26.5 -67.5t-26.5 -68t-67.5 -27t-67.5 27t-26.5 68zM496 983q0 41 26.5 67.5t67.5 26.5t67.5 -24.5t26.5 -69.5q0 -41 -26.5 -67.5t-67.5 -26.5t-67.5 26.5t-26.5 67.5z" />
<glyph unicode="&#xf8;" horiz-adv-x="1193" d="M90 498q0 115 38 211t105.5 164.5t160.5 107.5t204 39q78 0 146.5 -21.5t125.5 -60.5l74 100l74 -57l-72 -94q74 -70 116 -168t42 -221q0 -115 -38 -211.5t-104.5 -166t-159.5 -107.5t-204 -38q-160 0 -272 82l-76 -100l-74 55l70 94q-74 70 -115 169.5t-41 222.5z M246 498q0 -168 92 -271l450 602q-41 31 -89 48.5t-101 17.5q-78 0 -142.5 -29.5t-111.5 -82t-72.5 -125t-25.5 -160.5zM406 166q78 -66 192 -66q76 0 140.5 30t111.5 82t72.5 125t25.5 161q0 84 -23.5 151.5t-66.5 116.5z" />
<glyph unicode="&#xf9;" horiz-adv-x="1193" d="M145 346v649h162v-626q0 -115 74 -185.5t188 -70.5q63 0 118.5 23.5t96.5 65.5t63.5 101t22.5 131v561h164v-995h-131l-20 182q-53 -98 -147.5 -152.5t-213.5 -54.5q-84 0 -152.5 27t-118.5 76t-78 117.5t-28 150.5zM317 1356l74 106l348 -241l-63 -93z" />
<glyph unicode="&#xfa;" horiz-adv-x="1193" d="M145 346v649h162v-626q0 -115 74 -185.5t188 -70.5q63 0 118.5 23.5t96.5 65.5t63.5 101t22.5 131v561h164v-995h-131l-20 182q-53 -98 -147.5 -152.5t-213.5 -54.5q-84 0 -152.5 27t-118.5 76t-78 117.5t-28 150.5zM469 1221l348 241l74 -106l-359 -228z" />
<glyph unicode="&#xfb;" horiz-adv-x="1193" d="M145 346v649h162v-626q0 -115 74 -185.5t188 -70.5q63 0 118.5 23.5t96.5 65.5t63.5 101t22.5 131v561h164v-995h-131l-20 182q-53 -98 -147.5 -152.5t-213.5 -54.5q-84 0 -152.5 27t-118.5 76t-78 117.5t-28 150.5zM295 1210l252 244h102l252 -244l-72 -77l-231 204 l-232 -204z" />
<glyph unicode="&#xfc;" horiz-adv-x="1193" d="M145 346v649h162v-626q0 -115 74 -185.5t188 -70.5q63 0 118.5 23.5t96.5 65.5t63.5 101t22.5 131v561h164v-995h-131l-20 182q-53 -98 -147.5 -152.5t-213.5 -54.5q-84 0 -152.5 27t-118.5 76t-78 117.5t-28 150.5zM282 1298q0 45 28 73t73 28t72.5 -28t27.5 -73 t-27.5 -72.5t-72.5 -27.5t-73 27.5t-28 72.5zM712 1298q0 45 28 73t73 28t72.5 -28t27.5 -73t-27.5 -72.5t-72.5 -27.5t-73 27.5t-28 72.5z" />
<glyph unicode="&#xfd;" horiz-adv-x="1062" d="M47 995h170l320 -807l309 807h172l-463 -1145q-61 -156 -142 -228.5t-202 -72.5q-29 0 -65.5 4.5t-73.5 14.5l22 131q59 -16 101 -16q76 0 124 46t89 150l51 129zM404 1221l348 241l74 -106l-359 -228z" />
<glyph unicode="&#xfe;" horiz-adv-x="1193" d="M162 -426v1868h162v-604q53 88 138 135t193 47q98 0 180.5 -39t141.5 -107.5t93 -165t34 -210.5q0 -115 -34 -211.5t-93 -165t-141 -107.5t-181 -39q-109 0 -193.5 47.5t-137.5 133.5v-582h-162zM322 418q0 -68 21.5 -125t60 -98t93 -63.5t119.5 -22.5q70 0 129.5 28.5 t102.5 79.5t66.5 123t23.5 158t-23.5 156.5t-66.5 122.5t-102.5 81t-129.5 29q-66 0 -120 -22.5t-92.5 -64.5t-60 -98.5t-21.5 -123.5v-160z" />
<glyph unicode="&#xff;" horiz-adv-x="1062" d="M47 995h170l320 -807l309 807h172l-463 -1145q-61 -156 -142 -228.5t-202 -72.5q-29 0 -65.5 4.5t-73.5 14.5l22 131q59 -16 101 -16q76 0 124 46t89 150l51 129zM217 1298q0 45 28 73t73 28t72.5 -28t27.5 -73t-27.5 -72.5t-72.5 -27.5t-73 27.5t-28 72.5zM647 1298 q0 45 28 73t73 28t72.5 -28t27.5 -73t-27.5 -72.5t-72.5 -27.5t-73 27.5t-28 72.5z" />
<glyph unicode="&#x152;" horiz-adv-x="2064" d="M100 688q0 152 50.5 279t142.5 218t220 141t282 50h1130v-131h-711v-477h646v-127h-646v-510h744v-131h-1163q-154 0 -282 50t-220 140.5t-142.5 217t-50.5 280.5zM274 688q0 -123 40 -224.5t111 -175t170 -114.5t218 -41h231v1110h-231q-119 0 -218 -41t-170 -114.5 t-111 -175t-40 -224.5z" />
<glyph unicode="&#x153;" horiz-adv-x="1949" d="M90 498q0 115 38 211t105.5 164.5t160.5 107.5t204 39q147 0 258 -75t164 -202q53 127 158.5 202t244.5 75q100 0 183.5 -37t142.5 -103.5t93 -159.5t34 -204q0 -16 -1 -29.5t-1 -29.5h-770q4 -80 33.5 -145.5t78 -112.5t115 -73t144.5 -26q68 0 143.5 20.5t155.5 63.5 l53 -112q-98 -49 -192.5 -73t-178.5 -24q-150 0 -264.5 76t-169.5 205q-53 -129 -165 -205t-259 -76q-111 0 -204 38t-160.5 107.5t-105.5 166t-38 211.5zM258 498q0 -86 24.5 -159t69.5 -124t107.5 -80t138.5 -29q74 0 136.5 29t107.5 80t70.5 124t25.5 159t-25.5 157.5 t-70.5 123.5t-107.5 81t-136.5 29q-76 0 -138.5 -29t-107.5 -81t-69.5 -123.5t-24.5 -157.5zM1104 561h614q-2 74 -24.5 135.5t-61.5 105.5t-92.5 68.5t-116.5 24.5q-66 0 -122 -24.5t-98 -68.5t-67.5 -105.5t-31.5 -135.5z" />
<glyph unicode="&#x178;" horiz-adv-x="1226" d="M25 1376h186l403 -637l402 637h188l-506 -788v-588h-170v588zM299 1679q0 45 28 73t73 28t72.5 -28t27.5 -73t-27.5 -72.5t-72.5 -27.5t-73 27.5t-28 72.5zM729 1679q0 45 28 73t73 28t72.5 -28t27.5 -73t-27.5 -72.5t-72.5 -27.5t-73 27.5t-28 72.5z" />
<glyph unicode="&#x2c6;" horiz-adv-x="491" d="M-57 1210l252 244h102l252 -244l-72 -77l-231 204l-232 -204z" />
<glyph unicode="&#x2dc;" horiz-adv-x="491" d="M-63 1235q16 72 63 116t115 44q35 0 69.5 -12.5t66.5 -26t60.5 -25.5t53.5 -12q63 0 86 76l104 -31q-16 -72 -63.5 -117t-114.5 -45q-35 0 -70 12.5t-66.5 25.5t-60 25.5t-53.5 12.5q-63 0 -86 -76z" />
<glyph unicode="&#x2000;" horiz-adv-x="939" />
<glyph unicode="&#x2001;" horiz-adv-x="1878" />
<glyph unicode="&#x2002;" horiz-adv-x="939" />
<glyph unicode="&#x2003;" horiz-adv-x="1878" />
<glyph unicode="&#x2004;" horiz-adv-x="626" />
<glyph unicode="&#x2005;" horiz-adv-x="469" />
<glyph unicode="&#x2006;" horiz-adv-x="313" />
<glyph unicode="&#x2007;" horiz-adv-x="313" />
<glyph unicode="&#x2008;" horiz-adv-x="234" />
<glyph unicode="&#x2009;" horiz-adv-x="375" />
<glyph unicode="&#x200a;" horiz-adv-x="104" />
<glyph unicode="&#x2010;" horiz-adv-x="655" d="M53 446v127h549v-127h-549z" />
<glyph unicode="&#x2011;" horiz-adv-x="655" d="M53 446v127h549v-127h-549z" />
<glyph unicode="&#x2012;" horiz-adv-x="655" d="M53 446v127h549v-127h-549z" />
<glyph unicode="&#x2013;" horiz-adv-x="983" d="M53 446v127h877v-127h-877z" />
<glyph unicode="&#x2014;" horiz-adv-x="1966" d="M53 446v127h1860v-127h-1860z" />
<glyph unicode="&#x2018;" horiz-adv-x="505" d="M131 1024q0 113 58.5 212t166.5 169l52 -70q-141 -109 -150 -248q47 2 79 -28.5t32 -77.5q0 -49 -33 -82t-82 -33q-55 0 -89 43t-34 115z" />
<glyph unicode="&#x2019;" horiz-adv-x="505" d="M98 930q141 106 150 248q-47 -2 -78 27.5t-31 76.5q0 51 32 83t83 32q55 0 88 -43t33 -115q0 -113 -58.5 -211t-166.5 -168z" />
<glyph unicode="&#x201a;" horiz-adv-x="440" d="M98 -258q141 106 150 248q-47 -2 -78 27.5t-31 76.5q0 51 32 83t83 32q55 0 88 -43t33 -115q0 -113 -58.5 -211t-166.5 -168z" />
<glyph unicode="&#x201c;" horiz-adv-x="905" d="M131 1024q0 113 58.5 212t166.5 169l52 -70q-141 -109 -150 -248q47 2 79 -28.5t32 -77.5q0 -49 -33 -82t-82 -33q-55 0 -89 43t-34 115zM530 1024q0 113 58.5 212t166.5 169l52 -70q-141 -109 -150 -248q47 2 79 -28.5t32 -77.5q0 -49 -33 -82t-82 -33q-55 0 -89 43 t-34 115z" />
<glyph unicode="&#x201d;" horiz-adv-x="905" d="M98 930q141 106 150 248q-47 -2 -78 27.5t-31 76.5q0 51 32 83t83 32q55 0 88 -43t33 -115q0 -113 -58.5 -211t-166.5 -168zM497 930q141 106 150 248q-47 -2 -78 27.5t-31 76.5q0 51 32 83t83 32q55 0 88 -43t33 -115q0 -113 -58.5 -211t-166.5 -168z" />
<glyph unicode="&#x201e;" horiz-adv-x="905" d="M98 -258q141 106 150 248q-47 -2 -78 27.5t-31 76.5q0 51 32 83t83 32q55 0 88 -43t33 -115q0 -113 -58.5 -211t-166.5 -168zM497 -258q141 106 150 248q-47 -2 -78 27.5t-31 76.5q0 51 32 83t83 32q55 0 88 -43t33 -115q0 -113 -58.5 -211t-166.5 -168z" />
<glyph unicode="&#x2022;" horiz-adv-x="983" d="M197 590q0 61 22.5 114.5t62.5 93.5t94 63.5t116 23.5q61 0 114 -23.5t93 -63.5t63.5 -93.5t23.5 -114.5t-23.5 -115.5t-63.5 -94.5t-93 -62.5t-114 -22.5t-115.5 22.5t-94.5 62.5t-62.5 94.5t-22.5 115.5z" />
<glyph unicode="&#x2026;" horiz-adv-x="1966" d="M213 94q0 51 32 83t83 32q49 0 82 -32t33 -83q0 -49 -33 -80.5t-82 -31.5q-51 0 -83 31.5t-32 80.5zM868 94q0 51 32 83t83 32q49 0 82 -32t33 -83q0 -49 -33 -80.5t-82 -31.5q-51 0 -83 31.5t-32 80.5zM1523 94q0 51 32 83t83 32q49 0 82 -32t33 -83q0 -49 -33 -80.5 t-82 -31.5q-51 0 -83 31.5t-32 80.5z" />
<glyph unicode="&#x202f;" horiz-adv-x="375" />
<glyph unicode="&#x2039;" horiz-adv-x="636" d="M59 473v74l406 450l98 -77l-344 -410l344 -410l-98 -80z" />
<glyph unicode="&#x203a;" horiz-adv-x="636" d="M74 100l344 410l-344 410l98 77l406 -450v-74l-406 -453z" />
<glyph unicode="&#x205f;" horiz-adv-x="469" />
<glyph unicode="&#x20ac;" d="M70 506v102h143q-2 20 -2 39v41v56.5t4 56.5h-145v102h166q25 115 75.5 207t122.5 156.5t161 99.5t191 35q190 0 359 -96l-64 -113q-66 37 -133 57.5t-143 20.5q-150 0 -257.5 -100.5t-146.5 -266.5h502v-102h-530q-4 -29 -4 -56.5v-56.5v-41t2 -39h532v-102h-510 q35 -182 143.5 -291t268.5 -109q76 0 143.5 20.5t132.5 57.5l64 -112q-168 -96 -359 -97q-104 0 -196 37t-165 106.5t-123 168t-75 219.5h-157z" />
<glyph unicode="&#x2122;" horiz-adv-x="1929" d="M49 1276v100h703v-100h-287v-752h-127v752h-289zM942 524v852h125l299 -405l297 405h127v-852h-119v678l-268 -368h-76l-270 368v-678h-115z" />
<glyph unicode="&#x25fc;" horiz-adv-x="993" d="M0 0v993h993v-993h-993z" />
</font>
</defs>
</svg>
