<?xml version="1.0" standalone="no"?>
<!DOCTYPE svg PUBLIC "-//W3C//DTD SVG 1.1//EN" "http://www.w3.org/Graphics/SVG/1.1/DTD/svg11.dtd" >
<svg xmlns="http://www.w3.org/2000/svg" xmlns:xlink="http://www.w3.org/1999/xlink" version="1.1">
<metadata></metadata>
<defs>
<font id="webfontregular" horiz-adv-x="1179" >
<font-face units-per-em="2048" ascent="1536" descent="-512" />
<missing-glyph horiz-adv-x="491" />
<glyph unicode="&#xfb01;" horiz-adv-x="1269" d="M45 805v199h186v92q0 82 31 149.5t87.5 116.5t134 76.5t169.5 27.5q156 0 344 -55l-45 -199q-76 23 -139 36.5t-119 13.5q-90 0 -145 -49.5t-55 -127.5v-81h641v-1004h-263v805h-378v-805h-263v805h-186z" />
<glyph unicode="&#xfb02;" horiz-adv-x="1368" d="M45 805v199h186v92q0 82 32 150.5t89.5 117.5t136 75.5t175.5 26.5q104 0 219.5 -13t251.5 -36v-1130q0 -47 26.5 -75t73.5 -28q20 0 44 4.5t48 8.5l29 -199q-49 -10 -94 -16.5t-88 -6.5q-68 0 -123.5 20.5t-95.5 58.5t-61.5 90.5t-21.5 115.5v983q-104 18 -188 19 q-86 0 -138 -49.5t-52 -127.5v-81h245v-199h-245v-805h-263v805h-186z" />
<glyph unicode="&#xfb03;" horiz-adv-x="1941" d="M45 805v199h186v139q0 72 25 131t70 102t107.5 66.5t137.5 23.5q106 0 228 -30l-35 -197q-72 18 -129 18q-63 0 -102 -38.5t-39 -102.5v-112h411v92q0 82 31 149.5t87 116.5t133 76.5t169 27.5q158 0 346 -55l-47 -199q-74 23 -137.5 36.5t-118.5 13.5 q-92 0 -146.5 -49.5t-54.5 -127.5v-81h641v-1004h-262v805h-379v-805h-262v805h-411v-805h-263v805h-186z" />
<glyph unicode="&#xfb04;" horiz-adv-x="2039" d="M45 805v199h186v139q0 72 25 131t70 102t107.5 66.5t137.5 23.5q106 0 228 -30l-35 -197q-72 18 -129 18q-63 0 -102 -38.5t-39 -102.5v-112h411v92q0 82 32 150.5t88 117.5t135 75.5t175 26.5q104 0 221 -13t252 -36v-1130q0 -47 27 -75t74 -28q20 0 43.5 4.5t46.5 8.5 l29 -199q-47 -10 -92.5 -16.5t-90.5 -6.5q-135 0 -217 79t-82 206v983q-104 18 -190 19q-86 0 -137.5 -49.5t-51.5 -127.5v-81h244v-199h-244v-805h-262v805h-411v-805h-263v805h-186z" />
<glyph horiz-adv-x="0" />
<glyph horiz-adv-x="0" />
<glyph unicode="&#xd;" horiz-adv-x="491" />
<glyph unicode=" "  horiz-adv-x="491" />
<glyph unicode="&#x09;" horiz-adv-x="491" />
<glyph unicode="&#xa0;" horiz-adv-x="491" />
<glyph unicode="!" horiz-adv-x="575" d="M131 135q0 70 44 114t112 44q70 0 113.5 -44t43.5 -114t-44 -114t-113 -44q-72 0 -114 44t-42 114zM156 1376h264l-23 -919h-219z" />
<glyph unicode="&#x22;" horiz-adv-x="909" d="M117 1376h243l-22 -497h-199zM549 1376h243l-22 -497h-199z" />
<glyph unicode="#" horiz-adv-x="1351" d="M33 322v200h243l64 332h-205v201h244l65 338l197 -27l-59 -311h329l66 338l197 -27l-60 -311h205v-201h-244l-63 -332h207v-200h-244l-66 -338l-196 26l57 312h-330l-65 -338l-197 26l60 312h-205zM479 522h330l63 332h-329z" />
<glyph unicode="$" d="M131 166l64 205q100 -41 196 -64.5t178 -23.5q100 0 155.5 38.5t55.5 108.5q0 57 -47 87t-118.5 50.5t-154.5 42t-155 60.5t-119 105.5t-47 178.5q0 133 93.5 223.5t246.5 112.5v348h221v-344q139 -14 308 -80l-64 -202q-92 39 -175 60.5t-159 21.5q-96 0 -149 -38 t-53 -102q0 -55 47 -83.5t118.5 -48t154.5 -40t154.5 -60.5t119 -108.5t47.5 -183.5q0 -139 -95.5 -230t-253.5 -114v-348h-221v342q-168 16 -348 86z" />
<glyph unicode="%" horiz-adv-x="1769" d="M74 1032q0 80 26.5 147.5t74.5 117t114.5 77t146.5 27.5t146.5 -27.5t114.5 -77t76 -117t28 -147.5t-28 -147.5t-76 -116.5t-114.5 -76.5t-146.5 -27.5t-146.5 27.5t-114.5 76.5t-74.5 116.5t-26.5 147.5zM268 1032q0 -98 46 -156.5t122 -58.5t123 58.5t47 156.5 t-47 156.5t-123 58.5t-122 -58.5t-46 -156.5zM301 51l1032 1376l135 -102l-1032 -1376zM969 344q0 80 26.5 147.5t75.5 116.5t115.5 77t146.5 28t146.5 -28t114.5 -77t75 -116.5t27 -147.5t-27 -147.5t-75 -116.5t-114.5 -77t-146.5 -28t-146.5 28t-115.5 77t-75.5 116.5 t-26.5 147.5zM1163 344q0 -98 47 -156.5t123 -58.5t122 58.5t46 156.5t-46 156.5t-122 58.5t-123 -58.5t-47 -156.5z" />
<glyph unicode="&#x26;" horiz-adv-x="1341" d="M63 381q0 121 77 220t222 171q-70 72 -110.5 143.5t-40.5 151.5q0 74 28.5 135.5t81 105.5t125 68.5t158.5 24.5q84 0 154.5 -22.5t121 -63.5t79 -98.5t28.5 -126.5q0 -109 -67.5 -198t-223.5 -169l265 -287q29 53 42 113.5t15 126.5h221q-4 -115 -37 -217.5t-92 -186.5 l250 -272h-287l-131 141q-182 -166 -391 -166q-106 0 -196.5 30t-155 84t-100.5 128t-36 164zM309 401q0 -49 21.5 -91t57.5 -72.5t83 -47t100 -16.5q66 0 127.5 29.5t110.5 83.5l-328 354q-82 -49 -127 -108.5t-45 -131.5zM446 1057q0 -47 33 -94.5t92 -100.5 q98 53 141.5 102.5t43.5 102.5q0 59 -43 97t-109 38q-72 0 -115 -40t-43 -105z" />
<glyph unicode="'" horiz-adv-x="477" d="M117 1376h243l-22 -497h-199z" />
<glyph unicode="(" horiz-adv-x="718" d="M133 590q0 262 92 500.5t271 431.5l186 -123q-156 -174 -231.5 -380t-75.5 -429t75.5 -429t231.5 -380l-186 -123q-178 193 -270.5 430.5t-92.5 501.5z" />
<glyph unicode=")" horiz-adv-x="718" d="M35 -219q158 174 232.5 380t74.5 429t-74.5 429t-232.5 380l186 123q180 -193 271.5 -430.5t91.5 -501.5q0 -262 -91.5 -501t-271.5 -431z" />
<glyph unicode="*" horiz-adv-x="1024" d="M72 991l55 170l297 -96v311h178v-311l295 96l57 -170l-299 -98l185 -252l-144 -106l-184 260l-184 -260l-144 106l185 252z" />
<glyph unicode="+" d="M90 479v221h389v390h221v-390h390v-221h-390v-389h-221v389h-389z" />
<glyph unicode="," horiz-adv-x="542" d="M98 -225q123 100 150 215q-61 6 -101.5 48t-40.5 103q0 72 46.5 118t117.5 46q76 0 123 -55t47 -146q0 -129 -68.5 -241.5t-193.5 -190.5z" />
<glyph unicode="-" horiz-adv-x="655" d="M45 414v200h565v-200h-565z" />
<glyph unicode="." horiz-adv-x="542" d="M106 141q0 72 46.5 118t117.5 46q72 0 118 -46t46 -118t-46 -118t-118 -46t-118 46t-46 118z" />
<glyph unicode="/" horiz-adv-x="786" d="M-18 -240l614 1725l209 -66l-615 -1724z" />
<glyph unicode="0" d="M63 688q0 166 35 298t102.5 224.5t166 141.5t223.5 49t223 -49t166 -141.5t102.5 -224.5t34.5 -298t-34.5 -298t-102.5 -224t-166 -141.5t-223 -49.5t-223.5 49.5t-166 141.5t-102.5 224t-35 298zM309 688q0 -233 75 -365.5t206 -132.5t205.5 132.5t74.5 365.5 t-74.5 365.5t-205.5 132.5t-206 -132.5t-75 -365.5z" />
<glyph unicode="1" d="M158 1118l448 258h219v-1376h-262v1122l-315 -180z" />
<glyph unicode="2" d="M90 1260q119 70 235.5 105.5t231.5 35.5q98 0 180 -31t140.5 -86t91 -131t32.5 -168q0 -221 -198 -420l-354 -356h569v-209h-918v166l490 489q78 78 116.5 150t38.5 143q0 104 -66.5 168t-172.5 64q-84 0 -158 -32t-158 -81z" />
<glyph unicode="3" d="M74 84l84 195q94 -45 186 -70t176 -25q106 0 174 57.5t68 149.5q0 98 -81 158.5t-210 60.5h-96v189h96q117 0 190.5 56t73.5 146q0 86 -57 138.5t-152 52.5q-78 0 -161.5 -22.5t-174.5 -63.5l-84 194q121 53 236 77t225 24q94 0 173 -27.5t136.5 -77t89 -118t31.5 -150.5 q0 -115 -59 -197.5t-164 -119.5q115 -37 185.5 -130.5t70.5 -215.5q0 -86 -34.5 -158t-96 -123t-146.5 -80t-186 -29q-117 0 -240.5 25t-252.5 84z" />
<glyph unicode="4" d="M51 297v178l633 901h250v-878h182v-201h-182v-297h-242v297h-641zM295 498h397v565z" />
<glyph unicode="5" d="M100 100l101 193q82 -49 161.5 -76t153.5 -27q123 0 195.5 62.5t72.5 169.5q0 113 -78.5 177.5t-222.5 64.5q-127 0 -288 -37v749h796v-209h-567v-331q37 6 74 8t69 2q109 0 196 -31t148.5 -86t95 -135t33.5 -178q0 -96 -36.5 -177t-103 -139.5t-160 -91.5t-203.5 -33 q-115 0 -225.5 33t-211.5 92z" />
<glyph unicode="6" d="M90 621q0 184 41 329.5t118 245.5t187.5 152.5t251.5 52.5q90 0 184.5 -21.5t184.5 -68.5l-90 -189q-66 35 -134.5 54.5t-134.5 19.5q-164 0 -260 -114.5t-100 -336.5q51 72 136 113t190 41q98 0 181 -32.5t142.5 -91t92 -140.5t32.5 -180q0 -104 -37 -192.5t-102.5 -152 t-154.5 -99.5t-195 -36q-123 0 -222.5 43t-168 126t-105.5 203t-37 274zM354 465q0 -127 72 -206t186 -79q55 0 102.5 19.5t82 55.5t54 84t19.5 105q0 115 -69.5 184.5t-184.5 69.5q-55 0 -103 -17t-84 -48t-55.5 -74t-19.5 -94z" />
<glyph unicode="7" d="M113 1167v209h917v-166l-516 -1210h-274l503 1167h-630z" />
<glyph unicode="8" d="M74 367q0 119 71.5 208t202.5 130q-109 39 -175.5 122.5t-66.5 198.5q0 82 35 151.5t99.5 119t152.5 77t197 27.5q106 0 195 -27.5t154 -77t99.5 -119t34.5 -151.5q0 -115 -66.5 -199t-175.5 -122q131 -43 203 -131.5t72 -206.5q0 -88 -38 -160t-105.5 -123t-162.5 -80 t-210 -29t-210 29t-162.5 80t-105.5 123t-38 160zM336 383q0 -94 70.5 -151.5t183.5 -57.5t183.5 57.5t70.5 151.5q0 90 -68.5 146t-185.5 81q-117 -25 -185.5 -81t-68.5 -146zM358 1010q0 -88 65 -138t167 -73q102 23 166.5 73t64.5 138q0 84 -65.5 138t-165.5 54t-166 -54 t-66 -138z" />
<glyph unicode="9" d="M68 922q0 104 36.5 192t102 151.5t155 99.5t195.5 36q123 0 222.5 -43t168 -126t105.5 -202.5t37 -273.5q0 -184 -41 -329.5t-118 -246t-187.5 -153t-251.5 -52.5q-90 0 -184.5 21.5t-184.5 69.5l90 188q66 -35 134.5 -54.5t133.5 -19.5q164 0 260.5 115t100.5 336 q-51 -72 -136 -113t-190 -41q-98 0 -181 33t-142.5 91t-92 140t-32.5 181zM309 932q0 -115 70 -184.5t184 -69.5q55 0 103.5 17.5t84 48t55 73.5t19.5 94q0 127 -71.5 206t-186.5 79q-55 0 -102 -20.5t-82 -55.5t-54.5 -83t-19.5 -105z" />
<glyph unicode=":" horiz-adv-x="575" d="M122 141q0 72 46.5 118t117.5 46q72 0 118 -46t46 -118t-46 -118t-118 -46t-118 46t-46 118zM122 860q0 72 46.5 118t117.5 46q72 0 118 -46t46 -118t-46 -118t-118 -46t-118 46t-46 118z" />
<glyph unicode=";" horiz-adv-x="575" d="M114 -225q123 100 150 215q-61 6 -101.5 48t-40.5 103q0 72 46.5 118t117.5 46q76 0 123 -55t47 -146q0 -129 -68.5 -241.5t-193.5 -190.5zM122 860q0 72 46.5 118t117.5 46q72 0 118 -46t46 -118t-46 -118t-118 -46t-118 46t-46 118z" />
<glyph unicode="&#x3c;" d="M90 479v221l934 426l88 -208l-725 -328l725 -328l-88 -209z" />
<glyph unicode="=" d="M90 242v219h1000v-219h-1000zM90 719v219h1000v-219h-1000z" />
<glyph unicode="&#x3e;" d="M68 262l725 328l-725 328l88 208l934 -426v-221l-934 -426z" />
<glyph unicode="?" horiz-adv-x="958" d="M51 1272q94 63 195.5 96t206.5 33q92 0 169.5 -27.5t134 -77t88.5 -118t32 -150.5q0 -111 -47.5 -187.5t-104.5 -136t-107.5 -113.5t-58.5 -118l-2 -16h-219v37q0 90 43 153.5t95 116.5t95 105.5t43 121.5q0 86 -57 137.5t-145 51.5q-66 0 -128.5 -26t-131.5 -69z M289 141q0 68 44 110t113 42q70 0 114 -42t44 -110q0 -70 -44 -117t-114 -47t-113.5 47t-43.5 117z" />
<glyph unicode="@" horiz-adv-x="2007" d="M80 502q0 203 69.5 371.5t195.5 290.5t300 189.5t383 67.5q199 0 363.5 -60.5t284.5 -168t186.5 -256t66.5 -326.5q0 -123 -31.5 -225t-90 -175t-139.5 -114t-177 -41q-90 0 -156.5 39t-97.5 105q-59 -70 -137 -107t-172 -37q-86 0 -160 34t-126 93.5t-82 141.5t-30 178 t30 178t82 141.5t126 93t160 33.5q82 0 147.5 -30.5t110.5 -86.5l26 97h213v-572q0 -51 26 -81.5t71 -30.5q84 0 135 95t51 251q0 141 -50 258t-140.5 202t-215 131t-274.5 46q-160 0 -294 -53.5t-230 -149.5t-150.5 -229t-54.5 -293t54.5 -293t150.5 -229.5t230 -149.5 t294 -53q227 0 496 149l100 -172q-319 -172 -596 -172q-209 0 -383 67.5t-300 189.5t-195.5 291t-69.5 372zM793 502q0 -109 56 -176.5t142 -67.5q82 0 130 55.5t48 137.5v102q0 84 -48 138t-130 54q-86 0 -142 -67t-56 -176z" />
<glyph unicode="A" horiz-adv-x="1394" d="M8 0l563 1376h252l563 -1376h-274l-127 328h-575l-127 -328h-275zM483 526h430l-215 551z" />
<glyph unicode="B" horiz-adv-x="1351" d="M172 0v1376h600q96 0 176 -26.5t138.5 -74.5t90 -115.5t31.5 -147.5q0 -104 -52 -180t-138 -115q111 -39 175 -128t64 -208q0 -84 -33.5 -154.5t-94 -121t-143.5 -78t-181 -27.5h-633zM434 199h328q102 0 164.5 58t62.5 151q0 92 -62.5 149t-164.5 57h-328v-415zM434 795 h301q92 0 151.5 52t59.5 138t-59.5 139.5t-151.5 53.5h-301v-383z" />
<glyph unicode="C" horiz-adv-x="1331" d="M80 688q0 158 51 289t145.5 225t223.5 146.5t286 52.5q125 0 251 -39t243 -117l-111 -182q-86 59 -172 90t-176 31q-102 0 -188 -36t-147.5 -101.5t-95.5 -156.5t-34 -202t34 -202t95.5 -156.5t147.5 -101t188 -35.5q90 0 176 30.5t172 89.5l111 -182q-117 -78 -243 -117 t-251 -39q-158 0 -286.5 52.5t-223 147.5t-145.5 225t-51 288z" />
<glyph unicode="D" horiz-adv-x="1492" d="M172 0v1376h535q158 0 288.5 -50t224 -140t144.5 -217t51 -281q0 -152 -51 -278.5t-144.5 -218t-224.5 -141.5t-288 -50h-535zM444 209h230q102 0 187 36t146.5 99.5t95.5 151.5t34 192t-34 192.5t-95.5 152t-146.5 99t-187 35.5h-230v-958z" />
<glyph unicode="E" horiz-adv-x="1232" d="M172 0v1376h940v-205h-668v-366h603v-201h-603v-399h701v-205h-973z" />
<glyph unicode="F" horiz-adv-x="1200" d="M172 0v1376h940v-209h-668v-411h603v-211h-603v-545h-272z" />
<glyph unicode="G" horiz-adv-x="1460" d="M80 688q0 156 53 287t148.5 226t228.5 147.5t293 52.5q127 0 254 -36t256 -105l-101 -183q-102 53 -194 84t-184 31q-109 0 -198 -37t-153.5 -104.5t-100.5 -159.5t-36 -203q0 -113 36 -205t101.5 -158.5t156.5 -103.5t200 -37q129 0 247 52v323h-309v201h561v-668 q-129 -55 -257 -86t-263 -31q-164 0 -300 52.5t-233.5 147.5t-151.5 225t-54 288z" />
<glyph unicode="H" horiz-adv-x="1591" d="M172 0v1376h272v-567h703v567h272v-1376h-272v600h-703v-600h-272z" />
<glyph unicode="I" horiz-adv-x="618" d="M172 0v1376h272v-1376h-272z" />
<glyph unicode="J" horiz-adv-x="925" d="M35 14l35 209q51 -12 99 -19t93 -7q96 0 157.5 60t61.5 159v960h273v-987q0 -92 -32 -168t-88 -131t-136 -85t-174 -30q-139 0 -289 39z" />
<glyph unicode="K" horiz-adv-x="1394" d="M172 0v1376h262v-653l608 653h314l-606 -643l634 -733h-319l-498 573l-133 -139v-434h-262z" />
<glyph unicode="L" horiz-adv-x="1101" d="M172 0v1376h272v-1167h613v-209h-885z" />
<glyph unicode="M" horiz-adv-x="1771" d="M172 0v1376h264l451 -618l448 618h264v-1376h-251v1004l-385 -531h-152l-387 531v-1004h-252z" />
<glyph unicode="N" horiz-adv-x="1591" d="M172 0v1376h264l731 -1003v1003h252v-1376h-264l-731 1004v-1004h-252z" />
<glyph unicode="O" horiz-adv-x="1591" d="M80 688q0 156 52 287t147.5 226t227.5 147.5t290 52.5t289 -52.5t226 -147.5t148 -226t53 -287q0 -158 -53 -288t-148 -225t-226.5 -147.5t-288.5 -52.5q-158 0 -290 52.5t-227.5 147.5t-147.5 225t-52 288zM356 688q0 -109 33 -201t91.5 -157.5t139 -102.5t177.5 -37 q96 0 177 37t139 102.5t90 158t32 200.5q0 109 -32 200t-90 157.5t-139 103.5t-177 37t-177 -37t-139.5 -103.5t-91.5 -157.5t-33 -200z" />
<glyph unicode="P" horiz-adv-x="1286" d="M172 0v1376h563q106 0 196.5 -33.5t156 -93t101.5 -143.5t36 -182q0 -100 -36 -183.5t-101.5 -143.5t-155.5 -94t-197 -34h-301v-469h-262zM434 680h260q117 0 189.5 67.5t72.5 176.5q0 106 -72.5 174.5t-189.5 68.5h-260v-487z" />
<glyph unicode="Q" horiz-adv-x="1591" d="M80 688q0 156 52 287t147.5 226t227.5 147.5t290 52.5t289 -52.5t226 -147.5t148 -226t53 -287q0 -195 -78.5 -344t-213.5 -242l305 -219l-133 -166l-392 287q-98 -29 -204 -29q-158 0 -290 52.5t-227.5 147.5t-147.5 225t-52 288zM356 688q0 -109 33 -201t91.5 -157.5 t139 -102.5t177.5 -37q96 0 177 37t139 102.5t90 158t32 200.5q0 109 -32 200t-90 157.5t-139 103.5t-177 37t-177 -37t-139.5 -103.5t-91.5 -157.5t-33 -200z" />
<glyph unicode="R" horiz-adv-x="1351" d="M172 0v1376h573q104 0 190.5 -31.5t150 -89t98.5 -137.5t35 -174q0 -154 -86 -262.5t-232 -138.5l377 -543h-297l-334 502h-213v-502h-262zM434 713h271q109 0 177 61.5t68 165.5q0 100 -68.5 163.5t-176.5 63.5h-271v-454z" />
<glyph unicode="S" horiz-adv-x="1204" d="M84 88l61 203q121 -47 231.5 -74t205.5 -27q127 0 199.5 50.5t72.5 136.5q0 76 -56.5 115.5t-141.5 67.5t-183 52.5t-183 69.5t-141.5 121t-56.5 205q0 88 37 159.5t104.5 123.5t161.5 81t207 29t228.5 -24.5t240.5 -71.5l-61 -203q-211 84 -387 84q-121 0 -192 -48 t-71 -130q0 -55 33 -90t86 -58.5t122 -41t139.5 -38t139 -49.5t122 -75t86 -113.5t32.5 -165.5q0 -90 -38 -164t-106.5 -127t-163.5 -82t-210 -29q-119 0 -248 27t-270 86z" />
<glyph unicode="T" horiz-adv-x="1232" d="M45 1167v209h1143v-209h-434v-1167h-273v1167h-436z" />
<glyph unicode="U" horiz-adv-x="1591" d="M156 539v837h272v-827q0 -80 27.5 -145.5t77 -112.5t117 -74t147.5 -27t147.5 27t115.5 74t75.5 112.5t27.5 145.5v827h273v-837q0 -125 -48.5 -228.5t-133.5 -178.5t-201.5 -116t-255.5 -41t-257 41t-203 116t-133 178.5t-48 228.5z" />
<glyph unicode="V" horiz-adv-x="1394" d="M8 1376h285l405 -1046l404 1046h284l-563 -1376h-252z" />
<glyph unicode="W" horiz-adv-x="2082" d="M33 1376h274l303 -1046l305 1046h254l304 -1046l305 1046h272l-438 -1376h-266l-304 1047l-305 -1047h-266z" />
<glyph unicode="X" horiz-adv-x="1411" d="M20 0l512 705l-487 671h301l361 -499l358 499h301l-485 -671l510 -705h-308l-376 532l-379 -532h-308z" />
<glyph unicode="Y" horiz-adv-x="1263" d="M-8 1376h297l342 -575l344 575h295l-502 -817v-559h-272v559z" />
<glyph unicode="Z" horiz-adv-x="1302" d="M84 0v156l760 1011h-735v209h1085v-155l-760 -1012h785v-209h-1135z" />
<glyph unicode="[" horiz-adv-x="718" d="M178 -283v1745h484v-209h-242v-1327h242v-209h-484z" />
<glyph unicode="\" horiz-adv-x="786" d="M-18 1419l208 66l615 -1725l-209 -65z" />
<glyph unicode="]" horiz-adv-x="718" d="M57 -74h240v1327h-240v209h482v-1745h-482v209z" />
<glyph unicode="^" d="M53 420l426 956h221l426 -956l-208 -78l-328 737l-328 -737z" />
<glyph unicode="_" horiz-adv-x="983" d="M0 -162h983v-200h-983v200z" />
<glyph unicode="`" horiz-adv-x="491" d="M-63 1335l116 168l379 -264l-100 -143z" />
<glyph unicode="a" horiz-adv-x="1128" d="M74 291q0 160 121.5 247t341.5 87q47 0 96 -5.5t98 -15.5v53q0 78 -56.5 127.5t-150.5 49.5q-152 0 -329 -72l-66 182q219 84 426 84q94 0 172 -27.5t133 -77t86 -118t31 -152.5v-407q0 -33 18.5 -52.5t51.5 -19.5q16 0 30.5 2t20.5 4l18 -190q-33 -6 -67.5 -10.5 t-71.5 -4.5q-78 0 -133.5 36t-81.5 100q-66 -66 -152 -101t-178 -35q-78 0 -144.5 24t-113.5 65.5t-73.5 99t-26.5 127.5zM326 305q0 -61 50 -103t124 -42q104 0 167.5 64.5t63.5 168.5v60q-76 20 -164 20q-113 0 -177 -45t-64 -123z" />
<glyph unicode="b" horiz-adv-x="1230" d="M133 0v1442h262v-551q53 66 131 101.5t170 35.5q100 0 185.5 -39t147 -108.5t95 -166t33.5 -212.5q0 -117 -33.5 -213t-95 -166t-146.5 -109t-186 -39q-100 0 -183 40t-138 114l-33 -129h-209zM391 434q0 -55 17.5 -101t49 -80t74.5 -52.5t97 -18.5q57 0 105 23.5 t83 66.5t54.5 101.5t19.5 128.5t-19.5 129t-54.5 101t-83 65.5t-105 23.5q-104 0 -171 -70.5t-67 -181.5v-135z" />
<glyph unicode="c" horiz-adv-x="1024" d="M74 502q0 117 39 213t109.5 165.5t167.5 108.5t214 39q203 0 385 -117l-106 -176q-59 41 -118.5 62.5t-123.5 21.5q-66 0 -121 -23.5t-95 -65.5t-62.5 -100.5t-22.5 -127.5q0 -70 22.5 -128.5t62.5 -100.5t95 -65.5t121 -23.5q63 0 122.5 22.5t119.5 63.5l106 -178 q-182 -117 -385 -117q-117 0 -214 39t-167.5 109t-109.5 167t-39 212z" />
<glyph unicode="d" horiz-adv-x="1230" d="M74 502q0 117 33.5 213t95 165.5t145.5 108.5t184 39q94 0 171 -36t131 -101v551h262v-1442h-209l-33 129q-55 -74 -137 -114t-185 -40q-100 0 -184 39t-145.5 109t-95 166t-33.5 213zM340 502q0 -70 19.5 -128.5t54.5 -101.5t82 -66.5t104 -23.5q106 0 173 71t67 181 v135q0 111 -66.5 181.5t-173.5 70.5q-57 0 -104 -23.5t-82 -65.5t-54.5 -101t-19.5 -129z" />
<glyph unicode="e" horiz-adv-x="1128" d="M74 502q0 117 38 213t105.5 165.5t161.5 108.5t209 39q106 0 195 -37t152.5 -104.5t99.5 -160.5t36 -206q0 -23 -1 -43t-3 -41h-731q14 -121 101 -193.5t216 -72.5q66 0 138.5 20.5t150.5 63.5l80 -178q-106 -53 -208.5 -77t-192.5 -24q-121 0 -222.5 39t-173 109 t-111.5 166t-40 213zM336 594h483q-6 109 -69.5 174.5t-161.5 65.5q-102 0 -171 -66t-81 -174z" />
<glyph unicode="f" horiz-adv-x="784" d="M45 805v199h186v139q0 72 25 131t70 102t107.5 66.5t137.5 23.5q106 0 228 -30l-35 -197q-72 18 -129 18q-63 0 -102 -38.5t-39 -102.5v-112h245v-199h-245v-805h-263v805h-186z" />
<glyph unicode="g" horiz-adv-x="1230" d="M74 502q0 117 33.5 213t95 165.5t145.5 108.5t184 39q102 0 184.5 -40t137.5 -114l33 130h209v-986q0 -102 -40 -188t-113 -148.5t-172 -97.5t-216 -35q-98 0 -204.5 22.5t-221.5 70.5l72 194q96 -43 180 -62.5t154 -19.5q133 0 216 71t83 183v107q-111 -139 -302 -140 q-100 0 -184 39t-145.5 109t-95 166t-33.5 213zM340 502q0 -70 19.5 -128.5t54.5 -101.5t82 -66.5t104 -23.5q106 0 173 71t67 181v135q0 111 -66.5 181.5t-173.5 70.5q-57 0 -104 -23.5t-82 -65.5t-54.5 -101t-19.5 -129z" />
<glyph unicode="h" horiz-adv-x="1230" d="M133 0v1442h262v-568q53 74 138 114t188 40q86 0 157.5 -28.5t124 -79t81 -121t28.5 -154.5v-645h-262v604q0 92 -58.5 150.5t-150.5 58.5q-106 0 -176 -71.5t-70 -188.5v-553h-262z" />
<glyph unicode="i" horiz-adv-x="530" d="M109 1290q0 70 44 114t111 44q70 0 114 -44t44 -114t-44 -113.5t-114 -43.5q-68 0 -111.5 43.5t-43.5 113.5zM133 0v1004h262v-1004h-262z" />
<glyph unicode="j" horiz-adv-x="546" d="M-154 -420l35 197q70 -18 129 -19q63 0 101.5 39t38.5 103v1104h262v-1131q0 -72 -25 -131t-70 -102t-106 -67t-137 -24q-109 0 -228 31zM125 1290q0 70 44 114t112 44q70 0 113.5 -44t43.5 -114t-44 -113.5t-113 -43.5q-68 0 -112 43.5t-44 113.5z" />
<glyph unicode="k" horiz-adv-x="1087" d="M133 0v1442h252v-867l383 429h299l-432 -469l448 -535h-303l-315 381l-80 -82v-299h-252z" />
<glyph unicode="l" horiz-adv-x="628" d="M133 260v1182h262v-1155q0 -47 28 -75t75 -28q18 0 41.5 4t48.5 9l28 -199q-102 -23 -182 -23q-139 0 -220 77t-81 208z" />
<glyph unicode="m" horiz-adv-x="1882" d="M133 0v1004h209l33 -138q59 78 144 120t186 42q111 0 194.5 -49t126.5 -135q70 90 161 137t202 47q82 0 150.5 -26.5t118.5 -75.5t77.5 -117t27.5 -147v-662h-262v621q0 86 -54 139t-140 53q-100 0 -164 -67.5t-64 -176.5v-569h-262v621q0 86 -53 139t-139 53 q-102 0 -166 -67.5t-64 -176.5v-569h-262z" />
<glyph unicode="n" horiz-adv-x="1230" d="M133 0v1004h209l33 -146q57 82 146 126t200 44q86 0 157.5 -28.5t124 -79t81 -121t28.5 -154.5v-645h-262v604q0 92 -58.5 150.5t-150.5 58.5q-106 0 -176 -71.5t-70 -188.5v-553h-262z" />
<glyph unicode="o" horiz-adv-x="1230" d="M74 502q0 117 40 213t111.5 165.5t171 108.5t217.5 39q119 0 219.5 -39t172 -108.5t111.5 -166t40 -212.5q0 -117 -40 -213t-111.5 -166t-172 -109t-219.5 -39t-218 39t-170.5 109t-111.5 166t-40 213zM340 502q0 -72 20.5 -130.5t57.5 -101.5t87 -66.5t109 -23.5 q61 0 111.5 23.5t87.5 66.5t57.5 101.5t20.5 130.5t-20.5 131t-57.5 101t-87 65.5t-112 23.5q-59 0 -109 -23.5t-87 -65.5t-57.5 -101t-20.5 -131z" />
<glyph unicode="p" horiz-adv-x="1230" d="M133 -426v1430h209l33 -130q55 74 138 114t183 40t185.5 -39t147 -108.5t95 -166t33.5 -212.5q0 -117 -33.5 -213t-95 -166t-146.5 -109t-186 -39q-92 0 -169.5 36t-131.5 104v-541h-262zM391 434q0 -55 17.5 -101t49 -80t74.5 -52.5t97 -18.5q57 0 105 23.5t83 66.5 t54.5 101.5t19.5 128.5t-19.5 129t-54.5 101t-83 65.5t-105 23.5q-104 0 -171 -70.5t-67 -181.5v-135z" />
<glyph unicode="q" horiz-adv-x="1230" d="M74 502q0 117 33.5 213t95 165.5t145.5 108.5t184 39q102 0 184.5 -40t137.5 -114l33 130h209v-1430h-262v541q-111 -139 -302 -140q-100 0 -184 39t-145.5 109t-95 166t-33.5 213zM340 502q0 -70 19.5 -128.5t54.5 -101.5t82 -66.5t104 -23.5q106 0 173 71t67 181v135 q0 111 -66.5 181.5t-173.5 70.5q-57 0 -104 -23.5t-82 -65.5t-54.5 -101t-19.5 -129z" />
<glyph unicode="r" horiz-adv-x="821" d="M133 0v1004h209l33 -156q43 82 120.5 127t176.5 45q27 0 58.5 -3t62.5 -11l-25 -209q-27 6 -57.5 10t-59.5 4q-117 0 -186.5 -82t-69.5 -211v-518h-262z" />
<glyph unicode="s" horiz-adv-x="948" d="M74 55l55 187q178 -72 324 -72q76 0 119.5 31.5t43.5 85.5q0 47 -39.5 71.5t-99 42t-128 34t-128 50t-99.5 89t-40 151.5q0 66 28.5 122t80 96t124 62.5t158.5 22.5q88 0 180 -17.5t189 -52.5l-58 -188q-76 29 -149.5 46.5t-140.5 17.5q-72 0 -114 -30t-42 -79 q0 -45 40 -68.5t99.5 -40t129 -33t129 -50t99 -92t39.5 -154.5q0 -68 -29.5 -125.5t-81.5 -99.5t-127 -64.5t-163 -22.5q-188 0 -399 80z" />
<glyph unicode="t" horiz-adv-x="849" d="M45 805v199h186v294h263v-294h278v-199h-278v-479q0 -63 38.5 -102.5t102.5 -39.5q57 0 129 19l35 -197q-121 -31 -228 -31q-76 0 -138 24t-107 67t-70 102t-25 131v506h-186z" />
<glyph unicode="u" horiz-adv-x="1230" d="M117 358v646h262v-603q0 -94 59.5 -152.5t151.5 -58.5q106 0 175 72t69 189v553h262v-1004h-209l-33 145q-55 -82 -144 -126t-200 -44q-86 0 -158.5 28t-125 79t-81 121.5t-28.5 154.5z" />
<glyph unicode="v" horiz-adv-x="1099" d="M18 1004h275l256 -707l258 707h272l-409 -1004h-242z" />
<glyph unicode="w" horiz-adv-x="1624" d="M35 1004h264l195 -705l196 705h244l194 -705l197 705h262l-325 -1004h-254l-197 705l-195 -705h-254z" />
<glyph unicode="x" horiz-adv-x="1099" d="M14 0l367 514l-350 490h291l227 -326l227 326h291l-348 -490l364 -514h-295l-239 350l-238 -350h-297z" />
<glyph unicode="y" horiz-adv-x="1099" d="M18 1004h275l260 -707l254 707h272l-446 -1117q-68 -172 -165 -255t-237 -83q-70 0 -155 19l35 205q27 -6 51 -10.5t45 -4.5q68 0 111.5 39t78.5 127l35 88z" />
<glyph unicode="z" horiz-adv-x="1013" d="M74 0v145l510 660h-494v199h834v-144l-510 -661h526v-199h-866z" />
<glyph unicode="{" horiz-adv-x="718" d="M35 485v209h33q68 0 111.5 42t43.5 104q0 72 -11 141.5t-11 140.5q0 74 27.5 136.5t75.5 107.5t114.5 70.5t146.5 25.5h97v-209h-33q-78 0 -129 -51t-51 -131q0 -61 8 -124.5t8 -127.5q0 -82 -40 -143.5t-118 -85.5q78 -25 118 -86.5t40 -143.5q0 -63 -8 -126.5 t-8 -124.5q0 -80 51 -131.5t129 -51.5h33v-209h-97q-80 0 -146.5 26t-114.5 71t-75.5 107.5t-27.5 135.5q0 72 11 141.5t11 141.5q0 61 -44 103t-111 42h-33z" />
<glyph unicode="|" horiz-adv-x="491" d="M135 -459v1966h221v-1966h-221z" />
<glyph unicode="}" horiz-adv-x="718" d="M57 -74h33q78 0 129 51.5t51 131.5q0 61 -8 124.5t-8 126.5q0 82 40 143.5t118 86.5q-78 25 -118 86t-40 143q0 63 8 127t8 125q0 80 -51 131t-129 51h-33v209h95q80 0 146.5 -25.5t114.5 -70.5t75.5 -107.5t27.5 -136.5q0 -72 -11 -141.5t-11 -140.5q0 -61 44 -103.5 t111 -42.5h33v-209h-33q-66 0 -110.5 -42t-44.5 -103q0 -72 11 -141.5t11 -141.5q0 -74 -27.5 -136t-75.5 -107t-115 -71t-146 -26h-95v209z" />
<glyph unicode="~" d="M47 629q78 59 157 90t169 31q70 0 123 -15.5t102 -34t99.5 -34t109.5 -15.5q57 0 105.5 19.5t101.5 66.5l119 -186q-78 -59 -157 -90t-169 -31q-70 0 -124 15.5t-103.5 34t-98.5 33.5t-108 15q-57 0 -105.5 -19.5t-101.5 -66.5z" />
<glyph unicode="&#xa1;" horiz-adv-x="575" d="M131 868q0 70 44 114t112 44q74 0 115.5 -44t41.5 -114t-44 -113.5t-113 -43.5q-68 0 -112 44t-44 113zM156 -373l22 922h219l23 -922h-264z" />
<glyph unicode="&#xa2;" d="M150 688q0 98 28.5 183t79.5 150.5t124 111t163 63.5v311h221v-301q160 -16 301 -108l-106 -178q-61 41 -120 63.5t-122 22.5q-68 0 -123 -24t-95 -66t-61.5 -100t-21.5 -128t21.5 -128t61.5 -100t95 -65.5t123 -23.5q63 0 121.5 22.5t120.5 63.5l106 -178 q-72 -47 -147.5 -74t-153.5 -37v-299h-221v309q-90 18 -163 64.5t-124 112t-79.5 150.5t-28.5 183z" />
<glyph unicode="&#xa3;" d="M123 0v205h186v399h-153v201h153v186q0 90 33 166t92.5 130t141 84t178.5 30q78 0 160.5 -17.5t175.5 -50.5l-68 -194q-113 47 -217 47q-98 0 -160.5 -59.5t-62.5 -155.5v-166h354v-201h-354v-399h508v-205h-967z" />
<glyph unicode="&#xa4;" d="M66 319l159 160q-25 45 -39 97.5t-14 111.5t14.5 111.5t38.5 95.5l-159 162l155 155l160 -161q90 55 209 55q117 0 207 -55l161 161l156 -155l-162 -162q55 -90 56 -207q0 -59 -14.5 -111.5t-41.5 -97.5l162 -160l-156 -155l-161 160q-90 -51 -207 -52q-117 0 -209 52 l-160 -160zM373 688q0 -96 60.5 -156.5t156.5 -60.5t156.5 60.5t60.5 156.5t-60.5 156.5t-156.5 60.5t-156.5 -60.5t-60.5 -156.5z" />
<glyph unicode="&#xa5;" d="M0 1376h287l303 -530l303 530h287l-387 -620h231v-178h-297v-138h297v-178h-297v-262h-274v262h-297v178h297v138h-297v178h231z" />
<glyph unicode="&#xa6;" horiz-adv-x="491" d="M135 -360v786h221v-786h-221zM135 623v786h221v-786h-221z" />
<glyph unicode="&#xa7;" horiz-adv-x="1112" d="M80 -260l61 205q104 -39 199.5 -60.5t177.5 -21.5q102 0 157.5 38t55.5 109q0 57 -48 88t-118.5 54.5t-154.5 46t-155 63.5t-119 106.5t-48 176.5q0 80 39 146.5t111 109.5q-53 41 -85 99.5t-32 146.5q0 78 32.5 143t92 112.5t142.5 73t183 25.5t205 -22.5t215 -65.5 l-61 -203q-186 76 -338 76q-98 0 -151.5 -38t-53.5 -101q0 -55 48 -85t120 -51.5t155 -44t154.5 -63.5t119.5 -109.5t48 -181.5q0 -80 -38 -145.5t-105 -112.5q49 -41 79.5 -99.5t30.5 -144.5q0 -84 -33.5 -150.5t-94 -113.5t-145.5 -72.5t-187 -25.5q-104 0 -221 22.5 t-238 69.5zM354 557q0 -49 28 -80t72 -51t98 -34.5t107 -33.5q47 20 76 57.5t29 84.5q0 49 -26.5 79.5t-67.5 51t-94.5 35t-104.5 30.5q-53 -16 -85 -54t-32 -85z" />
<glyph unicode="&#xa8;" horiz-adv-x="491" d="M-123 1290q0 63 39 102.5t102 39.5t102.5 -39t39.5 -103q0 -63 -39 -102t-103 -39q-63 0 -102 39t-39 102zM332 1290q0 63 39 102.5t102 39.5t102 -39t39 -103q0 -63 -38.5 -102t-102.5 -39q-63 0 -102 39t-39 102z" />
<glyph unicode="&#xa9;" horiz-adv-x="1703" d="M98 688q0 166 55.5 304t156 238.5t238.5 156t304 55.5t304 -55.5t238.5 -156t156 -238.5t55.5 -304t-55.5 -304t-156 -238.5t-238.5 -156t-304 -55.5t-304 55.5t-238.5 156t-156 238.5t-55.5 304zM236 688q0 -135 45 -248.5t126.5 -195.5t195.5 -127t249 -45t248.5 45 t195.5 127t127 195.5t45 248.5t-45 249t-127 195.5t-195.5 127t-248.5 45.5t-249 -45.5t-195.5 -127t-126.5 -195.5t-45 -249zM434 688q0 96 32 178t90 140.5t140 91t181 32.5q78 0 159.5 -24.5t155.5 -73.5l-82 -135q-100 70 -207 70q-119 0 -193.5 -77t-74.5 -202 t74.5 -201.5t193.5 -76.5q106 0 207 69l82 -135q-74 -49 -156 -73.5t-159 -24.5q-98 0 -180.5 32.5t-140.5 91t-90 140.5t-32 178z" />
<glyph unicode="&#xaa;" horiz-adv-x="802" d="M45 444v138h715v-138h-715zM63 913q0 102 83 161t231 59q29 0 60.5 -4.5t62.5 -10.5v25q0 55 -36 88t-97 33q-102 0 -222 -50l-45 132q152 57 285 57t213 -70.5t80 -193.5v-246q0 -43 41 -43q14 0 31 4l14 -139q-47 -10 -98 -10t-89 22.5t-57 63.5q-39 -41 -94 -63.5 t-121 -22.5q-53 0 -97 15t-76 43t-50.5 66.5t-18.5 83.5zM246 924q0 -39 30.5 -63.5t77.5 -24.5q63 0 104.5 38.5t41.5 98.5v41q-57 10 -105 10q-72 0 -110.5 -26.5t-38.5 -73.5z" />
<glyph unicode="&#xab;" horiz-adv-x="1191" d="M55 457v114l408 455l153 -123l-309 -389l309 -389l-153 -121zM573 457v114l408 455l153 -123l-309 -389l309 -389l-153 -121z" />
<glyph unicode="&#xac;" d="M90 479v221h1000v-610h-220v389h-780z" />
<glyph unicode="&#xad;" horiz-adv-x="655" d="M70 414v200h565v-200h-565z" />
<glyph unicode="&#xae;" horiz-adv-x="1703" d="M98 688q0 166 55.5 304t156 238.5t238.5 156t304 55.5t304 -55.5t238.5 -156t156 -238.5t55.5 -304t-55.5 -304t-156 -238.5t-238.5 -156t-304 -55.5t-304 55.5t-238.5 156t-156 238.5t-55.5 304zM236 688q0 -135 45 -248.5t126.5 -195.5t195.5 -127t249 -45t248.5 45 t195.5 127t127 195.5t45 248.5t-45 249t-127 195.5t-195.5 127t-248.5 45.5t-249 -45.5t-195.5 -127t-126.5 -195.5t-45 -249zM532 262v852h371q66 0 120 -19.5t94 -55t62.5 -86t22.5 -111.5q0 -96 -50 -163t-134 -87l213 -330h-209l-182 301h-123v-301h-185zM717 709h162 q61 0 99 33.5t38 93.5q0 59 -38 94t-99 35h-162v-256z" />
<glyph unicode="&#xaf;" horiz-adv-x="491" d="M-74 1200v178h639v-178h-639z" />
<glyph unicode="&#xb0;" horiz-adv-x="696" d="M78 1128q0 57 20.5 107.5t56 86.5t85 56.5t108.5 20.5t108.5 -20.5t85.5 -56.5t56 -86t20 -108q0 -119 -75.5 -194.5t-194.5 -75.5t-194.5 75.5t-75.5 194.5zM221 1128q0 -57 36 -93t91 -36q57 0 93 36t36 93q0 55 -35.5 91t-93.5 36q-57 0 -92 -36t-35 -91z" />
<glyph unicode="&#xb1;" d="M90 0v221h1000v-221h-1000zM90 723v221h389v391h221v-391h390v-221h-390v-389h-221v389h-389z" />
<glyph unicode="&#xb2;" horiz-adv-x="704" d="M33 1567q78 43 151.5 65.5t147.5 22.5q127 0 204.5 -74t77.5 -188q0 -137 -120 -256l-197 -197h328v-154h-580v121l289 291q90 88 90 164q0 59 -36 94t-95 35q-47 0 -92 -18.5t-95 -47.5z" />
<glyph unicode="&#xb3;" horiz-adv-x="704" d="M27 840l61 137q57 -29 109.5 -43t103.5 -14q59 0 97 31.5t38 82.5q0 53 -43 88t-114 35h-72v131h72q63 0 103 32t40 79t-32 76.5t-85 29.5q-88 0 -201 -51l-59 135q145 66 295 66q123 0 197.5 -65.5t74.5 -170.5q0 -68 -32.5 -119t-92.5 -73q66 -23 106 -80t40 -131 q0 -55 -21.5 -100.5t-60.5 -77t-93.5 -50t-117.5 -18.5q-76 0 -155 16.5t-158 53.5z" />
<glyph unicode="&#xb4;" horiz-adv-x="491" d="M80 1239l379 264l116 -168l-395 -239z" />
<glyph unicode="&#xb5;" horiz-adv-x="1280" d="M133 -426v1430h262v-603q0 -94 59.5 -152.5t151.5 -58.5q106 0 175 72t69 189v553h262v-748q0 -33 19.5 -52.5t52.5 -19.5q12 0 24.5 1t22.5 3l20 -198q-33 -6 -67.5 -10.5t-71.5 -4.5q-86 0 -146.5 40t-82.5 112q-55 -74 -131 -109.5t-154 -35.5q-63 0 -115.5 16 t-87.5 51v-475h-262z" />
<glyph unicode="&#xb6;" horiz-adv-x="1230" d="M63 932q0 98 36 179t100.5 140.5t153.5 92t198 32.5h506v-1704h-219v1483h-209v-670h-78q-109 0 -198 33t-153.5 92.5t-100.5 141.5t-36 180z" />
<glyph unicode="&#xb7;" horiz-adv-x="542" d="M106 514q0 72 46.5 118t117.5 46q72 0 118 -46t46 -118t-46 -118t-118 -46t-118 46t-46 118z" />
<glyph unicode="&#xb8;" horiz-adv-x="491" d="M2 -436l45 147q39 -14 73 -20t62 -6q41 0 65.5 18t24.5 49q0 29 -28.5 48.5t-77.5 19.5h-27l33 180h180l-16 -90q66 -16 106.5 -65.5t40.5 -118.5q0 -90 -75.5 -144.5t-198.5 -54.5q-49 0 -101.5 8t-105.5 29z" />
<glyph unicode="&#xb9;" horiz-adv-x="573" d="M6 1477l281 161h159v-852h-192v666l-180 -102z" />
<glyph unicode="&#xba;" horiz-adv-x="862" d="M63 1055q0 76 27 140.5t76 110.5t116.5 71.5t147.5 25.5q82 0 149.5 -25.5t116.5 -71.5t76 -111t27 -140q0 -78 -27 -142.5t-76 -110.5t-116.5 -71.5t-149.5 -25.5q-80 0 -147.5 25.5t-116.5 71.5t-76 110.5t-27 142.5zM78 444v138h706v-138h-706zM262 1055 q0 -88 47 -142.5t121 -54.5q76 0 123 54.5t47 142.5q0 86 -47 141t-123 55q-74 0 -121 -55t-47 -141z" />
<glyph unicode="&#xbb;" horiz-adv-x="1191" d="M57 125l308 389l-308 389l154 123l407 -455v-114l-407 -453zM575 125l308 389l-308 389l154 123l407 -455v-114l-407 -453z" />
<glyph unicode="&#xbc;" horiz-adv-x="1966" d="M113 1214l280 162h160v-852h-193v666l-180 -103zM399 51l1033 1376l135 -102l-1032 -1376zM1233 176v133l387 543h182v-537h105v-139h-105v-176h-170v176h-399zM1401 315h231v326z" />
<glyph unicode="&#xbd;" horiz-adv-x="1966" d="M112 1215l281 161h159v-852h-192v666l-180 -102zM399 51l1032 1376l135 -102l-1032 -1376zM1254 781q78 43 151.5 65.5t147.5 22.5q127 0 204.5 -74t77.5 -188q0 -137 -120 -256l-197 -197h328v-154h-580v121l289 291q90 88 90 164q0 59 -36 94t-95 35q-47 0 -92 -18.5 t-95 -47.5z" />
<glyph unicode="&#xbe;" horiz-adv-x="1966" d="M68 578l61 137q57 -29 109.5 -43.5t103.5 -14.5q59 0 97 32t38 83q0 53 -43 88t-115 35h-71v131h71q63 0 103.5 32t40.5 79t-32 76.5t-85 29.5q-88 0 -201 -51l-59 135q145 66 295 66q123 0 197.5 -65.5t74.5 -170.5q0 -68 -32.5 -119t-92.5 -73q66 -23 106 -80.5 t40 -130.5q0 -55 -21.5 -100.5t-60.5 -77t-93.5 -50t-117.5 -18.5q-76 0 -155 16.5t-158 53.5zM399 51l1033 1376l135 -102l-1032 -1376zM1233 176v133l387 543h182v-537h105v-139h-105v-176h-170v176h-399zM1401 315h231v326z" />
<glyph unicode="&#xbf;" horiz-adv-x="827" d="M68 -25q0 74 21.5 131.5t55 105.5t73.5 87t75 77t59.5 75.5t30.5 80.5l4 17h219v-39q0 -90 -43 -152.5t-95 -117t-95 -106.5t-43 -122q0 -86 56 -137t146 -51q63 0 126 25.5t135 68.5l100 -186q-195 -129 -404 -129q-92 0 -169.5 27.5t-134 77.5t-87 119t-30.5 148z M338 868q0 70 44 114t114 44t113.5 -44t43.5 -114t-44 -113.5t-113 -43.5q-70 0 -114 44t-44 113z" />
<glyph unicode="&#xc0;" horiz-adv-x="1394" d="M8 0l563 1376h252l563 -1376h-274l-127 328h-575l-127 -328h-275zM390 1708l116 168l379 -264l-100 -143zM483 526h430l-215 551z" />
<glyph unicode="&#xc1;" horiz-adv-x="1394" d="M8 0l563 1376h252l563 -1376h-274l-127 328h-575l-127 -328h-275zM483 526h430l-215 551zM533 1612l379 264l116 -168l-395 -239z" />
<glyph unicode="&#xc2;" horiz-adv-x="1394" d="M8 0l563 1376h252l563 -1376h-274l-127 328h-575l-127 -328h-275zM363 1592l256 243h160l256 -243l-113 -123l-223 188l-223 -188zM483 526h430l-215 551z" />
<glyph unicode="&#xc3;" horiz-adv-x="1394" d="M8 0l563 1376h252l563 -1376h-274l-127 328h-575l-127 -328h-275zM353 1583q16 92 73.5 148.5t141.5 56.5q39 0 72.5 -11t64.5 -24.5t56.5 -25t47.5 -11.5q51 0 78 72l158 -47q-16 -92 -73.5 -147.5t-141.5 -55.5q-39 0 -73 11.5t-64.5 24.5t-56 24.5t-48.5 11.5 q-57 0 -78 -72zM483 526h430l-215 551z" />
<glyph unicode="&#xc4;" horiz-adv-x="1394" d="M8 0l563 1376h252l563 -1376h-274l-127 328h-575l-127 -328h-275zM338 1663q0 63 39 102.5t102 39.5t102.5 -39t39.5 -103q0 -63 -39 -102t-103 -39q-63 0 -102 39t-39 102zM483 526h430l-215 551zM793 1663q0 63 39 102.5t102 39.5t102 -39t39 -103q0 -63 -38.5 -102 t-102.5 -39q-63 0 -102 39t-39 102z" />
<glyph unicode="&#xc5;" horiz-adv-x="1394" d="M8 0l563 1376h252l563 -1376h-274l-127 328h-575l-127 -328h-275zM478 1663q0 94 61 152.5t160 58.5q98 0 159.5 -58.5t61.5 -152.5t-60.5 -152.5t-158.5 -58.5t-160.5 58.5t-62.5 152.5zM483 526h430l-215 551zM603 1663q0 -43 27.5 -69.5t70.5 -26.5q41 0 67.5 26.5 t26.5 69.5t-27.5 68.5t-68.5 25.5q-43 0 -69.5 -25.5t-26.5 -68.5z" />
<glyph unicode="&#xc6;" horiz-adv-x="2007" d="M-51 0l887 1376h1050v-205h-665v-366h600v-201h-600v-399h698v-205h-961v328h-495l-207 -328h-307zM578 526h380v609z" />
<glyph unicode="&#xc7;" horiz-adv-x="1331" d="M80 688q0 158 51 289t145.5 225t223.5 146.5t286 52.5q125 0 251 -39t243 -117l-111 -182q-86 59 -172 90t-176 31q-102 0 -188 -36t-147.5 -101.5t-95.5 -156.5t-34 -202t34 -202t95.5 -156.5t147.5 -101t188 -35.5q90 0 176 30.5t172 89.5l111 -182 q-98 -66 -203.5 -102.5t-210.5 -46.5l-12 -72q66 -16 106.5 -65.5t40.5 -118.5q0 -90 -75.5 -144.5t-198.5 -54.5q-49 0 -100.5 8t-104.5 29l43 147q39 -14 73 -20t62 -6q41 0 66 18t25 49q0 29 -29 48.5t-76 19.5h-29l31 164q-137 14 -248.5 71.5t-191.5 149.5t-124 215 t-44 268z" />
<glyph unicode="&#xc8;" horiz-adv-x="1232" d="M172 0v1376h940v-205h-668v-366h603v-201h-603v-399h701v-205h-973zM324 1708l116 168l379 -264l-100 -143z" />
<glyph unicode="&#xc9;" horiz-adv-x="1232" d="M172 0v1376h940v-205h-668v-366h603v-201h-603v-399h701v-205h-973zM467 1612l379 264l116 -168l-395 -239z" />
<glyph unicode="&#xca;" horiz-adv-x="1232" d="M172 0v1376h940v-205h-668v-366h603v-201h-603v-399h701v-205h-973zM297 1592l256 243h160l256 -243l-113 -123l-223 188l-223 -188z" />
<glyph unicode="&#xcb;" horiz-adv-x="1232" d="M172 0v1376h940v-205h-668v-366h603v-201h-603v-399h701v-205h-973zM264 1663q0 63 39 102.5t102 39.5t102.5 -39t39.5 -103q0 -63 -39 -102t-103 -39q-63 0 -102 39t-39 102zM719 1663q0 63 39 102.5t102 39.5t102 -39t39 -103q0 -63 -38.5 -102t-102.5 -39 q-63 0 -102 39t-39 102z" />
<glyph unicode="&#xcc;" horiz-adv-x="618" d="M0 1708l116 168l379 -264l-100 -143zM172 0v1376h272v-1376h-272z" />
<glyph unicode="&#xcd;" horiz-adv-x="618" d="M143 1612l379 264l116 -168l-395 -239zM172 0v1376h272v-1376h-272z" />
<glyph unicode="&#xce;" horiz-adv-x="618" d="M-27 1592l256 243h160l256 -243l-113 -123l-223 188l-223 -188zM172 0v1376h272v-1376h-272z" />
<glyph unicode="&#xcf;" horiz-adv-x="618" d="M-60 1663q0 63 39 102.5t102 39.5t102.5 -39t39.5 -103q0 -63 -39 -102t-103 -39q-63 0 -102 39t-39 102zM172 0v1376h272v-1376h-272zM395 1663q0 63 39 102.5t102 39.5t102 -39t39 -103q0 -63 -38.5 -102t-102.5 -39q-63 0 -102 39t-39 102z" />
<glyph unicode="&#xd0;" horiz-adv-x="1525" d="M45 604v201h160v571h534q158 0 289 -50t224.5 -140t144.5 -217t51 -281q0 -152 -51 -278.5t-144.5 -218t-224.5 -141.5t-289 -50h-534v604h-160zM467 209h252q100 0 185 36t146.5 99.5t95.5 151.5t34 192t-34 192.5t-95.5 152t-146.5 99t-185 35.5h-252v-362h317v-201 h-317v-395z" />
<glyph unicode="&#xd1;" horiz-adv-x="1591" d="M172 0v1376h264l731 -1003v1003h252v-1376h-264l-731 1004v-1004h-252zM451 1583q16 92 73.5 148.5t141.5 56.5q39 0 72.5 -11t64.5 -24.5t56.5 -25t47.5 -11.5q51 0 78 72l158 -47q-16 -92 -73.5 -147.5t-141.5 -55.5q-39 0 -73 11.5t-64.5 24.5t-56 24.5t-48.5 11.5 q-57 0 -78 -72z" />
<glyph unicode="&#xd2;" horiz-adv-x="1591" d="M80 688q0 156 52 287t147.5 226t227.5 147.5t290 52.5t289 -52.5t226 -147.5t148 -226t53 -287q0 -158 -53 -288t-148 -225t-226.5 -147.5t-288.5 -52.5q-158 0 -290 52.5t-227.5 147.5t-147.5 225t-52 288zM356 688q0 -109 33 -201t91.5 -157.5t139 -102.5t177.5 -37 q96 0 177 37t139 102.5t90 158t32 200.5q0 109 -32 200t-90 157.5t-139 103.5t-177 37t-177 -37t-139.5 -103.5t-91.5 -157.5t-33 -200zM488 1708l116 168l379 -264l-100 -143z" />
<glyph unicode="&#xd3;" horiz-adv-x="1591" d="M80 688q0 156 52 287t147.5 226t227.5 147.5t290 52.5t289 -52.5t226 -147.5t148 -226t53 -287q0 -158 -53 -288t-148 -225t-226.5 -147.5t-288.5 -52.5q-158 0 -290 52.5t-227.5 147.5t-147.5 225t-52 288zM356 688q0 -109 33 -201t91.5 -157.5t139 -102.5t177.5 -37 q96 0 177 37t139 102.5t90 158t32 200.5q0 109 -32 200t-90 157.5t-139 103.5t-177 37t-177 -37t-139.5 -103.5t-91.5 -157.5t-33 -200zM631 1612l379 264l116 -168l-395 -239z" />
<glyph unicode="&#xd4;" horiz-adv-x="1591" d="M80 688q0 156 52 287t147.5 226t227.5 147.5t290 52.5t289 -52.5t226 -147.5t148 -226t53 -287q0 -158 -53 -288t-148 -225t-226.5 -147.5t-288.5 -52.5q-158 0 -290 52.5t-227.5 147.5t-147.5 225t-52 288zM356 688q0 -109 33 -201t91.5 -157.5t139 -102.5t177.5 -37 q96 0 177 37t139 102.5t90 158t32 200.5q0 109 -32 200t-90 157.5t-139 103.5t-177 37t-177 -37t-139.5 -103.5t-91.5 -157.5t-33 -200zM461 1592l256 243h160l256 -243l-113 -123l-223 188l-223 -188z" />
<glyph unicode="&#xd5;" horiz-adv-x="1591" d="M80 688q0 156 52 287t147.5 226t227.5 147.5t290 52.5t289 -52.5t226 -147.5t148 -226t53 -287q0 -158 -53 -288t-148 -225t-226.5 -147.5t-288.5 -52.5q-158 0 -290 52.5t-227.5 147.5t-147.5 225t-52 288zM356 688q0 -109 33 -201t91.5 -157.5t139 -102.5t177.5 -37 q96 0 177 37t139 102.5t90 158t32 200.5q0 109 -32 200t-90 157.5t-139 103.5t-177 37t-177 -37t-139.5 -103.5t-91.5 -157.5t-33 -200zM451 1583q16 92 73.5 148.5t141.5 56.5q39 0 72.5 -11t64.5 -24.5t56.5 -25t47.5 -11.5q51 0 78 72l158 -47q-16 -92 -73.5 -147.5 t-141.5 -55.5q-39 0 -73 11.5t-64.5 24.5t-56 24.5t-48.5 11.5q-57 0 -78 -72z" />
<glyph unicode="&#xd6;" horiz-adv-x="1591" d="M80 688q0 156 52 287t147.5 226t227.5 147.5t290 52.5t289 -52.5t226 -147.5t148 -226t53 -287q0 -158 -53 -288t-148 -225t-226.5 -147.5t-288.5 -52.5q-158 0 -290 52.5t-227.5 147.5t-147.5 225t-52 288zM356 688q0 -109 33 -201t91.5 -157.5t139 -102.5t177.5 -37 q96 0 177 37t139 102.5t90 158t32 200.5q0 109 -32 200t-90 157.5t-139 103.5t-177 37t-177 -37t-139.5 -103.5t-91.5 -157.5t-33 -200zM428 1663q0 63 39 102.5t102 39.5t102.5 -39t39.5 -103q0 -63 -39 -102t-103 -39q-63 0 -102 39t-39 102zM883 1663q0 63 39 102.5 t102 39.5t102 -39t39 -103q0 -63 -38.5 -102t-102.5 -39q-63 0 -102 39t-39 102z" />
<glyph unicode="&#xd7;" d="M113 266l321 324l-321 323l153 154l324 -322l323 322l154 -154l-322 -323l322 -324l-154 -153l-323 321l-324 -321z" />
<glyph unicode="&#xd8;" horiz-adv-x="1591" d="M80 688q0 156 52 287t147.5 226t227.5 147.5t290 52.5q104 0 194 -24.5t168 -69.5l109 143l127 -96l-103 -135q104 -94 162.5 -229.5t58.5 -301.5q0 -158 -52 -288t-147 -225t-227.5 -147.5t-289.5 -52.5q-104 0 -196.5 25t-170.5 70l-106 -144l-127 97l100 133 q-104 96 -160.5 231t-56.5 301zM336 688q0 -102 27.5 -187t80.5 -149l584 776q-102 68 -231 68q-102 0 -187.5 -37t-146 -104.5t-94 -160.5t-33.5 -206zM565 246q47 -31 105.5 -48.5t126.5 -17.5q100 0 185 37t145.5 104.5t94 160.5t33.5 206q0 102 -28.5 186t-79.5 150z " />
<glyph unicode="&#xd9;" horiz-adv-x="1591" d="M156 539v837h272v-827q0 -80 27.5 -145.5t77 -112.5t117 -74t147.5 -27t147.5 27t115.5 74t75.5 112.5t27.5 145.5v827h273v-837q0 -125 -48.5 -228.5t-133.5 -178.5t-201.5 -116t-255.5 -41t-257 41t-203 116t-133 178.5t-48 228.5zM488 1708l116 168l379 -264 l-100 -143z" />
<glyph unicode="&#xda;" horiz-adv-x="1591" d="M156 539v837h272v-827q0 -80 27.5 -145.5t77 -112.5t117 -74t147.5 -27t147.5 27t115.5 74t75.5 112.5t27.5 145.5v827h273v-837q0 -125 -48.5 -228.5t-133.5 -178.5t-201.5 -116t-255.5 -41t-257 41t-203 116t-133 178.5t-48 228.5zM631 1612l379 264l116 -168 l-395 -239z" />
<glyph unicode="&#xdb;" horiz-adv-x="1591" d="M156 539v837h272v-827q0 -80 27.5 -145.5t77 -112.5t117 -74t147.5 -27t147.5 27t115.5 74t75.5 112.5t27.5 145.5v827h273v-837q0 -125 -48.5 -228.5t-133.5 -178.5t-201.5 -116t-255.5 -41t-257 41t-203 116t-133 178.5t-48 228.5zM461 1592l256 243h160l256 -243 l-113 -123l-223 188l-223 -188z" />
<glyph unicode="&#xdc;" horiz-adv-x="1591" d="M156 539v837h272v-827q0 -80 27.5 -145.5t77 -112.5t117 -74t147.5 -27t147.5 27t115.5 74t75.5 112.5t27.5 145.5v827h273v-837q0 -125 -48.5 -228.5t-133.5 -178.5t-201.5 -116t-255.5 -41t-257 41t-203 116t-133 178.5t-48 228.5zM428 1663q0 63 39 102.5t102 39.5 t102.5 -39t39.5 -103q0 -63 -39 -102t-103 -39q-63 0 -102 39t-39 102zM883 1663q0 63 39 102.5t102 39.5t102 -39t39 -103q0 -63 -38.5 -102t-102.5 -39q-63 0 -102 39t-39 102z" />
<glyph unicode="&#xdd;" horiz-adv-x="1263" d="M-8 1376h297l342 -575l344 575h295l-502 -817v-559h-272v559zM465 1612l379 264l116 -168l-395 -239z" />
<glyph unicode="&#xde;" horiz-adv-x="1286" d="M172 0v1376h262v-219h301q106 0 196.5 -33.5t156 -93t101.5 -142.5t36 -183t-36 -183.5t-101.5 -144t-155.5 -93t-197 -32.5h-301v-252h-262zM434 461h260q117 0 189.5 67.5t72.5 176.5q0 106 -72.5 174.5t-189.5 68.5h-260v-487z" />
<glyph unicode="&#xdf;" horiz-adv-x="1296" d="M133 0v1067q0 90 34 164t95.5 126t146.5 80.5t189 28.5q94 0 174 -26.5t137.5 -73.5t89 -110.5t31.5 -139.5q0 -72 -23.5 -122t-53 -90t-53 -75.5t-23.5 -80.5t26.5 -75t67.5 -54.5t87 -50t87 -61.5t67.5 -88t26.5 -132q0 -72 -28.5 -129.5t-80 -97.5t-122 -62.5 t-154.5 -22.5q-156 0 -324 72l68 186q135 -59 236 -59q70 0 111.5 29.5t41.5 83.5q0 41 -27.5 68.5t-68.5 51t-90 48t-90 59.5t-69 86t-28 127q0 66 24 113t53.5 89t53 83t23.5 94q0 70 -49 116t-131 46q-90 0 -146.5 -57.5t-56.5 -153.5v-1057h-252z" />
<glyph unicode="&#xe0;" horiz-adv-x="1144" d="M74 291q0 160 121.5 247t341.5 87q47 0 96 -5.5t98 -15.5v53q0 78 -56.5 127.5t-150.5 49.5q-152 0 -329 -72l-66 182q219 84 426 84q94 0 172 -27.5t133 -77t86 -118t31 -152.5v-407q0 -33 18.5 -52.5t51.5 -19.5q16 0 30.5 2t20.5 4l18 -190q-33 -6 -67.5 -10.5 t-71.5 -4.5q-78 0 -133.5 36t-81.5 100q-66 -66 -152 -101t-178 -35q-78 0 -144.5 24t-113.5 65.5t-73.5 99t-26.5 127.5zM246 1335l116 168l379 -264l-100 -143zM326 305q0 -61 50 -103t124 -42q104 0 167.5 64.5t63.5 168.5v60q-76 20 -164 20q-113 0 -177 -45t-64 -123z " />
<glyph unicode="&#xe1;" horiz-adv-x="1144" d="M74 291q0 160 121.5 247t341.5 87q47 0 96 -5.5t98 -15.5v53q0 78 -56.5 127.5t-150.5 49.5q-152 0 -329 -72l-66 182q219 84 426 84q94 0 172 -27.5t133 -77t86 -118t31 -152.5v-407q0 -33 18.5 -52.5t51.5 -19.5q16 0 30.5 2t20.5 4l18 -190q-33 -6 -67.5 -10.5 t-71.5 -4.5q-78 0 -133.5 36t-81.5 100q-66 -66 -152 -101t-178 -35q-78 0 -144.5 24t-113.5 65.5t-73.5 99t-26.5 127.5zM326 305q0 -61 50 -103t124 -42q104 0 167.5 64.5t63.5 168.5v60q-76 20 -164 20q-113 0 -177 -45t-64 -123zM389 1239l379 264l116 -168l-395 -239z " />
<glyph unicode="&#xe2;" horiz-adv-x="1144" d="M74 291q0 160 121.5 247t341.5 87q47 0 96 -5.5t98 -15.5v53q0 78 -56.5 127.5t-150.5 49.5q-152 0 -329 -72l-66 182q219 84 426 84q94 0 172 -27.5t133 -77t86 -118t31 -152.5v-407q0 -33 18.5 -52.5t51.5 -19.5q16 0 30.5 2t20.5 4l18 -190q-33 -6 -67.5 -10.5 t-71.5 -4.5q-78 0 -133.5 36t-81.5 100q-66 -66 -152 -101t-178 -35q-78 0 -144.5 24t-113.5 65.5t-73.5 99t-26.5 127.5zM219 1219l256 243h160l256 -243l-113 -123l-223 188l-223 -188zM326 305q0 -61 50 -103t124 -42q104 0 167.5 64.5t63.5 168.5v60q-76 20 -164 20 q-113 0 -177 -45t-64 -123z" />
<glyph unicode="&#xe3;" horiz-adv-x="1144" d="M74 291q0 160 121.5 247t341.5 87q47 0 96 -5.5t98 -15.5v53q0 78 -56.5 127.5t-150.5 49.5q-152 0 -329 -72l-66 182q219 84 426 84q94 0 172 -27.5t133 -77t86 -118t31 -152.5v-407q0 -33 18.5 -52.5t51.5 -19.5q16 0 30.5 2t20.5 4l18 -190q-33 -6 -67.5 -10.5 t-71.5 -4.5q-78 0 -133.5 36t-81.5 100q-66 -66 -152 -101t-178 -35q-78 0 -144.5 24t-113.5 65.5t-73.5 99t-26.5 127.5zM209 1210q16 92 73.5 148.5t141.5 56.5q39 0 72.5 -11t64.5 -24.5t56.5 -25t47.5 -11.5q51 0 78 72l158 -47q-16 -92 -73.5 -147.5t-141.5 -55.5 q-39 0 -73 11.5t-64.5 24.5t-56 24.5t-48.5 11.5q-57 0 -78 -72zM326 305q0 -61 50 -103t124 -42q104 0 167.5 64.5t63.5 168.5v60q-76 20 -164 20q-113 0 -177 -45t-64 -123z" />
<glyph unicode="&#xe4;" horiz-adv-x="1144" d="M74 291q0 160 121.5 247t341.5 87q47 0 96 -5.5t98 -15.5v53q0 78 -56.5 127.5t-150.5 49.5q-152 0 -329 -72l-66 182q219 84 426 84q94 0 172 -27.5t133 -77t86 -118t31 -152.5v-407q0 -33 18.5 -52.5t51.5 -19.5q16 0 30.5 2t20.5 4l18 -190q-33 -6 -67.5 -10.5 t-71.5 -4.5q-78 0 -133.5 36t-81.5 100q-66 -66 -152 -101t-178 -35q-78 0 -144.5 24t-113.5 65.5t-73.5 99t-26.5 127.5zM186 1290q0 63 39 102.5t102 39.5t102.5 -39t39.5 -103q0 -63 -39 -102t-103 -39q-63 0 -102 39t-39 102zM326 305q0 -61 50 -103t124 -42 q104 0 167.5 64.5t63.5 168.5v60q-76 20 -164 20q-113 0 -177 -45t-64 -123zM641 1290q0 63 39 102.5t102 39.5t102 -39t39 -103q0 -63 -38.5 -102t-102.5 -39q-63 0 -102 39t-39 102z" />
<glyph unicode="&#xe5;" horiz-adv-x="1144" d="M74 291q0 160 121.5 247t341.5 87q47 0 96 -5.5t98 -15.5v53q0 78 -56.5 127.5t-150.5 49.5q-152 0 -329 -72l-66 182q219 84 426 84q94 0 172 -27.5t133 -77t86 -118t31 -152.5v-407q0 -33 18.5 -52.5t51.5 -19.5q16 0 30.5 2t20.5 4l18 -190q-33 -6 -67.5 -10.5 t-71.5 -4.5q-78 0 -133.5 36t-81.5 100q-66 -66 -152 -101t-178 -35q-78 0 -144.5 24t-113.5 65.5t-73.5 99t-26.5 127.5zM326 305q0 -61 50 -103t124 -42q104 0 167.5 64.5t63.5 168.5v60q-76 20 -164 20q-113 0 -177 -45t-64 -123zM334 1290q0 94 61 152.5t160 58.5 q98 0 159.5 -58.5t61.5 -152.5t-60.5 -152.5t-158.5 -58.5t-160.5 58.5t-62.5 152.5zM459 1290q0 -43 27.5 -69.5t70.5 -26.5q41 0 67.5 26.5t26.5 69.5t-27.5 68.5t-68.5 25.5q-43 0 -69.5 -25.5t-26.5 -68.5z" />
<glyph unicode="&#xe6;" horiz-adv-x="1769" d="M74 285q0 162 121.5 251t341.5 89q47 0 96 -5.5t98 -15.5v53q0 78 -56.5 127.5t-150.5 49.5q-152 0 -329 -72l-66 182q219 84 426 84q113 0 198 -42t119 -109q66 74 158 112.5t201 38.5q106 0 195.5 -37t152.5 -104.5t98 -160.5t35 -206v-43t-4 -41h-731 q16 -121 102 -193.5t215 -72.5q66 0 139.5 20.5t151.5 63.5l78 -178q-102 -53 -201.5 -77t-193.5 -24q-129 0 -241 51.5t-187 149.5q-63 -94 -164 -147.5t-223 -53.5q-84 0 -153 22.5t-120 64.5t-78.5 98.5t-27.5 124.5zM326 305q0 -61 50 -103t124 -42q104 0 167.5 64.5 t63.5 168.5v60q-76 20 -164 20q-113 0 -177 -45t-64 -123zM977 594h485q-8 109 -70.5 174.5t-160.5 65.5q-104 0 -172 -66t-82 -174z" />
<glyph unicode="&#xe7;" horiz-adv-x="1024" d="M74 502q0 117 39 213t109.5 165.5t167.5 108.5t214 39q203 0 385 -117l-106 -176q-61 41 -119.5 62.5t-122.5 21.5q-66 0 -121 -23.5t-95 -65.5t-62.5 -100.5t-22.5 -127.5q0 -70 22.5 -128.5t62.5 -100.5t95 -65.5t121 -23.5q63 0 121.5 22.5t120.5 63.5l106 -178 q-147 -94 -309 -110l-12 -72q66 -16 106.5 -65.5t40.5 -118.5q0 -90 -75.5 -144.5t-198.5 -54.5q-49 0 -100.5 8t-104.5 29l43 147q39 -14 72.5 -20t62.5 -6q39 0 64.5 17t25.5 50q0 29 -28.5 48.5t-75.5 19.5h-27l29 166q-96 14 -175 57t-135.5 110.5t-87 156t-30.5 192.5z " />
<glyph unicode="&#xe8;" horiz-adv-x="1128" d="M74 502q0 117 38 213t105.5 165.5t161.5 108.5t209 39q106 0 195 -37t152.5 -104.5t99.5 -160.5t36 -206q0 -23 -1 -43t-3 -41h-731q14 -121 101 -193.5t216 -72.5q66 0 138.5 20.5t150.5 63.5l80 -178q-106 -53 -208.5 -77t-192.5 -24q-121 0 -222.5 39t-173 109 t-111.5 166t-40 213zM279 1335l116 168l379 -264l-100 -143zM336 594h483q-6 109 -69.5 174.5t-161.5 65.5q-102 0 -171 -66t-81 -174z" />
<glyph unicode="&#xe9;" horiz-adv-x="1128" d="M74 502q0 117 38 213t105.5 165.5t161.5 108.5t209 39q106 0 195 -37t152.5 -104.5t99.5 -160.5t36 -206q0 -23 -1 -43t-3 -41h-731q14 -121 101 -193.5t216 -72.5q66 0 138.5 20.5t150.5 63.5l80 -178q-106 -53 -208.5 -77t-192.5 -24q-121 0 -222.5 39t-173 109 t-111.5 166t-40 213zM336 594h483q-6 109 -69.5 174.5t-161.5 65.5q-102 0 -171 -66t-81 -174zM422 1239l379 264l116 -168l-395 -239z" />
<glyph unicode="&#xea;" horiz-adv-x="1128" d="M74 502q0 117 38 213t105.5 165.5t161.5 108.5t209 39q106 0 195 -37t152.5 -104.5t99.5 -160.5t36 -206q0 -23 -1 -43t-3 -41h-731q14 -121 101 -193.5t216 -72.5q66 0 138.5 20.5t150.5 63.5l80 -178q-106 -53 -208.5 -77t-192.5 -24q-121 0 -222.5 39t-173 109 t-111.5 166t-40 213zM252 1219l256 243h160l256 -243l-113 -123l-223 188l-223 -188zM336 594h483q-6 109 -69.5 174.5t-161.5 65.5q-102 0 -171 -66t-81 -174z" />
<glyph unicode="&#xeb;" horiz-adv-x="1128" d="M74 502q0 117 38 213t105.5 165.5t161.5 108.5t209 39q106 0 195 -37t152.5 -104.5t99.5 -160.5t36 -206q0 -23 -1 -43t-3 -41h-731q14 -121 101 -193.5t216 -72.5q66 0 138.5 20.5t150.5 63.5l80 -178q-106 -53 -208.5 -77t-192.5 -24q-121 0 -222.5 39t-173 109 t-111.5 166t-40 213zM219 1290q0 63 39 102.5t102 39.5t102.5 -39t39.5 -103q0 -63 -39 -102t-103 -39q-63 0 -102 39t-39 102zM336 594h483q-6 109 -69.5 174.5t-161.5 65.5q-102 0 -171 -66t-81 -174zM674 1290q0 63 39 102.5t102 39.5t102 -39t39 -103q0 -63 -38.5 -102 t-102.5 -39q-63 0 -102 39t-39 102z" />
<glyph unicode="&#xec;" horiz-adv-x="530" d="M-45 1335l116 168l379 -264l-100 -143zM133 0v1004h262v-1004h-262z" />
<glyph unicode="&#xed;" horiz-adv-x="530" d="M98 1239l379 264l116 -168l-395 -239zM133 0v1004h262v-1004h-262z" />
<glyph unicode="&#xee;" horiz-adv-x="530" d="M-72 1219l256 243h160l256 -243l-113 -123l-223 188l-223 -188zM133 0v1004h262v-1004h-262z" />
<glyph unicode="&#xef;" horiz-adv-x="530" d="M-105 1290q0 63 39 102.5t102 39.5t102.5 -39t39.5 -103q0 -63 -39 -102t-103 -39q-63 0 -102 39t-39 102zM133 0v1004h262v-1004h-262zM350 1290q0 63 39 102.5t102 39.5t102 -39t39 -103q0 -63 -38.5 -102t-102.5 -39q-63 0 -102 39t-39 102z" />
<glyph unicode="&#xf0;" horiz-adv-x="1230" d="M74 498q0 113 35.5 205t100 157.5t153 101t194.5 35.5q70 0 130.5 -19.5t119.5 -66.5q-59 162 -207 267l-258 -129l-68 135l154 76q-29 16 -58.5 28t-62.5 25l58 176q82 -20 156.5 -48t140.5 -65l227 113l67 -135l-147 -74q152 -121 236.5 -286t93.5 -363q2 -68 -6 -131 q-12 -117 -57.5 -213.5t-116 -166t-166 -107.5t-205.5 -38q-113 0 -207 38t-162.5 107.5t-106.5 166t-38 211.5zM330 485q0 -70 19.5 -128t55 -99t85 -64.5t108.5 -23.5q123 0 199.5 90t76.5 238q0 68 -20 124t-57 96t-87.5 62.5t-111.5 22.5q-59 0 -108.5 -23.5t-85 -64.5 t-55 -100.5t-19.5 -129.5z" />
<glyph unicode="&#xf1;" horiz-adv-x="1230" d="M133 0v1004h209l33 -146q57 82 146 126t200 44q86 0 157.5 -28.5t124 -79t81 -121t28.5 -154.5v-645h-262v604q0 92 -58.5 150.5t-150.5 58.5q-106 0 -176 -71.5t-70 -188.5v-553h-262zM269 1210q16 92 73.5 148.5t141.5 56.5q39 0 72.5 -11t64.5 -24.5t56.5 -25 t47.5 -11.5q51 0 78 72l158 -47q-16 -92 -73.5 -147.5t-141.5 -55.5q-39 0 -73 11.5t-64.5 24.5t-56 24.5t-48.5 11.5q-57 0 -78 -72z" />
<glyph unicode="&#xf2;" horiz-adv-x="1230" d="M74 502q0 117 40 213t111.5 165.5t171 108.5t217.5 39q119 0 219.5 -39t172 -108.5t111.5 -166t40 -212.5q0 -117 -40 -213t-111.5 -166t-172 -109t-219.5 -39t-218 39t-170.5 109t-111.5 166t-40 213zM306 1335l116 168l379 -264l-100 -143zM340 502q0 -72 20.5 -130.5 t57.5 -101.5t87 -66.5t109 -23.5q61 0 111.5 23.5t87.5 66.5t57.5 101.5t20.5 130.5t-20.5 131t-57.5 101t-87 65.5t-112 23.5q-59 0 -109 -23.5t-87 -65.5t-57.5 -101t-20.5 -131z" />
<glyph unicode="&#xf3;" horiz-adv-x="1230" d="M74 502q0 117 40 213t111.5 165.5t171 108.5t217.5 39q119 0 219.5 -39t172 -108.5t111.5 -166t40 -212.5q0 -117 -40 -213t-111.5 -166t-172 -109t-219.5 -39t-218 39t-170.5 109t-111.5 166t-40 213zM340 502q0 -72 20.5 -130.5t57.5 -101.5t87 -66.5t109 -23.5 q61 0 111.5 23.5t87.5 66.5t57.5 101.5t20.5 130.5t-20.5 131t-57.5 101t-87 65.5t-112 23.5q-59 0 -109 -23.5t-87 -65.5t-57.5 -101t-20.5 -131zM449 1239l379 264l116 -168l-395 -239z" />
<glyph unicode="&#xf4;" horiz-adv-x="1230" d="M74 502q0 117 40 213t111.5 165.5t171 108.5t217.5 39q119 0 219.5 -39t172 -108.5t111.5 -166t40 -212.5q0 -117 -40 -213t-111.5 -166t-172 -109t-219.5 -39t-218 39t-170.5 109t-111.5 166t-40 213zM279 1219l256 243h160l256 -243l-113 -123l-223 188l-223 -188z M340 502q0 -72 20.5 -130.5t57.5 -101.5t87 -66.5t109 -23.5q61 0 111.5 23.5t87.5 66.5t57.5 101.5t20.5 130.5t-20.5 131t-57.5 101t-87 65.5t-112 23.5q-59 0 -109 -23.5t-87 -65.5t-57.5 -101t-20.5 -131z" />
<glyph unicode="&#xf5;" horiz-adv-x="1230" d="M74 502q0 117 40 213t111.5 165.5t171 108.5t217.5 39q119 0 219.5 -39t172 -108.5t111.5 -166t40 -212.5q0 -117 -40 -213t-111.5 -166t-172 -109t-219.5 -39t-218 39t-170.5 109t-111.5 166t-40 213zM269 1210q16 92 73.5 148.5t141.5 56.5q39 0 72.5 -11t64.5 -24.5 t56.5 -25t47.5 -11.5q51 0 78 72l158 -47q-16 -92 -73.5 -147.5t-141.5 -55.5q-39 0 -73 11.5t-64.5 24.5t-56 24.5t-48.5 11.5q-57 0 -78 -72zM340 502q0 -72 20.5 -130.5t57.5 -101.5t87 -66.5t109 -23.5q61 0 111.5 23.5t87.5 66.5t57.5 101.5t20.5 130.5t-20.5 131 t-57.5 101t-87 65.5t-112 23.5q-59 0 -109 -23.5t-87 -65.5t-57.5 -101t-20.5 -131z" />
<glyph unicode="&#xf6;" horiz-adv-x="1230" d="M74 502q0 117 40 213t111.5 165.5t171 108.5t217.5 39q119 0 219.5 -39t172 -108.5t111.5 -166t40 -212.5q0 -117 -40 -213t-111.5 -166t-172 -109t-219.5 -39t-218 39t-170.5 109t-111.5 166t-40 213zM246 1290q0 63 39 102.5t102 39.5t102.5 -39t39.5 -103 q0 -63 -39 -102t-103 -39q-63 0 -102 39t-39 102zM340 502q0 -72 20.5 -130.5t57.5 -101.5t87 -66.5t109 -23.5q61 0 111.5 23.5t87.5 66.5t57.5 101.5t20.5 130.5t-20.5 131t-57.5 101t-87 65.5t-112 23.5q-59 0 -109 -23.5t-87 -65.5t-57.5 -101t-20.5 -131zM701 1290 q0 63 39 102.5t102 39.5t102 -39t39 -103q0 -63 -38.5 -102t-102.5 -39q-63 0 -102 39t-39 102z" />
<glyph unicode="&#xf7;" d="M90 489v201h1000v-201h-1000zM451 197q0 61 38.5 100t100.5 39q61 0 100 -39t39 -100t-39 -100.5t-100 -39.5t-100 39.5t-39 100.5zM451 983q0 61 38.5 100t100.5 39q61 0 100 -36.5t39 -102.5q0 -61 -39 -100t-100 -39t-100 39t-39 100z" />
<glyph unicode="&#xf8;" horiz-adv-x="1230" d="M74 502q0 117 40 213t111.5 165.5t171 108.5t217.5 39q145 0 260 -63l82 106l111 -82l-74 -98q78 -72 121 -170t43 -219q0 -117 -40 -213t-111.5 -166t-172 -109t-219.5 -39q-145 0 -260 64l-80 -107l-110 84l72 95q-78 72 -120 170t-42 221zM319 502q0 -59 15.5 -109.5 t44.5 -91.5l369 494q-59 39 -134 39q-66 0 -119 -25t-93 -68t-61.5 -104t-21.5 -135zM481 209q57 -39 133 -39q66 0 120 24.5t94 67.5t61.5 104.5t21.5 135.5q0 119 -61 198z" />
<glyph unicode="&#xf9;" horiz-adv-x="1230" d="M117 358v646h262v-603q0 -94 59.5 -152.5t151.5 -58.5q106 0 175 72t69 189v553h262v-1004h-209l-33 145q-55 -82 -144 -126t-200 -44q-86 0 -158.5 28t-125 79t-81 121.5t-28.5 154.5zM306 1335l116 168l379 -264l-100 -143z" />
<glyph unicode="&#xfa;" horiz-adv-x="1230" d="M117 358v646h262v-603q0 -94 59.5 -152.5t151.5 -58.5q106 0 175 72t69 189v553h262v-1004h-209l-33 145q-55 -82 -144 -126t-200 -44q-86 0 -158.5 28t-125 79t-81 121.5t-28.5 154.5zM449 1239l379 264l116 -168l-395 -239z" />
<glyph unicode="&#xfb;" horiz-adv-x="1230" d="M117 358v646h262v-603q0 -94 59.5 -152.5t151.5 -58.5q106 0 175 72t69 189v553h262v-1004h-209l-33 145q-55 -82 -144 -126t-200 -44q-86 0 -158.5 28t-125 79t-81 121.5t-28.5 154.5zM279 1219l256 243h160l256 -243l-113 -123l-223 188l-223 -188z" />
<glyph unicode="&#xfc;" horiz-adv-x="1230" d="M117 358v646h262v-603q0 -94 59.5 -152.5t151.5 -58.5q106 0 175 72t69 189v553h262v-1004h-209l-33 145q-55 -82 -144 -126t-200 -44q-86 0 -158.5 28t-125 79t-81 121.5t-28.5 154.5zM246 1290q0 63 39 102.5t102 39.5t102.5 -39t39.5 -103q0 -63 -39 -102t-103 -39 q-63 0 -102 39t-39 102zM701 1290q0 63 39 102.5t102 39.5t102 -39t39 -103q0 -63 -38.5 -102t-102.5 -39q-63 0 -102 39t-39 102z" />
<glyph unicode="&#xfd;" horiz-adv-x="1099" d="M18 1004h275l260 -707l254 707h272l-446 -1117q-68 -172 -165 -255t-237 -83q-70 0 -155 19l35 205q27 -6 51 -10.5t45 -4.5q68 0 111.5 39t78.5 127l35 88zM383 1239l379 264l116 -168l-395 -239z" />
<glyph unicode="&#xfe;" horiz-adv-x="1230" d="M133 -426v1868h262v-551q53 66 131 101.5t170 35.5q100 0 185.5 -39t147 -108.5t95 -166t33.5 -212.5q0 -117 -33.5 -213t-95 -166t-146.5 -109t-186 -39q-92 0 -169.5 36t-131.5 104v-541h-262zM391 434q0 -55 17.5 -101t49 -80t74.5 -52.5t97 -18.5q57 0 105 23.5 t83 66.5t54.5 101.5t19.5 128.5t-19.5 129t-54.5 101t-83 65.5t-105 23.5q-104 0 -171 -70.5t-67 -181.5v-135z" />
<glyph unicode="&#xff;" horiz-adv-x="1099" d="M18 1004h275l260 -707l254 707h272l-446 -1117q-68 -172 -165 -255t-237 -83q-70 0 -155 19l35 205q27 -6 51 -10.5t45 -4.5q68 0 111.5 39t78.5 127l35 88zM180 1290q0 63 39 102.5t102 39.5t102.5 -39t39.5 -103q0 -63 -39 -102t-103 -39q-63 0 -102 39t-39 102z M635 1290q0 63 39 102.5t102 39.5t102 -39t39 -103q0 -63 -38.5 -102t-102.5 -39q-63 0 -102 39t-39 102z" />
<glyph unicode="&#x152;" horiz-adv-x="2064" d="M80 688q0 152 50 279t142.5 218t220.5 141t285 50h1164v-205h-666v-366h600v-201h-600v-399h698v-205h-1196q-158 0 -285.5 50t-220 140.5t-142.5 217t-50 280.5zM356 688q0 -104 34 -192t93.5 -151.5t143.5 -99.5t182 -36h195v958h-195q-98 0 -182 -35.5t-143.5 -99 t-93.5 -152t-34 -192.5z" />
<glyph unicode="&#x153;" horiz-adv-x="1949" d="M74 502q0 117 40 213t111.5 165.5t171 108.5t217.5 39q133 0 240 -56.5t170 -152.5q66 96 165 152.5t222 56.5q106 0 195.5 -37t153 -104.5t98 -160.5t34.5 -206v-43t-4 -41h-731q16 -121 102.5 -193.5t215.5 -72.5q66 0 138.5 20.5t149.5 63.5l80 -178 q-106 -53 -207.5 -77t-191.5 -24q-135 0 -243.5 56.5t-174.5 158.5q-66 -98 -171 -156.5t-241 -58.5q-119 0 -218 39t-170.5 109t-111.5 166t-40 213zM340 502q0 -72 20.5 -130.5t57.5 -101.5t87 -66.5t109 -23.5q61 0 111.5 23.5t87.5 66.5t57.5 101.5t20.5 130.5 t-20.5 131t-57.5 101t-87 65.5t-112 23.5q-59 0 -109 -23.5t-87 -65.5t-57.5 -101t-20.5 -131zM1157 594h485q-8 109 -70.5 174.5t-160.5 65.5q-104 0 -172 -66t-82 -174z" />
<glyph unicode="&#x178;" horiz-adv-x="1263" d="M-8 1376h297l342 -575l344 575h295l-502 -817v-559h-272v559zM262 1663q0 63 39 102.5t102 39.5t102.5 -39t39.5 -103q0 -63 -39 -102t-103 -39q-63 0 -102 39t-39 102zM717 1663q0 63 39 102.5t102 39.5t102 -39t39 -103q0 -63 -38.5 -102t-102.5 -39q-63 0 -102 39 t-39 102z" />
<glyph unicode="&#x2c6;" horiz-adv-x="491" d="M-90 1219l256 243h160l256 -243l-113 -123l-223 188l-223 -188z" />
<glyph unicode="&#x2dc;" horiz-adv-x="491" d="M-100 1210q16 92 73.5 148.5t141.5 56.5q39 0 72.5 -11t64.5 -24.5t56.5 -25t47.5 -11.5q51 0 78 72l158 -47q-16 -92 -73.5 -147.5t-141.5 -55.5q-39 0 -73 11.5t-64.5 24.5t-56 24.5t-48.5 11.5q-57 0 -78 -72z" />
<glyph unicode="&#x2000;" horiz-adv-x="938" />
<glyph unicode="&#x2001;" horiz-adv-x="1876" />
<glyph unicode="&#x2002;" horiz-adv-x="938" />
<glyph unicode="&#x2003;" horiz-adv-x="1876" />
<glyph unicode="&#x2004;" horiz-adv-x="625" />
<glyph unicode="&#x2005;" horiz-adv-x="469" />
<glyph unicode="&#x2006;" horiz-adv-x="312" />
<glyph unicode="&#x2007;" horiz-adv-x="312" />
<glyph unicode="&#x2008;" horiz-adv-x="234" />
<glyph unicode="&#x2009;" horiz-adv-x="375" />
<glyph unicode="&#x200a;" horiz-adv-x="104" />
<glyph unicode="&#x2010;" horiz-adv-x="655" d="M45 414v200h565v-200h-565z" />
<glyph unicode="&#x2011;" horiz-adv-x="655" d="M45 414v200h565v-200h-565z" />
<glyph unicode="&#x2012;" horiz-adv-x="655" d="M45 414v200h565v-200h-565z" />
<glyph unicode="&#x2013;" horiz-adv-x="983" d="M45 414v200h893v-200h-893z" />
<glyph unicode="&#x2014;" horiz-adv-x="1966" d="M45 414v200h1876v-200h-1876z" />
<glyph unicode="&#x2018;" horiz-adv-x="542" d="M102 983q0 129 69 240.5t194 189.5l79 -102q-121 -98 -149 -215q61 -6 100 -48.5t39 -103.5q0 -72 -46 -118t-118 -46q-76 0 -122 55.5t-46 147.5z" />
<glyph unicode="&#x2019;" horiz-adv-x="542" d="M98 873q123 100 150 215q-61 6 -101.5 48t-40.5 103q0 72 46.5 118t117.5 46q76 0 123 -55t47 -146q0 -129 -68.5 -241.5t-193.5 -190.5z" />
<glyph unicode="&#x201a;" horiz-adv-x="477" d="M98 -225q123 100 150 215q-61 6 -101.5 48t-40.5 103q0 72 46.5 118t117.5 46q76 0 123 -55t47 -146q0 -129 -68.5 -241.5t-193.5 -190.5z" />
<glyph unicode="&#x201c;" horiz-adv-x="995" d="M102 983q0 129 69 240.5t194 189.5l79 -102q-121 -98 -149 -215q61 -6 100 -48.5t39 -103.5q0 -72 -46 -118t-118 -46q-76 0 -122 55.5t-46 147.5zM557 983q0 129 69 240.5t194 189.5l79 -102q-121 -98 -149 -215q61 -6 100 -48.5t39 -103.5q0 -72 -46 -118t-118 -46 q-76 0 -122 55.5t-46 147.5z" />
<glyph unicode="&#x201d;" horiz-adv-x="995" d="M98 873q123 100 150 215q-61 6 -101.5 48t-40.5 103q0 72 46.5 118t117.5 46q76 0 123 -55t47 -146q0 -129 -68.5 -241.5t-193.5 -190.5zM551 873q123 100 150 215q-61 6 -101.5 48t-40.5 103q0 72 46.5 118t117.5 46q76 0 123 -55t47 -146q0 -129 -68.5 -241.5 t-193.5 -190.5z" />
<glyph unicode="&#x201e;" horiz-adv-x="995" d="M98 -225q123 100 150 215q-61 6 -101.5 48t-40.5 103q0 72 46.5 118t117.5 46q76 0 123 -55t47 -146q0 -129 -68.5 -241.5t-193.5 -190.5zM551 -225q123 100 150 215q-61 6 -101.5 48t-40.5 103q0 72 46.5 118t117.5 46q76 0 123 -55t47 -146q0 -129 -68.5 -241.5 t-193.5 -190.5z" />
<glyph unicode="&#x2022;" horiz-adv-x="983" d="M197 590q0 61 22.5 114.5t62.5 93.5t94 63.5t116 23.5q61 0 114 -23.5t93 -63.5t63.5 -93.5t23.5 -114.5t-23.5 -115.5t-63.5 -94.5t-93 -62.5t-114 -22.5t-115.5 22.5t-94.5 62.5t-62.5 94.5t-22.5 115.5z" />
<glyph unicode="&#x2026;" horiz-adv-x="1966" d="M163 141q0 72 46.5 118t117.5 46q72 0 118 -46t46 -118t-46 -118t-118 -46t-118 46t-46 118zM819 141q0 72 46.5 118t117.5 46q72 0 118 -46t46 -118t-46 -118t-118 -46t-118 46t-46 118zM1474 141q0 72 46.5 118t117.5 46q72 0 118 -46t46 -118t-46 -118t-118 -46 t-118 46t-46 118z" />
<glyph unicode="&#x202f;" horiz-adv-x="375" />
<glyph unicode="&#x2039;" horiz-adv-x="673" d="M55 457v114l408 455l153 -123l-309 -389l309 -389l-153 -121z" />
<glyph unicode="&#x203a;" horiz-adv-x="673" d="M57 125l308 389l-308 389l154 123l407 -455v-114l-407 -453z" />
<glyph unicode="&#x205f;" horiz-adv-x="469" />
<glyph unicode="&#x20ac;" d="M61 477v160h125q-2 12 -3 24.5t-1 26.5q0 23 1 43.5t3 40.5h-125v160h156q31 109 84 195.5t127 147t164 93.5t194 33q203 0 379 -101l-94 -178q-59 35 -121.5 54.5t-132.5 19.5q-119 0 -209 -72.5t-125 -191.5h449v-160h-494q-2 -20 -3 -40.5t-1 -43.5q0 -14 1 -26.5 t1 -24.5h496v-160h-461q35 -135 126 -216t220 -81q70 0 132.5 19.5t121.5 54.5l94 -178q-176 -100 -379 -101q-106 0 -199 35t-168 100.5t-129 157.5t-83 209h-146z" />
<glyph unicode="&#x2122;" horiz-adv-x="1949" d="M45 1223v153h719v-153h-260v-699h-201v699h-258zM926 524v852h194l258 -358l260 358h193v-852h-180v584l-215 -299h-113l-219 299v-584h-178z" />
<glyph unicode="&#x25fc;" horiz-adv-x="1003" d="M0 0v1004h1004v-1004h-1004z" />
</font>
</defs>
</svg>
