<?xml version="1.0" standalone="no"?>
<!DOCTYPE svg PUBLIC "-//W3C//DTD SVG 1.1//EN" "http://www.w3.org/Graphics/SVG/1.1/DTD/svg11.dtd" >
<svg xmlns="http://www.w3.org/2000/svg" xmlns:xlink="http://www.w3.org/1999/xlink" version="1.1">
<metadata></metadata>
<defs>
<font id="webfontregular" horiz-adv-x="1179" >
<font-face units-per-em="2048" ascent="1536" descent="-512" />
<missing-glyph horiz-adv-x="491" />
<glyph unicode="&#xfb01;" horiz-adv-x="1187" d="M119 866l22 129h205l31 170q27 141 129 221t256 80q78 0 164 -23.5t170 -58.5l-56 -120q-68 31 -135 51t-131 20q-92 0 -155.5 -49t-79.5 -133l-29 -158h604l-174 -995h-164l154 866h-443l-151 -866h-164l152 866h-205z" />
<glyph unicode="&#xfb02;" horiz-adv-x="1286" d="M119 866l22 129h205l31 170q27 141 128 221t263 80q96 0 200.5 -22.5t217.5 -54.5l-203 -1139q-6 -29 -6 -51q0 -41 27.5 -65.5t72.5 -24.5q23 0 44.5 3t39.5 7l10 -129q-37 -6 -72.5 -10.5t-70.5 -4.5q-98 0 -157.5 53.5t-59.5 145.5q0 33 6 68l189 1050 q-57 16 -117 29.5t-119 13.5q-92 0 -153.5 -49t-77.5 -133l-29 -158h281l-23 -129h-281l-151 -866h-164l152 866h-205z" />
<glyph unicode="&#xfb03;" horiz-adv-x="1826" d="M119 866l22 129h205l39 209q20 119 105 190.5t210 71.5q98 0 222 -47l-50 -123q-41 16 -79.5 26.5t-73.5 10.5q-68 0 -116 -41t-58 -108l-35 -189h475l29 170q27 141 129 221t256 80q78 0 164 -23.5t170 -58.5l-56 -120q-68 31 -135 51t-131 20q-92 0 -155.5 -49 t-79.5 -133l-29 -158h606l-176 -995h-164l152 866h-441l-151 -866h-164l152 866h-474l-151 -866h-164l152 866h-205z" />
<glyph unicode="&#xfb04;" horiz-adv-x="1925" d="M119 866l22 129h205l39 209q20 119 105 190.5t210 71.5q98 0 222 -47l-50 -123q-41 16 -79.5 26.5t-73.5 10.5q-68 0 -116 -41t-58 -108l-35 -189h475l29 170q27 141 129 221t262 80q96 0 200.5 -22.5t217.5 -54.5l-203 -1139q-6 -29 -6 -51q0 -41 27.5 -65.5t74.5 -24.5 q23 0 43.5 3t38.5 7l10 -129q-35 -6 -70.5 -10.5t-70.5 -4.5q-98 0 -158.5 53.5t-60.5 145.5q0 33 6 68l188 1050q-57 16 -116.5 29.5t-118.5 13.5q-92 0 -153.5 -49t-77.5 -133l-29 -158h280l-22 -129h-281l-151 -866h-164l152 866h-474l-151 -866h-164l152 866h-205z" />
<glyph horiz-adv-x="0" />
<glyph horiz-adv-x="0" />
<glyph unicode="&#xd;" horiz-adv-x="491" />
<glyph unicode=" "  horiz-adv-x="491" />
<glyph unicode="&#x09;" horiz-adv-x="491" />
<glyph unicode="&#xa0;" horiz-adv-x="491" />
<glyph unicode="!" horiz-adv-x="538" d="M82 80q0 53 38 91t93 38q43 0 70.5 -26.5t27.5 -71.5q0 -53 -37.5 -91t-93.5 -38q-43 0 -70.5 26.5t-27.5 71.5zM184 428l152 948h166l-180 -948h-138z" />
<glyph unicode="&#x22;" horiz-adv-x="827" d="M231 924l66 452h156l-97 -452h-125zM618 924l66 452h156l-97 -452h-125z" />
<glyph unicode="#" horiz-adv-x="1335" d="M8 367l23 127h274l144 389h-250l22 127h275l137 379l125 -21l-133 -358h387l139 379l123 -21l-131 -358h250l-23 -127h-274l-144 -389h250l-22 -127h-275l-139 -379l-123 20l131 359h-385l-139 -379l-123 20l131 359h-250zM436 494h385l144 389h-387z" />
<glyph unicode="$" d="M115 182l57 127q104 -51 202.5 -76.5t182.5 -25.5q121 0 194.5 58.5t73.5 154.5q0 63 -42 103t-103.5 70t-135 55.5t-135 64.5t-103.5 95t-42 148q0 74 30 135.5t82 105.5t124.5 69.5t161.5 31.5l59 340h139l-59 -344q74 -10 151.5 -31.5t155.5 -58.5l-57 -125 q-98 47 -191.5 68.5t-171.5 21.5q-57 0 -105 -16t-82 -44t-52.5 -64.5t-18.5 -79.5q0 -63 42 -100.5t104.5 -66t135 -54t135 -64.5t104.5 -98.5t42 -153.5q0 -78 -30.5 -141.5t-85 -108.5t-129 -70.5t-164.5 -31.5l-60 -338h-139l61 344q-82 10 -166.5 34.5t-164.5 65.5z " />
<glyph unicode="%" horiz-adv-x="1769" d="M176 954q0 96 30 178t83 141.5t125.5 93.5t160.5 34q135 0 216 -80t81 -211q0 -96 -29.5 -178t-82.5 -141.5t-126 -93t-161 -33.5q-135 0 -216 79.5t-81 210.5zM242 37l1274 1380l77 -78l-1274 -1380zM301 965q0 -92 50 -146.5t130 -54.5q57 0 106.5 25.5t84.5 70.5 t55.5 106.5t20.5 133.5q0 92 -49.5 146t-131.5 54q-57 0 -105 -25.5t-84 -70.5t-56.5 -106t-20.5 -133zM965 266q0 96 29.5 178t82.5 141.5t126 93.5t161 34q133 0 214 -80t81 -211q0 -96 -30 -178t-83 -141.5t-125.5 -93.5t-160.5 -34q-135 0 -215 80t-80 211zM1090 276 q0 -92 49 -146t129 -54q57 0 106 25.5t84 70.5t55.5 106.5t20.5 133.5q0 92 -49 146t-131 54q-57 0 -105.5 -25.5t-84.5 -70.5t-55 -106.5t-19 -133.5z" />
<glyph unicode="&#x26;" horiz-adv-x="1280" d="M57 317q0 139 101.5 260t287.5 201q-57 72 -87.5 140.5t-30.5 138.5q0 76 27.5 138t77.5 108.5t120 72t154 25.5q133 0 212.5 -69.5t79.5 -186.5q0 -113 -87 -211t-271 -186l279 -377q47 66 78.5 141.5t45.5 155.5h138q-23 -113 -70 -215.5t-115 -190.5l193 -262h-174 l-127 174q-104 -98 -218 -148.5t-225 -50.5q-88 0 -159.5 26t-122.5 71t-79 107.5t-28 137.5zM213 342q0 -106 69.5 -173t190.5 -67q82 0 173 44t169 128l-299 410q-143 -63 -223 -152.5t-80 -189.5zM477 1063q0 -53 25.5 -110.5t72.5 -116.5q279 133 279 288q0 70 -43 110 t-119 40q-94 0 -154.5 -59.5t-60.5 -151.5z" />
<glyph unicode="'" horiz-adv-x="440" d="M231 924l66 452h156l-97 -452h-125z" />
<glyph unicode="(" horiz-adv-x="690" d="M166 420q4 309 134 585.5t368 493.5l106 -84q-215 -199 -332.5 -454.5t-124.5 -536.5q-6 -186 39 -353t138 -307l-121 -75q-109 156 -160 340t-47 391z" />
<glyph unicode=")" horiz-adv-x="690" d="M-49 -227q215 199 333.5 455.5t125.5 537.5q4 184 -40 351t-137 306l119 76q109 -156 161 -340t48 -391q-6 -309 -135 -585.5t-369 -493.5z" />
<glyph unicode="*" horiz-adv-x="1007" d="M213 760l276 198l-276 199l68 94l272 -198l106 321l109 -37l-102 -319h335v-117h-335l102 -319l-109 -37l-106 321l-272 -198z" />
<glyph unicode="+" d="M100 520v139h435v435h139v-435h434v-139h-434v-434h-139v434h-435z" />
<glyph unicode="," horiz-adv-x="505" d="M-39 -258q168 106 199 248q-41 -2 -67.5 22.5t-26.5 67.5q0 55 37.5 92t93.5 37q47 0 74.5 -33t27.5 -92q0 -115 -78 -227.5t-213 -184.5z" />
<glyph unicode="-" horiz-adv-x="655" d="M45 446l23 127h548l-24 -127h-547z" />
<glyph unicode="." horiz-adv-x="505" d="M66 80q0 53 37.5 91t93.5 38q43 0 70.5 -26.5t27.5 -71.5q0 -53 -38 -91t-93 -38q-43 0 -70.5 26.5t-27.5 71.5z" />
<glyph unicode="/" horiz-adv-x="786" d="M-117 -246l918 1719l121 -48l-918 -1718z" />
<glyph unicode="0" d="M102 481q0 195 47.5 363t130 292t197.5 194.5t250 70.5q205 0 311.5 -134t106.5 -372q0 -195 -47 -362.5t-130 -291.5t-198 -195t-250 -71q-205 0 -311.5 134t-106.5 372zM258 492q0 -180 69.5 -279.5t207.5 -99.5q98 0 181 60t143.5 164.5t95 245t34.5 302.5 q0 180 -69.5 279.5t-206.5 99.5q-98 0 -181 -60.5t-144.5 -165t-95.5 -244.5t-34 -302z" />
<glyph unicode="1" d="M305 1122l486 254h143l-242 -1376h-164l213 1208l-385 -204z" />
<glyph unicode="2" d="M27 0l18 113l631 530q111 92 171 183.5t60 179.5q0 117 -69.5 186.5t-194.5 69.5q-74 0 -157 -27t-179 -78l-51 123q231 121 432 121q178 0 280.5 -100.5t102.5 -270.5q0 -115 -67.5 -230.5t-202.5 -226.5l-525 -440h658l-25 -133h-882z" />
<glyph unicode="3" d="M41 96l65 121q100 -53 195.5 -80.5t183.5 -27.5q70 0 129.5 21.5t102.5 60t67.5 91t24.5 113.5q0 115 -84 181.5t-229 66.5h-74l20 123h86q82 0 151 20.5t118 58.5t76.5 89t27.5 113q0 98 -68.5 159.5t-179.5 61.5q-154 0 -338 -70l-41 123q115 41 217.5 60.5t202.5 19.5 q84 0 152.5 -23.5t117 -67.5t75 -105.5t26.5 -135.5q0 -70 -24.5 -130t-67.5 -107.5t-101.5 -80t-126.5 -49.5q111 -29 171.5 -111.5t60.5 -201.5q0 -88 -37 -163.5t-102.5 -131t-153.5 -87.5t-188 -32q-109 0 -224.5 31t-230.5 90z" />
<glyph unicode="4" d="M35 326l20 118l832 932h151l-161 -923h210l-22 -127h-211l-57 -326h-152l57 326h-667zM217 453h508l125 708z" />
<glyph unicode="5" d="M59 113l76 118q82 -55 170 -86.5t174 -31.5q78 0 145.5 24.5t117 67.5t77 102.5t27.5 126.5q0 127 -88 199t-248 72q-61 0 -124.5 -5.5t-137.5 -15.5l123 692h757l-24 -133h-610l-76 -430q80 12 157 12q199 0 316 -102t117 -279q0 -100 -40 -186t-111 -148.5t-168 -98.5 t-210 -36q-106 0 -213.5 36t-206.5 102z" />
<glyph unicode="6" d="M135 461q0 201 52.5 373t143.5 297.5t216 197.5t270 72q176 0 348 -98l-67 -117q-68 39 -139.5 61.5t-147.5 22.5q-92 0 -176 -43t-150.5 -122t-111.5 -190.5t-64 -246.5q66 100 166 155.5t227 55.5q84 0 154 -28t121 -78t78.5 -120.5t27.5 -158.5q0 -109 -41 -203 t-110.5 -165t-163.5 -111t-203 -40q-205 0 -317.5 127.5t-112.5 358.5zM291 414q0 -137 77.5 -222.5t206.5 -85.5q74 0 137.5 29t110.5 78t75 116.5t28 145.5q0 129 -73 203t-196 74q-78 0 -144.5 -28t-115.5 -74t-77.5 -107t-28.5 -129z" />
<glyph unicode="7" d="M195 0l755 1243h-686l25 133h868l-20 -119l-764 -1257h-178z" />
<glyph unicode="8" d="M80 322q0 141 97 241.5t280 147.5q-104 31 -165 111.5t-61 183.5q0 86 37 157.5t101.5 124.5t154.5 83t199 30q190 0 301 -89t111 -241q0 -135 -90.5 -233.5t-249.5 -139.5q123 -41 187.5 -120.5t64.5 -190.5q0 -90 -39 -165t-110 -130t-167 -86t-209 -31 q-205 0 -323.5 93.5t-118.5 253.5zM244 338q0 -109 77.5 -172.5t213.5 -63.5q76 0 139 21.5t110 60.5t74 90.5t27 112.5q0 98 -69 162.5t-202 93.5q-174 -27 -271 -107.5t-99 -197.5zM389 1006q0 -92 63.5 -154.5t184.5 -85.5q160 20 249 96t89 193q0 98 -70.5 158.5 t-193.5 60.5q-70 0 -128.5 -20.5t-101.5 -56.5t-67.5 -85t-24.5 -106z" />
<glyph unicode="9" d="M88 74l68 116q66 -39 137.5 -61.5t146.5 -22.5q92 0 176 43.5t151 122t112 190t63 247.5q-66 -100 -165 -155.5t-226 -55.5q-84 0 -153.5 27.5t-121 77.5t-79 121t-27.5 159q0 109 40 203t110.5 164.5t164 110.5t201.5 40q205 0 318.5 -127.5t113.5 -358.5 q0 -201 -52 -372.5t-143.5 -297.5t-216 -198t-270.5 -72q-180 0 -348 99zM326 901q0 -129 73.5 -202.5t196.5 -73.5q76 0 142.5 27.5t115.5 73.5t78 107.5t29 129.5t-19.5 125t-57.5 97t-90.5 62.5t-115.5 22.5q-74 0 -138.5 -29t-111.5 -78t-74.5 -116.5t-27.5 -145.5z" />
<glyph unicode=":" horiz-adv-x="538" d="M82 80q0 53 37.5 91t93.5 38q43 0 70.5 -26.5t27.5 -71.5q0 -53 -38 -91t-93 -38q-43 0 -70.5 26.5t-27.5 71.5zM228 885q0 53 37.5 91t93.5 38q43 0 70.5 -26.5t27.5 -71.5q0 -53 -38 -91t-93 -38q-43 0 -70.5 26.5t-27.5 71.5z" />
<glyph unicode=";" horiz-adv-x="538" d="M-23 -258q168 106 199 248q-41 -2 -67.5 22.5t-26.5 67.5q0 55 37.5 92t93.5 37q47 0 74.5 -33t27.5 -92q0 -115 -78 -227.5t-213 -184.5zM228 885q0 53 37.5 91t93.5 38q43 0 70.5 -26.5t27.5 -71.5q0 -53 -38 -91t-93 -38q-43 0 -70.5 26.5t-27.5 71.5z" />
<glyph unicode="&#x3c;" d="M100 520v139l965 437l57 -131l-831 -375l831 -375l-57 -131z" />
<glyph unicode="=" d="M100 299v141h1008v-141h-1008zM100 739v142h1008v-142h-1008z" />
<glyph unicode="&#x3e;" d="M86 215l834 375l-834 375l57 131l965 -437v-139l-965 -436z" />
<glyph unicode="?" horiz-adv-x="942" d="M195 1288q186 113 391 113q80 0 145.5 -24.5t111.5 -67.5t71.5 -104.5t25.5 -135.5q0 -80 -30.5 -142.5t-77 -114.5t-101.5 -96t-104 -86t-87 -86t-48 -95l-5 -21h-139l6 37q10 63 45 114.5t81 97.5t97.5 88t94.5 85t71.5 91t28.5 106q0 98 -60.5 156.5t-158.5 58.5 q-78 0 -149.5 -24t-149.5 -71zM264 74q0 53 36 89t89 36q41 0 66.5 -26t25.5 -69q0 -53 -35.5 -87.5t-89.5 -34.5q-41 0 -66.5 24.5t-25.5 67.5z" />
<glyph unicode="@" horiz-adv-x="1957" d="M88 330q0 233 78 430.5t216 343t327.5 227.5t414.5 82q172 0 312.5 -50t239 -141.5t151.5 -220.5t53 -286q0 -139 -36 -260t-99.5 -210t-149.5 -141.5t-186 -52.5q-92 0 -150.5 45t-74.5 111q-55 -74 -135 -115t-177 -41q-147 0 -235 92.5t-88 247.5q0 119 32.5 220.5 t92 175t140.5 115.5t177 42q88 0 157 -42t97 -120l45 142h137l-106 -600q-2 -10 -3 -20.5t-1 -20.5q0 -53 32.5 -82t86.5 -29q63 0 119.5 41t97.5 111.5t65.5 166t24.5 205.5q0 135 -44 245t-126 186.5t-199 118.5t-262 42q-190 0 -352 -71.5t-281 -197.5t-185.5 -299 t-66.5 -378q0 -145 46 -263t132.5 -201t209 -127t276.5 -44q125 0 255 33t251 98l49 -110q-135 -72 -279.5 -109t-285.5 -37q-180 0 -326.5 53.5t-250 151.5t-160 236.5t-56.5 306.5zM715 410q0 -104 56 -167t149 -63q98 0 168.5 62.5t89.5 169.5l24 145q6 27 6 61 q0 88 -53 142.5t-139 54.5q-66 0 -121 -30.5t-95 -85t-62.5 -129t-22.5 -160.5z" />
<glyph unicode="A" horiz-adv-x="1357" d="M-51 0l807 1376h157l316 -1376h-162l-84 377h-641l-215 -377h-178zM414 506h544l-151 684z" />
<glyph unicode="B" horiz-adv-x="1318" d="M117 0l241 1376h523q174 0 268 -85t94 -232q0 -127 -65.5 -220.5t-182.5 -131.5q84 -29 133.5 -108t49.5 -189q0 -88 -35 -163t-96.5 -130.5t-145.5 -86t-184 -30.5h-600zM303 127h395q70 0 127.5 21.5t98.5 60.5t64.5 93t23.5 118q0 102 -60.5 164.5t-179.5 62.5h-379z M414 762h372q129 0 210 76.5t81 199.5q0 98 -60.5 154.5t-170.5 56.5h-346z" />
<glyph unicode="C" horiz-adv-x="1306" d="M125 530q0 186 55.5 346t156.5 277t243.5 182.5t314.5 65.5q119 0 233.5 -37t219.5 -109l-82 -118q-178 125 -369 125q-135 0 -245.5 -54.5t-189.5 -149.5t-122 -225.5t-43 -283.5q0 -98 31.5 -178t90 -137.5t138.5 -88t176 -30.5q195 0 377 110l55 -119 q-106 -66 -224 -98.5t-241 -32.5q-127 0 -232.5 40t-181 113t-118.5 175t-43 227z" />
<glyph unicode="D" horiz-adv-x="1439" d="M117 0l241 1376h416q141 0 254 -38t191.5 -110.5t119.5 -176t41 -232.5q0 -182 -57 -333.5t-161.5 -259t-249 -167t-318.5 -59.5h-477zM309 133h281q135 0 248.5 49t195.5 138.5t128 213t46 273.5q0 205 -121.5 320.5t-345.5 115.5h-237z" />
<glyph unicode="E" horiz-adv-x="1208" d="M117 0l241 1376h865l-25 -131h-694l-82 -477h629l-23 -127h-629l-90 -510h727l-22 -131h-897z" />
<glyph unicode="F" horiz-adv-x="1175" d="M117 0l241 1376h865l-25 -133h-694l-90 -524h628l-24 -133h-629l-102 -586h-170z" />
<glyph unicode="G" horiz-adv-x="1406" d="M125 532q0 186 57.5 346t159.5 276t246.5 181.5t316.5 65.5q238 0 469 -131l-74 -119q-96 53 -195 85t-198 32q-139 0 -252.5 -54.5t-194.5 -150.5t-125 -227t-44 -287q0 -98 33.5 -180t94 -139.5t146.5 -89t191 -31.5q84 0 156.5 15t136.5 42l75 422h-329l22 127h488 l-115 -641q-111 -47 -224.5 -73t-232.5 -26q-137 0 -249.5 40t-192.5 114t-123 176.5t-43 226.5z" />
<glyph unicode="H" horiz-adv-x="1521" d="M117 0l241 1376h170l-106 -604h774l104 604h170l-241 -1376h-170l112 637h-774l-110 -637h-170z" />
<glyph unicode="I" horiz-adv-x="577" d="M117 0l241 1376h170l-241 -1376h-170z" />
<glyph unicode="J" horiz-adv-x="909" d="M-27 35l50 129q61 -23 119.5 -36t105.5 -13q104 0 172.5 61.5t87.5 163.5l180 1036h170l-184 -1057q-14 -78 -49 -141t-88.5 -108t-122 -70t-148.5 -25q-63 0 -139 15.5t-154 44.5z" />
<glyph unicode="K" horiz-adv-x="1341" d="M117 0l241 1376h164l-123 -702l813 702h205l-737 -639l520 -737h-190l-453 641l-192 -164l-82 -477h-166z" />
<glyph unicode="L" horiz-adv-x="1077" d="M117 0l241 1376h170l-219 -1243h652l-25 -133h-819z" />
<glyph unicode="M" horiz-adv-x="1701" d="M117 0l241 1376h158l356 -688l603 688h176l-242 -1376h-158l203 1145l-557 -635h-94l-328 629l-201 -1139h-157z" />
<glyph unicode="N" horiz-adv-x="1521" d="M117 0l241 1376h160l594 -1134l201 1134h157l-241 -1376h-160l-594 1135l-201 -1135h-157z" />
<glyph unicode="O" horiz-adv-x="1521" d="M125 530q0 188 57.5 348t159.5 276t243.5 181.5t307.5 65.5q125 0 230.5 -39t180 -111.5t116.5 -175t42 -229.5q0 -188 -57 -348t-159.5 -276t-243 -181.5t-306.5 -65.5q-127 0 -232.5 39t-180 112t-116.5 175t-42 229zM297 545q0 -100 30.5 -180t85 -136.5t130 -86 t168.5 -29.5q125 0 230.5 54t183 150.5t121.5 227.5t44 286q0 100 -30.5 180.5t-85 136.5t-130 86t-167.5 30q-125 0 -230.5 -54.5t-183.5 -150.5t-122 -227t-44 -287z" />
<glyph unicode="P" horiz-adv-x="1253" d="M117 0l241 1376h482q92 0 167.5 -27.5t129 -77.5t82 -121t28.5 -159q0 -104 -39 -191t-108.5 -150.5t-163.5 -99.5t-207 -36h-358l-90 -514h-164zM393 647h324q80 0 147.5 24.5t114.5 68.5t73.5 105.5t26.5 135.5q0 123 -75.5 192.5t-204.5 69.5h-301z" />
<glyph unicode="Q" horiz-adv-x="1521" d="M125 530q0 188 57.5 348t159.5 276t243.5 181.5t307.5 65.5q125 0 230.5 -39t180 -111.5t116.5 -175t42 -229.5q0 -131 -27.5 -249t-79.5 -216t-126 -176t-164 -129l299 -248l-90 -102l-344 290q-111 -41 -234 -41q-127 0 -232.5 39t-180 112t-116.5 175t-42 229z M297 545q0 -100 30.5 -180t85 -136.5t130 -86t168.5 -29.5q125 0 230.5 54t183 150.5t121.5 227.5t44 286q0 100 -30.5 180.5t-85 136.5t-130 86t-167.5 30q-125 0 -230.5 -54.5t-183.5 -150.5t-122 -227t-44 -287z" />
<glyph unicode="R" horiz-adv-x="1318" d="M117 0l241 1376h508q88 0 160 -26.5t122 -74.5t76.5 -115.5t26.5 -151.5q0 -90 -29.5 -167t-84 -135.5t-129 -96.5t-164.5 -48l291 -561h-172l-281 547h-305l-96 -547h-164zM399 680h344q76 0 139.5 23.5t108.5 65.5t69.5 100.5t24.5 127.5q0 115 -68.5 180.5 t-191.5 65.5h-327z" />
<glyph unicode="S" horiz-adv-x="1171" d="M37 100l55 131q123 -59 240 -88.5t215 -29.5q147 0 237 69.5t90 184.5q0 78 -49 127t-122.5 85.5t-159.5 68.5t-160 77t-123 112t-49 173q0 84 36 155.5t99.5 123.5t150.5 82t191 30q113 0 236 -26.5t250 -86.5l-58 -129q-117 53 -223.5 79t-198.5 26q-72 0 -130 -18.5 t-100 -51.5t-65.5 -78t-23.5 -98q0 -76 49 -124t123 -83t160 -66.5t159.5 -77.5t122.5 -115t49 -177q0 -90 -35.5 -163t-99 -126t-154 -82t-196.5 -29q-117 0 -252 30t-264 95z" />
<glyph unicode="T" horiz-adv-x="1208" d="M184 1243l23 133h1102l-25 -133h-465l-217 -1243h-170l217 1243h-465z" />
<glyph unicode="U" horiz-adv-x="1521" d="M186 428q0 25 2 54.5t7 60.5l147 833h170l-147 -833q-4 -27 -6.5 -51.5t-2.5 -47.5q0 -152 96.5 -241.5t256.5 -89.5q178 0 301 106.5t155 290.5l152 866h170l-156 -878q-20 -121 -75.5 -218.5t-138.5 -165t-189.5 -103.5t-229.5 -36q-115 0 -209 33t-161.5 93.5 t-104.5 143.5t-37 183z" />
<glyph unicode="V" horiz-adv-x="1357" d="M195 1376h167l259 -1171l671 1171h183l-805 -1376h-158z" />
<glyph unicode="W" horiz-adv-x="2029" d="M219 1376h162l156 -1163l548 1163h156l160 -1163l549 1163h172l-672 -1376h-160l-160 1163l-548 -1163h-162z" />
<glyph unicode="X" horiz-adv-x="1357" d="M-29 0l643 713l-376 663h182l313 -563l502 563h199l-615 -680l398 -696h-185l-332 596l-530 -596h-199z" />
<glyph unicode="Y" horiz-adv-x="1210" d="M160 1376h178l305 -635l485 635h195l-618 -794l-103 -582h-170l105 594z" />
<glyph unicode="Z" horiz-adv-x="1269" d="M16 0l19 102l1009 1141h-786l25 133h1011l-18 -102l-1010 -1141h836l-25 -133h-1061z" />
<glyph unicode="[" horiz-adv-x="690" d="M80 -274l303 1728h401l-22 -135h-250l-256 -1458h250l-25 -135h-401z" />
<glyph unicode="\" horiz-adv-x="786" d="M184 1438l135 22l314 -1718l-137 -23z" />
<glyph unicode="]" horiz-adv-x="690" d="M-59 -274l22 135h250l256 1458h-250l25 135h401l-303 -1728h-401z" />
<glyph unicode="^" d="M166 442l426 934h139l426 -934l-131 -51l-364 797l-363 -797z" />
<glyph unicode="_" horiz-adv-x="983" d="M-145 -326l22 127h983l-22 -127h-983z" />
<glyph unicode="`" horiz-adv-x="491" d="M102 1356l76 104l332 -239l-66 -93z" />
<glyph unicode="a" horiz-adv-x="1083" d="M53 258q0 80 34 144.5t95.5 108.5t149.5 68.5t196 24.5q53 0 112.5 -6t123.5 -23l14 87q2 14 4 28.5t2 28.5q0 76 -56 126t-157 50q-72 0 -150.5 -14.5t-164.5 -42.5l-29 118q197 63 375 64q78 0 140.5 -21.5t107.5 -59.5t68.5 -91t23.5 -117q0 -18 -2 -36.5t-6 -37.5 l-80 -456q-4 -20 -4 -33q0 -31 20.5 -48.5t55.5 -17.5q14 0 26.5 1t22.5 3l6 -120q-57 -10 -107 -11q-74 0 -120.5 42t-48.5 114q-66 -78 -154 -117t-186 -39q-70 0 -127.5 21.5t-98.5 58.5t-63.5 89.5t-22.5 113.5zM213 276q0 -82 53 -132t148 -50q119 0 206 79t109 206 l19 98q-111 25 -213 25q-147 0 -234.5 -62t-87.5 -164z" />
<glyph unicode="b" horiz-adv-x="1161" d="M74 0l254 1442h164l-105 -586q59 78 143 121t183 43q82 0 150.5 -28.5t115.5 -81t73.5 -125t26.5 -162.5q0 -139 -39 -257t-107.5 -205t-162.5 -136.5t-205 -49.5q-109 0 -188.5 53.5t-114.5 147.5l-51 -176h-137zM303 358q0 -111 66.5 -178t171.5 -67q80 0 148.5 36.5 t118.5 103t77.5 157t27.5 194.5q0 125 -70.5 202t-185.5 77q-59 0 -111 -20.5t-95 -58.5t-72 -90t-41 -116l-29 -164q-6 -41 -6 -76z" />
<glyph unicode="c" horiz-adv-x="991" d="M82 389q0 135 43 250t120 200t181 133t229 48q88 0 173 -25.5t163 -79.5l-80 -114q-121 84 -254 84q-88 0 -162.5 -37t-129 -101.5t-85 -152.5t-30.5 -191q0 -66 21.5 -120t59.5 -92.5t91 -60t119 -21.5q70 0 137 21.5t131 59.5l53 -116q-86 -47 -174 -73t-178 -26 q-94 0 -173 30t-135.5 85t-88 131t-31.5 168z" />
<glyph unicode="d" horiz-adv-x="1161" d="M82 373q0 137 39 256t107.5 206t163.5 136t206 49q104 0 184 -51t113 -144l109 617h163l-254 -1442h-125l5 150q-66 -84 -155 -129.5t-187 -45.5q-84 0 -152 28t-116 80t-74.5 126t-26.5 164zM250 391q0 -125 69.5 -201.5t184.5 -76.5q57 0 110.5 20.5t96.5 57t72.5 89 t39.5 115.5l29 166q4 20 6 38.5t2 37.5q0 111 -67.5 178.5t-171.5 67.5q-80 0 -149 -37t-118 -103.5t-76.5 -157t-27.5 -194.5z" />
<glyph unicode="e" horiz-adv-x="1083" d="M82 389q0 135 42 251t115.5 200t175 132t220.5 48q84 0 154.5 -29.5t121 -82t79 -125t28.5 -160.5q0 -39 -5 -81t-16 -85h-749q-4 -23 -4 -48q0 -17 2 -34q2 -61 25.5 -111.5t63.5 -87.5t93 -56.5t117 -19.5q141 0 291 90l53 -110q-188 -104 -369 -105q-98 0 -178 30 t-138.5 84t-90 131t-31.5 169zM262 561h598q4 18 4 36.5v39.5q-4 117 -69 187.5t-174 70.5q-66 0 -123.5 -24.5t-104.5 -68.5t-80.5 -105.5t-50.5 -135.5z" />
<glyph unicode="f" horiz-adv-x="755" d="M119 866l22 129h205l39 209q20 119 105 190.5t210 71.5q98 0 222 -47l-50 -123q-41 16 -79.5 26.5t-73.5 10.5q-68 0 -116 -41t-58 -108l-35 -189h281l-23 -129h-281l-151 -866h-164l152 866h-205z" />
<glyph unicode="g" horiz-adv-x="1161" d="M4 -354l55 123q88 -41 176.5 -64.5t159.5 -23.5q135 0 229.5 69.5t116.5 200.5l33 186q-59 -78 -142 -120t-181 -42q-84 0 -152 28t-116 80t-74.5 126t-26.5 164q0 137 39 256t107.5 206t163.5 136t206 49q106 0 186 -53.5t115 -147.5l51 176h137l-182 -1046 q-35 -190 -169 -295t-335 -105q-88 0 -191.5 24t-205.5 73zM250 391q0 -125 69.5 -201.5t184.5 -76.5q119 0 208 77.5t111 204.5l29 166q4 20 6 38.5t2 37.5q0 111 -67.5 178.5t-171.5 67.5q-80 0 -149 -37t-118 -103.5t-76.5 -157t-27.5 -194.5z" />
<glyph unicode="h" horiz-adv-x="1161" d="M74 0l254 1442h164l-107 -602q59 84 149.5 132t190.5 48q72 0 131 -22.5t101 -62.5t66 -96.5t24 -123.5q0 -51 -11 -109l-106 -606h-164l106 596q4 23 6.5 44.5t2.5 39.5q0 94 -58.5 148.5t-156.5 54.5q-61 0 -115.5 -22.5t-97.5 -62.5t-72 -96.5t-41 -123.5l-102 -578 h-164z" />
<glyph unicode="i" horiz-adv-x="485" d="M74 0l174 995h164l-174 -995h-164zM270 1282q0 53 36 89t89 36q41 0 66.5 -25.5t25.5 -66.5q0 -53 -35.5 -89t-89.5 -36q-41 0 -66.5 25.5t-25.5 66.5z" />
<glyph unicode="j" horiz-adv-x="501" d="M-317 -408l49 125q41 -16 79.5 -25t73.5 -9q68 0 115 40.5t59 108.5l205 1163h164l-209 -1183q-20 -119 -105 -191t-210 -72q-47 0 -104.5 11.5t-116.5 31.5zM287 1282q0 53 35.5 89t89.5 36q41 0 66.5 -25.5t25.5 -66.5q0 -53 -36 -89t-89 -36q-41 0 -66.5 25.5 t-25.5 66.5z" />
<glyph unicode="k" horiz-adv-x="1026" d="M74 0l254 1442h157l-163 -926l542 479h195l-527 -465l361 -530h-180l-297 438l-127 -110l-58 -328h-157z" />
<glyph unicode="l" horiz-adv-x="583" d="M109 174q0 33 6 68l213 1200h164l-211 -1192q-6 -29 -7 -51q0 -41 28 -65.5t73 -24.5q23 0 44 3t40 7l8 -129q-35 -6 -71 -10.5t-70 -4.5q-98 0 -157.5 53.5t-59.5 145.5z" />
<glyph unicode="m" horiz-adv-x="1787" d="M74 0l174 995h125l-8 -164q63 92 152 140.5t192 48.5q113 0 190.5 -57.5t95.5 -155.5q66 98 165.5 155.5t209.5 57.5q68 0 123 -21.5t96 -59.5t63.5 -92t22.5 -118q0 -25 -2 -49.5t-6 -48.5l-111 -631h-163l110 621q6 39 6 75q0 86 -54 136.5t-144 50.5 q-57 0 -108.5 -21.5t-92.5 -60.5t-68.5 -93.5t-40.5 -117.5l-104 -590h-164l111 621q6 39 6 75q0 86 -55.5 136.5t-143.5 50.5q-57 0 -108 -21.5t-93 -60.5t-70 -93.5t-40 -117.5l-102 -590h-164z" />
<glyph unicode="n" horiz-adv-x="1161" d="M74 0l174 995h125l-8 -172q61 92 156 144.5t204 52.5q72 0 131 -22.5t101 -62.5t66 -96.5t24 -123.5q0 -51 -11 -109l-106 -606h-164l106 596q4 23 6.5 44.5t2.5 39.5q0 94 -58.5 148.5t-156.5 54.5q-61 0 -115.5 -22.5t-97.5 -62.5t-72 -96.5t-41 -123.5l-102 -578h-164 z" />
<glyph unicode="o" horiz-adv-x="1161" d="M82 389q0 135 43 251t118.5 201t181 132t230.5 47q94 0 172 -29.5t134.5 -85t87 -131.5t30.5 -168q0 -135 -43 -250.5t-118.5 -200.5t-180 -132.5t-229.5 -47.5q-96 0 -174 30t-134.5 84t-87 131t-30.5 169zM250 401q0 -133 74.5 -214t197.5 -81q84 0 156 37t124 102.5 t81.5 154.5t29.5 194q0 133 -75.5 214t-198.5 81q-84 0 -155.5 -37t-124 -102.5t-81 -155t-28.5 -193.5z" />
<glyph unicode="p" horiz-adv-x="1161" d="M-2 -426l250 1421h125l-4 -149q66 84 154.5 129t189.5 45q82 0 150.5 -28.5t115.5 -81t73.5 -125t26.5 -162.5q0 -139 -39 -257t-107.5 -205t-162.5 -136.5t-205 -49.5q-106 0 -186 51.5t-113 143.5l-104 -596h-164zM303 358q0 -111 66.5 -178t171.5 -67q80 0 148.5 36.5 t118.5 103t77.5 157t27.5 194.5q0 125 -70.5 202t-185.5 77q-59 0 -111 -20.5t-95 -58.5t-72 -90t-41 -116l-29 -164q-6 -41 -6 -76z" />
<glyph unicode="q" horiz-adv-x="1161" d="M82 373q0 137 39 256t107.5 206t163.5 136t206 49q106 0 186 -53.5t115 -147.5l51 176h137l-249 -1421h-164l100 563q-59 -78 -142 -120t-181 -42q-84 0 -152 28t-116 80t-74.5 126t-26.5 164zM250 391q0 -125 69.5 -201.5t184.5 -76.5q119 0 208 77.5t111 204.5l29 166 q4 20 6 38.5t2 37.5q0 111 -67.5 178.5t-171.5 67.5q-80 0 -149 -37t-118 -103.5t-76.5 -157t-27.5 -194.5z" />
<glyph unicode="r" horiz-adv-x="784" d="M74 0l174 995h125l-8 -168q57 90 140 137.5t183 47.5q35 0 72 -6.5t71 -20.5l-43 -131q-31 12 -65.5 17.5t-65.5 5.5q-123 0 -210 -82t-111 -224l-98 -571h-164z" />
<glyph unicode="s" horiz-adv-x="903" d="M16 68l56 120q88 -41 172 -63.5t153 -22.5q96 0 152.5 48.5t56.5 121.5q0 53 -34.5 86t-86 56.5t-112 46t-111.5 55.5t-86 81t-35 124q0 63 27 118.5t74 95.5t113.5 62.5t144.5 22.5q84 0 174 -20.5t178 -61.5l-55 -121q-78 35 -154 54.5t-139 19.5q-92 0 -146.5 -44 t-54.5 -116q0 -51 34 -83t86 -55.5t111.5 -46t111.5 -55t86 -83t34 -127.5q0 -68 -26.5 -123.5t-75 -96.5t-115 -63.5t-148.5 -22.5q-90 0 -190 24t-195 69z" />
<glyph unicode="t" horiz-adv-x="821" d="M119 866l22 129h205l53 295h162l-51 -295h313l-22 -129h-314l-100 -567q-6 -31 -6 -59q0 -59 39 -95t104 -36q31 0 65 4t68 10l13 -129q-104 -18 -193 -19q-117 0 -189.5 65.5t-72.5 176.5q0 37 6 74l103 575h-205z" />
<glyph unicode="u" horiz-adv-x="1161" d="M115 281q0 51 10 108l106 606h164l-104 -596q-4 -23 -6 -44t-2 -42q0 -92 57 -146t156 -54q61 0 115.5 22.5t97.5 62.5t72.5 96t41.5 124l101 577h163l-174 -995h-125l9 172q-61 -92 -156.5 -144.5t-204.5 -52.5q-143 0 -232 84t-89 222z" />
<glyph unicode="v" horiz-adv-x="1046" d="M131 995h160l172 -796l452 796h177l-580 -995h-152z" />
<glyph unicode="w" horiz-adv-x="1570" d="M147 995h154l111 -788l379 788h149l109 -788l378 788h172l-503 -995h-154l-108 788l-379 -788h-152z" />
<glyph unicode="x" horiz-adv-x="1046" d="M-39 0l467 516l-272 479h176l209 -381l344 381h186l-446 -493l284 -502h-176l-221 406l-362 -406h-189z" />
<glyph unicode="y" horiz-adv-x="1046" d="M-76 -432l31 131q55 -16 102 -16q63 0 115.5 42t106.5 138l83 147l-231 985h160l176 -796l448 796h177l-676 -1173q-82 -141 -166 -207t-191 -66q-31 0 -65.5 4.5t-69.5 14.5z" />
<glyph unicode="z" horiz-adv-x="968" d="M4 0l16 98l691 768h-539l23 129h755l-16 -98l-690 -770h571l-24 -127h-787z" />
<glyph unicode="{" horiz-adv-x="690" d="M66 522l24 135h27q78 0 135 41t74 117q8 41 9 89t2 99.5t3 100.5t10 92q23 117 118 187.5t237 70.5h79l-24 -135h-47q-82 0 -141.5 -44t-75.5 -126q-6 -37 -8.5 -82t-3.5 -92t-2 -93t-7 -85q-14 -86 -65.5 -138.5t-126.5 -74.5q59 -23 88.5 -71t29.5 -118q0 -49 -14 -98 t-30.5 -98t-31 -97.5t-14.5 -95.5q0 -66 43 -105.5t121 -39.5h29l-25 -135h-45q-133 0 -208.5 67.5t-75.5 171.5q0 55 15 105.5t33.5 99.5t34 99t15.5 104q0 66 -39 107.5t-105 41.5h-38z" />
<glyph unicode="|" horiz-adv-x="491" d="M176 -459v1966h139v-1966h-139z" />
<glyph unicode="}" horiz-adv-x="690" d="M-61 -274l24 135h47q82 0 140.5 44t74.5 126q8 37 10.5 82t3.5 92t2 93t7 85q14 86 65.5 138t126.5 75q-59 23 -88.5 71t-29.5 117q0 49 14 98.5t30.5 98.5t31 97t14.5 96q0 66 -43 105.5t-121 39.5h-29l25 135h45q133 0 208.5 -67.5t75.5 -172.5q0 -55 -15 -105 t-33.5 -99t-34 -99.5t-15.5 -103.5q0 -66 39 -108t104 -42h37l-22 -135h-27q-78 0 -135 -41t-74 -116q-8 -41 -9 -90.5t-2 -99.5t-3 -99t-10 -92q-23 -117 -118 -187.5t-237 -70.5h-79z" />
<glyph unicode="~" d="M98 596q137 113 297 113q66 0 117 -15.5t98 -34t95.5 -34t107.5 -15.5q63 0 115.5 21.5t105.5 68.5l78 -116q-137 -113 -299 -113q-66 0 -117 15.5t-98 34t-95 33.5t-108 15q-61 0 -113.5 -21.5t-105.5 -68.5z" />
<glyph unicode="&#xa1;" horiz-adv-x="538" d="M25 -381l180 946h137l-152 -946h-165zM215 885q0 53 38 91t91 38q45 0 72.5 -27t27.5 -72q0 -55 -37.5 -93t-93.5 -38q-45 0 -71.5 28t-26.5 73z" />
<glyph unicode="&#xa2;" d="M201 580q0 125 36.5 234.5t104.5 192.5t161 134t206 61l53 305h139l-53 -305q135 -14 258 -94l-76 -117q-59 41 -122.5 63.5t-131.5 22.5q-88 0 -162.5 -36.5t-130 -101.5t-86 -154t-30.5 -191q0 -131 80.5 -213t211.5 -82q70 0 137.5 21.5t131.5 56.5l53 -113 q-152 -86 -315 -96l-54 -299h-139l55 309q-74 12 -134 47t-103 87.5t-66.5 120t-23.5 147.5z" />
<glyph unicode="&#xa3;" d="M53 0l23 131h205l92 510h-174l22 127h174l49 289q14 80 50 143.5t91.5 107.5t127 68.5t155.5 24.5q82 0 166 -23.5t170 -60.5l-67 -125q-66 31 -129.5 51.5t-126.5 20.5q-106 0 -179 -60.5t-92 -165.5l-47 -270h385l-22 -127h-385l-90 -510h557l-23 -131h-932z" />
<glyph unicode="&#xa4;" d="M137 303l166 166q-68 90 -67 219q0 66 17 120t48 99l-164 166l99 98l163 -165q88 68 222 67q133 0 219 -67l166 165l98 -98l-166 -166q70 -92 70 -219q0 -66 -18.5 -121t-51.5 -98l166 -166l-98 -98l-166 166q-90 -68 -219 -68q-66 0 -120.5 17.5t-99.5 50.5l-165 -166z M362 688q0 -115 73 -185.5t186 -70.5q115 0 186.5 70.5t71.5 185.5t-72 186.5t-186 71.5q-113 0 -186 -71.5t-73 -186.5z" />
<glyph unicode="&#xa5;" d="M139 311l21 117h334l32 190h-331l18 117h299l-317 641h176l266 -581l444 581h193l-520 -641h293l-19 -117h-332l-34 -190h333l-22 -117h-332l-53 -311h-170l53 311h-332z" />
<glyph unicode="&#xa6;" horiz-adv-x="491" d="M176 -360v786h139v-786h-139zM176 623v786h139v-786h-139z" />
<glyph unicode="&#xa7;" horiz-adv-x="1067" d="M-33 -244l58 129q104 -51 202.5 -75.5t184.5 -24.5q119 0 192.5 58.5t73.5 154.5q0 63 -42 104t-103.5 71t-135 56.5t-135 65.5t-103.5 96.5t-42 149.5q0 104 60.5 185t164.5 120q-45 35 -71.5 84t-26.5 121q0 76 30.5 139t86 110.5t132 74t169.5 26.5q98 0 206.5 -22.5 t218.5 -75.5l-57 -127q-98 45 -191.5 66.5t-170.5 21.5q-117 0 -187.5 -57.5t-70.5 -147.5q0 -63 42 -101t103 -67t135 -56.5t135.5 -66.5t103.5 -98.5t42 -153.5q0 -106 -59.5 -186t-159.5 -121q43 -35 68.5 -86t25.5 -117q0 -80 -32 -145.5t-88 -112.5t-136 -73.5 t-174 -26.5q-102 0 -220 26.5t-229 81.5zM283 557q0 -61 32.5 -101t84 -68t111.5 -50.5t116 -50.5q80 23 129 79t49 134q0 61 -32 101t-80 68.5t-106.5 51t-113.5 49.5q-86 -20 -138 -78.5t-52 -134.5z" />
<glyph unicode="&#xa8;" horiz-adv-x="491" d="M68 1284q0 49 32.5 82t81.5 33q39 0 62.5 -23.5t23.5 -62.5q0 -47 -33.5 -81t-80.5 -34q-39 0 -62.5 23.5t-23.5 62.5zM496 1284q0 49 33.5 82t80.5 33q39 0 62.5 -23.5t23.5 -62.5q0 -47 -32.5 -81t-81.5 -34q-39 0 -62.5 23.5t-23.5 62.5z" />
<glyph unicode="&#xa9;" horiz-adv-x="1703" d="M131 688q0 166 55.5 304t155.5 238.5t238.5 156t304.5 55.5t304 -55.5t238.5 -156t155.5 -238.5t55 -304t-55 -304t-155.5 -238.5t-238.5 -156t-304 -55.5t-304.5 55.5t-238.5 156t-155.5 238.5t-55.5 304zM223 688q0 -145 48 -267t136.5 -210t210 -136t267.5 -48 q145 0 267 48t209 136t136 210t49 267t-49 267t-136 209t-209 136.5t-267 49.5t-267 -49.5t-210.5 -136.5t-136.5 -209t-48 -267zM483 688q0 98 31 179t87 139.5t135 91t173 32.5q74 0 149 -23.5t146 -70.5l-57 -88q-106 76 -223 76q-70 0 -126.5 -24.5t-97.5 -68.5 t-63.5 -106.5t-22.5 -136.5t22.5 -136.5t63.5 -106.5t97.5 -68.5t126.5 -24.5q117 0 223 76l57 -88q-72 -47 -146.5 -70.5t-148.5 -23.5q-94 0 -173 32.5t-135 91t-87 139.5t-31 179z" />
<glyph unicode="&#xaa;" horiz-adv-x="763" d="M57 473l17 92h657l-16 -92h-658zM158 893q0 106 85 167.5t230 61.5q76 0 156 -18l10 57q4 16 4 35q0 47 -38 78t-103 31q-94 0 -207 -37l-25 88q137 43 254 43q109 0 173.5 -51.5t64.5 -137.5q0 -25 -6 -51l-54 -291q-4 -20 -4 -28q0 -37 45 -37h17.5t15.5 2l4 -94 q-31 -6 -71 -6q-47 0 -80 26.5t-41 71.5q-41 -51 -98.5 -74.5t-122.5 -23.5q-94 0 -151.5 54t-57.5 134zM279 905q0 -49 32.5 -79.5t89.5 -30.5q90 0 140.5 53t66.5 139l8 43q-76 16 -133 17q-96 0 -150 -38t-54 -104z" />
<glyph unicode="&#xab;" horiz-adv-x="1101" d="M55 469l15 84l479 451l86 -89l-418 -417l272 -406l-106 -72zM520 469l15 84l479 451l86 -89l-418 -417l272 -406l-106 -72z" />
<glyph unicode="&#xac;" d="M100 520v139h1008v-573h-139v434h-869z" />
<glyph unicode="&#xad;" horiz-adv-x="655" d="M45 446l23 127h548l-24 -127h-547z" />
<glyph unicode="&#xae;" horiz-adv-x="1703" d="M131 688q0 166 55.5 304t155.5 238.5t238.5 156t304.5 55.5t304 -55.5t238.5 -156t155.5 -238.5t55 -304t-55 -304t-155.5 -238.5t-238.5 -156t-304 -55.5t-304.5 55.5t-238.5 156t-155.5 238.5t-55.5 304zM223 688q0 -145 48 -267t136.5 -210t210 -136t267.5 -48 q145 0 267 48t209 136t136 210t49 267t-49 267t-136 209t-209 136.5t-267 49.5t-267 -49.5t-210.5 -136.5t-136.5 -209t-48 -267zM598 262v852h334q125 0 203.5 -71.5t78.5 -188.5q0 -98 -56 -163.5t-148 -82.5l233 -346h-135l-215 330h-176v-330h-119zM717 688h203 q78 0 126 44t48 120q0 74 -48.5 118t-125.5 44h-203v-326z" />
<glyph unicode="&#xaf;" horiz-adv-x="491" d="M70 1241l20 117h604l-18 -117h-606z" />
<glyph unicode="&#xb0;" horiz-adv-x="679" d="M209 1114q0 61 21.5 112.5t59.5 88.5t89 58.5t110 21.5q94 0 152.5 -57.5t58.5 -151.5q0 -61 -21.5 -112.5t-58 -88.5t-88 -58.5t-112.5 -21.5q-94 0 -152.5 57.5t-58.5 151.5zM305 1128q0 -59 35 -94t94 -35q72 0 122 49.5t50 122.5q0 59 -35.5 94t-93.5 35 q-74 0 -123 -49t-49 -123z" />
<glyph unicode="&#xb1;" d="M100 0v139h1008v-139h-1008zM100 702v140h435v432h139v-432h434v-140h-434v-434h-139v434h-435z" />
<glyph unicode="&#xb2;" horiz-adv-x="700" d="M100 786l15 84l377 322q66 53 102.5 105.5t36.5 105.5q0 68 -40 106.5t-112 38.5q-45 0 -95 -16t-108 -45l-38 92q147 76 274 76q113 0 177.5 -62.5t64.5 -171.5q0 -143 -168 -284l-293 -250h381l-19 -101h-555z" />
<glyph unicode="&#xb3;" horiz-adv-x="700" d="M111 846l47 90q125 -66 231 -66q80 0 133 45.5t53 116.5q0 66 -49 107t-135 41h-47l14 86h58q96 0 155.5 46t59.5 118q0 57 -40 90.5t-106 33.5q-94 0 -202 -41l-31 91q74 25 139.5 38t126.5 13q109 0 172.5 -57.5t63.5 -151.5q0 -86 -54.5 -144.5t-136.5 -80.5 q66 -18 102.5 -69.5t36.5 -123.5q0 -55 -23.5 -102t-64.5 -82t-97 -54.5t-120 -19.5q-68 0 -141.5 19.5t-144.5 56.5z" />
<glyph unicode="&#xb4;" horiz-adv-x="491" d="M244 1223l370 237l66 -114l-381 -218z" />
<glyph unicode="&#xb5;" horiz-adv-x="1210" d="M-2 -426l250 1421h164l-105 -596q-4 -23 -6 -44t-2 -42q0 -92 57.5 -146t155.5 -54q61 0 114.5 22.5t96.5 62.5t72.5 96t42.5 124l102 577h164l-137 -780q-2 -10 -3 -19.5t-1 -19.5q0 -68 73 -67q12 0 25.5 1t23.5 3l9 -127q-57 -10 -109 -11q-78 0 -126 46.5t-48 123.5 q-63 -80 -148 -124t-176 -44q-78 0 -140 33t-93 88l-92 -524h-164z" />
<glyph unicode="&#xb6;" horiz-adv-x="1177" d="M160 903q0 100 40 187.5t110.5 151t165.5 99t206 35.5h446l-301 -1704h-139l275 1565h-218l-124 -707h-54q-190 0 -298.5 99.5t-108.5 273.5z" />
<glyph unicode="&#xb7;" horiz-adv-x="505" d="M140 494q0 53 37.5 91t93.5 38q43 0 70.5 -26.5t27.5 -71.5q0 -53 -38 -91t-93 -38q-43 0 -70.5 26.5t-27.5 71.5z" />
<glyph unicode="&#xb8;" horiz-adv-x="491" d="M-123 -412l39 93q39 -16 76 -26.5t71 -10.5q53 0 87 26.5t34 67.5q0 37 -32.5 59.5t-79.5 22.5h-17l62 180h116l-38 -117q57 -12 88.5 -51t31.5 -98q0 -41 -18 -77t-50 -61.5t-76 -41t-95 -15.5q-47 0 -97.5 13.5t-101.5 35.5z" />
<glyph unicode="&#xb9;" horiz-adv-x="557" d="M197 1481l303 157h106l-149 -852h-123l127 725l-225 -118z" />
<glyph unicode="&#xba;" horiz-adv-x="817" d="M90 473l16 92h644l-17 -92h-643zM170 981q0 90 27.5 167t79 132t122 87t154.5 32q129 0 209 -76t80 -201q0 -90 -29 -166.5t-79 -132t-120.5 -87t-154.5 -31.5q-129 0 -209 75.5t-80 200.5zM297 991q0 -84 47 -135t125 -51q53 0 98 23.5t78 64.5t51.5 97.5t18.5 121.5 q0 84 -47 135t-125 51q-53 0 -98.5 -23.5t-78 -64.5t-51 -97t-18.5 -122z" />
<glyph unicode="&#xbb;" horiz-adv-x="1101" d="M6 104l418 418l-270 406l104 71l330 -448l-15 -84l-481 -451zM471 104l418 418l-270 406l104 71l330 -448l-15 -84l-481 -451z" />
<glyph unicode="&#xbc;" horiz-adv-x="1966" d="M264 1219l303 157h107l-150 -852h-123l127 725l-225 -119zM340 37l1274 1380l78 -78l-1274 -1380zM1192 193l14 92l508 567h117l-100 -565h122l-16 -94h-123l-33 -193h-112l35 193h-412zM1325 287h295l76 420z" />
<glyph unicode="&#xbd;" horiz-adv-x="1966" d="M265 1219l303 157h106l-149 -852h-123l127 725l-225 -118zM340 37l1273 1380l78 -78l-1274 -1380zM1183 0l15 84l377 322q66 53 102.5 105.5t36.5 105.5q0 68 -40 106.5t-112 38.5q-45 0 -95 -16t-108 -45l-38 92q147 76 274 76q113 0 177.5 -62.5t64.5 -171.5 q0 -143 -168 -284l-293 -250h381l-19 -101h-555z" />
<glyph unicode="&#xbe;" horiz-adv-x="1966" d="M106 584l48 90q125 -66 231 -66q80 0 133 45t53 117q0 66 -49 107t-135 41h-47l14 86h58q96 0 155.5 46t59.5 117q0 57 -40 91t-106 34q-94 0 -202 -41l-31 90q74 25 139.5 38.5t126.5 13.5q109 0 172.5 -57.5t63.5 -151.5q0 -86 -54.5 -144.5t-136.5 -81.5 q66 -18 102.5 -69t36.5 -123q0 -55 -23.5 -102.5t-64.5 -82t-97 -54t-120 -19.5q-68 0 -141.5 19.5t-145.5 56.5zM340 37l1274 1380l78 -78l-1274 -1380zM1192 193l14 92l508 567h117l-100 -565h122l-16 -94h-123l-33 -193h-112l35 193h-412zM1325 287h295l76 420z" />
<glyph unicode="&#xbf;" horiz-adv-x="811" d="M-14 -74q0 80 29.5 142.5t75.5 115t101.5 96.5t104.5 86t87 86t48 95l4 18h139l-4 -35q-10 -63 -44.5 -114t-82 -97.5t-98.5 -88.5t-94 -85t-71.5 -91t-28.5 -105q0 -98 61 -156.5t160 -58.5q76 0 148.5 23.5t150.5 70.5l57 -121q-186 -113 -389 -113q-82 0 -147.5 25 t-111.5 68t-70.5 104.5t-24.5 134.5zM442 889q0 53 36 89t89 36q41 0 66.5 -25.5t25.5 -66.5q0 -53 -35.5 -89t-88.5 -36q-41 0 -67 25.5t-26 66.5z" />
<glyph unicode="&#xc0;" horiz-adv-x="1357" d="M-51 0l807 1376h157l316 -1376h-162l-84 377h-641l-215 -377h-178zM414 506h544l-151 684zM594 1737l76 104l332 -239l-66 -93z" />
<glyph unicode="&#xc1;" horiz-adv-x="1357" d="M-51 0l807 1376h157l316 -1376h-162l-84 377h-641l-215 -377h-178zM414 506h544l-151 684zM736 1604l370 237l66 -114l-381 -218z" />
<glyph unicode="&#xc2;" horiz-adv-x="1357" d="M-51 0l807 1376h157l316 -1376h-162l-84 377h-641l-215 -377h-178zM414 506h544l-151 684zM549 1600l291 235h105l209 -248l-80 -73l-191 204l-272 -207z" />
<glyph unicode="&#xc3;" horiz-adv-x="1357" d="M-51 0l807 1376h157l316 -1376h-162l-84 377h-641l-215 -377h-178zM414 506h544l-151 684zM555 1616q25 72 77 116t122 44q39 0 71 -12.5t60.5 -26t56 -25.5t58.5 -12t56.5 20.5t39.5 55.5l98 -33q-25 -72 -77 -116t-121 -44q-39 0 -71 12.5t-60.5 25.5t-56 25.5 t-58.5 12.5t-57.5 -20.5t-38.5 -55.5z" />
<glyph unicode="&#xc4;" horiz-adv-x="1357" d="M-51 0l807 1376h157l316 -1376h-162l-84 377h-641l-215 -377h-178zM414 506h544l-151 684zM560 1665q0 49 32.5 82t81.5 33q39 0 62.5 -23.5t23.5 -62.5q0 -47 -33.5 -81t-80.5 -34q-39 0 -62.5 23.5t-23.5 62.5zM988 1665q0 49 33.5 82t80.5 33q39 0 62.5 -23.5 t23.5 -62.5q0 -47 -32.5 -81t-81.5 -34q-39 0 -62.5 23.5t-23.5 62.5z" />
<glyph unicode="&#xc5;" horiz-adv-x="1357" d="M-51 0l807 1376h157l316 -1376h-162l-84 377h-641l-215 -377h-178zM414 506h544l-151 684zM670 1651q0 49 18.5 90t49 71.5t73.5 48t93 17.5q78 0 126 -47t48 -123q0 -47 -18.5 -89t-49.5 -72.5t-74 -48t-92 -17.5q-78 0 -126 47t-48 123zM756 1661q0 -45 26.5 -71.5 t74.5 -26.5q57 0 96 37.5t39 97.5q0 45 -27 72.5t-74 27.5q-57 0 -96 -39t-39 -98z" />
<glyph unicode="&#xc6;" horiz-adv-x="1957" d="M-109 0l1133 1376h948l-24 -131h-695l-82 -477h627l-20 -127h-629l-90 -510h727l-23 -131h-891l64 377h-530l-308 -377h-207zM500 506h458l127 719z" />
<glyph unicode="&#xc7;" horiz-adv-x="1306" d="M125 530q0 186 55.5 346t156.5 277t243.5 182.5t314.5 65.5q119 0 233.5 -37t219.5 -109l-82 -118q-178 125 -369 125q-135 0 -245.5 -54.5t-189.5 -149.5t-122 -225.5t-43 -283.5q0 -98 31.5 -178t90 -137.5t138.5 -88t176 -30.5q195 0 377 110l55 -119 q-100 -61 -210.5 -92.5t-223.5 -36.5l-31 -94q55 -12 88 -51t33 -98q0 -41 -18.5 -77t-50 -61.5t-75.5 -41t-95 -15.5q-47 0 -97.5 13.5t-101.5 35.5l39 93q39 -16 76 -26.5t71 -10.5q53 0 87 26.5t34 67.5q0 37 -32.5 59.5t-79.5 22.5h-17l55 162q-111 12 -200.5 56 t-154 115.5t-100.5 166.5t-36 210z" />
<glyph unicode="&#xc8;" horiz-adv-x="1208" d="M117 0l241 1376h865l-25 -131h-694l-82 -477h629l-23 -127h-629l-90 -510h727l-22 -131h-897zM542 1737l76 104l332 -239l-66 -93z" />
<glyph unicode="&#xc9;" horiz-adv-x="1208" d="M117 0l241 1376h865l-25 -131h-694l-82 -477h629l-23 -127h-629l-90 -510h727l-22 -131h-897zM684 1604l370 237l66 -114l-381 -218z" />
<glyph unicode="&#xca;" horiz-adv-x="1208" d="M117 0l241 1376h865l-25 -131h-694l-82 -477h629l-23 -127h-629l-90 -510h727l-22 -131h-897zM497 1600l291 235h105l209 -248l-80 -73l-191 204l-272 -207z" />
<glyph unicode="&#xcb;" horiz-adv-x="1208" d="M117 0l241 1376h865l-25 -131h-694l-82 -477h629l-23 -127h-629l-90 -510h727l-22 -131h-897zM508 1665q0 49 32.5 82t81.5 33q39 0 62.5 -23.5t23.5 -62.5q0 -47 -33.5 -81t-80.5 -34q-39 0 -62.5 23.5t-23.5 62.5zM936 1665q0 49 33.5 82t80.5 33q39 0 62.5 -23.5 t23.5 -62.5q0 -47 -32.5 -81t-81.5 -34q-39 0 -62.5 23.5t-23.5 62.5z" />
<glyph unicode="&#xcc;" horiz-adv-x="577" d="M117 0l241 1376h170l-241 -1376h-170zM213 1737l76 104l332 -239l-66 -93z" />
<glyph unicode="&#xcd;" horiz-adv-x="577" d="M117 0l241 1376h170l-241 -1376h-170zM355 1604l370 237l66 -114l-381 -218z" />
<glyph unicode="&#xce;" horiz-adv-x="577" d="M117 0l241 1376h170l-241 -1376h-170zM168 1600l291 235h105l209 -248l-80 -73l-191 204l-272 -207z" />
<glyph unicode="&#xcf;" horiz-adv-x="577" d="M117 0l241 1376h170l-241 -1376h-170zM179 1665q0 49 32.5 82t81.5 33q39 0 62.5 -23.5t23.5 -62.5q0 -47 -33.5 -81t-80.5 -34q-39 0 -62.5 23.5t-23.5 62.5zM607 1665q0 49 33.5 82t80.5 33q39 0 62.5 -23.5t23.5 -62.5q0 -47 -32.5 -81t-81.5 -34q-39 0 -62.5 23.5 t-23.5 62.5z" />
<glyph unicode="&#xd0;" horiz-adv-x="1472" d="M78 641l22 127h185l106 608h400q145 0 260.5 -38t195.5 -109.5t123 -175t43 -232.5q0 -182 -58.5 -332.5t-165 -259t-252.5 -169t-321 -60.5h-466l112 641h-184zM340 133h272q137 0 253 49t200 138.5t130 213t46 273.5q0 209 -124 322.5t-355 113.5h-225l-82 -475h333 l-24 -127h-334z" />
<glyph unicode="&#xd1;" horiz-adv-x="1521" d="M117 0l241 1376h160l594 -1134l201 1134h157l-241 -1376h-160l-594 1135l-201 -1135h-157zM645 1616q25 72 77 116t122 44q39 0 71 -12.5t60.5 -26t56 -25.5t58.5 -12t56.5 20.5t39.5 55.5l98 -33q-25 -72 -77 -116t-121 -44q-39 0 -71 12.5t-60.5 25.5t-56 25.5 t-58.5 12.5t-57.5 -20.5t-38.5 -55.5z" />
<glyph unicode="&#xd2;" horiz-adv-x="1521" d="M125 530q0 188 57.5 348t159.5 276t243.5 181.5t307.5 65.5q125 0 230.5 -39t180 -111.5t116.5 -175t42 -229.5q0 -188 -57 -348t-159.5 -276t-243 -181.5t-306.5 -65.5q-127 0 -232.5 39t-180 112t-116.5 175t-42 229zM297 545q0 -100 30.5 -180t85 -136.5t130 -86 t168.5 -29.5q125 0 230.5 54t183 150.5t121.5 227.5t44 286q0 100 -30.5 180.5t-85 136.5t-130 86t-167.5 30q-125 0 -230.5 -54.5t-183.5 -150.5t-122 -227t-44 -287zM684 1737l76 104l332 -239l-66 -93z" />
<glyph unicode="&#xd3;" horiz-adv-x="1521" d="M125 530q0 188 57.5 348t159.5 276t243.5 181.5t307.5 65.5q125 0 230.5 -39t180 -111.5t116.5 -175t42 -229.5q0 -188 -57 -348t-159.5 -276t-243 -181.5t-306.5 -65.5q-127 0 -232.5 39t-180 112t-116.5 175t-42 229zM297 545q0 -100 30.5 -180t85 -136.5t130 -86 t168.5 -29.5q125 0 230.5 54t183 150.5t121.5 227.5t44 286q0 100 -30.5 180.5t-85 136.5t-130 86t-167.5 30q-125 0 -230.5 -54.5t-183.5 -150.5t-122 -227t-44 -287zM826 1604l370 237l66 -114l-381 -218z" />
<glyph unicode="&#xd4;" horiz-adv-x="1521" d="M125 530q0 188 57.5 348t159.5 276t243.5 181.5t307.5 65.5q125 0 230.5 -39t180 -111.5t116.5 -175t42 -229.5q0 -188 -57 -348t-159.5 -276t-243 -181.5t-306.5 -65.5q-127 0 -232.5 39t-180 112t-116.5 175t-42 229zM297 545q0 -100 30.5 -180t85 -136.5t130 -86 t168.5 -29.5q125 0 230.5 54t183 150.5t121.5 227.5t44 286q0 100 -30.5 180.5t-85 136.5t-130 86t-167.5 30q-125 0 -230.5 -54.5t-183.5 -150.5t-122 -227t-44 -287zM639 1600l291 235h105l209 -248l-80 -73l-191 204l-272 -207z" />
<glyph unicode="&#xd5;" horiz-adv-x="1521" d="M125 530q0 188 57.5 348t159.5 276t243.5 181.5t307.5 65.5q125 0 230.5 -39t180 -111.5t116.5 -175t42 -229.5q0 -188 -57 -348t-159.5 -276t-243 -181.5t-306.5 -65.5q-127 0 -232.5 39t-180 112t-116.5 175t-42 229zM297 545q0 -100 30.5 -180t85 -136.5t130 -86 t168.5 -29.5q125 0 230.5 54t183 150.5t121.5 227.5t44 286q0 100 -30.5 180.5t-85 136.5t-130 86t-167.5 30q-125 0 -230.5 -54.5t-183.5 -150.5t-122 -227t-44 -287zM645 1616q25 72 77 116t122 44q39 0 71 -12.5t60.5 -26t56 -25.5t58.5 -12t56.5 20.5t39.5 55.5l98 -33 q-25 -72 -77 -116t-121 -44q-39 0 -71 12.5t-60.5 25.5t-56 25.5t-58.5 12.5t-57.5 -20.5t-38.5 -55.5z" />
<glyph unicode="&#xd6;" horiz-adv-x="1521" d="M125 530q0 188 57.5 348t159.5 276t243.5 181.5t307.5 65.5q125 0 230.5 -39t180 -111.5t116.5 -175t42 -229.5q0 -188 -57 -348t-159.5 -276t-243 -181.5t-306.5 -65.5q-127 0 -232.5 39t-180 112t-116.5 175t-42 229zM297 545q0 -100 30.5 -180t85 -136.5t130 -86 t168.5 -29.5q125 0 230.5 54t183 150.5t121.5 227.5t44 286q0 100 -30.5 180.5t-85 136.5t-130 86t-167.5 30q-125 0 -230.5 -54.5t-183.5 -150.5t-122 -227t-44 -287zM650 1665q0 49 32.5 82t81.5 33q39 0 62.5 -23.5t23.5 -62.5q0 -47 -33.5 -81t-80.5 -34 q-39 0 -62.5 23.5t-23.5 62.5zM1078 1665q0 49 33.5 82t80.5 33q39 0 62.5 -23.5t23.5 -62.5q0 -47 -32.5 -81t-81.5 -34q-39 0 -62.5 23.5t-23.5 62.5z" />
<glyph unicode="&#xd7;" d="M139 223l367 367l-367 366l99 101l366 -369l369 369l98 -101l-369 -366l369 -367l-98 -100l-369 369l-366 -369z" />
<glyph unicode="&#xd8;" horiz-adv-x="1521" d="M113 27l129 143q-117 141 -117 360q0 188 57.5 348t159.5 276t242.5 181.5t308.5 65.5q111 0 205 -34t166 -95l133 145l80 -67l-134 -144q57 -70 88 -160t31 -200q0 -188 -57 -348t-158.5 -276t-243 -181.5t-307.5 -65.5q-227 0 -372 127l-134 -143zM285 545 q0 -76 18.5 -139.5t52.5 -112.5l805 870q-53 51 -124.5 79t-159.5 28q-129 0 -238 -54.5t-187.5 -151.5t-122.5 -230t-44 -289zM426 213q109 -104 285 -104q129 0 237.5 54t187 150.5t123 228.5t44.5 289q0 74 -19.5 137.5t-54.5 114.5z" />
<glyph unicode="&#xd9;" horiz-adv-x="1521" d="M186 428q0 25 2 54.5t7 60.5l147 833h170l-147 -833q-4 -27 -6.5 -51.5t-2.5 -47.5q0 -152 96.5 -241.5t256.5 -89.5q178 0 301 106.5t155 290.5l152 866h170l-156 -878q-20 -121 -75.5 -218.5t-138.5 -165t-189.5 -103.5t-229.5 -36q-115 0 -209 33t-161.5 93.5 t-104.5 143.5t-37 183zM684 1737l76 104l332 -239l-66 -93z" />
<glyph unicode="&#xda;" horiz-adv-x="1521" d="M186 428q0 25 2 54.5t7 60.5l147 833h170l-147 -833q-4 -27 -6.5 -51.5t-2.5 -47.5q0 -152 96.5 -241.5t256.5 -89.5q178 0 301 106.5t155 290.5l152 866h170l-156 -878q-20 -121 -75.5 -218.5t-138.5 -165t-189.5 -103.5t-229.5 -36q-115 0 -209 33t-161.5 93.5 t-104.5 143.5t-37 183zM826 1604l370 237l66 -114l-381 -218z" />
<glyph unicode="&#xdb;" horiz-adv-x="1521" d="M186 428q0 25 2 54.5t7 60.5l147 833h170l-147 -833q-4 -27 -6.5 -51.5t-2.5 -47.5q0 -152 96.5 -241.5t256.5 -89.5q178 0 301 106.5t155 290.5l152 866h170l-156 -878q-20 -121 -75.5 -218.5t-138.5 -165t-189.5 -103.5t-229.5 -36q-115 0 -209 33t-161.5 93.5 t-104.5 143.5t-37 183zM639 1600l291 235h105l209 -248l-80 -73l-191 204l-272 -207z" />
<glyph unicode="&#xdc;" horiz-adv-x="1521" d="M186 428q0 25 2 54.5t7 60.5l147 833h170l-147 -833q-4 -27 -6.5 -51.5t-2.5 -47.5q0 -152 96.5 -241.5t256.5 -89.5q178 0 301 106.5t155 290.5l152 866h170l-156 -878q-20 -121 -75.5 -218.5t-138.5 -165t-189.5 -103.5t-229.5 -36q-115 0 -209 33t-161.5 93.5 t-104.5 143.5t-37 183zM650 1665q0 49 32.5 82t81.5 33q39 0 62.5 -23.5t23.5 -62.5q0 -47 -33.5 -81t-80.5 -34q-39 0 -62.5 23.5t-23.5 62.5zM1078 1665q0 49 33.5 82t80.5 33q39 0 62.5 -23.5t23.5 -62.5q0 -47 -32.5 -81t-81.5 -34q-39 0 -62.5 23.5t-23.5 62.5z" />
<glyph unicode="&#xdd;" horiz-adv-x="1210" d="M160 1376h178l305 -635l485 635h195l-618 -794l-103 -582h-170l105 594zM654 1604l370 237l66 -114l-381 -218z" />
<glyph unicode="&#xde;" horiz-adv-x="1253" d="M117 0l241 1376h164l-43 -239h320q92 0 167.5 -28t128 -78t81 -120.5t28.5 -158.5q0 -104 -39 -191.5t-107.5 -152t-162.5 -100.5t-207 -36h-360l-47 -272h-164zM352 408h324q80 0 146.5 24.5t114.5 67.5t74.5 104t26.5 135q0 123 -75.5 192.5t-206.5 69.5h-299z" />
<glyph unicode="&#xdf;" horiz-adv-x="1243" d="M74 0l194 1116q14 80 51 144.5t92.5 110.5t129 70.5t159.5 24.5q170 0 269.5 -80.5t99.5 -220.5q0 -82 -39 -141t-87 -109.5t-87 -97.5t-39 -104q0 -49 22.5 -82t57.5 -59.5t74 -51t73.5 -57.5t57 -79t22.5 -114q0 -63 -26.5 -116.5t-75.5 -93.5t-116.5 -62.5 t-149.5 -22.5q-74 0 -155 19.5t-161 60.5l58 121q66 -37 132 -55.5t126 -18.5q94 0 152.5 46.5t58.5 115.5q0 47 -23.5 80t-58.5 57.5t-77 48t-77 55.5t-58.5 74.5t-23.5 108.5q0 74 40 129t88 107.5t88 106.5t40 124q0 86 -56 135t-157 49q-106 0 -177 -63.5t-91 -179.5 l-193 -1096h-157z" />
<glyph unicode="&#xe0;" horiz-adv-x="1116" d="M53 258q0 80 34 144.5t95.5 108.5t149.5 68.5t196 24.5q53 0 112.5 -6t123.5 -23l14 87q2 14 4 28.5t2 28.5q0 76 -56 126t-157 50q-72 0 -150.5 -14.5t-164.5 -42.5l-29 118q197 63 375 64q78 0 140.5 -21.5t107.5 -59.5t68.5 -91t23.5 -117q0 -18 -2 -36.5t-6 -37.5 l-80 -456q-4 -20 -4 -33q0 -31 20.5 -48.5t55.5 -17.5q14 0 26.5 1t22.5 3l6 -120q-57 -10 -107 -11q-74 0 -120.5 42t-48.5 114q-66 -78 -154 -117t-186 -39q-70 0 -127.5 21.5t-98.5 58.5t-63.5 89.5t-22.5 113.5zM213 276q0 -82 53 -132t148 -50q119 0 206 79t109 206 l19 98q-111 25 -213 25q-147 0 -234.5 -62t-87.5 -164zM391 1356l76 104l332 -239l-66 -93z" />
<glyph unicode="&#xe1;" horiz-adv-x="1116" d="M53 258q0 80 34 144.5t95.5 108.5t149.5 68.5t196 24.5q53 0 112.5 -6t123.5 -23l14 87q2 14 4 28.5t2 28.5q0 76 -56 126t-157 50q-72 0 -150.5 -14.5t-164.5 -42.5l-29 118q197 63 375 64q78 0 140.5 -21.5t107.5 -59.5t68.5 -91t23.5 -117q0 -18 -2 -36.5t-6 -37.5 l-80 -456q-4 -20 -4 -33q0 -31 20.5 -48.5t55.5 -17.5q14 0 26.5 1t22.5 3l6 -120q-57 -10 -107 -11q-74 0 -120.5 42t-48.5 114q-66 -78 -154 -117t-186 -39q-70 0 -127.5 21.5t-98.5 58.5t-63.5 89.5t-22.5 113.5zM213 276q0 -82 53 -132t148 -50q119 0 206 79t109 206 l19 98q-111 25 -213 25q-147 0 -234.5 -62t-87.5 -164zM533 1223l370 237l66 -114l-381 -218z" />
<glyph unicode="&#xe2;" horiz-adv-x="1116" d="M53 258q0 80 34 144.5t95.5 108.5t149.5 68.5t196 24.5q53 0 112.5 -6t123.5 -23l14 87q2 14 4 28.5t2 28.5q0 76 -56 126t-157 50q-72 0 -150.5 -14.5t-164.5 -42.5l-29 118q197 63 375 64q78 0 140.5 -21.5t107.5 -59.5t68.5 -91t23.5 -117q0 -18 -2 -36.5t-6 -37.5 l-80 -456q-4 -20 -4 -33q0 -31 20.5 -48.5t55.5 -17.5q14 0 26.5 1t22.5 3l6 -120q-57 -10 -107 -11q-74 0 -120.5 42t-48.5 114q-66 -78 -154 -117t-186 -39q-70 0 -127.5 21.5t-98.5 58.5t-63.5 89.5t-22.5 113.5zM213 276q0 -82 53 -132t148 -50q119 0 206 79t109 206 l19 98q-111 25 -213 25q-147 0 -234.5 -62t-87.5 -164zM346 1219l291 235h105l209 -248l-80 -73l-191 204l-272 -207z" />
<glyph unicode="&#xe3;" horiz-adv-x="1116" d="M53 258q0 80 34 144.5t95.5 108.5t149.5 68.5t196 24.5q53 0 112.5 -6t123.5 -23l14 87q2 14 4 28.5t2 28.5q0 76 -56 126t-157 50q-72 0 -150.5 -14.5t-164.5 -42.5l-29 118q197 63 375 64q78 0 140.5 -21.5t107.5 -59.5t68.5 -91t23.5 -117q0 -18 -2 -36.5t-6 -37.5 l-80 -456q-4 -20 -4 -33q0 -31 20.5 -48.5t55.5 -17.5q14 0 26.5 1t22.5 3l6 -120q-57 -10 -107 -11q-74 0 -120.5 42t-48.5 114q-66 -78 -154 -117t-186 -39q-70 0 -127.5 21.5t-98.5 58.5t-63.5 89.5t-22.5 113.5zM213 276q0 -82 53 -132t148 -50q119 0 206 79t109 206 l19 98q-111 25 -213 25q-147 0 -234.5 -62t-87.5 -164zM352 1235q25 72 77 116t122 44q39 0 71 -12.5t60.5 -26t56 -25.5t58.5 -12t56.5 20.5t39.5 55.5l98 -33q-25 -72 -77 -116t-121 -44q-39 0 -71 12.5t-60.5 25.5t-56 25.5t-58.5 12.5t-57.5 -20.5t-38.5 -55.5z" />
<glyph unicode="&#xe4;" horiz-adv-x="1116" d="M53 258q0 80 34 144.5t95.5 108.5t149.5 68.5t196 24.5q53 0 112.5 -6t123.5 -23l14 87q2 14 4 28.5t2 28.5q0 76 -56 126t-157 50q-72 0 -150.5 -14.5t-164.5 -42.5l-29 118q197 63 375 64q78 0 140.5 -21.5t107.5 -59.5t68.5 -91t23.5 -117q0 -18 -2 -36.5t-6 -37.5 l-80 -456q-4 -20 -4 -33q0 -31 20.5 -48.5t55.5 -17.5q14 0 26.5 1t22.5 3l6 -120q-57 -10 -107 -11q-74 0 -120.5 42t-48.5 114q-66 -78 -154 -117t-186 -39q-70 0 -127.5 21.5t-98.5 58.5t-63.5 89.5t-22.5 113.5zM213 276q0 -82 53 -132t148 -50q119 0 206 79t109 206 l19 98q-111 25 -213 25q-147 0 -234.5 -62t-87.5 -164zM357 1284q0 49 32.5 82t81.5 33q39 0 62.5 -23.5t23.5 -62.5q0 -47 -33.5 -81t-80.5 -34q-39 0 -62.5 23.5t-23.5 62.5zM785 1284q0 49 33.5 82t80.5 33q39 0 62.5 -23.5t23.5 -62.5q0 -47 -32.5 -81t-81.5 -34 q-39 0 -62.5 23.5t-23.5 62.5z" />
<glyph unicode="&#xe5;" horiz-adv-x="1116" d="M53 258q0 80 34 144.5t95.5 108.5t149.5 68.5t196 24.5q53 0 112.5 -6t123.5 -23l14 87q2 14 4 28.5t2 28.5q0 76 -56 126t-157 50q-72 0 -150.5 -14.5t-164.5 -42.5l-29 118q197 63 375 64q78 0 140.5 -21.5t107.5 -59.5t68.5 -91t23.5 -117q0 -18 -2 -36.5t-6 -37.5 l-80 -456q-4 -20 -4 -33q0 -31 20.5 -48.5t55.5 -17.5q14 0 26.5 1t22.5 3l6 -120q-57 -10 -107 -11q-74 0 -120.5 42t-48.5 114q-66 -78 -154 -117t-186 -39q-70 0 -127.5 21.5t-98.5 58.5t-63.5 89.5t-22.5 113.5zM213 276q0 -82 53 -132t148 -50q119 0 206 79t109 206 l19 98q-111 25 -213 25q-147 0 -234.5 -62t-87.5 -164zM467 1270q0 49 18.5 90t49 71.5t73.5 48t93 17.5q78 0 126 -47t48 -123q0 -47 -18.5 -89t-49.5 -72.5t-74 -48t-92 -17.5q-78 0 -126 47t-48 123zM553 1280q0 -45 26.5 -71.5t74.5 -26.5q57 0 96 37.5t39 97.5 q0 45 -27 72.5t-74 27.5q-57 0 -96 -39t-39 -98z" />
<glyph unicode="&#xe6;" horiz-adv-x="1736" d="M53 258q0 80 34 144.5t95.5 108.5t149.5 68.5t196 24.5q53 0 112.5 -6t123.5 -23l14 87q2 14 4 28.5t2 28.5q0 76 -54 126t-159 50q-72 0 -150.5 -14.5t-164.5 -42.5l-29 118q197 63 375 64q117 0 197 -51t102 -148q66 92 163 145.5t224 53.5q84 0 154.5 -29.5t121 -82 t79 -125t28.5 -160.5q0 -39 -5 -81t-17 -85h-750q-6 -39 -2 -82q2 -61 25.5 -111.5t63.5 -87.5t93.5 -56.5t116.5 -19.5q143 0 293 90l53 -110q-188 -104 -368 -105q-141 0 -243 67t-143 183q-55 -117 -165.5 -183.5t-243.5 -66.5q-74 0 -133.5 21.5t-102.5 58.5t-66.5 89.5 t-23.5 113.5zM213 276q0 -82 53 -132t148 -50q59 0 111.5 21.5t93 59.5t69.5 90t41 114l19 98q-111 25 -213 25q-147 0 -234.5 -62t-87.5 -164zM915 561h596q6 41 5 76q-2 117 -67.5 187.5t-176.5 70.5q-63 0 -121.5 -24.5t-106 -68.5t-81 -105.5t-48.5 -135.5z" />
<glyph unicode="&#xe7;" horiz-adv-x="991" d="M82 389q0 135 43 250t120 200t181 133t229 48q88 0 173 -25.5t163 -79.5l-80 -114q-121 84 -254 84q-88 0 -162.5 -37t-129 -101.5t-85 -152.5t-30.5 -191q0 -68 21.5 -122t59.5 -91.5t91 -59t119 -21.5q70 0 137 21.5t131 59.5l53 -116q-78 -45 -159.5 -68.5 t-161.5 -28.5l-31 -94q55 -12 88 -51t33 -98q0 -41 -18.5 -77t-50.5 -61.5t-76 -41t-95 -15.5q-47 0 -97 13.5t-101 35.5l38 93q39 -16 76 -26.5t72 -10.5q51 0 85 26.5t34 67.5q0 37 -32 59.5t-79 22.5h-16l55 164q-78 12 -140.5 45.5t-108.5 86t-70.5 122t-24.5 151.5z " />
<glyph unicode="&#xe8;" horiz-adv-x="1083" d="M82 389q0 135 42 251t115.5 200t175 132t220.5 48q84 0 154.5 -29.5t121 -82t79 -125t28.5 -160.5q0 -39 -5 -81t-16 -85h-749q-6 -39 -2 -82q2 -61 25.5 -111.5t63.5 -87.5t93 -56.5t117 -19.5q141 0 291 90l53 -110q-188 -104 -369 -105q-98 0 -178 30t-138.5 84 t-90 131t-31.5 169zM262 561h598q4 18 4 36.5v39.5q-4 117 -69 187.5t-174 70.5q-66 0 -123.5 -24.5t-104.5 -68.5t-80.5 -105.5t-50.5 -135.5zM424 1356l76 104l332 -239l-66 -93z" />
<glyph unicode="&#xe9;" horiz-adv-x="1083" d="M82 389q0 135 42 251t115.5 200t175 132t220.5 48q84 0 154.5 -29.5t121 -82t79 -125t28.5 -160.5q0 -39 -5 -81t-16 -85h-749q-6 -39 -2 -82q2 -61 25.5 -111.5t63.5 -87.5t93 -56.5t117 -19.5q141 0 291 90l53 -110q-188 -104 -369 -105q-98 0 -178 30t-138.5 84 t-90 131t-31.5 169zM262 561h598q4 18 4 36.5v39.5q-4 117 -69 187.5t-174 70.5q-66 0 -123.5 -24.5t-104.5 -68.5t-80.5 -105.5t-50.5 -135.5zM566 1223l370 237l66 -114l-381 -218z" />
<glyph unicode="&#xea;" horiz-adv-x="1083" d="M82 389q0 135 42 251t115.5 200t175 132t220.5 48q84 0 154.5 -29.5t121 -82t79 -125t28.5 -160.5q0 -39 -5 -81t-16 -85h-749q-6 -39 -2 -82q2 -61 25.5 -111.5t63.5 -87.5t93 -56.5t117 -19.5q141 0 291 90l53 -110q-188 -104 -369 -105q-98 0 -178 30t-138.5 84 t-90 131t-31.5 169zM262 561h598q4 18 4 36.5v39.5q-4 117 -69 187.5t-174 70.5q-66 0 -123.5 -24.5t-104.5 -68.5t-80.5 -105.5t-50.5 -135.5zM379 1219l291 235h105l209 -248l-80 -73l-191 204l-272 -207z" />
<glyph unicode="&#xeb;" horiz-adv-x="1083" d="M82 389q0 135 42 251t115.5 200t175 132t220.5 48q84 0 154.5 -29.5t121 -82t79 -125t28.5 -160.5q0 -39 -5 -81t-16 -85h-749q-6 -39 -2 -82q2 -61 25.5 -111.5t63.5 -87.5t93 -56.5t117 -19.5q141 0 291 90l53 -110q-188 -104 -369 -105q-98 0 -178 30t-138.5 84 t-90 131t-31.5 169zM262 561h598q4 18 4 36.5v39.5q-4 117 -69 187.5t-174 70.5q-66 0 -123.5 -24.5t-104.5 -68.5t-80.5 -105.5t-50.5 -135.5zM390 1284q0 49 32.5 82t81.5 33q39 0 62.5 -23.5t23.5 -62.5q0 -47 -33.5 -81t-80.5 -34q-39 0 -62.5 23.5t-23.5 62.5z M818 1284q0 49 33.5 82t80.5 33q39 0 62.5 -23.5t23.5 -62.5q0 -47 -32.5 -81t-81.5 -34q-39 0 -62.5 23.5t-23.5 62.5z" />
<glyph unicode="&#xec;" horiz-adv-x="485" d="M74 0l174 995h164l-174 -995h-164zM100 1356l76 104l332 -239l-66 -93z" />
<glyph unicode="&#xed;" horiz-adv-x="485" d="M74 0l174 995h164l-174 -995h-164zM242 1223l370 237l66 -114l-381 -218z" />
<glyph unicode="&#xee;" horiz-adv-x="485" d="M55 1219l291 235h105l209 -248l-80 -73l-191 204l-272 -207zM74 0l174 995h164l-174 -995h-164z" />
<glyph unicode="&#xef;" horiz-adv-x="485" d="M66 1284q0 49 32.5 82t81.5 33q39 0 62.5 -23.5t23.5 -62.5q0 -47 -33.5 -81t-80.5 -34q-39 0 -62.5 23.5t-23.5 62.5zM74 0l174 995h164l-174 -995h-164zM494 1284q0 49 33.5 82t80.5 33q39 0 62.5 -23.5t23.5 -62.5q0 -47 -32.5 -81t-81.5 -34q-39 0 -62.5 23.5 t-23.5 62.5z" />
<glyph unicode="&#xf0;" horiz-adv-x="1161" d="M82 379q0 135 41 248.5t112.5 196.5t172 130t221.5 47q88 0 159.5 -34.5t120.5 -104.5q-43 236 -194 369l-285 -123l-37 90l221 98q-70 45 -141 78l43 109q135 -45 244 -125l248 108l36 -92l-202 -88q238 -233 237 -635q0 -152 -44 -275.5t-121.5 -212.5t-184 -138.5 t-233.5 -49.5q-94 0 -170 31t-130.5 84t-84 128t-29.5 161zM240 391q0 -131 74.5 -211t199.5 -80q84 0 154.5 37t123 102.5t82 153.5t29.5 193q0 131 -74.5 211t-197.5 80q-84 0 -156 -37t-124 -101.5t-81.5 -154t-29.5 -193.5z" />
<glyph unicode="&#xf1;" horiz-adv-x="1161" d="M74 0l174 995h125l-8 -172q61 92 156 144.5t204 52.5q72 0 131 -22.5t101 -62.5t66 -96.5t24 -123.5q0 -51 -11 -109l-106 -606h-164l106 596q4 23 6.5 44.5t2.5 39.5q0 94 -58.5 148.5t-156.5 54.5q-61 0 -115.5 -22.5t-97.5 -62.5t-72 -96.5t-41 -123.5l-102 -578h-164 zM399 1235q25 72 77 116t122 44q39 0 71 -12.5t60.5 -26t56 -25.5t58.5 -12t56.5 20.5t39.5 55.5l98 -33q-25 -72 -77 -116t-121 -44q-39 0 -71 12.5t-60.5 25.5t-56 25.5t-58.5 12.5t-57.5 -20.5t-38.5 -55.5z" />
<glyph unicode="&#xf2;" horiz-adv-x="1161" d="M82 389q0 135 43 251t118.5 201t181 132t230.5 47q94 0 172 -29.5t134.5 -85t87 -131.5t30.5 -168q0 -135 -43 -250.5t-118.5 -200.5t-180 -132.5t-229.5 -47.5q-96 0 -174 30t-134.5 84t-87 131t-30.5 169zM250 401q0 -133 74.5 -214t197.5 -81q84 0 156 37t124 102.5 t81.5 154.5t29.5 194q0 133 -75.5 214t-198.5 81q-84 0 -155.5 -37t-124 -102.5t-81 -155t-28.5 -193.5zM438 1356l76 104l332 -239l-66 -93z" />
<glyph unicode="&#xf3;" horiz-adv-x="1161" d="M82 389q0 135 43 251t118.5 201t181 132t230.5 47q94 0 172 -29.5t134.5 -85t87 -131.5t30.5 -168q0 -135 -43 -250.5t-118.5 -200.5t-180 -132.5t-229.5 -47.5q-96 0 -174 30t-134.5 84t-87 131t-30.5 169zM250 401q0 -133 74.5 -214t197.5 -81q84 0 156 37t124 102.5 t81.5 154.5t29.5 194q0 133 -75.5 214t-198.5 81q-84 0 -155.5 -37t-124 -102.5t-81 -155t-28.5 -193.5zM580 1223l370 237l66 -114l-381 -218z" />
<glyph unicode="&#xf4;" horiz-adv-x="1161" d="M82 389q0 135 43 251t118.5 201t181 132t230.5 47q94 0 172 -29.5t134.5 -85t87 -131.5t30.5 -168q0 -135 -43 -250.5t-118.5 -200.5t-180 -132.5t-229.5 -47.5q-96 0 -174 30t-134.5 84t-87 131t-30.5 169zM250 401q0 -133 74.5 -214t197.5 -81q84 0 156 37t124 102.5 t81.5 154.5t29.5 194q0 133 -75.5 214t-198.5 81q-84 0 -155.5 -37t-124 -102.5t-81 -155t-28.5 -193.5zM393 1219l291 235h105l209 -248l-80 -73l-191 204l-272 -207z" />
<glyph unicode="&#xf5;" horiz-adv-x="1161" d="M82 389q0 135 43 251t118.5 201t181 132t230.5 47q94 0 172 -29.5t134.5 -85t87 -131.5t30.5 -168q0 -135 -43 -250.5t-118.5 -200.5t-180 -132.5t-229.5 -47.5q-96 0 -174 30t-134.5 84t-87 131t-30.5 169zM250 401q0 -133 74.5 -214t197.5 -81q84 0 156 37t124 102.5 t81.5 154.5t29.5 194q0 133 -75.5 214t-198.5 81q-84 0 -155.5 -37t-124 -102.5t-81 -155t-28.5 -193.5zM399 1235q25 72 77 116t122 44q39 0 71 -12.5t60.5 -26t56 -25.5t58.5 -12t56.5 20.5t39.5 55.5l98 -33q-25 -72 -77 -116t-121 -44q-39 0 -71 12.5t-60.5 25.5 t-56 25.5t-58.5 12.5t-57.5 -20.5t-38.5 -55.5z" />
<glyph unicode="&#xf6;" horiz-adv-x="1161" d="M82 389q0 135 43 251t118.5 201t181 132t230.5 47q94 0 172 -29.5t134.5 -85t87 -131.5t30.5 -168q0 -135 -43 -250.5t-118.5 -200.5t-180 -132.5t-229.5 -47.5q-96 0 -174 30t-134.5 84t-87 131t-30.5 169zM250 401q0 -133 74.5 -214t197.5 -81q84 0 156 37t124 102.5 t81.5 154.5t29.5 194q0 133 -75.5 214t-198.5 81q-84 0 -155.5 -37t-124 -102.5t-81 -155t-28.5 -193.5zM404 1284q0 49 32.5 82t81.5 33q39 0 62.5 -23.5t23.5 -62.5q0 -47 -33.5 -81t-80.5 -34q-39 0 -62.5 23.5t-23.5 62.5zM832 1284q0 49 33.5 82t80.5 33 q39 0 62.5 -23.5t23.5 -62.5q0 -47 -32.5 -81t-81.5 -34q-39 0 -62.5 23.5t-23.5 62.5z" />
<glyph unicode="&#xf7;" d="M123 526v127h964v-127h-964zM510 197q0 41 26.5 67.5t67.5 26.5q43 0 69.5 -26.5t26.5 -67.5t-26.5 -68t-69.5 -27q-41 0 -67.5 27t-26.5 68zM510 983q0 41 26.5 67.5t67.5 26.5q43 0 69.5 -24.5t26.5 -69.5q0 -41 -26.5 -67.5t-69.5 -26.5q-41 0 -67.5 26.5t-26.5 67.5z " />
<glyph unicode="&#xf8;" horiz-adv-x="1161" d="M76 16l94 105q-41 51 -64.5 118.5t-23.5 149.5q0 135 43 251t118.5 201t181 132t230.5 47q78 0 144.5 -23.5t120.5 -66.5l98 108l67 -59l-96 -105q90 -109 90 -268q0 -135 -43 -250.5t-118.5 -200.5t-180 -132.5t-229.5 -47.5q-80 0 -147.5 24t-118.5 67l-101 -111z M238 401q0 -90 45 -161l538 583q-35 35 -81 53.5t-101 18.5q-86 0 -159.5 -38t-128 -103.5t-84 -156t-29.5 -196.5zM338 170q73 -70 184 -70q86 0 160 37t128 103.5t84 156.5t30 197q0 96 -45 160z" />
<glyph unicode="&#xf9;" horiz-adv-x="1161" d="M115 281q0 51 10 108l106 606h164l-104 -596q-4 -23 -6 -44t-2 -42q0 -92 57 -146t156 -54q61 0 115.5 22.5t97.5 62.5t72.5 96t41.5 124l101 577h163l-174 -995h-125l9 172q-61 -92 -156.5 -144.5t-204.5 -52.5q-143 0 -232 84t-89 222zM438 1356l76 104l332 -239 l-66 -93z" />
<glyph unicode="&#xfa;" horiz-adv-x="1161" d="M115 281q0 51 10 108l106 606h164l-104 -596q-4 -23 -6 -44t-2 -42q0 -92 57 -146t156 -54q61 0 115.5 22.5t97.5 62.5t72.5 96t41.5 124l101 577h163l-174 -995h-125l9 172q-61 -92 -156.5 -144.5t-204.5 -52.5q-143 0 -232 84t-89 222zM580 1223l370 237l66 -114 l-381 -218z" />
<glyph unicode="&#xfb;" horiz-adv-x="1161" d="M115 281q0 51 10 108l106 606h164l-104 -596q-4 -23 -6 -44t-2 -42q0 -92 57 -146t156 -54q61 0 115.5 22.5t97.5 62.5t72.5 96t41.5 124l101 577h163l-174 -995h-125l9 172q-61 -92 -156.5 -144.5t-204.5 -52.5q-143 0 -232 84t-89 222zM393 1219l291 235h105l209 -248 l-80 -73l-191 204l-272 -207z" />
<glyph unicode="&#xfc;" horiz-adv-x="1161" d="M115 281q0 51 10 108l106 606h164l-104 -596q-4 -23 -6 -44t-2 -42q0 -92 57 -146t156 -54q61 0 115.5 22.5t97.5 62.5t72.5 96t41.5 124l101 577h163l-174 -995h-125l9 172q-61 -92 -156.5 -144.5t-204.5 -52.5q-143 0 -232 84t-89 222zM404 1284q0 49 32.5 82t81.5 33 q39 0 62.5 -23.5t23.5 -62.5q0 -47 -33.5 -81t-80.5 -34q-39 0 -62.5 23.5t-23.5 62.5zM832 1284q0 49 33.5 82t80.5 33q39 0 62.5 -23.5t23.5 -62.5q0 -47 -32.5 -81t-81.5 -34q-39 0 -62.5 23.5t-23.5 62.5z" />
<glyph unicode="&#xfd;" horiz-adv-x="1046" d="M-76 -432l31 131q55 -16 102 -16q63 0 115.5 42t106.5 138l83 147l-231 985h160l176 -796l448 796h177l-676 -1173q-82 -141 -166 -207t-191 -66q-31 0 -65.5 4.5t-69.5 14.5zM506 1223l370 237l66 -114l-381 -218z" />
<glyph unicode="&#xfe;" horiz-adv-x="1161" d="M-2 -426l330 1868h159l-100 -586q61 78 145 121t181 43q82 0 150.5 -28.5t115.5 -81t73.5 -125t26.5 -162.5q0 -139 -39 -257t-107.5 -205t-162.5 -136.5t-205 -49.5q-106 0 -186 51.5t-113 143.5l-104 -596h-164zM303 358q0 -111 66.5 -178t171.5 -67q80 0 148.5 36.5 t118.5 103t77.5 157t27.5 194.5q0 125 -70.5 202t-185.5 77q-59 0 -111 -20.5t-95 -58.5t-72 -90t-41 -116l-29 -164q-6 -41 -6 -76z" />
<glyph unicode="&#xff;" horiz-adv-x="1046" d="M-76 -432l31 131q55 -16 102 -16q63 0 115.5 42t106.5 138l83 147l-231 985h160l176 -796l448 796h177l-676 -1173q-82 -141 -166 -207t-191 -66q-31 0 -65.5 4.5t-69.5 14.5zM330 1284q0 49 32.5 82t81.5 33q39 0 62.5 -23.5t23.5 -62.5q0 -47 -33.5 -81t-80.5 -34 q-39 0 -62.5 23.5t-23.5 62.5zM758 1284q0 49 33.5 82t80.5 33q39 0 62.5 -23.5t23.5 -62.5q0 -47 -32.5 -81t-81.5 -34q-39 0 -62.5 23.5t-23.5 62.5z" />
<glyph unicode="&#x152;" horiz-adv-x="2031" d="M125 557q0 182 57.5 333.5t162 259t249.5 167t319 59.5h1133l-23 -131h-694l-84 -477h629l-23 -127h-628l-90 -510h727l-23 -131h-1104q-141 0 -254.5 38t-191.5 110.5t-120 176t-42 232.5zM299 569q0 -205 122 -320.5t345 -115.5h199l192 1110h-239q-137 0 -251 -49 t-196 -138t-127 -213t-45 -274z" />
<glyph unicode="&#x153;" horiz-adv-x="1900" d="M82 389q0 135 43 251t118.5 201t181 132t230.5 47q141 0 238.5 -73t130.5 -195q66 121 177.5 194.5t250.5 73.5q84 0 154.5 -29.5t121 -82t79 -125t28.5 -160.5q0 -39 -5 -81t-18 -85h-749q-6 -39 -2 -82q2 -61 25.5 -111.5t63.5 -87.5t93 -56.5t117 -19.5q143 0 293 90 l53 -110q-188 -104 -369 -105q-147 0 -248.5 73t-136.5 196q-68 -123 -182.5 -196t-261.5 -73q-96 0 -174 30t-134.5 84t-87 131t-30.5 169zM250 401q0 -133 74.5 -214t197.5 -81q84 0 156 37t124 102.5t81.5 154.5t29.5 194q0 133 -75.5 214t-198.5 81q-84 0 -155.5 -37 t-124 -102.5t-81 -154.5t-28.5 -194zM1079 561h596q6 41 4 76q-2 117 -67 187.5t-176 70.5q-63 0 -122 -24.5t-106 -68.5t-80.5 -105.5t-48.5 -135.5z" />
<glyph unicode="&#x178;" horiz-adv-x="1210" d="M160 1376h178l305 -635l485 635h195l-618 -794l-103 -582h-170l105 594zM478 1665q0 49 32.5 82t81.5 33q39 0 62.5 -23.5t23.5 -62.5q0 -47 -33.5 -81t-80.5 -34q-39 0 -62.5 23.5t-23.5 62.5zM906 1665q0 49 33.5 82t80.5 33q39 0 62.5 -23.5t23.5 -62.5 q0 -47 -32.5 -81t-81.5 -34q-39 0 -62.5 23.5t-23.5 62.5z" />
<glyph unicode="&#x2c6;" horiz-adv-x="491" d="M57 1219l291 235h105l209 -248l-80 -73l-191 204l-272 -207z" />
<glyph unicode="&#x2dc;" horiz-adv-x="491" d="M63 1235q25 72 77 116t122 44q39 0 71 -12.5t60.5 -26t56 -25.5t58.5 -12t56.5 20.5t39.5 55.5l98 -33q-25 -72 -77 -116t-121 -44q-39 0 -71 12.5t-60.5 25.5t-56 25.5t-58.5 12.5t-57.5 -20.5t-38.5 -55.5z" />
<glyph unicode="&#x2000;" horiz-adv-x="939" />
<glyph unicode="&#x2001;" horiz-adv-x="1878" />
<glyph unicode="&#x2002;" horiz-adv-x="939" />
<glyph unicode="&#x2003;" horiz-adv-x="1878" />
<glyph unicode="&#x2004;" horiz-adv-x="626" />
<glyph unicode="&#x2005;" horiz-adv-x="469" />
<glyph unicode="&#x2006;" horiz-adv-x="313" />
<glyph unicode="&#x2007;" horiz-adv-x="313" />
<glyph unicode="&#x2008;" horiz-adv-x="234" />
<glyph unicode="&#x2009;" horiz-adv-x="375" />
<glyph unicode="&#x200a;" horiz-adv-x="104" />
<glyph unicode="&#x2010;" horiz-adv-x="655" d="M45 446l23 127h548l-24 -127h-547z" />
<glyph unicode="&#x2011;" horiz-adv-x="655" d="M45 446l23 127h548l-24 -127h-547z" />
<glyph unicode="&#x2012;" horiz-adv-x="655" d="M45 446l23 127h548l-24 -127h-547z" />
<glyph unicode="&#x2013;" horiz-adv-x="983" d="M45 446l23 127h876l-24 -127h-875z" />
<glyph unicode="&#x2014;" horiz-adv-x="1966" d="M45 446l23 127h1859l-24 -127h-1858z" />
<glyph unicode="&#x2018;" horiz-adv-x="505" d="M221 989q0 115 78 227.5t213 184.5l47 -68q-84 -53 -133 -114.5t-66 -133.5q41 2 68 -23.5t27 -66.5q0 -55 -37 -93t-94 -38q-47 0 -75 34t-28 91z" />
<glyph unicode="&#x2019;" horiz-adv-x="505" d="M168 928q168 106 199 248q-41 -2 -67.5 22.5t-26.5 67.5q0 55 37.5 92t93.5 37q47 0 74.5 -33t27.5 -92q0 -115 -78 -227.5t-213 -184.5z" />
<glyph unicode="&#x201a;" horiz-adv-x="505" d="M-39 -258q168 106 199 248q-41 -2 -67.5 22.5t-26.5 67.5q0 55 37.5 92t93.5 37q47 0 74.5 -33t27.5 -92q0 -115 -78 -227.5t-213 -184.5z" />
<glyph unicode="&#x201c;" horiz-adv-x="905" d="M221 989q0 115 78 227.5t213 184.5l47 -68q-84 -53 -133 -114.5t-66 -133.5q41 2 68 -23.5t27 -66.5q0 -55 -37 -93t-94 -38q-47 0 -75 34t-28 91zM620 989q0 115 78 227.5t213 184.5l47 -68q-84 -53 -133 -114.5t-66 -133.5q41 2 68 -23.5t27 -66.5q0 -55 -37 -93 t-94 -38q-47 0 -75 34t-28 91z" />
<glyph unicode="&#x201d;" horiz-adv-x="905" d="M168 928q168 106 199 248q-41 -2 -67.5 22.5t-26.5 67.5q0 55 37.5 92t93.5 37q47 0 74.5 -33t27.5 -92q0 -115 -78 -227.5t-213 -184.5zM567 928q168 106 199 248q-41 -2 -67.5 22.5t-26.5 67.5q0 55 37.5 92t93.5 37q47 0 74.5 -33t27.5 -92q0 -115 -78 -227.5 t-213 -184.5z" />
<glyph unicode="&#x201e;" horiz-adv-x="905" d="M-39 -258q168 106 199 248q-41 -2 -67.5 22.5t-26.5 67.5q0 55 37.5 92t93.5 37q47 0 74.5 -33t27.5 -92q0 -115 -78 -227.5t-213 -184.5zM360 -258q168 106 199 248q-41 -2 -67.5 22.5t-26.5 67.5q0 55 37.5 92t93.5 37q47 0 74.5 -33t27.5 -92q0 -115 -78 -227.5 t-213 -184.5z" />
<glyph unicode="&#x2022;" horiz-adv-x="983" d="M213 590q0 61 22.5 114.5t62.5 93.5t94 63.5t116 23.5q61 0 114.5 -23.5t93.5 -63.5t63.5 -93.5t23.5 -114.5t-23.5 -115.5t-63.5 -94.5t-93.5 -62.5t-114.5 -22.5t-115.5 22.5t-94.5 62.5t-62.5 94.5t-22.5 115.5z" />
<glyph unicode="&#x2026;" horiz-adv-x="1966" d="M142 80q0 53 37.5 91t93.5 38q43 0 70.5 -26.5t27.5 -71.5q0 -53 -38 -91t-93 -38q-43 0 -70.5 26.5t-27.5 71.5zM797 80q0 53 37.5 91t93.5 38q43 0 70.5 -26.5t27.5 -71.5q0 -53 -38 -91t-93 -38q-43 0 -70.5 26.5t-27.5 71.5zM1452 80q0 53 37.5 91t93.5 38 q43 0 70.5 -26.5t27.5 -71.5q0 -53 -38 -91t-93 -38q-43 0 -70.5 26.5t-27.5 71.5z" />
<glyph unicode="&#x202f;" horiz-adv-x="375" />
<glyph unicode="&#x2039;" horiz-adv-x="636" d="M55 469l15 84l479 451l86 -89l-418 -417l272 -406l-106 -72z" />
<glyph unicode="&#x203a;" horiz-adv-x="636" d="M6 104l418 418l-270 406l104 71l330 -448l-15 -84l-481 -451z" />
<glyph unicode="&#x205f;" horiz-adv-x="469" />
<glyph unicode="&#x20ac;" d="M70 506l18 102h139q0 51 7.5 98.5t17.5 94.5h-129l18 102h144q39 113 100 205t142 156.5t178.5 100.5t205.5 36q193 0 369 -113l-70 -112q-141 94 -295 94q-162 0 -282.5 -99.5t-179.5 -267.5h522l-19 -102h-546q-10 -47 -17.5 -94.5t-7.5 -98.5h539l-21 -102h-514 q12 -188 108.5 -294t247.5 -106q74 0 143.5 15.5t135.5 50.5l47 -117q-82 -41 -171 -60.5t-185 -19.5q-104 0 -191.5 37t-152 105.5t-102.5 167t-44 221.5h-155z" />
<glyph unicode="&#x2122;" horiz-adv-x="1929" d="M131 1276v100h703v-100h-289v-752h-127v752h-287zM1022 524v852h127l297 -405l297 405h127v-852h-119v678l-268 -368h-74l-270 368v-678h-117z" />
<glyph unicode="&#x25fc;" horiz-adv-x="993" d="M0 0v993h993v-993h-993z" />
</font>
</defs>
</svg>
